<?xml version="1.0" encoding="utf-8"?>
<!-- Generator: Adobe Illustrator 28.0.0, SVG Export Plug-In . SVG Version: 6.00 Build 0)  -->
<svg version="1.1" id="Layer_1" xmlns="http://www.w3.org/2000/svg" xmlns:xlink="http://www.w3.org/1999/xlink" x="0px" y="0px"
	 viewBox="0 0 1080 1080" style="enable-background:new 0 0 1080 1080;" xml:space="preserve">
<style type="text/css">
	.st0{fill:url(#SVGID_1_);}
	.st1{fill:url(#SVGID_00000036241147673430718560000015463340158232518839_);}
	.st2{opacity:0.5;fill:url(#SVGID_00000173161770822118564000000002332924952114176187_);}
	.st3{opacity:0.9;fill:url(#SVGID_00000154401809789596571080000002148205314741799095_);}
	.st4{opacity:0.48;fill:#C9A093;}
	.st5{opacity:0.5;fill:url(#SVGID_00000005267997452357686780000016706085347153664391_);}
	.st6{opacity:0.9;fill:url(#SVGID_00000092427558834563652480000011688259409128194746_);}
	.st7{opacity:0.58;fill:url(#SVGID_00000159431886447913629610000009508513253473718161_);}
	.st8{opacity:0.9;fill:url(#SVGID_00000000202671014008064620000004810389066096970118_);}
	.st9{fill:url(#SVGID_00000163062742555516944210000003084667112632926375_);}
	.st10{fill:#380447;}
	.st11{fill:url(#SVGID_00000103243364515598169570000006999127720935228808_);}
	.st12{fill:url(#SVGID_00000155130837041225969230000005729094125967158961_);}
	.st13{fill:#320D2A;}
	.st14{opacity:0.6;fill:#C9A093;}
	.st15{fill:url(#SVGID_00000042006077310474972960000014291538836974780597_);}
	.st16{opacity:0.5;fill:url(#SVGID_00000032637552820240512380000007235446212527659906_);}
	.st17{fill:url(#SVGID_00000030460116358478167380000015336830559905855914_);}
	.st18{fill:url(#SVGID_00000105397327089760161700000012838129927480016279_);}
</style>
<g>
	<g>
		<g>
			<radialGradient id="SVGID_1_" cx="547.3919" cy="766.3416" r="413.8833" gradientUnits="userSpaceOnUse">
				<stop  offset="1.955310e-02" style="stop-color:#FF5B54"/>
				<stop  offset="5.483088e-02" style="stop-color:#EF554F"/>
				<stop  offset="0.2027" style="stop-color:#B13F3A"/>
				<stop  offset="0.3492" style="stop-color:#7B2C28"/>
				<stop  offset="0.4907" style="stop-color:#4F1C1A"/>
				<stop  offset="0.6262" style="stop-color:#2C100F"/>
				<stop  offset="0.7541" style="stop-color:#140707"/>
				<stop  offset="0.8714" style="stop-color:#050202"/>
				<stop  offset="0.9684" style="stop-color:#000000"/>
			</radialGradient>
			<path class="st0" d="M536.8,1064.9L429,924.7L516.5,789l32.1,54.5l-8-86.6l29.5-21.4l25.9,14.3c0,0,106.3,120.8,103.6,121.5
				C696.9,872,536.8,1064.9,536.8,1064.9z"/>
			
				<linearGradient id="SVGID_00000100358769982489746060000014083978544042033583_" gradientUnits="userSpaceOnUse" x1="553.1605" y1="571.6815" x2="623.9573" y2="1987.6191">
				<stop  offset="0" style="stop-color:#311452"/>
				<stop  offset="0.4944" style="stop-color:#542C6D"/>
				<stop  offset="1" style="stop-color:#552869"/>
			</linearGradient>
			<polygon style="fill:url(#SVGID_00000100358769982489746060000014083978544042033583_);" points="536.8,1064.9 439.3,924 
				519.2,804.6 550.6,856.1 549.3,765 572.6,746.1 596.5,762.4 699.6,871.2 666.9,943.5 666.3,973.1 582,1080 			"/>
			
				<linearGradient id="SVGID_00000150791367404488254130000010565441681161225388_" gradientUnits="userSpaceOnUse" x1="575.3486" y1="811.9286" x2="532.4342" y2="996.2488">
				<stop  offset="0" style="stop-color:#DF7AFF"/>
				<stop  offset="1" style="stop-color:#901DA3"/>
			</linearGradient>
			<polygon style="opacity:0.5;fill:url(#SVGID_00000150791367404488254130000010565441681161225388_);" points="604.5,845.5 
				549.3,765 550.6,856.1 570.7,977.7 			"/>
			
				<linearGradient id="SVGID_00000097500109826323071750000003977847195655811003_" gradientUnits="userSpaceOnUse" x1="589.2924" y1="876.9297" x2="516.8298" y2="900.1459">
				<stop  offset="0" style="stop-color:#D39AFF"/>
				<stop  offset="1" style="stop-color:#FFFFFF"/>
			</linearGradient>
			<path style="opacity:0.9;fill:url(#SVGID_00000097500109826323071750000003977847195655811003_);" d="M519.2,804.6
				c-0.5,3.6,51.6,173.1,51.6,173.1l-20.1-121.6L519.2,804.6z"/>
			<polygon class="st4" points="536.8,1064.9 549.4,1058.5 581.2,1079.7 			"/>
			<path class="st4" d="M439.3,924l34.9-9.8l11.8-3.5l41.7-73.8c0,0-6.6-33.5-8.6-32.3C517.2,805.7,439.3,924,439.3,924z"/>
			<path class="st4" d="M439.3,924l97.5,140.8L486,910.7l42.3-73c0,0-8.2-33.7-9.1-33.1C517.2,805.7,439.3,924,439.3,924z"/>
			<polygon class="st4" points="549.3,765 577.3,766.3 572.6,746.1 			"/>
			
				<linearGradient id="SVGID_00000019637036777547036080000000758401881220777856_" gradientUnits="userSpaceOnUse" x1="639.7303" y1="1008.9747" x2="628.7562" y2="932.8207">
				<stop  offset="0" style="stop-color:#DF7AFF"/>
				<stop  offset="1" style="stop-color:#901DA3"/>
			</linearGradient>
			<polygon style="opacity:0.5;fill:url(#SVGID_00000019637036777547036080000000758401881220777856_);" points="666.9,943.5 
				605.6,1026 666.7,954.2 			"/>
			
				<linearGradient id="SVGID_00000027590182248668841630000003925717643100590766_" gradientUnits="userSpaceOnUse" x1="590.2454" y1="811.235" x2="601.8396" y2="1173.4237">
				<stop  offset="0" style="stop-color:#D39AFF"/>
				<stop  offset="1" style="stop-color:#FFFFFF"/>
			</linearGradient>
			<polygon style="opacity:0.9;fill:url(#SVGID_00000027590182248668841630000003925717643100590766_);" points="549.4,1058.5 
				536.8,1064.9 486,910.7 527.7,836.9 550.6,856.1 549.3,765 604,843.8 699.6,871.2 666.9,943.5 666.7,954.2 581.2,1079.7 			"/>
			
				<radialGradient id="SVGID_00000015336363406481049050000010463853938812321704_" cx="445.0965" cy="870.3084" r="110.898" gradientUnits="userSpaceOnUse">
				<stop  offset="0" style="stop-color:#6058FF"/>
				<stop  offset="0.433" style="stop-color:#4B2C9F"/>
				<stop  offset="1" style="stop-color:#000000"/>
			</radialGradient>
			<polygon style="opacity:0.58;fill:url(#SVGID_00000015336363406481049050000010463853938812321704_);" points="489.4,996.4 
				439.3,924 519.2,804.6 443.8,923.3 			"/>
			
				<linearGradient id="SVGID_00000001639713051248716170000005905407800495000469_" gradientUnits="userSpaceOnUse" x1="556.2795" y1="1079.3821" x2="579.978" y2="1019.8018">
				<stop  offset="0" style="stop-color:#D39AFF"/>
				<stop  offset="1" style="stop-color:#FFFFFF"/>
			</linearGradient>
			<path style="opacity:0.9;fill:url(#SVGID_00000001639713051248716170000005905407800495000469_);" d="M549.4,1058.5
				c0,0,33,22.4,32.7,21.5c-0.3-0.9-11.3-102.3-11.3-102.3L549.4,1058.5z"/>
		</g>
	</g>
	<g>
		
			<radialGradient id="SVGID_00000040559875500587089040000002014955872588126081_" cx="546.0559" cy="558.9069" r="177.9492" gradientUnits="userSpaceOnUse">
			<stop  offset="1.955310e-02" style="stop-color:#FF5B54"/>
			<stop  offset="5.483088e-02" style="stop-color:#EF554F"/>
			<stop  offset="0.2027" style="stop-color:#B13F3A"/>
			<stop  offset="0.3492" style="stop-color:#7B2C28"/>
			<stop  offset="0.4907" style="stop-color:#4F1C1A"/>
			<stop  offset="0.6262" style="stop-color:#2C100F"/>
			<stop  offset="0.7541" style="stop-color:#140707"/>
			<stop  offset="0.8714" style="stop-color:#050202"/>
			<stop  offset="0.9684" style="stop-color:#000000"/>
		</radialGradient>
		<polygon style="fill:url(#SVGID_00000040559875500587089040000002014955872588126081_);" points="518.6,658.4 465,589 
			485.5,576.8 499.4,585.1 496.3,569.8 524.3,552.7 590.2,548.6 650.3,618.7 		"/>
		<path class="st10" d="M503.1,574.2l14,76.4c0,0,24.6-3.3,23.6-4.3c-1-1-26.3-70.2-27.6-70.5C511.8,575.4,503.1,574.2,503.1,574.2z
			"/>
		
			<linearGradient id="SVGID_00000138555534127652011800000011524271506693257881_" gradientUnits="userSpaceOnUse" x1="546.9178" y1="552.9388" x2="588.5711" y2="687.9758">
			<stop  offset="0" style="stop-color:#311452"/>
			<stop  offset="0.4944" style="stop-color:#542C6D"/>
			<stop  offset="1" style="stop-color:#552869"/>
		</linearGradient>
		<path style="fill:url(#SVGID_00000138555534127652011800000011524271506693257881_);" d="M526,558.3c-1.5,0.6-23.6,15-23.6,15
			l11.5,21.9l-25.1-12.8l-13.2,8.8l43,67.2c0,0,56.4,12.8,57.1,12.1c2-2,74.6-51.7,74.6-51.7s-56.4-67.2-61.1-67.2
			C584.5,551.6,526,558.3,526,558.3z"/>
		
			<linearGradient id="SVGID_00000181796721680843604920000014591168793629630103_" gradientUnits="userSpaceOnUse" x1="568.3113" y1="450.1092" x2="581.3358" y2="542.6053" gradientTransform="matrix(0.9439 0.3303 -0.3303 0.9439 183.7098 -208.9155)">
			<stop  offset="0" style="stop-color:#311452"/>
			<stop  offset="0.4944" style="stop-color:#542C6D"/>
			<stop  offset="1" style="stop-color:#552869"/>
		</linearGradient>
		<polygon style="fill:url(#SVGID_00000181796721680843604920000014591168793629630103_);" points="517.1,412.9 561,469.3 
			620.8,419.8 599.8,372 592.7,371.7 584.5,384.7 577.1,370.9 535.8,368.8 		"/>
		<path class="st13" d="M650.3,618.7c-2.7,0-92,16.1-92,16.1l17.5,35.6L650.3,618.7z"/>
		<polygon class="st14" points="475.6,591.2 558.3,634.9 575.7,670.5 518.6,658.4 		"/>
		<path class="st10" d="M599.8,372l-7.1-0.4l12.6,39l-6,3.2l-22.2-43l-17.2-1l19.5,57.9l41.4-8C621.5,420.1,599.8,372,599.8,372z"/>
		<path class="st14" d="M517.1,412.9c0,0,63.1,14,62.3,14.9c-0.8,0.8-18.4,41.5-18.4,41.5L517.1,412.9z"/>
	</g>
	<polygon class="st10" points="424.4,140.3 461,168.6 460.1,220.6 	"/>
	
		<linearGradient id="SVGID_00000121983380230606958050000015953076931699297461_" gradientUnits="userSpaceOnUse" x1="644.4003" y1="6.0765" x2="324.7309" y2="501.3676">
		<stop  offset="0" style="stop-color:#311452"/>
		<stop  offset="0.4944" style="stop-color:#542C6D"/>
		<stop  offset="1" style="stop-color:#552869"/>
	</linearGradient>
	<path style="fill:url(#SVGID_00000121983380230606958050000015953076931699297461_);" d="M435.6,0l5.2,71.7l19.2,148.9l-35.6-80.4
		l17.8,100.6l239.7,36.6l26-149.8C698.1,127.7,578.6,51,500.3,0H435.6z"/>
	<path class="st14" d="M442.2,240.9l97.9-36.6c0,0,153.9,75.4,141.8,73.2C669.8,275.3,442.2,240.9,442.2,240.9z"/>
	<polygon class="st10" points="540.1,204.3 543.7,28.8 707.9,127.7 681.9,277.5 	"/>
	
		<linearGradient id="SVGID_00000043432579459193060540000006330832235158015381_" gradientUnits="userSpaceOnUse" x1="478.5072" y1="102.1645" x2="540.4877" y2="102.1645">
		<stop  offset="0" style="stop-color:#DF7AFF"/>
		<stop  offset="1" style="stop-color:#901DA3"/>
	</linearGradient>
	<path style="opacity:0.5;fill:url(#SVGID_00000043432579459193060540000006330832235158015381_);" d="M490.4,0h-2.7
		c8.5,42.3,21.4,100.8,30.3,121.8c14.4,34.2,22.1,82.5,22.1,82.5l0.4-13.5c0,0-14.1-64.4-19.7-71.5C517.2,115,501.6,48.9,490.4,0z"
		/>
	<g>
		
			<linearGradient id="SVGID_00000056427687570695289430000011453438884668686232_" gradientUnits="userSpaceOnUse" x1="849.7282" y1="-48.9745" x2="645.8453" y2="266.9186">
			<stop  offset="0" style="stop-color:#311452"/>
			<stop  offset="0.4944" style="stop-color:#542C6D"/>
			<stop  offset="1" style="stop-color:#552869"/>
		</linearGradient>
		<path style="fill:url(#SVGID_00000056427687570695289430000011453438884668686232_);" d="M701.5,0c-30.4,23.8-61.9,48.4-61.9,48.4
			s118.3,65.3,119.7,64.8c0.9-0.3,89.8-15.8,150.3-26.5V44.7C886,31.1,858.1,14.8,832.7,0H701.5z"/>
		<polygon class="st14" points="639.6,48.4 821.3,100.5 759.3,113.2 		"/>
	</g>
	<g>
		
			<linearGradient id="SVGID_00000019665935889098696000000013353130890646904507_" gradientUnits="userSpaceOnUse" x1="380.4428" y1="-104.6828" x2="101.166" y2="328.0244">
			<stop  offset="0" style="stop-color:#311452"/>
			<stop  offset="0.4944" style="stop-color:#542C6D"/>
			<stop  offset="1" style="stop-color:#552869"/>
		</linearGradient>
		<path style="fill:url(#SVGID_00000019665935889098696000000013353130890646904507_);" d="M170.4,0
			c32.2,51.5,83.6,132.9,83.6,132.9s105.2,17.4,105.2,16c0-0.9-3.5-89.3-5.9-148.8H170.4z"/>
		<polygon class="st14" points="254.1,132.9 338.6,110.8 359.2,148.8 		"/>
		<path class="st10" d="M327.5,0l11,110.8l20.7,38c0,0-3.9-89-6.3-148.8H327.5z"/>
	</g>
</g>
</svg>
