<?xml version="1.0" encoding="utf-8"?>
<!-- Generator: Adobe Illustrator 28.1.0, SVG Export Plug-In . SVG Version: 6.00 Build 0)  -->
<svg version="1.1" id="cave" xmlns="http://www.w3.org/2000/svg" xmlns:xlink="http://www.w3.org/1999/xlink" x="0px" y="0px"
	 viewBox="0 0 944.3 343.1" style="enable-background:new 0 0 944.3 343.1;" xml:space="preserve">
<style type="text/css">
	.st0{fill:#1E1939;}
	.st1{fill:#7D60BE;}
	.st2{fill:#B594D9;}
</style>
<path class="st0" d="M942.4,16.5c-10-9.6-17.4-14.9-19.5-13.4c-8.9,6.4-47.2,8.4-51.3,8s-9.8,2.8-12.3,4c-2.5,1.2-4.2,3.6-5.8,3.9
	c-1.6,0.3-9.8,1.1-13.5,1.8c-2.7,0.5-2.5,0-4.6,3.5s-3.3,5.7-5.3,7c-2.1,1.3-8.2,5.6-9.2,5.8c-1.1,0.1-0.9,0.8-4.1,3.5
	c-3.2,2.7-4.1-0.5-10.6-2.8c-2.3-0.8-12.1-3.2-20.2-5.6s-9,0.8-15.7,0.7c-6.6-0.1-6.9-0.5-8.9,1.9s-5.3,6.1-9.8,12.5
	c-4.5,6.4-2.3,6.2-7.2,4.1c-7.1-3-7.1-3-10.8-3s-11.8,0.1-18.4,0.1s-8.5-2.7-11.4-6.9c-2.9-4.2-2-3-9.7-6.2s-7.2,2.1-13.8-0.8
	s-7-4-11.2,0.1c-4.1,4.1-5.1,1.9-6.9,0.1c-1.8-1.7-7.7-8.4-13.5-13.3c-5.8-4.9-4.8-4-12.9-2.6c-8.1,1.4-43.5-3.4-48.5-0.5
	c-5.1,2.8-23.8-2.8-28.6-6c-4.8-3.2-4.8-2.4-6.5-0.8c-1.7,1.6-3.3-0.5-4.8-2.5c-1.5-2-6.6-7.9-7.5-8.7S534,4,531,8.4s-1.9,4.1-2,6.4
	c-0.1,2.3-1.2,7.4-1.2,9.3s0.9,2.8-2.5,1.9c-3.4-0.9-4.1,0-7.6,3.5c-3.5,3.5-21.4,26-24.4,26s-29.9-5.3-31.8-6.4
	c-1.9-1.1-11.5-3-15.8-2.9c-4.2,0.1-12.8,0.8-18.5,0s-18.8-2.6-22.5-2.8c-3.8-0.1-19.4,0.1-21.6,0c-2.2-0.1-19.1-9.1-21.5-9.2
	c-2.4-0.1-12.4,0.1-13.6-0.1c-1.2-0.2-12-4.1-14.9-4.8s-8.1,0.9-10.7,0.9c-2.5,0.1-15.3,0.7-18-0.1c-2.6-0.8-14.9-6.6-17.4-6.1
	c-2.5,0.5-9.4,2-10.4,2s-4-2.2-5.8-3.7c-1.8-1.5-2.6-3.7-6.4,0.2c-3.8,3.8-11,7.3-11,7.3s-12.8-9.7-15.7-11.2
	c-2.9-1.4-5,1.3-7.7,3.2c-2.7,1.9-8.9,2.7-10.5,5.9s-2.6,8.5-5.6,11.5s-4.9,6.6-7.9,4.4c-3-2.2-8.9-8.7-11.5-9.5
	c-2.6-0.8-7.1-1.6-9.3-0.5c-2.2,1.1-14.4,13.7-19.7,13.8s-18-1.9-21-3.6c-3-1.7-11.4-6.3-17.6-6.4c-6.2-0.2-33.6-1.7-37.7-2.6
	c-4.2-0.8-26.5-7.2-34.5-8.5C32.5,22.7,13.4,23.2-1.9,29L0,343.1h944.3L942.4,16.5L942.4,16.5z"/>
<path class="st1" d="M767.4,60.4c-0.7-0.2-1.4-0.2-2.1-0.1c-0.4,0-0.8,0.1-1.2,0.2c-0.4,0-0.8,0-1.2,0c-2.5-0.1-4.9-1-7.4-0.4
	c-0.7,0.2-1.4,0.4-2.1,0.3c-1.2-0.2-2.3-1.1-3.3-1.7c-1.2-0.7-2.5-1.3-3.8-1.7c-1.4-0.5-2.7-1-4.1-1.5c-2.9-1.1-5.8-0.6-8.7,0.4
	c-1.9,0.7-3.7,1.2-5.5,1.9c-1.9,0.7-4.3-0.1-5.9,1.1c0.2-0.2,3.2,0.6,3.7,0.6c1.3,0,2.6-0.2,3.8-0.5c2.7-0.7,4.8-1.8,7.7-1.4
	c0.4,0.1,0.8,0.2,1.2,0.2c0.7,0.1,1.4,0,2.1-0.1c2.4-0.3,4.1,0.2,6.4,1.2c1.9,0.8,3.5,2.3,5.4,3c1.2,0.4,2.3,0.1,3.5-0.1
	c0.7-0.1,1.4-0.2,2.1-0.2c0.1,0.1,0.1,0.1,0.2,0.2c2.1,1.5,3.8,1.1,6,0.2c1.4-0.6,2.9-0.9,4.3-0.9C768.1,60.6,767.8,60.5,767.4,60.4
	L767.4,60.4z"/>
<path class="st1" d="M337.6,39.2c-2.1,0.4-4.2-0.7-6.2-0.2c-1.8,0.5-3.3,1-5.2,0.7c-1.1-0.2-3.3-0.5-3.3-0.5s-5,1.2-4.9,1.8
	c0,0.3,0,0.6,0,0.9c-1.5-0.3-3.1-0.5-4.6-0.5c-0.9,0-1.9,0-2.7-0.5c-0.1-0.1-0.3-0.2-0.4-0.2c-0.2,0-0.4,0-0.6,0
	c-2.3,0.5-3.8,3.4-6.2,3.8c-0.8,0.2-2.2,0-2.9,0c-0.8,0.1-1,0.5-1.9,0.8c0.3,0,1.5-0.3,1.9-0.3c0.9-0.1,1.2,0,2.1,0.1
	c2.2,0.5,2.8,0,4.6-1.2c0.8-0.5,1.4-1.4,2.2-1.8c0.3-0.2,0.7-0.3,1-0.1c0.3,0.2,0.5,0.5,0.9,0.7c0.8,0.3,1.9,0.2,2.8,0.5
	c1,0.3,2.1,0.6,3.2,1c-0.8,0-1.5,0.2-2.2,0.5c1.5,0.7,2.7,0.9,4.3,0.9c0,0,0.1,0,0.1,0c0,0,0,0,0,0c0.2,0,0.3,0.1,0.5,0.1
	c1,0.3,2,0.8,2.9,0.9c0.1,0,0.3,0,0.4,0c0.5,0.2,1.1,0.3,1.7,0.4c3.1,0.4,6.3,1.3,9.5,1.3c-0.9,0-6.6-2.5-6.4-3.5
	c0.1-0.3-0.3-0.4-0.6-0.5c-1.3-0.2-2.3-0.8-3.5-1.2c-1.3-0.5-3-0.4-4.4-0.6c2.2-1.5,7.5-0.8,7.5-0.8s0,0,0,0
	c0.1,0.2,3.2,0.6,4.2,0.3c1.2-0.1,2.3-0.3,3.1-0.9c0.8-0.7,2.7-0.5,3.7-0.9c1.1-0.4,2.1-0.7,3.2-1C340.8,38.6,337.7,39.2,337.6,39.2
	L337.6,39.2z"/>
<path class="st1" d="M198,55.1c-0.1,0-0.2,0-0.3,0c-1.6,0.1-3.2-0.3-4.8-0.6c-0.4-0.1-0.8-0.2-1.2-0.3c-0.8-0.2-1.5-0.3-2.2-0.6
	c-0.5-0.2-0.8-0.5-1.2-0.8c-0.9-0.7-2-1-3.2-1.1c-2.3-0.2-4.6,0.6-6.7,1.5c-2.1,0.9-4.2,1.4-6.4,1.9c-1.1,0.2-2.2,0.8-3.3,0.9
	c-1.1,0.1-2-0.1-3.1,0.2c-0.7,0.2-1.4,0.4-2,0.1c0.8,0.6,1.9,0.2,2.9,0.3c0.5,0.1,1,0.3,1.5,0.4c0.9,0.2,1.9,0.1,2.8-0.2
	c2.3-0.6,4.7-0.8,7-1.7c1.6-0.7,4-2.1,5.8-1.9c0.8,0.1,0.8,0.6,1.4,1.2c0.7,0.7,1.6,0.6,2.4,1.1c0.3,0.2,0.6,0.5,0.9,0.7
	c0.4,0.2,0.8,0.2,1.2,0.3c1.1,0.1,2.2,0.2,3.3,0.3c1,0.1,1.9-0.5,2.8-0.3c0.2,0,0.4,0.1,0.6,0.2c0.9,0.2,1.8,0,2.5-0.3
	c0.7-0.3,1.6-0.7,2.3-1.1C200.1,54.7,199,54.9,198,55.1L198,55.1z"/>
<path class="st1" d="M216.4,45.6c1.5-0.6,3-0.9,4.5-1.1c-1.2,0-2.3-0.7-3.6-0.8c-0.4,0-0.7,0-1.1,0c-0.8,0-1.7-0.2-2.5-0.6
	c-0.1-0.1-0.3-0.2-0.4-0.2c-0.2,0-0.4,0-0.6,0.1c-0.8,0.2-1-0.3-1.8-0.3c-1.4,0-3.3,0.5-4.7,0.6c-1.5,0.1-2.9,0.4-4.3,0.8
	c-2,0.6-4,1-6.1,1.2c0.5,0.2,1.1,0.3,1.6,0.3c0.2,0,0.5,0,0.7,0c1.1,0,2.2,0.3,3.3,0.6c-1.9,0.3-3.8,0.4-5.6,0.8
	c-1.3,0.3-2.6,0.9-4,0.9c-1.2,0-2.2-0.3-3.3,0.4c-0.4-0.1-1.2-0.1-1.2-0.1s-2.4-0.3-2.4-0.3c-1.6-0.5-5-0.7-5.1-0.6
	c-0.7-0.2-2.2-0.3-2.2-0.3l-1.3-0.4c0,0-2.1-0.4-3.1-0.5c-1.1-0.1-2.2-0.6-3.3-0.5c-4.5,0.5-7.2,4.1-11.2,5.7c0,0.1,3.3,0.2,3.6,0.2
	c1.2-0.2,2.2-1.4,3.2-2c1.2-0.7,2.4-0.8,3.7-1.2c1.5-0.4,3.2-0.3,4.7,0.3c0.7,0.3,1.3,0.7,2.1,0.7c0.4,0,0.8-0.1,1.2-0.2
	c4.4-0.6,8.1,3,12.7,2.3c1.3-0.2,2.6-0.7,3.8-1.1c2-0.8,3.8-1.6,6-1.6c1.8,0,3.5,0.1,5.2-0.2c1.3-0.3,2.6-0.9,3.9-0.8
	c1.3,0.1,2.4,0.7,3.7,0.8c1.2,0.1,2.6-0.2,3.8-0.4c0.2-0.1,0.3-0.4,0.1-0.6c-0.6-0.5-1.3-1-2.1-1.2c0.4-0.2,0.8-0.4,1.3-0.6
	C216,45.7,216.2,45.6,216.4,45.6L216.4,45.6z"/>
<path class="st1" d="M385.9,64.8c-0.2-0.2-0.5-0.3-0.7-0.3c-0.1,0-0.2-0.1-0.3-0.2c-0.2-0.3,0.3-0.5,0.6-0.5s0.7,0.2,0.9-0.1
	c-1.8-1.1-4.1-1.2-6-0.3c-1.1,0.5-1.9,1.3-3,1.8c0.8,0,1.8,0.2,2.6-0.1c0.7-0.2,1.2-0.7,1.9-0.7c0.1,0,0.2,0,0.2,0
	c0.1,0,0.1,0.1,0.1,0.2c0.1,0.2,0.4,0.3,0.6,0.3c0.5,0.1,1,0.3,1.4,0.6c0.3,0.2,0.7,0.5,1,0.6c0.6,0.2,1.4,0,1.9-0.2
	C386.8,65.5,386.4,65.1,385.9,64.8L385.9,64.8z"/>
<path class="st1" d="M378.9,62.2c0.2,0,0.4,0.1,0.6,0.1c0-0.5-0.4-0.9-0.7-1.2c-0.2-0.2-0.4-0.5-0.7-0.7c-0.1-0.1-0.2-0.2-0.4-0.3
	s-0.3-0.2-0.5-0.2c-1.3-0.5-2.7-1-4-1.4c-0.6-0.2-1.3-0.5-1.9-0.3c-0.5,0.1-0.8,0.6-1.3,0.8c-0.6,0.2-1.4,0.1-2,0.1
	c-1.3,0.1-2.6,1.1-3.5,1.9c0.9-0.2,1.8-0.3,2.6-0.5c0.2,0,0.4-0.1,0.6-0.1c0.2,0,0.3,0.1,0.4,0.1c1,0.2,2,0,2.9-0.3
	c0.3-0.1,0.5-0.3,0.9-0.3c0.2,0,1,0.3,1.1,0.2c-1,0.6-2,1.2-2.9,2c1.6-0.1,3.3-0.5,4.9-0.5c0.5,0,1,0.1,1.6,0.2
	C377.4,61.9,378.1,62,378.9,62.2L378.9,62.2z"/>
<path class="st1" d="M401.8,72.3c-0.5-0.5-0.7-1-1.2-1.5c-0.6-0.6-1.6-0.7-2.4-0.7c-1.9,0-3.6,0.8-5.5,1.1c-1.3,0.2-2.6,0.3-3.6,1.2
	c0.8-0.7,3.4,0.2,4.3,0.4c1.2,0.3,2.6-0.4,3.7,0c0.3,0.1,0.7,0.4,1,0.4c0.5,0,0.9-0.4,1.4-0.5c0.6-0.2,1.2,0.1,1.6,0.4
	c0.7,0.5,1.6,1.4,2.5,1.1c-0.4-0.3-0.4-0.8-0.7-1.1c-0.2-0.2-0.4-0.3-0.7-0.5C402.1,72.5,401.9,72.4,401.8,72.3L401.8,72.3z"/>
<path class="st1" d="M422.5,70.4c-0.2,0.2-0.3,0.2-0.6,0.3c-0.2,0-0.4-0.2-0.6-0.3c-0.6-0.1-0.6-0.2-1.2-0.3c-0.2,0-1,0-1,0
	s0.1-0.3,0.3-0.4c0.3-0.2,1.2-0.2,1.2-0.2l0.6,0.4L422.5,70.4L422.5,70.4z"/>
<path class="st1" d="M571.6,45.6c-0.2,0-0.4-0.1-0.6-0.1c-0.5-0.1-1-0.2-1.5-0.1c-0.5,0.1-1,0.3-1.4,0.6c-0.2,0.1-0.4,0.2-0.6,0.4
	c-0.4,0.3-0.5,0.8-0.6,1.3c0,0.5,0.1,1,0.1,1.5c0-0.4,0.5-0.6,0.8-0.9c0.1-0.1,0.2-0.3,0.3-0.4c0.4-0.7,1-0.9,1.8-1.2
	c0.5-0.2,2.1-1,2.7-0.9C572.2,45.7,571.9,45.7,571.6,45.6L571.6,45.6z"/>
<path class="st1" d="M574.7,32.2c0.5-0.2,1.2-0.2,1.8,0c0.1-0.1,0.1-0.2,0-0.3s-0.2-0.1-0.3-0.1c-0.8-0.2-2.3-0.8-3.1-0.2
	c-0.4,0.3-0.4,1-0.7,1.4c-0.3,0.5-0.7,0.9-1.2,1.2c-0.2,0.1-0.4,0.3-0.3,0.5c0.3-0.2,0.8,0,1.1-0.2c0.1,0,0.1-0.1,0.2-0.2
	C572.9,33.5,573.6,32.5,574.7,32.2L574.7,32.2z"/>
<path class="st1" d="M784.3,54.3c0.6,0.2,1.2,0.3,1.9,0.4c-0.5-0.5-1.1-0.6-1.7-1c-0.6-0.4-1.2-1.1-1.9-1.4
	c-1.1-0.5-2.5-0.6-3.5-1.1c-0.9-0.5-2-0.7-3-0.7c-1.5,0-2.9-0.6-4.2-0.7c-1.4-0.1-2.8,1-3.9,1.8c-1,0.8-0.9,1.3-2.3,3
	c1.3-0.8,2.7-1.6,4-2.4c0.2-0.1,0.3-0.2,0.6-0.3c0.5-0.1,0.9,0.1,1.4,0.2c1.4,0.3,2.7-0.4,4.1-0.1c1.2,0.3,2.4,1,3.7,1.3
	c0.8,0.2,1.4-0.3,2.4,0.1C782.7,53.7,783.5,54,784.3,54.3L784.3,54.3z"/>
<path class="st1" d="M798.3,63.8c-0.2-0.6-0.6-1-1.3-1c-0.6,0.1-1,0.6-1.3,1.1c0.3-0.1,0.8,0.1,1.1-0.1c0.1-0.1,0.2-0.2,0.3-0.2
	c0.1,0,0.1,0.1,0.2,0.1c0.1,0,0.2,0,0.2,0c0.4,0,0.8,0.4,1.1,0.7C798.4,64.3,798.4,64,798.3,63.8L798.3,63.8z"/>
<path class="st1" d="M791,56.3c0,0-0.1,0-0.1,0c-0.3-0.1-2.5,1.2-2.4,1.3c0,0.1,0.8-0.1,1.2-0.2c0.4-0.2,0.8-0.3,1.2-0.1
	c0.3,0.1,0.5,0.3,0.7,0.5c0.2,0.2,0.5,0.3,0.8,0.3C791.6,57.7,791.8,56.6,791,56.3L791,56.3z"/>
<path class="st1" d="M815.9,66.6c0-0.3-0.2-0.7-0.3-0.8c-0.2-0.2-0.3-0.5-0.5-0.8c-0.3-0.4-0.8-0.6-1.2-0.4c-0.1,0-0.3,0.1-0.4,0.2
	c-0.3,0.2-0.6,0.4-0.9,0.6c0.4,0.2,0.9,0.4,1.4,0.3c0.1,0,0.2,0,0.3,0c0.1,0,0.1,0,0.2,0.1c0.5,0.3,0.7,1.1,1.2,1.2c0,0,0.1,0,0.1,0
	C815.9,66.9,815.9,66.7,815.9,66.6L815.9,66.6z"/>
<path class="st1" d="M562.4,30.5c-0.4-0.2-0.8-0.4-1.3-0.5c-1.2-0.2-2.9-0.7-4.1-0.2c-0.2,0.1-0.4,0.2-0.7,0.3c-0.2,0-0.4,0-0.6,0
	c-1.1,0-2.1,0.3-3,0.9c-0.3,0.6-0.7,0.8-1.2,1.1c-0.2,0.2-0.4,0.1-0.6,0.3c-0.1,0.2-0.1,0.5-0.3,0.6c-0.1,0-0.1,0.1-0.2,0.1
	c-0.6,0.5-1.2,0.8-1.7,1.3c-1.1,0.9-1.4,2.9-2.9,3.4c-0.8,0.2-1.7,0.1-2.5,0.4s-1.2,1.2-1.7,1.7c-0.1,0.1-0.2,0.2-0.3,0.3
	s-0.2,0.1-0.4,0.2c-0.8,0.3-1.5,0.7-2.2,1.2l1.9-0.1c0.4,0,0.9,0,1.2-0.3c0.3-0.2,0.6-0.6,0.6-1c0-0.1,0-0.2,0.1-0.3
	c0.1-0.1,0.2-0.1,0.2-0.1c0.8-0.1,1.7-0.2,2.5-0.3c1.5-0.2,2-1.1,3-2c0.9-0.9,1.6,0.3,2.4-0.3c1.3-1,2.1-2.6,2.6-4.2
	c0.4-0.5,0.9-0.9,1.5-1.2c0.3-0.1,0.6-0.4,0.9-0.4c0.2,0,0.4,0.2,0.7,0.3c0.2,0.1,0.5,0.2,0.7,0.2c0.9,0.4,1.9,0.6,2.6,0.5
	c0.4,0,0.5-0.5,0.7-0.6c0.3-0.1,0.7-0.1,1-0.1c0.3,0,0.6-0.1,0.9-0.1c0.2,0,0.5,0.1,0.7,0.2c0.5,0.1,1.1,0.2,1.6,0.2
	c-0.2-0.4-0.8-0.4-1.2-0.6C563.4,31.2,562.9,30.8,562.4,30.5L562.4,30.5z"/>
<path class="st1" d="M421,62.1c-0.3-0.9-1-1.5-1.9-1.8c-0.7-0.2-1.6-0.2-2.6-0.1c-1,0.1-1.1-0.1-2,0.3c-0.3,0.1-2.1,1.2-2.3,1.1
	c0.4,0.2,0.9,0.2,1.4,0.2c0.9,0,0.8-0.2,1.7-0.2c0.4,0,1.5,0.4,1.8,0.4c0.6-0.1,1.4,0.1,2,0.1c0.3,0,0.8,0.8,0.8,0.8
	s0.4,0.3,0.7,0.5c0.2,0.2,0.7,0.2,0.9,0.1C421.4,63,421.1,62.4,421,62.1L421,62.1z"/>
<path class="st1" d="M433.1,64.3c-0.6-0.6-0.8-1.4-1.5-1.7c-0.2-0.2-1.1,0-1.3-0.1c-0.7-0.4-1.4-0.7-2.2-0.7c-0.7,0-1.4,0.8-2.1,0.8
	c-0.7,0-1.4,0.2-2,0.5c1.2,0.2,2.9,0,4,0.3c0.8,0.2,1.2,0.4,2.2,0.4c0.4,0,1.2,0.9,1.6,0.9c0.1,0,0.5,0.8,0.5,0.8s0.4,0.3,0.5,0.4
	c0.3,0.3,2.2,0.2,1.9,0.1c0-0.1-0.1-0.6-0.8-0.8C433.2,65.2,433.1,64.3,433.1,64.3L433.1,64.3z"/>
<path class="st2" d="M860.3,25.8c-0.2,0-0.4,0-0.6-0.1c-1.2-0.2-2.6-0.4-3.7-0.1c-0.2,0.1-0.5,0.2-0.7,0.2c-0.3,0-0.6-0.1-0.8-0.2
	c-0.3-0.2-0.7-0.4-0.9-0.7c-0.1-0.1-0.2-0.2-0.3-0.2c-0.1,0-0.2,0-0.3,0.1c-0.6,0.3-1.1,0.8-1.5,1.3c-0.5,0.8-0.5,1.6-1.3,2.2
	c-0.1,0.1-0.2,0.2-0.4,0.3c-0.7,0.5-1.4,1-2.1,1.5c-0.2,0.2-0.6,0.4-0.5,0.7c0.7-0.4,1.4-1,2.3-1.1c0.1,0,0.2,0,0.3,0
	c0.1,0,0.3-0.1,0.4-0.1c0.3-0.1,0.6-0.1,0.9-0.2c1.2-0.5,1.1-2,1.8-2.8c0.1,0,0.1-0.1,0.2-0.1c0.2,0.8,0.7,1.4,1.7,1.6
	c0.7,0.1,1.6,0.1,2.3,0c0.8-0.2,1.3-0.9,2.1-1.2c0.8-0.4,1.8-0.5,2.7-0.7c0.6-0.1,1.6-0.3,2.1-1.2C863.1,25.8,861.2,25.8,860.3,25.8
	L860.3,25.8z"/>
<path class="st2" d="M846.2,19.5c-0.2,0-0.4,0.1-0.6,0.1c-0.2,0-0.4,0.1-0.6,0.2c-0.5,0.1-0.9,0.2-1.4,0.2c-1.7,0.2-3.2,0.3-4.8,0.7
	c-0.6,0.2-1.2,0.3-1.8,0.5c-0.2,0.1-0.4,0.1-0.6,0.2c-0.3,0.2-0.5,0.6-0.6,0.9c-0.9,2-1.9,4-3.4,5.8c-1,1.3-2.3,2.4-3.7,3.3
	c-0.6,0.4-1.2,0.7-1.8,1.1c-0.7,0.5-1.4,1-2.1,1.5c-1.3,0.8-2.8,1-4,2c-0.3,0.3-0.6,0.5-0.9,0.8c-0.2,0.2-0.4,0.4-0.6,0.6
	c-0.8,0.9-1.1,1.6-2.1,2.3c-0.3,0.2-0.7,0.8-1,1c-0.7,0.4-1.6,0.6-2.3,0.8c0.7,0.2,1.5,0.2,2.2,0.3c0.2,0,0.3,0.1,0.5,0.1
	c0.1,0,0.2,0,0.4,0c1.5-0.2,2.8-0.4,4-1.3c1.3-0.9,2.8-1.5,4.1-2.3c2.2-1.3,3.7-3.5,5.7-5c-0.2,0.7-0.2,1.4-0.4,2
	c-0.3,0.7-0.9,1.3-1.3,1.9c-1,1.3-2,2.6-2.9,3.9c0.8-0.2,1.4-0.7,2-1.3c0.5-0.6,1-1.2,1.6-1.8c0.2-0.2,0.4-0.3,0.7-0.5
	c2.5-2,3.8-5.4,4.7-8.3c0.1-0.4,0.3-0.9,0.4-1.3c0.3-0.5,0.6-1,0.9-1.4c0.8-1.1,1.9-2.1,3-2.9c1-0.8,2.4-1.9,3.7-1.7
	c0.7,0.1,1.3,0.2,2,0.1c0.8-0.1,1.6-0.5,2.3-0.7c0.9-0.2,1.8-0.5,2.7-0.7c0.9-0.2,1.6,0,2.4,0.4c0.1,0.2,0.4,0.2,0.7,0.2
	c0.2-0.1,0.4-0.2,0.7-0.3c0.8-0.3,1.9,0.3,2.7,0.6c0.9,0.3,1.7,0.4,2.7,0.5c0.8,0,1.7,0.1,2.4-0.2c0.5-0.2,1.3-0.5,1.8-0.7
	c-1.1-0.3-2.2,0.1-3.2-0.4c-0.3-0.1-0.5-0.4-0.8-0.5c-0.8-0.5-1.6-0.8-2.6-0.9c0.6-1.2,2.3-1.4,3.5-1.8c0.7-0.2,1.3-0.5,2-0.8
	c1.5-0.8,2.7-1.9,3.9-3.1c0.8-0.7,1.4-1,2.2-1.6c0.8-0.7,2.1-0.6,3.1-0.6c-1.2-0.3-2.4-1-3.3-0.2c-0.8,0.7-1.8,0.4-2.6,1
	c-0.3,0.2-0.6,0.5-0.9,0.6c-0.2,0.1-0.5,0-0.8,0.1c-0.6,0.2-1,0.5-1.6,0.7c-1.3,0.4-2.7,0.8-3.8,1.6c-0.8,0.6-1.4,1.3-2.1,1.9
	c-0.3,0.3-0.7,0.6-1.1,0.9c-0.2,0.2-0.6,0.7-0.8,0.8c-0.1,0-0.1,0-0.1,0c-0.9-0.2-1.9,0-2.8,0.1c-1.1,0.1-2.2,0.4-3.3,0.7
	C847.7,19.4,846.9,19.4,846.2,19.5L846.2,19.5z"/>
<path class="st2" d="M773.5,35.9l-0.1-0.5c0.8-0.5,1.7-1,2.7-0.9c0.9,0.1,1.7,0.2,2.6,0.2c0.5,0,2.5,0.3,2.8-0.2
	c0.5-0.8-0.7-1.7-1.3-2c1.5-1,2.1-0.3,3.4,0.4c1.6,0.9,3.5,1.3,5.1,1.9c0.3,0.1,0.7,0.2,1.1,0.3c1.3,1,2.8,1.2,4.4,1.5
	c1.1,0.2,2.2,0.5,3.3,0.8c2,0.9,4,1,6.1,1.2c0.6,0,1.2,0.1,1.8,0.2c0.4,0.1,0.7,0.2,1.1,0.3c2.1,0.6,4.2,1.2,6.3,1.8
	c-0.9-0.5-1.2-0.8-1.7-1.1c-2.4-1.4-4.3-2.8-7.2-3.1c-0.2,0-4.9-1.8-5.1-1.8c-0.2,0-3.8-0.3-4.8-0.7c-0.2-0.1-0.4-0.1-0.5-0.1
	c-1.2-0.5-2.5-0.6-3.7-1.1c-1.5-0.6-2.8-1.3-4.3-1.6c-1.5-0.3-3.4-1-5-1c-0.8,0-1.5,0.2-2.3,0.3c-1.6,0.4-3.5,0.8-5.1,0.8
	c-1.3,0.2-2.2,0.9-3.5,0.9c-1.5,0-3.2-0.3-4.7-0.4c-0.4,0-0.8,0-1.1,0.1c-0.3,0.1-0.6,0.3-0.8,0.5c-2.8,2.3-4.7,5.2-6.8,7.9
	c2.5-1.2,4.5-2.5,6.5-4.5c0.2-0.2,0.5-0.5,0.7-0.6c1.8-1,4,0.3,5.6,1c1.4,0.6,3,1.2,4.6,0.8C773.7,36.8,773.6,36.3,773.5,35.9
	L773.5,35.9z"/>
<path class="st2" d="M739,48.7c-1.5-0.5-4.9-2.1-6.5-1.9c-0.7,0.1-1.3,0.3-2,0.3c-0.7,0-1.4-0.3-2.1-0.5c-0.7-0.2-1.3-0.4-2-0.5
	c-0.7-0.1-1.3,0.1-2,0c-0.6-0.1-1.1,0.2-1.6,0.5c-0.8,0.5-1.7,0.8-2.6,1.2c-0.4,0.2-0.8,0.3-1.2,0.4c-1.1,0.2-2.4-0.2-3.5-0.4
	c-1.3-0.2-2.6-0.5-3.8-1c-2.6-1.1-5-2.8-6.8-5c-1.5-1.9-3.4-4.4-5.6-5.6c-1.3-0.8-3.1-1-4.6-1.5c-0.4-0.1-0.8-0.3-1.2-0.5
	c-0.3-0.1-0.6-0.3-0.9-0.4c-1.1-0.4-2.6-0.2-3.8,0c-1.5,0.2-3.1,0.6-4.5,1c-2,0.5-2.7-0.2-4.2-1.3c-2-1.5-4-3.2-6.6-2.7
	c-0.6,0.1-1.1,0.3-1.7,0.4c-0.7,0.2-1.4,0.2-2,0.5c-1.1,0.4-1.6,1.3-2.5,2c-1.2,0.9-2.7,1.3-4.2,1.6c-0.1-0.6-0.5-1.3-1-1.7
	c-0.6-0.4-1.1-1-1.7-1.3c-0.5-0.3-1-0.5-1.4-0.9c-0.3-0.3-0.5-0.7-0.8-1.1c-0.4-0.5-1-1-1.6-1.4c-0.5-0.3-3.8-4.7-4.2-5
	c-0.3-0.2-4.2-4.2-7.5-5.8c-2.5-1.2-4.7-0.2-5-0.2c2.1-0.2,3.3-0.7,6,1.5c3.1,2.5,5.8,8.2,6,8.4c1.5,1.6,3.1,3.2,4.4,5
	c0.4,0.6,0.8,1.2,1.2,1.8c0.5,0.7,1.4,1.3,1.8,2c-0.9,0.4-1.9,0.2-2.8,0.5c-0.4,0.1-0.7,0.4-1,0.5c-1.7,0.8-4.4,1.2-6.2,1
	c-0.6-0.1-1.2-0.3-1.8-0.1c-0.1,0.2,0.1,0.3,0.3,0.4c2.5,1.3,5.2,1.7,8,1.2c0.4-0.1,0.8-0.2,1.2-0.2c2.6,0.2,5.1-0.5,7.2-1.9
	c0.3-0.2,0.5-0.3,0.8-0.4c0.5-0.2,1-0.2,1.5-0.4c1.7-0.5,2.6-2.2,3.9-3.3c1.3-1,3.3-2.1,5-1.5c2.1,0.7,3.7,2.3,5.1,4
	c0.6,0.7,1.1,1.5,1.8,2.2c0.7,0.6,1.7,0.7,2.3,1.3c0.8,0.8,1.8,1.5,2.9,1.9c1.1,0.8,1.8,1.7,2.9,2.3c-0.8-2.4-2.7-4.2-4.5-5.9
	c-0.4-0.4-0.9-0.7-1.2-1.1c1.2-0.9,3.4,0.5,4.8-0.4c0.2-0.1,0.3-0.2,0.3-0.4c1,0,1.9,0.4,2.8,0.8c1.6,0.8,3.2,1.7,4.7,2.6
	c0.5,0.3,1,0.7,1.5,1c1.6,1.4,5.4,4.3,5.6,4.2c0.1,0.1,2,1.6,2.9,2.3c0.9,0.7,2.5,2.8,2.5,2.8l4.4,1.6c0,0,1.8-1,2-1.2
	c0.3-0.2,0.8-0.2,1.1-0.3c0.6-0.2,1.3-0.3,1.9-0.2c1.3,0.4,2.2-0.1,3.3-0.6c1.4-0.6,3.2-0.9,4.8-0.9c2.7,0,5.4,0.8,8,0.2
	C736.1,48.5,738.8,48.8,739,48.7L739,48.7z"/>
<path class="st2" d="M554.9,10.7c0.7,0.2,5,2.5,5.8,2.7c-0.1,0-4-2.5-4.1-2.5c-0.2-0.1-0.4-0.2-0.7-0.3c-0.4-0.2-0.9-0.4-1.4-0.5
	c-0.4-0.1-0.9-0.3-1.3-0.2c-0.8,0.2-0.8,0.3-1.3,0.9c-0.2,0.2-0.5,0.3-0.8,0.7c-0.5,0.5-1,1.3-1.3,1.8c0.5-0.5,1-0.6,1.5-1.1
	c0.3-0.3,0.6-0.5,1-0.7c0.1,0,0.4-0.4,0.5-0.5c0.2-0.1,0.3-0.3,0.5-0.4c0.4-0.2,0.8-0.1,1.3,0C554.6,10.6,554.8,10.6,554.9,10.7
	L554.9,10.7z"/>
<path class="st2" d="M542.3,2.8c-0.5-0.6-1-1.3-1.5-1.9c-0.2-0.3-0.5-0.6-0.9-0.7s-0.8-0.2-1.1-0.1c-1.4,0.6-2.4,1.5-3.5,2.7
	c-0.9,0.9-1.7,1.8-2.6,2.7c-0.6,0.7-1.3,1.4-1.7,2.2c-0.3,0.6-0.9,1.2-1.2,1.8c-0.6,1.5-1.2,2.7-1.4,4.3c-0.1,1.4-0.7,2.7-1,4
	c-0.4,1.4-0.2,2.7-0.2,4.2c0,1.1-0.4,2.2-0.6,3.2c-0.6-0.3-1.1-0.7-1.6-0.9c-0.8-0.4-1.9,0.4-2.8,0.6c-2.4,0.5-2.1,1.5-4.3,2.5
	c-1,0.5-3.1,1.5-3.9,2.3c-0.5,0.5-0.9,1-1.3,1.6c-0.9,1.1-1.6,2.4-2.4,3.6c-0.6,0.6-1.3,1.2-1.7,2c-1.1,1.9-2,3.9-3.1,5.7
	c-0.7,1.2-1.5,2.2-2.3,3.3c-0.9,1.1-1.8,2.1-2.8,3.2c-0.5,0.5-1.2,1-1.6,1.5c-0.3,0.4-1.3,1.8-1.3,1.8s2.4-2.1,3.5-3.1
	c1-1,2-1.9,2.9-3c1.1-1.4,2.2-2.8,3.3-4.2c0.7-0.9,1.6-1.7,2.3-2.6c1.1-1.3,2.5-1.8,3.3-3.3c0.1-0.1,0.1-0.2,0.1-0.3
	c0,0,0.1-0.1,0.1-0.2c0.8-0.9,1.5-1.7,2.2-2.6c0.6-0.9,1.2-1.7,2.1-2.4c0.8-0.6,4.2-3.7,5.7-4.2c0.9-0.2,1.3-0.9,2-0.4
	c0.3,0.2,0.6,0.3,0.8,0.5c-0.1,0.2-0.1,0.5,0.1,0.7c0.8,1.2,2.2,1.6,3.5,1.8c1.2,0.1,3,0.5,4.1,0.3c-0.4-0.2-0.8-0.4-1.2-0.7
	c-0.3-0.2-0.5-0.4-0.8-0.6c-0.5-0.4-1.2-0.7-1.7-1c-0.8-0.5-1.2-0.9-1-1.7c0.2-0.8,0.6-1.3,0.6-2.2c0-1.5,0.6-3,0.8-4.5
	c0.2-1.5-0.3-2.8-0.2-4.2c0.1-1,0.6-2.4,0.9-3.3c0.3-0.9,1.1-1.2,1.7-1.7c0.6-0.5,0.9-1.1,1.5-1.5c1-0.8,2.1-1.4,2.8-2.5
	c0.2-0.3,0.1-0.6-0.1-0.9c0,0,0-0.1,0-0.1c0.1-0.3,0.2-0.5,0.2-0.8c0.1-0.2,2-0.3,2.2-0.1c0.2,0.2,0.5,0.9,0.7,1
	c0.4,0.2,0.6,0,1.1,0c0.2,0,0.8,0.4,1.1,0.5c1,0.2,1.7,0.8,2.9,1.8C544.4,5.3,543.3,3.9,542.3,2.8L542.3,2.8z"/>
<path class="st2" d="M482.5,61.6c-1-1.2-2.3-2.2-3.6-3.1c-1.6-1.1-3.4-1.9-5.4-2c-1.7-0.1-3.2,0.2-4.9,0.6c-1.8,0.5-3.4,0.7-5.2,0.8
	c-0.6,0-1.2,0.1-1.8,0.3c-0.7,0.2-1.3,0.5-2,0.6c-2.4,0.3-4.7-1.7-6.9-2.5c-0.4-0.2-0.8-0.3-1.1-0.5c-0.4-0.2-0.8-0.5-1.3-0.8
	c-1.2-0.6-2.3-0.7-3.6-0.6c-1.2,0.1-3.4,0.1-4.6-0.1c-1.5-0.2-1.3,0.1-2.7,0.9c-0.6,0.3-1.8,0.4-1.8,0.4l-1.3,0.4c0,0,2.4,0,3.3-0.2
	c0.8-0.3,1.6-0.2,2.4-0.2c0.7,0,1.4,0.2,2.1,0.2c0.7,0.1,1.4,0.1,2.1,0.3c0.8,0.2,1.5,0.8,2.2,1.2c0.7,0.4,1.4,0.6,2.2,0.8
	c1.8,0.4,3.4,0.9,5.1,1.5c1.7,0.6,3.4,1.3,5.2,1.2c1.8-0.2,3.6-0.9,5.4-1.3c1.7-0.5,3.5-1.1,5.2-1.2c1.9-0.1,4.1,0.3,5.8,1
	c0.3,0.1,0.5,0.3,0.8,0.4c1.4,0.8,2.8,1.5,4.3,2.2C482.5,61.7,482.5,61.6,482.5,61.6L482.5,61.6z"/>
<path class="st2" d="M374.8,39.9c-1-0.5-1.9-0.9-3-1.4c-0.7-0.3-1.5-0.7-2.2-1c-0.6-0.3-1.7-0.8-1.7-0.8s-2.6-1.2-3.7-1.7
	c-1.4-0.5-2.5-0.8-2.5-0.8s1.1,1.6,2.3,2c1,0.3,2.2,0.8,2.9,1.3c0.6,0.5,1.6,1.5,2.6,2.2c0.6,0.4,3,0.7,3,0.7s0.9,0.8,2.1,1
	c0.6,0.1,1.1,0.1,1.7,0.1c0.9,0,1.9,0.2,2.8,0.4C378.4,41.7,375.4,40.2,374.8,39.9L374.8,39.9z"/>
<path class="st2" d="M305.8,32.8c0.7-0.2,2.8,0.3,3,0.2c0,0,3.5-0.3,3.5-0.3s1.9,0.3,3.6,0.5c2.1,0.2,5.5-0.1,7.6-0.5
	c1-0.2,2.6-1.5,3.8-2c1.4-0.6,3-1.3,3.5-1.4c-1.9-0.1-8,1-8.9,1c-2.9,0-2.9,0-5.9,0c-0.5,0-1,0-1.5,0c-1.5,0-3,0-4.5,0.1
	c-1.3,0.1-2.5,0-3.7-0.4c-1.3-0.4-3.1-0.3-3.1-0.3l-4-1.6l-3.9-2.1c0,0-1.3-0.7-2.1-0.9c-1.3-0.4-2.7-0.7-4-0.8
	c-1.2-0.2-2.2-0.2-2.2-0.2s-4-0.6-5-0.2c-0.4,0.2-0.8,0.5-1.1,0.7c-0.6,0.4-3.8,1.5-3.8,1.5s2.4-0.1,3.7-0.6
	c0.2-0.1,2.8-0.2,2.9-0.2c1.3-0.3,2.1,0.8,3.2,0.9c2,0.2,1.6,0.6,2.8,0.9c0.7,0.4,1.4,0.7,2.2,0.9c0.7,0.2,2.9,0.5,3.5,0.7
	c1.1,0.4,1.5,1.8,2.7,2c1.7,0.3,8.3,1,8.3,1s-0.8,0.5-3.5,1.3C302.9,33.1,305.1,32.9,305.8,32.8L305.8,32.8z"/>
<path class="st2" d="M266.9,21.6c0.2,0,0.3,0,0.6,0.1c0.6,0.2,1,0.7,1.5,1.2c0.2,0.2,1.2,0.2,1.9,0.6c0.6,0.3,0.9,1,1.3,1.2
	c0.4,0.2,0.7,0.2,1.1,0.3c0.3,0.1,1,0.1,1.3,0.2c-1.4-0.9-2.3-2.3-3.6-3.3c0,0-0.1-0.1-0.2-0.1c-0.1,0-0.2,0-0.2,0
	c-0.3,0-0.5-0.2-0.7-0.4c-0.3-0.2-0.5-0.5-0.9-0.7c-0.4-0.2-0.9-0.5-1.3-0.4c-0.7,0.1-1.5,0.4-2,1c-0.1,0.1-0.4,0.3-0.5,0.4
	c-0.3,0.3-0.4,0.5-0.7,0.8c0.3-0.1,0.8-0.1,1.1-0.3c0.1-0.1,0.2-0.2,0.4-0.3c0.1,0,0.2-0.1,0.3-0.1
	C266.5,21.7,266.7,21.6,266.9,21.6L266.9,21.6z"/>
<path class="st2" d="M369.6,37.5c-0.6-0.3-0.8-0.8-1.9-1.3s-2.4-0.7-3.5-1.2"/>
<path class="st2" d="M573.4,22.2c3.2,0,5,0,7.8-1.6c1.6-0.9,3.8-2.4,6.4-3.1c2-0.5,4.4-0.3,5.9-0.3c2.1-0.1,4.5-0.2,4.5-0.2
	s4.7,0.4,6.7,0.1c5.3-0.9,11.2,0.9,14,1.1c2,0.1,13.8,0.6,13.8,0.6s5.1-0.4,6-0.6c-6.4,2-18.3,2.1-22.8,2.1s-13.6-0.3-17-0.3
	s-10.4,0.7-12.4,0.7s-6.6,2.3-6.6,2.3L573.4,22.2L573.4,22.2z"/>
<path class="st2" d="M217.8,58.1c0,0,0.1,0,0.2,0c0.1,0,0.3,0.1,0.4,0.2c0.3,0.2,1.4-0.6,1.4-0.6l-1.2-0.1c0,0-1.2-1-1.8-1.2
	c-1.2-0.3-2.6-0.8-3.8-0.5c-1.5,0.4-2.5,1.7-3.9,2.2c-0.9,0.3-1.9,0.3-2.8,0.7c-0.5,0.2-0.9,0.6-1.3,1c1.6-0.2,3.8-0.3,4.1-0.4
	c0.2-0.1,2-0.4,2.2-0.6c0.4-0.3,1.3-1.3,1.9-1.3c0.7,0,2.5-0.2,2.5-0.2s1.5,0.8,2.1,0.8C217.7,58.1,217.7,58.1,217.8,58.1
	L217.8,58.1z"/>
<path class="st2" d="M194,64.9c0,0-0.1,0-0.1-0.1c-0.8-0.4-1.5-0.5-2.4-0.4c-1.6,0.3-3,1.3-4.3,2.3c0.6,0.3,1.2,0.3,1.8,0
	c0.4-0.2,0.8-0.5,1.2-0.5c1-0.2,2.2-0.6,2.2-0.8c0.8-0.6,1.9,0.3,2.7,0.5C195,65.5,194.5,65.1,194,64.9L194,64.9z"/>
<path class="st2" d="M173.7,63.3c-1.4-0.3-2.4-0.2-3.4,1.1c0.7,0,1.3,0,2,0c0.9,0,1.9,0,2.4,0.7C174.9,64.6,174.2,63.4,173.7,63.3
	L173.7,63.3z"/>
<path class="st2" d="M199.3,60.9c-0.7,0-1.4-0.1-2,0.1c-0.2,0-0.3,0.1-0.5,0.2c-0.4,0.2-0.8,0.4-1.2,0.6c0,0,0,0-0.1,0
	c-0.1,0.1,0,0.2,0.1,0.2c0.5,0.1,1-0.1,1.6,0c0.5,0.1,1.3-0.3,1.8-0.4c0.4,0,1.8-0.3,2.5-0.5c-0.2-0.4-0.8-0.4-1.2-0.3
	C200,60.9,199.7,60.9,199.3,60.9L199.3,60.9z"/>
<path class="st2" d="M257.1,27.6c-0.7,0.4-1.5,0.6-2.2,0.9c-0.5,0.2-1,0.6-1.5,0.7c-0.1,0-0.2,0-0.3,0c-0.1,0-0.2-0.1-0.3-0.2
	l-3.4-2.5c-0.6-0.4-1.2-0.8-1.7-1.3c-0.3-0.2-0.4-0.5-0.8-0.8c-1.2-0.7-2-1.8-3.1-2.6c-1.2-0.9-2.6-1.5-3.9-2.3
	c-1-0.6-2.1-1.1-3.1-1.5c-0.8-0.3-1.7-0.2-2.5,0.2c-1.3,0.8-2.3,1.5-3.7,2.1c-1.2,0.5-2.3,1.3-3.5,1.9c-0.2-0.1-0.5-0.1-0.8,0
	c-0.5,0.3-1,0.6-1.5,1c0,0,0,0,0,0c-1.4,1.2-3.3,1.9-4.5,3.2c-0.3,0.4-0.7,0.8-0.8,1.3c0.2-0.8,3.1-2,3.8-2.3c0.7-0.2,1.6-0.8,2.2-1
	c0.3-0.1,0.6-0.2,0.8-0.3c1.1-0.6,2.2-1.2,3.2-1.9c0,0.3,0.1,0.6,0.2,0.9c0.8-0.8,2-1.2,3.2-1.5c0.7-0.2,1.2-0.4,1.9-0.8
	c0.3-0.2,1.6-1.1,1.8-1.1c0.7,0.1,1.3,0.4,1.9,0.8c1,0.6,2.1,1.2,3.1,1.8c0.9,0.5,1.6,1.2,2.4,1.9c0.6,0.6,1.2,1.1,1.8,1.7
	c0,0,0.1,0.1,0.1,0.1c-0.1,0-0.1,0-0.2,0c-0.3,0-0.7,0.1-1,0.1c-0.2,0-0.8-0.5-1.1-0.6c-0.4-0.2-0.8-0.3-1.2-0.4
	c-0.8-0.2-1.6-0.2-2.4-0.1c0.2,0.6,0.2,1.1,0.2,1.7c-1,0.3-2,0.7-3,1c-0.2,0.1-0.5,0.3-0.4,0.5c1.7,0.1,3.4,0.2,5.1,0.4
	c0.9,0.1,1.8,0,2.7,0.1c0.3,0.1,0.7,0.2,1,0.2c0.4,0,0.6-0.2,0.7-0.4c0.7,0.2,1.4,0.4,2.2,0.4c-1.4,1.1-2.5,2.4-3.9,3.4
	c-1,0.8-2,1.6-3.1,2.2c-0.7,0.4-1.3,0.7-2,1.1c-0.2,0.1-2.9,0.5-2.9,0.7c0,0.2,1.6,0.6,1.8,0.5c1.3-0.4,2.5-0.8,3.8-1.1
	c0.6-0.2,1.3-0.4,1.9-0.7c0.5-0.2,0.9-0.5,1.3-0.8c1.7-1.1,3.6-1.8,5.6-2.2c1.8-0.4,3.1-1.9,4.5-3.1c1.3-1.1,3.1-1.8,4.3-3.1
	C258.4,27,257.5,27.4,257.1,27.6L257.1,27.6z"/>
<path class="st2" d="M455.4,71.1c-0.5-0.3-1.1-0.5-1.7-0.4c-0.2,0-0.5,0.1-0.8,0.1c-0.2,0-0.4,0-0.7,0c-0.2,0.1-2,0.8-2.2,0.9
	c-0.5,0.3-0.5,0.5-0.5,0.5s1.7,0.3,2.3,0.4c0.3,0,1.5-0.7,2.4-0.8c1-0.1,1.7,0.5,2.1,0.4C456.2,71.7,455.8,71.4,455.4,71.1
	L455.4,71.1z"/>
<path class="st2" d="M445.5,70.1c-0.2-0.5-0.7-0.6-1.2-0.7c-0.5-0.2-1.5,0.2-1.5,0.2s1.1,0.5,1.2,0.5c0.8,0,0.9,0.2,1.4,0.7
	c0.2,0.2,0.3,0.3,0.5,0.3C446,70.7,445.6,70.4,445.5,70.1L445.5,70.1z"/>
<path class="st2" d="M447.5,76.7c-0.1-0.5-0.3-1.2-0.3-1.2c-0.3-1-1.5-0.4-2.1-0.1c-0.2,0.1-0.3,0.5-0.3,0.5s1.6-0.5,1.9,0.1
	C446.8,76.2,447.6,77.1,447.5,76.7L447.5,76.7z"/>
<path class="st2" d="M508.2,66.7c0,0-1.9-0.7-3.4-1.1c-1.7-0.4-3.3-1-4.9-1.6c-1.6-0.6-3.2-1.2-4.8-1.5c-0.8-0.2-1.6-0.2-2.4-0.4
	c-0.8-0.2-1.6-0.3-2.4-0.2c-0.8,0.1-1.7,0.3-2.5,0.6c-0.8,0.2-1.6,0.4-2.3,0.8c-1.2,0.7-2.2,1.7-3.6,2c-1.6,0.4-3.3,0.6-4.8,1.2
	c-1.7,0.7-2.9,2.1-4.8,2.3c-0.4,0-0.8,0-1.1,0.1c-1,0.2-1.8,1.1-2.7,1.5c-2.1,1-4.9-0.2-6.9,1c1.8,0,3.7-0.1,5.5-0.1
	c0.5,0,0.9,0,1.4-0.1c0.7-0.1,1.3-0.3,1.9-0.5c0.9-0.3,1.8-0.6,2.7-1c1.6-0.6,3-1.3,4.7-1.7c1.1-0.3,2.1-0.5,3.2-0.8
	c1-0.3,2.1-0.5,3-1c0.7-0.4,1.2-0.9,1.9-1.3c1.2-0.8,2.7-1.3,4.2-0.8c0.5,0.2,1.1,0.5,1.6,0.5c1,0.1,1.9-0.5,2.9-0.3
	c1.2,0.3,1.9,1.6,3.2,1.8c1.3,0.2,2.4-0.7,3.6-0.7c0.3,0,0.7,0.2,1,0.3C504.8,67,508.2,66.7,508.2,66.7L508.2,66.7z"/>
<path class="st2" d="M813.7,46.5c-0.5-0.1-1-0.1-1.5-0.1c-0.8,0-1.7,0-2.3-0.5c-0.2-0.2-0.4-0.4-0.7-0.6c-0.7-0.4-1.9-0.2-2.6-0.1
	c-1.2-0.5-2.3-0.8-3.6-0.9c-1.4-0.1-2.6-0.5-3.9-1.1c-2.5-1-5.1-1.1-7.6-1.7c-0.8-0.2-1.7-0.4-2.5-0.6c-0.1-0.4-1.8-0.4-2.2-0.3
	c0,0-0.1,0-0.1,0c-1.1-0.1-2.2,0-3.3,0c-1.6,0.1-2.8,0.5-4.2,1.2c-1.7,0.7-3.3,1.3-4.9,2c1.3-0.2,2.6-0.5,3.9-0.8
	c0.9-0.2,1.8-0.4,2.8-0.2c0.5,0.1,0.9,0.2,1.4,0.3c1.1,0.3,2.2,0.6,3.3,1c0.7,0.2,1.3,0.4,2,0.5c1.5,0.1,2.9-0.4,4.4-0.5
	c2.8-0.3,4.1,2,6.7,2.5c1.3,0.2,2.6,0.4,3.9,0.4c4.8,0.1,9.4,0.6,14.3,0.4C815.6,46.9,814.7,46.6,813.7,46.5L813.7,46.5z"/>
<path class="st2" d="M805.1,56.1c-0.1,0.1-0.3,0.2-0.4,0.3c-0.2,0.1-0.8,0.3-0.8,0.5c0.2,0.1,0.8,0,1.1-0.1c0.2-0.1,0.6-0.3,0.8-0.2
	c0.4,0.1,0.8,0.3,1.2,0.4c0,0,0.1,0,0.1,0c0.2,0,0.3-0.3,0.4-0.2c0.2,0.1,0.6,0.1,0.8,0.2c0.3,0.2,0.5,0.5,0.9,0.6
	c-0.2-0.2-1-1.4-1.9-1.9C806.4,55.4,805.5,55.8,805.1,56.1L805.1,56.1z"/>
<path class="st2" d="M818,56.6c-0.5-0.3-1-1.1-1.6-0.7c-0.2,0.1-1.3,0.2-1.4,0.4c-0.2,0.4-2.3,0.4-2.3,0.4s-1.3,0.4-1.7,0.9
	c1.2-0.3,2.5,0.2,3.8,0.4c0.3,0,0.6,0.1,0.9,0c0.1,0,0.2-0.1,0.3-0.1c1.2-0.6,1.9-0.1,3.1,0.2l1.2,0.3c-0.1-0.4-0.7-1-0.7-1
	S818.3,56.9,818,56.6L818,56.6z"/>
<path class="st2" d="M203.2,41.2c-1.2-1.1-5.3-5.2-5.7-5.4s-2.5-1.8-3.5-2.1s-3.3-0.5-3.9-0.5s-2.9-0.3-3.4-0.3
	c-0.5,0-2.4,1.1-2.8,1.4c-0.4,0.3-5.4,5-5.4,5s3.6-2.9,4.2-3.3s2-1.2,2.7-1.2s1.3-0.4,1.6-0.4s2.9,0.3,3.3,0.3s3.2,0.2,3.8,0.3
	c0.6,0.2,2.7,2.3,3,2.5C197.4,37.7,203.2,41.2,203.2,41.2L203.2,41.2z"/>
<path class="st2" d="M495.9,53.8c-1,0.7-1.9,1.4-3.2,1.4c-2.5,0.1-4.7-0.9-7.1-1.6c-2.4-0.7-4.9-1.2-7.5-1.3c-1.2-0.1-2.6,0-3.7-0.2
	c-0.9-0.2-1.7-0.9-2.6-1.3c-1.1-0.6-2.3-0.8-3.5-1c-1.7-0.3-3.5-0.4-5.2-0.8c-2.4-0.6-4.7-1.2-7.1-1.8c-1.3-0.3-2.7-0.6-4.1-0.7
	c-2.7-0.3-5.5-0.4-8.2-0.5c-2.7-0.1-5.7,0-8.4,0.3c-2.1,0.2-3.9-0.1-5.9-0.7c-1.1-0.3-2.2-0.8-3.4-0.9c-1.3-0.1-2.7,0.1-4-0.3
	c-1.3-0.3-2.4-0.8-3.8-0.5c-2.8,0.6-5.2,0.3-7.9-0.1c-1.2-0.2-1.7-0.7-6.9-0.4c2.4,0.2,3.9,0.5,4.2,0.5c1,0.3,1.9,0.7,2.9,0.8
	c1.3,0.1,2.4,0.5,3.6,0.8c0.9,0.2,1.9,0.5,2.8,0.3c1.4-0.2,2.3-0.7,3.8-0.2c1.1,0.3,2.2,0.5,3.4,0.6c1.2,0,2.3,0,3.4,0.3
	c0.8,0.3,1.6,0.6,2.4,0.8c0.8,0.2,1.7,0.2,2.2,0.9c-1,0.5-2,1.1-3,1.6c-0.8,0.4-2.3,0.6-2.3,0.6s1.8,0.7,3.2,0.1
	c0.5-0.2,0.9-0.4,1.5-0.5c1.2-0.2,2.1-0.1,3.2-0.6c1.3-0.5,2.7-0.8,4.1-1.1c1.3-0.3,2.6-0.7,4-0.8c2.7-0.1,5.4,0.1,8,0.3
	c1.4,0.1,2.8,0.3,4.2,0.7c1.4,0.3,2.7,0.9,4,1.4c1.3,0.5,2.8,1,3.9,1.9c0.9,0.8,1.5,1.6,2.6,2.1c0.6,0.3,1.2,0.3,1.9,0.3
	c1.4,0,2.6-0.5,3.9-0.6c1.1-0.1,2.3,0.2,3.4,0.5c1.3,0.4,2.6,0.8,3.9,1.2c1.9,0.5,3.4,0.7,5.3,0.5c3.1-0.3,6.4,1.5,9.5,0.3
	c0.7-0.2,1-0.9,1.6-1.3c0.5-0.4,1.8-1.9,1.8-1.9S496.1,53.5,495.9,53.8L495.9,53.8z"/>
<path class="st2" d="M152.9,45.9c-3-0.5-8.3-2.1-8.3-2.1L133.9,38c0,0-4.1-2-5.1-2s-8.5,0.3-10.6,0.3s-13.3-1.1-16.8-1.1
	s-17.2-1.8-17.2-1.8s6.2,2.7,8.5,3s12.7,1.1,14.3,1.2c1.6,0.2,8.5,2,10.1,2.3s10.8,0,12.7,0.2s6.5,2,8.3,3.5
	c1.8,1.6,10.4,2.7,10.4,2.7L152.9,45.9L152.9,45.9z"/>
<path class="st1" d="M102.1,43.1c5.6,0,11.2,0.3,12.2,0.8c1.1,0.5,4,2.4,5.3,3.7c1.3,1.3,2.9,2.1,5.3,2.4c0.2,0,0.3,0,0.6,0.1
	c3.1,0.6,12.3,3.6,14.6,3.6c0,0-12.7-0.3-14.3-0.5c-1.6-0.3-5-1.6-6.6-2.1s-6.1-5.3-7.7-5.3S102.1,43.1,102.1,43.1L102.1,43.1z"/>
</svg>
