<?xml version="1.0" encoding="UTF-8"?><svg id="cave" xmlns="http://www.w3.org/2000/svg" viewBox="0 0 1699.96 1080"><defs><style>.cls-1{fill:#363a86;}.cls-1,.cls-2,.cls-3{stroke-width:0px;}.cls-2{fill:#b594d9;}.cls-3{fill:#7d60be;}</style></defs><path class="cls-1" d="m1639.77,529.12c-10.04-9.61-17.42-14.87-19.52-13.36-8.87,6.36-47.15,8.37-51.27,7.97-4.12-.4-9.82,2.79-12.35,3.98-2.52,1.19-4.25,3.58-5.84,3.91-1.59.33-9.84,1.06-13.54,1.79-2.73.54-2.52,0-4.56,3.47-2.04,3.47-3.27,5.69-5.34,6.96-2.07,1.27-8.15,5.63-9.22,5.76-1.06.13-.93.8-4.12,3.45-3.19,2.66-4.12-.53-10.62-2.79-2.26-.78-12.08-3.19-20.18-5.58s-9.03.8-15.67.66c-6.64-.13-6.9-.53-8.87,1.87-1.97,2.4-5.33,6.09-9.85,12.47-4.51,6.37-2.26,6.24-7.21,4.11-7.07-3.05-7.13-3.04-10.85-2.97-3.72.07-11.81.06-18.45.06s-8.5-2.66-11.42-6.9c-2.92-4.25-1.99-3.05-9.69-6.24-7.7-3.19-7.17,2.12-13.81-.8-6.64-2.92-7.04-3.98-11.15.13-4.12,4.12-5.08,1.87-6.9.13-1.82-1.74-7.7-8.36-13.54-13.28-5.84-4.91-4.79-3.98-12.86-2.58-8.07,1.4-43.48-3.37-48.52-.55-5.05,2.82-23.85-2.85-28.63-6.03-4.78-3.19-4.78-2.39-6.5-.8-1.73,1.59-3.32-.53-4.84-2.48-1.52-1.95-6.58-7.87-7.51-8.67-.93-.8-5.58,3.85-8.63,8.23-3.05,4.38-1.86,4.12-1.99,6.37-.13,2.26-1.19,7.43-1.19,9.29s.93,2.79-2.52,1.86c-3.45-.93-4.12,0-7.58,3.47-3.47,3.47-21.45,26.05-24.45,26.05s-29.94-5.28-31.81-6.4c-1.88-1.13-11.51-3-15.77-2.88-4.25.13-12.76.75-18.52,0-5.76-.75-18.77-2.63-22.52-2.75-3.75-.13-19.4.13-21.59-.02-2.19-.14-19.08-9.12-21.46-9.24-2.38-.13-12.39.13-13.64-.13-1.25-.25-12.01-4.13-14.89-4.76-2.88-.63-8.13.88-10.69.94-2.55.07-15.34.68-17.97-.07-2.63-.75-14.91-6.59-17.39-6.13-2.49.45-9.39,2-10.39,2s-4-2.25-5.78-3.71c-1.78-1.45-2.6-3.68-6.39.15-3.78,3.83-11.04,7.32-11.04,7.32,0,0-12.81-9.72-15.67-11.15-2.86-1.43-5.04,1.33-7.7,3.19-2.66,1.86-8.86,2.65-10.48,5.87s-2.57,8.55-5.58,11.47c-3.01,2.92-4.92,6.56-7.92,4.39-3-2.16-8.94-8.72-11.5-9.53-2.56-.81-7.13-1.56-9.31-.5-2.18,1.07-14.36,13.74-19.69,13.81-5.33.07-17.99-1.89-21.02-3.57-3.04-1.68-11.41-6.27-17.63-6.43-6.21-.17-33.58-1.74-37.73-2.57-4.15-.83-26.46-7.25-34.5-8.54-22.11-3.56-41.25-3.07-56.51,2.75l1.86,314.11h944.26l-1.86-326.63Z"/><path class="cls-3" d="m1464.78,573.02c-.67-.15-1.37-.2-2.05-.12-.41.04-.82.13-1.24.16-.41.04-.83.02-1.24,0-2.54-.13-4.9-.96-7.43-.43-.7.15-1.38.38-2.1.27-1.22-.18-2.3-1.13-3.34-1.72-1.22-.7-2.51-1.27-3.83-1.74-1.36-.48-2.69-.99-4.05-1.48-2.91-1.06-5.83-.63-8.69.39-1.87.66-3.69,1.21-5.51,1.89-1.91.71-4.32-.13-5.93,1.13.22-.17,3.2.58,3.73.59,1.3,0,2.59-.2,3.84-.54,2.7-.72,4.75-1.83,7.68-1.39.41.06.82.15,1.24.19.69.06,1.38-.03,2.06-.12,2.43-.32,4.11.24,6.39,1.17,1.9.8,3.47,2.34,5.43,3,1.19.4,2.3.12,3.48-.13.69-.14,1.38-.21,2.06-.19.05.06.1.11.16.15,2.11,1.47,3.83,1.1,6.04.15,1.37-.59,2.86-.89,4.35-.89-.35-.15-.7-.26-1.07-.35Z"/><path class="cls-3" d="m1034.91,551.83c-2.08.36-4.21-.73-6.25-.19-1.78.48-3.28,1.05-5.15.74-1.14-.19-3.31-.46-3.31-.46,0,0-4.96,1.25-4.94,1.75.02.3.03.61.05.91-1.54-.27-3.06-.5-4.63-.54-.92-.02-1.87-.05-2.68-.49-.14-.08-.29-.17-.44-.2-.2-.05-.42,0-.62.04-2.34.5-3.79,3.39-6.15,3.85-.84.16-2.15-.05-2.91.04-.78.09-1.02.49-1.86.77.35,0,1.52-.3,1.86-.35.89-.12,1.23-.05,2.11.13,2.25.46,2.84.03,4.58-1.16.8-.55,1.41-1.38,2.25-1.85.29-.17.65-.31.95-.13.34.2.54.53.94.68.84.33,1.88.19,2.78.46,1.05.32,2.11.64,3.16.96-.75-.04-1.51.15-2.15.55,1.51.68,2.68.86,4.3.88.03,0,.06,0,.09,0,0,0,.01,0,.02,0,.17.04.34.09.5.14.98.33,1.96.77,2.92.9.14.02.29.03.43.05.53.17,1.08.3,1.66.38,3.15.43,6.32,1.27,9.5,1.32-.91-.02-6.62-2.51-6.38-3.55.07-.29-.33-.44-.62-.47-1.32-.17-2.3-.77-3.5-1.2-1.32-.47-3.05-.41-4.44-.58,2.15-1.49,7.48-.83,7.48-.83,0,0,.01,0,.02,0,.1.23,3.15.64,4.15.33,1.15-.07,2.27-.29,3.1-.94.84-.66,2.72-.55,3.73-.92,1.05-.38,2.08-.72,3.18-1.01-.5-.64-3.57-.06-3.74-.03Z"/><path class="cls-3" d="m895.3,567.67c-.12.01-.23.02-.35.02-1.62.09-3.22-.26-4.8-.61-.39-.09-.78-.17-1.17-.26-.75-.17-1.52-.32-2.22-.64-.45-.2-.75-.52-1.18-.84-.92-.68-2.02-1.05-3.16-1.14-2.29-.19-4.58.61-6.65,1.51-2.08.91-4.18,1.44-6.38,1.94-1.07.25-2.21.84-3.31.91-1.06.06-2-.1-3.09.19-.68.18-1.42.43-2.05.12.79.59,1.92.19,2.9.31.51.06,1,.27,1.5.37.93.2,1.9.06,2.83-.17,2.35-.58,4.73-.79,7.02-1.74,1.63-.67,4.02-2.12,5.84-1.91.83.1.85.63,1.39,1.17.68.68,1.59.6,2.38,1.07.32.19.57.49.9.67.36.2.79.23,1.2.26,1.1.09,2.21.19,3.31.26.95.06,1.87-.45,2.79-.33.22.03.42.11.63.17.86.23,1.76.02,2.55-.34.73-.33,1.61-.68,2.27-1.12-1.03-.21-2.1.01-3.15.1Z"/><path class="cls-3" d="m913.78,558.17c1.46-.56,2.99-.93,4.54-1.13-1.22-.04-2.34-.71-3.56-.82-.36-.03-.72-.01-1.07,0-.84.04-1.74-.19-2.45-.64-.14-.09-.28-.19-.44-.22-.19-.04-.38.03-.57.06-.76.15-1.02-.26-1.8-.28-1.36-.04-3.3.53-4.65.64-1.45.12-2.86.44-4.26.84-1.96.56-4.05.95-6.07,1.25.52.2,1.07.3,1.62.32.24,0,.48,0,.72,0,1.11,0,2.2.31,3.27.61-1.86.28-3.79.44-5.64.84-1.3.28-2.62.88-3.96.91-1.16.03-2.24-.27-3.28.36-.41-.07-1.24-.12-1.24-.12,0,0-2.37-.31-2.38-.31-1.62-.47-4.99-.74-5.08-.56-.72-.16-2.19-.29-2.19-.29l-1.35-.38s-2.07-.4-3.14-.5c-1.11-.11-2.15-.6-3.29-.48-4.5.47-7.25,4.12-11.23,5.66.05.11,3.31.23,3.62.18,1.24-.19,2.17-1.37,3.22-1.95,1.23-.68,2.38-.83,3.71-1.18,1.53-.41,3.2-.29,4.67.33.68.29,1.35.69,2.09.71.42,0,.83-.11,1.24-.17,4.39-.59,8.13,3.04,12.68,2.33,1.32-.2,2.58-.67,3.83-1.14,2.02-.75,3.77-1.58,5.97-1.64,1.75-.05,3.52.13,5.23-.22,1.27-.26,2.59-.89,3.9-.81,1.28.08,2.43.72,3.67.85,1.23.13,2.62-.25,3.84-.42.22-.08.28-.42.1-.57-.57-.48-1.34-1.03-2.13-1.23.41-.21.84-.41,1.26-.59.2-.08.39-.16.59-.24Z"/><path class="cls-3" d="m1083.26,577.4c-.23-.15-.48-.26-.74-.35-.12-.04-.25-.08-.31-.19-.15-.27.27-.51.57-.47s.67.16.88-.06c-1.78-1.09-4.12-1.22-6.01-.33-1.05.5-1.95,1.27-3,1.76.83.02,1.75.15,2.56-.06.65-.17,1.2-.66,1.88-.74.09,0,.18,0,.24.05.05.05.07.13.1.2.11.21.38.27.61.31.5.1.98.29,1.41.57.34.22.66.49,1.04.64.55.21,1.36,0,1.89-.18-.24-.47-.67-.87-1.13-1.15Z"/><path class="cls-3" d="m1076.25,574.77c.21.04.43.09.64.13,0-.49-.37-.9-.72-1.25-.23-.23-.45-.47-.68-.7-.12-.12-.24-.25-.38-.34-.14-.09-.31-.15-.47-.21-1.34-.47-2.68-.95-4.02-1.42-.59-.21-1.3-.46-1.93-.3-.5.13-.79.61-1.3.75-.61.17-1.36.08-1.99.13-1.31.11-2.55,1.1-3.54,1.92.87-.17,1.75-.33,2.62-.5.21-.04.43-.08.64-.06.15.01.3.06.44.09.97.21,1.96.02,2.87-.3.35-.12.52-.32.93-.35.2-.02.99.28,1.08.23-1.04.56-2.03,1.22-2.94,1.98,1.62-.08,3.29-.5,4.91-.46.52.01,1.04.12,1.55.22.76.15,1.52.3,2.28.45Z"/><path class="cls-3" d="m1099.13,584.9c-.5-.45-.71-1.03-1.21-1.52-.57-.56-1.62-.69-2.41-.7-1.88,0-3.63.85-5.47,1.08-1.28.16-2.63.35-3.6,1.2.78-.68,3.44.21,4.28.44,1.24.34,2.55-.37,3.71.02.34.12.65.36,1.01.38.49.02.9-.37,1.37-.5.56-.15,1.15.07,1.63.38.73.47,1.55,1.39,2.51,1.14-.36-.31-.38-.77-.67-1.13-.18-.22-.45-.33-.7-.47-.18-.1-.33-.21-.47-.33Z"/><path class="cls-3" d="m1119.83,583.05c-.17.2-.31.22-.57.26-.19.03-.38-.25-.58-.3-.57-.13-.62-.16-1.19-.3-.18-.04-1.04,0-1.04,0,0,0,.12-.34.28-.43.29-.16,1.21-.15,1.21-.15l.64.41,1.25.51Z"/><path class="cls-3" d="m1268.92,558.21c-.21-.04-.43-.08-.64-.12-.48-.09-.98-.19-1.47-.11-.5.08-.96.34-1.4.6-.2.12-.41.24-.57.4-.36.34-.53.84-.57,1.33-.04.49.05.98.13,1.47.02-.41.54-.56.81-.87.11-.12.18-.28.26-.42.41-.73,1.01-.93,1.75-1.18.53-.18,2.14-1.02,2.65-.9-.31-.07-.63-.14-.94-.2Z"/><path class="cls-3" d="m1272.02,544.81c.54-.19,1.16-.2,1.82,0,.09-.06.07-.21,0-.28s-.19-.1-.3-.12c-.82-.15-2.3-.75-3.06-.15-.39.32-.38.98-.65,1.43-.28.47-.68.87-1.15,1.15-.19.11-.41.33-.28.5.32-.17.76.05,1.05-.15.08-.05.14-.13.19-.21.62-.83,1.34-1.82,2.37-2.17Z"/><path class="cls-3" d="m1481.63,566.88c.6.19,1.22.35,1.9.41-.52-.5-1.12-.64-1.71-1.04-.6-.42-1.2-1.1-1.86-1.42-1.06-.51-2.52-.6-3.5-1.14-.88-.49-1.96-.66-2.96-.69-1.5-.04-2.87-.58-4.25-.69-1.45-.12-2.85.98-3.93,1.8-1.04.79-.91,1.29-2.32,3.01,1.33-.81,2.66-1.62,3.99-2.43.18-.11.35-.21.55-.27.46-.12.94.09,1.41.18,1.37.27,2.73-.39,4.1-.06,1.21.3,2.41,1.05,3.71,1.34.78.18,1.44-.27,2.43.08.85.31,1.63.65,2.44.92Z"/><path class="cls-3" d="m1495.62,576.4c-.23-.57-.63-1.03-1.35-.95-.59.07-1.03.59-1.32,1.11.34-.14.83.08,1.1-.13.09-.07.18-.17.29-.15.08.02.13.1.2.14.07.04.16.04.24.05.42.04.76.36,1.06.66-.05-.24-.12-.49-.22-.72Z"/><path class="cls-3" d="m1488.36,568.92s-.09-.03-.13-.04c-.3-.07-2.48,1.2-2.45,1.31.02.08.85-.06,1.23-.23.39-.17.84-.28,1.23-.12.26.11.46.34.68.52.22.18.5.34.78.26-.78-.34-.53-1.4-1.34-1.71Z"/><path class="cls-3" d="m1513.26,579.17c-.03-.31-.21-.72-.31-.8-.25-.2-.31-.55-.49-.81-.26-.39-.79-.57-1.23-.42-.14.05-.28.13-.41.21-.31.19-.63.38-.94.56.42.25.91.38,1.4.35.09,0,.19-.01.28,0,.07.02.14.05.2.09.48.33.67,1.06,1.24,1.19.04,0,.08.01.12,0,.12-.04.15-.19.13-.37Z"/><path class="cls-3" d="m1259.76,543.15c-.4-.22-.82-.41-1.29-.5-1.18-.24-2.94-.72-4.09-.2-.22.1-.43.24-.67.3-.2.05-.41.04-.61.05-1.06.02-2.11.32-3.02.88-.27.56-.7.75-1.18,1.08-.21.15-.42.11-.6.31-.14.15-.14.49-.31.62-.06.04-.11.09-.16.13-.57.45-1.19.82-1.73,1.29-1.09.94-1.41,2.94-2.86,3.38-.8.24-1.73.07-2.46.36-.73.29-1.22,1.15-1.67,1.74-.09.12-.18.23-.3.32-.12.09-.25.14-.39.2-.77.32-1.51.71-2.2,1.18l1.93-.11c.42-.02.87-.05,1.23-.27.35-.21.59-.6.63-1,0-.1.01-.22.08-.29.06-.07.15-.09.24-.1.84-.14,1.69-.2,2.53-.34,1.52-.25,1.98-1.08,3.01-2.03.92-.86,1.63.35,2.42-.29,1.27-1.01,2.05-2.64,2.64-4.18.41-.47.89-.87,1.5-1.2.26-.14.64-.44.94-.44.23,0,.45.2.65.3.24.12.49.19.73.2.88.4,1.92.57,2.62.48.41-.05.47-.46.73-.56.28-.11.65-.06,1.02-.1.31-.03.61-.12.92-.11.24.01.46.09.69.15.53.14,1.07.21,1.62.21-.22-.38-.76-.36-1.15-.57-.49-.27-.96-.59-1.45-.86Z"/><path class="cls-3" d="m1118.36,574.72c-.35-.94-.97-1.53-1.86-1.81-.7-.22-1.57-.25-2.6-.11-.99.14-1.12-.14-2.03.26-.26.11-2.13,1.19-2.32,1.08.39.21.93.18,1.38.2.89.03.8-.16,1.69-.25.36-.04,1.47.43,1.83.39.57-.06,1.43.07,2,.08.34.01.79.82.79.82,0,0,.44.28.67.45.23.17.67.24.93.11-.13-.35-.36-.9-.48-1.22Z"/><path class="cls-3" d="m1130.42,576.91c-.58-.56-.76-1.44-1.52-1.69-.21-.19-1.09-.01-1.28-.12-.69-.4-1.42-.67-2.15-.66-.74.01-1.39.78-2.13.75-.71-.03-1.43.16-2.03.54,1.16.21,2.88-.02,4,.34.79.25,1.16.43,2.16.39.42-.02,1.16.94,1.57.87.13-.02.47.85.47.85,0,0,.36.26.51.42.3.31,2.25.16,1.91.14-.03-.14-.08-.63-.77-.77-.56-.11-.74-1.04-.76-1.05Z"/><path class="cls-2" d="m1557.65,538.37c-.2-.02-.4-.05-.6-.09-1.16-.2-2.58-.4-3.74-.09-.25.07-.47.22-.73.25-.28.04-.56-.08-.81-.22-.34-.19-.66-.41-.95-.67-.1-.09-.2-.19-.34-.19-.11,0-.22.05-.31.11-.58.34-1.1.8-1.5,1.35-.54.75-.52,1.58-1.26,2.25-.12.11-.25.2-.38.3-.69.51-1.38,1.03-2.07,1.54-.25.19-.62.39-.53.72.71-.44,1.4-.99,2.26-1.09.11-.01.22-.01.33-.03.14-.02.28-.07.41-.11.3-.08.61-.12.9-.24,1.18-.49,1.05-1.96,1.82-2.77.05-.05.1-.1.15-.14.18.78.69,1.4,1.72,1.57.69.12,1.64.14,2.31-.05.77-.21,1.35-.87,2.07-1.19.81-.36,1.85-.54,2.72-.71.57-.11,1.6-.34,2.12-1.19-.77.77-2.68.74-3.58.65Z"/><path class="cls-2" d="m1543.54,532.09c-.21.02-.42.06-.63.11-.19.05-.37.13-.55.18-.46.14-.94.19-1.42.23-1.67.15-3.18.27-4.81.73-.59.17-1.18.34-1.77.5-.21.06-.42.12-.6.24-.31.21-.46.57-.61.91-.89,2.04-1.95,4.03-3.36,5.76-1.04,1.27-2.26,2.4-3.67,3.26-.62.37-1.23.66-1.8,1.09-.67.51-1.36,1.02-2.07,1.47-1.31.84-2.82.98-4.01,2.01-.3.26-.6.52-.9.78-.22.19-.45.39-.64.62-.75.93-1.05,1.61-2.05,2.33-.31.22-.7.77-1.03.96-.66.38-1.55.61-2.3.76.65.2,1.51.15,2.15.35.16.05.31.12.48.14.12.01.24,0,.36-.03,1.51-.25,2.76-.43,4.03-1.34,1.3-.94,2.79-1.51,4.13-2.33,2.17-1.32,3.68-3.49,5.72-5-.18.65-.16,1.37-.41,1.98-.27.67-.89,1.32-1.33,1.89-.98,1.29-1.96,2.58-2.94,3.87.78-.15,1.43-.69,1.96-1.28.53-.59.99-1.25,1.59-1.77.22-.18.45-.35.67-.52,2.52-2.02,3.75-5.36,4.71-8.33.14-.44.27-.88.39-1.33.27-.48.55-.95.88-1.4.83-1.13,1.87-2.06,2.99-2.9,1.03-.78,2.36-1.88,3.74-1.71.69.09,1.32.24,2.02.12.8-.14,1.57-.45,2.35-.67.9-.25,1.81-.47,2.72-.69.86-.21,1.61-.03,2.44.36.12.21.42.24.65.17.23-.08.43-.23.65-.32.8-.29,1.92.31,2.67.57.88.31,1.74.41,2.67.45.76.04,1.7.12,2.42-.16.46-.18,1.28-.51,1.82-.73-1.05-.29-2.25.12-3.23-.37-.29-.14-.54-.36-.8-.54-.75-.53-1.64-.84-2.55-.9.62-1.24,2.3-1.44,3.52-1.78.69-.19,1.35-.47,1.97-.82,1.47-.83,2.67-1.93,3.92-3.06.8-.72,1.4-.96,2.24-1.63.84-.66,2.08-.58,3.1-.62-1.15-.31-2.45-.95-3.32-.22-.76.67-1.77.38-2.58.99-.29.21-.57.47-.91.57-.24.07-.5-.02-.75.08-.55.22-1,.53-1.6.69-1.34.36-2.67.8-3.8,1.6-.78.56-1.43,1.26-2.13,1.91-.35.33-.74.6-1.1.91-.23.19-.58.74-.84.81-.05.01-.1.03-.14.04-.92-.15-1.95.04-2.83.14-1.13.12-2.21.4-3.32.65-.69.16-1.42.11-2.12.18Z"/><path class="cls-2" d="m1470.88,548.5l-.06-.49c.83-.47,1.72-.96,2.67-.87.88.08,1.7.21,2.59.21.49,0,2.46.31,2.78-.18.53-.8-.71-1.69-1.28-1.98,1.47-1.04,2.13-.33,3.38.37,1.55.87,3.47,1.26,5.14,1.9.35.13.7.23,1.05.31,1.28.97,2.83,1.17,4.39,1.51,1.1.24,2.19.52,3.27.83,1.96.86,3.99,1.03,6.11,1.19.62.04,1.23.09,1.84.21.36.07.72.18,1.08.28,2.14.61,4.2,1.22,6.34,1.83-.94-.46-1.23-.82-1.67-1.08-2.39-1.42-4.35-2.75-7.15-3.12-.17-.02-4.89-1.79-5.06-1.77-.22.02-3.82-.35-4.79-.66-.18-.06-.36-.1-.54-.14-1.23-.55-2.49-.61-3.71-1.08-1.47-.56-2.78-1.27-4.34-1.62-1.53-.34-3.43-.98-4.98-1.03-.77-.03-1.53.15-2.28.31-1.62.37-3.47.79-5.13.79-1.35.23-2.15.89-3.46.87-1.52-.02-3.15-.32-4.69-.43-.37-.03-.76-.05-1.11.06-.31.1-.58.3-.84.51-2.77,2.29-4.67,5.25-6.76,7.92,2.46-1.21,4.53-2.55,6.47-4.5.23-.23.46-.47.74-.64,1.76-1.03,4.01.34,5.63,1.05,1.44.64,3.04,1.17,4.56.77-.06-.45-.11-.9-.17-1.35Z"/><path class="cls-2" d="m1436.3,561.34c-1.54-.49-4.89-2.13-6.52-1.88-.67.11-1.29.3-1.98.26-.72-.04-1.42-.26-2.11-.46-.67-.2-1.33-.42-2.02-.53-.72-.12-1.33.08-2.01,0-.57-.07-1.11.24-1.61.51-.84.46-1.72.85-2.59,1.25-.38.17-.76.34-1.17.41-1.07.19-2.42-.24-3.5-.37-1.29-.16-2.57-.52-3.77-1.01-2.64-1.06-4.99-2.82-6.76-5.04-1.54-1.93-3.42-4.38-5.61-5.64-1.3-.75-3.13-1.05-4.57-1.55-.42-.14-.84-.29-1.24-.47-.3-.14-.59-.3-.89-.42-1.09-.41-2.63-.16-3.77,0-1.53.23-3.05.59-4.53,1.01-1.96.55-2.74-.17-4.25-1.33-1.98-1.52-3.98-3.23-6.63-2.72-.56.11-1.1.28-1.65.41-.67.16-1.36.22-2.01.46-1.09.41-1.57,1.34-2.46,2-1.21.9-2.68,1.27-4.15,1.63-.06-.64-.53-1.29-.98-1.65-.55-.44-1.08-.95-1.67-1.33-.48-.31-1.04-.47-1.43-.92-.29-.34-.51-.73-.79-1.09-.44-.55-1.02-.98-1.59-1.39-.48-.35-3.75-4.7-4.23-5.05-.3-.22-4.2-4.15-7.53-5.75-2.53-1.21-4.65-.23-5.01-.17,2.11-.17,3.29-.68,6.01,1.5,3.14,2.52,5.83,8.17,6.01,8.37,1.48,1.61,3.08,3.17,4.37,4.95.43.6.81,1.23,1.24,1.83.5.67,1.44,1.33,1.8,2-.9.37-1.94.15-2.85.51-.36.14-.68.36-1.02.53-1.65.83-4.4,1.24-6.21.98-.59-.09-1.21-.27-1.78-.07-.05.18.14.34.31.43,2.47,1.28,5.23,1.74,7.99,1.19.42-.08.84-.16,1.25-.22,2.57.23,5.12-.53,7.25-1.87.26-.16.53-.33.82-.44.47-.18.98-.21,1.46-.36,1.67-.51,2.59-2.25,3.95-3.35,1.26-1.02,3.3-2.08,4.96-1.52,2.1.71,3.72,2.35,5.13,3.99.59.68,1.12,1.54,1.78,2.15.69.63,1.65.72,2.3,1.34.82.79,1.79,1.47,2.86,1.87,1.05.81,1.77,1.73,2.95,2.35-.8-2.36-2.66-4.17-4.46-5.9-.38-.37-.94-.72-1.18-1.14,1.21-.93,3.42.52,4.85-.37.17-.11.28-.25.33-.4.98.04,1.87.39,2.78.81,1.64.76,3.19,1.67,4.74,2.6.49.35,1,.68,1.52,1,1.62,1.44,5.41,4.26,5.6,4.2.07.06,1.99,1.6,2.86,2.33.88.74,2.46,2.78,2.46,2.78l4.41,1.64s1.81-1.03,2-1.17c.28-.2.81-.24,1.13-.33.61-.17,1.26-.34,1.88-.17,1.27.36,2.2-.1,3.32-.59,1.44-.64,3.18-.88,4.75-.88,2.69,0,5.41.81,8.03.19.62-.15,3.31.11,3.43.06Z"/><path class="cls-2" d="m1252.26,523.28c.73.18,5.04,2.55,5.77,2.74-.06,0-4-2.48-4.08-2.53-.21-.13-.43-.25-.66-.35-.45-.21-.92-.38-1.4-.49-.45-.11-.89-.3-1.35-.21-.78.16-.8.28-1.34.87-.23.24-.54.35-.84.67-.5.53-1.01,1.31-1.32,1.77.53-.46.98-.61,1.52-1.07.3-.26.61-.54.98-.67.14-.05.37-.38.49-.45.19-.1.33-.28.52-.39.37-.21.84-.11,1.26,0,.15.04.3.08.45.11Z"/><path class="cls-2" d="m1239.69,515.39c-.5-.64-1-1.27-1.53-1.87-.25-.29-.53-.57-.87-.74s-.76-.24-1.11-.08c-1.43.63-2.38,1.52-3.47,2.66-.87.9-1.74,1.81-2.6,2.72-.64.68-1.29,1.37-1.72,2.2-.33.64-.88,1.16-1.16,1.83-.63,1.48-1.24,2.68-1.4,4.31-.14,1.41-.68,2.68-1.03,4.03-.36,1.41-.16,2.73-.16,4.15,0,1.12-.43,2.16-.58,3.25-.55-.28-1.06-.67-1.63-.93-.83-.39-1.95.38-2.85.57-2.44.52-2.12,1.5-4.3,2.49-1.02.46-3.13,1.49-3.9,2.27-.49.49-.89,1.03-1.26,1.59-.91,1.13-1.57,2.41-2.38,3.59-.55.6-1.32,1.24-1.73,1.95-1.08,1.87-1.99,3.86-3.1,5.74-.68,1.16-1.49,2.24-2.35,3.28-.89,1.08-1.84,2.12-2.78,3.17-.46.51-1.17,1.03-1.62,1.55-.35.42-1.28,1.75-1.28,1.75,0,0,2.42-2.08,3.46-3.07,1.01-.96,2.04-1.91,2.91-2.99,1.11-1.38,2.18-2.79,3.27-4.18.7-.89,1.55-1.71,2.27-2.6,1.05-1.29,2.47-1.79,3.26-3.35.05-.11.09-.22.1-.32.04-.05.08-.1.12-.15.76-.86,1.54-1.66,2.19-2.61.61-.9,1.22-1.68,2.07-2.37.76-.62,4.18-3.74,5.69-4.17.87-.25,1.27-.9,2.04-.44.28.17.56.34.84.51-.09.22-.08.48.05.68.83,1.19,2.16,1.59,3.54,1.75,1.21.14,2.96.54,4.13.28-.39-.22-.8-.43-1.16-.71-.26-.2-.49-.42-.75-.62-.54-.41-1.16-.68-1.73-1.04-.78-.49-1.22-.86-.97-1.68.25-.81.6-1.29.6-2.23,0-1.54.58-3.02.83-4.53.24-1.45-.31-2.77-.22-4.2.07-1.01.61-2.36.93-3.31.29-.87,1.06-1.2,1.68-1.74.55-.48.95-1.09,1.52-1.54,1.03-.82,2.11-1.4,2.84-2.55.18-.28.11-.62-.07-.87.01-.05.02-.09.03-.12.08-.26.15-.52.23-.78.05-.16,1.97-.34,2.19-.14.21.19.46.9.72,1.03.42.21.6.03,1.08.02.23,0,.83.43,1.05.46,1.01.15,1.68.82,2.93,1.79-.8-1.19-1.94-2.55-2.82-3.69Z"/><path class="cls-2" d="m1179.81,574.17c-.99-1.24-2.32-2.17-3.63-3.07-1.64-1.14-3.4-1.86-5.41-2.03-1.67-.14-3.24.15-4.86.56-1.75.45-3.36.65-5.17.8-.62.05-1.24.1-1.85.26-.66.18-1.3.48-1.98.56-2.44.28-4.74-1.65-6.88-2.53-.37-.15-.75-.31-1.1-.5-.43-.24-.83-.53-1.26-.77-1.15-.63-2.28-.67-3.55-.6-1.17.07-3.4.07-4.58-.07-1.5-.17-1.29.13-2.67.87-.56.3-1.8.44-1.8.44l-1.31.38s2.45.05,3.34-.25c.78-.26,1.62-.23,2.43-.17.71.05,1.41.15,2.12.24.68.09,1.41.1,2.07.29.81.23,1.48.79,2.22,1.18.68.37,1.42.6,2.17.78,1.75.4,3.43.88,5.12,1.47,1.65.58,3.36,1.35,5.15,1.18,1.82-.18,3.63-.86,5.38-1.34,1.71-.47,3.47-1.1,5.24-1.21,1.88-.12,4.08.26,5.8,1.05.27.13.53.28.8.43,1.4.81,2.84,1.55,4.32,2.22-.04-.05-.07-.1-.11-.14Z"/><path class="cls-2" d="m1072.15,552.51c-1.02-.53-1.93-.93-2.99-1.41-.69-.31-1.51-.7-2.19-1.01-.56-.26-1.69-.81-1.69-.81,0,0-2.57-1.24-3.66-1.68-1.37-.55-2.5-.8-2.5-.8,0,0,1.06,1.58,2.3,1.95,1.01.3,2.22.79,2.92,1.35.64.51,1.55,1.53,2.56,2.17.61.38,2.97.71,2.97.71,0,0,.95.77,2.05,1.04.55.13,1.12.07,1.68.07.95,0,1.88.21,2.81.42-.68-.15-3.65-1.68-4.26-2Z"/><path class="cls-2" d="m1003.18,545.39c.73-.15,2.78.32,3.01.2.05-.03,3.5-.33,3.5-.33,0,0,1.88.26,3.58.45,2.07.24,5.55-.13,7.61-.45.98-.15,2.59-1.5,3.79-2.02,1.45-.63,3.04-1.26,3.49-1.43-1.88-.07-8.01,1.02-8.87,1.04-2.93.05-2.93-.05-5.86,0-.51,0-1.02.02-1.53.03-1.5.03-3,.05-4.5.12-1.29.06-2.48,0-3.72-.38-1.26-.38-3.09-.34-3.09-.34l-4.05-1.57-3.9-2.13s-1.34-.71-2.07-.93c-1.28-.38-2.66-.65-3.97-.85-1.18-.18-2.18-.24-2.18-.24,0,0-3.97-.57-4.95-.17-.43.18-.75.47-1.13.73-.58.4-3.84,1.52-3.84,1.52,0,0,2.36-.07,3.72-.62.15-.06,2.79-.16,2.94-.2,1.32-.35,2.11.82,3.23.92,2,.18,1.64.56,2.81.9.7.37,1.37.71,2.19.9.7.17,2.9.51,3.49.73,1.14.43,1.55,1.75,2.74,1.99,1.65.33,8.3,1.05,8.3,1.05,0,0-.75.51-3.51,1.32-.13.09,2.03-.08,2.76-.23Z"/><path class="cls-2" d="m964.27,534.17c.17-.05.35-.05.63.06.62.22,1.02.71,1.45,1.2.18.2,1.17.23,1.9.63.6.33.94,1.03,1.3,1.18.36.15.68.22,1.07.29.35.07,1.01.06,1.31.25-1.4-.89-2.33-2.28-3.63-3.28-.05-.04-.11-.08-.17-.09-.07-.02-.15,0-.23,0-.26.01-.47-.2-.66-.38-.26-.25-.54-.49-.86-.68-.41-.24-.86-.49-1.33-.42-.71.11-1.55.43-2.04.96-.1.11-.44.3-.54.41-.28.34-.41.46-.69.8.35-.1.79-.1,1.08-.32.13-.1.25-.21.4-.27.09-.04.19-.06.29-.09.33-.09.51-.22.72-.28Z"/><path class="cls-2" d="m1066.97,550.09c-.56-.26-.84-.82-1.88-1.33-1.04-.51-2.38-.71-3.47-1.15"/><path class="cls-2" d="m1270.77,534.84c3.19,0,4.96,0,7.79-1.59,1.6-.9,3.83-2.41,6.43-3.07,2.01-.51,4.41-.26,5.87-.34,2.05-.11,4.51-.19,4.51-.19,0,0,4.65.41,6.73.06,5.31-.89,11.15.89,13.98,1.06,1.98.12,13.78.62,13.78.62,0,0,5.12-.42,5.97-.58-6.37,1.95-18.34,2.08-22.77,2.08s-13.63-.35-16.99-.35-10.44.71-12.39.71-6.55,2.3-6.55,2.3l-6.37-.71Z"/><path class="cls-2" d="m915.16,570.72c.05,0,.11,0,.16.02.14.04.26.12.39.19.33.19,1.37-.63,1.37-.63l-1.24-.11s-1.17-.96-1.8-1.15c-1.17-.35-2.62-.85-3.82-.5-1.45.43-2.46,1.69-3.94,2.15-.92.28-1.93.31-2.8.72-.5.24-.94.59-1.28,1.03,1.57-.16,3.8-.33,4.11-.43.25-.08,1.97-.44,2.19-.59.44-.31,1.27-1.31,1.86-1.26.74.05,2.53-.25,2.53-.25,0,0,1.54.81,2.1.81.05,0,.11,0,.16,0Z"/><path class="cls-2" d="m891.36,577.47s-.09-.05-.14-.07c-.78-.41-1.48-.53-2.36-.37-1.61.3-3.04,1.35-4.31,2.33.57.26,1.25.28,1.84.04.42-.17.8-.47,1.25-.54.97-.17,2.22-.62,2.18-.79.84-.6,1.87.28,2.67.5-.11-.43-.67-.85-1.12-1.1Z"/><path class="cls-2" d="m871.03,575.91c-1.43-.31-2.44-.21-3.39,1.08.66,0,1.32-.02,1.99-.03.88-.01,1.89.04,2.43.73.19-.46-.56-1.68-1.03-1.79Z"/><path class="cls-2" d="m896.63,573.47c-.68-.02-1.36-.06-1.98.12-.16.05-.31.12-.45.19-.39.19-.79.38-1.18.56-.03.01-.05.02-.07.05-.06.07.02.2.11.22.53.09,1.04-.13,1.57-.02.49.11,1.3-.31,1.82-.38.37-.05,1.78-.35,2.46-.45-.2-.4-.75-.39-1.19-.33-.35.05-.71.05-1.08.04Z"/><path class="cls-2" d="m954.47,540.17c-.69.41-1.53.56-2.25.89-.52.24-.98.59-1.55.74-.09.02-.17.04-.26.03-.11-.02-.2-.08-.28-.15l-3.39-2.46c-.57-.41-1.17-.77-1.68-1.26-.26-.25-.44-.55-.77-.76-1.16-.73-2-1.82-3.11-2.63-1.21-.88-2.59-1.51-3.87-2.28-.96-.58-2.09-1.13-3.13-1.54-.8-.31-1.74-.24-2.48.2-1.28.76-2.32,1.47-3.7,2.06-1.22.53-2.33,1.28-3.51,1.91-.22-.12-.5-.14-.76-.01-.53.26-1,.61-1.46.98-.01.01-.03.02-.04.03-1.4,1.23-3.27,1.91-4.51,3.25-.35.38-.66.82-.81,1.31.23-.79,3.14-2,3.83-2.26.66-.24,1.61-.85,2.25-.97.29-.06.57-.16.82-.29,1.11-.61,2.16-1.24,3.25-1.89.04.31.12.61.24.9.83-.85,2.04-1.21,3.19-1.54.69-.2,1.24-.44,1.87-.75.3-.15,1.62-1.07,1.82-1.07.67.11,1.3.42,1.94.79,1.03.6,2.07,1.17,3.1,1.76.9.52,1.62,1.15,2.37,1.86.58.56,1.2,1.08,1.75,1.68.03.03.06.07.09.12-.06.02-.13.04-.17.05-.33.05-.67.07-1.01.06-.25,0-.81-.46-1.07-.57-.38-.16-.77-.3-1.17-.41-.79-.21-1.6-.17-2.41-.07.15.56.22,1.14.23,1.73-1.01.32-2.03.65-3.04.97-.22.07-.5.26-.4.47,1.7.09,3.44.18,5.12.4.88.12,1.78,0,2.66.09.34.09.68.15,1.03.19.36.04.6-.16.7-.43.71.22,1.44.37,2.2.39-1.36,1.07-2.53,2.36-3.91,3.4-1.04.79-1.96,1.59-3.1,2.21-.66.36-1.32.73-1.97,1.12-.23.14-2.93.5-2.94.73-.02.22,1.57.58,1.78.52,1.26-.38,2.52-.76,3.78-1.14.64-.19,1.28-.38,1.87-.68.45-.23.88-.52,1.31-.79,1.71-1.07,3.61-1.83,5.59-2.23,1.84-.38,3.13-1.88,4.52-3.07,1.33-1.13,3.13-1.77,4.29-3.1-1.55.95-2.51,1.31-2.81,1.49Z"/><path class="cls-2" d="m1152.78,583.76c-.5-.31-1.1-.48-1.7-.44-.25.02-.5.07-.75.06-.22,0-.44-.05-.65,0-.25.07-2.01.78-2.22.92-.5.34-.46.48-.46.48,0,0,1.69.35,2.32.37.35.01,1.54-.7,2.36-.75,1-.06,1.65.51,2.09.37-.23-.42-.58-.77-.99-1.03Z"/><path class="cls-2" d="m1142.82,582.69c-.21-.51-.71-.56-1.18-.72-.51-.17-1.48.21-1.48.21,0,0,1.08.51,1.18.51.78,0,.92.15,1.45.72.17.19.29.32.54.27.06-.32-.36-.64-.5-.99Z"/><path class="cls-2" d="m1144.83,589.28c-.09-.52-.34-1.18-.35-1.23-.26-1.02-1.48-.39-2.05-.08-.21.11-.34.55-.34.55,0,0,1.55-.49,1.94.07.14.2.88,1.17.79.69Z"/><path class="cls-2" d="m1205.51,579.3s-1.9-.72-3.4-1.06c-1.67-.37-3.28-.98-4.88-1.56-1.57-.57-3.16-1.15-4.81-1.46-.81-.15-1.63-.22-2.45-.38-.8-.15-1.59-.28-2.41-.18-.83.11-1.66.35-2.47.56-.8.21-1.6.4-2.33.8-1.25.69-2.15,1.66-3.57,2.05-1.57.42-3.3.56-4.8,1.15-1.66.65-2.93,2.1-4.76,2.34-.37.05-.75.04-1.11.13-1.02.23-1.77,1.09-2.71,1.55-2.13,1.02-4.89-.19-6.93.99,1.83-.04,3.67-.08,5.5-.11.46,0,.91-.02,1.37-.09.65-.1,1.27-.32,1.88-.55.89-.32,1.79-.64,2.68-.97,1.59-.57,3.02-1.33,4.65-1.74,1.07-.27,2.14-.53,3.21-.81,1.02-.26,2.08-.46,3.01-.96.67-.36,1.24-.87,1.87-1.29,1.21-.83,2.74-1.26,4.17-.8.54.18,1.06.47,1.62.52.98.09,1.95-.54,2.9-.31,1.23.3,1.87,1.57,3.19,1.82,1.35.25,2.38-.73,3.64-.65.34.02.66.16.97.29,2.58,1.03,5.99.71,5.99.71Z"/><path class="cls-2" d="m1511,559.08c-.5-.08-1.01-.13-1.51-.14-.81-.03-1.69,0-2.34-.48-.23-.17-.41-.4-.65-.56-.66-.44-1.89-.19-2.64-.12-1.21-.45-2.32-.78-3.62-.88-1.42-.11-2.6-.53-3.9-1.08-2.46-1.04-5.06-1.08-7.63-1.69-.84-.2-1.69-.41-2.54-.58-.06-.41-1.79-.4-2.21-.3-.02,0-.05,0-.07.01-1.12-.06-2.24-.03-3.35.02-1.57.07-2.78.55-4.25,1.15-1.65.67-3.3,1.33-4.94,2,1.3-.25,2.6-.51,3.9-.76.91-.18,1.85-.36,2.77-.24.48.06.95.19,1.41.33,1.09.32,2.17.64,3.26.95.66.19,1.33.39,2.01.45,1.47.13,2.92-.38,4.39-.53,2.8-.28,4.08,2.03,6.7,2.46,1.29.21,2.56.39,3.87.42,4.77.08,9.44.61,14.27.4-.94-.39-1.92-.67-2.92-.82Z"/><path class="cls-2" d="m1502.4,568.68c-.14.11-.28.24-.44.32-.15.07-.78.35-.8.52.2.1.85.05,1.05-.07.19-.11.6-.28.8-.21.39.14.78.27,1.17.41.04.01.08.03.12.02.17-.02.27-.32.41-.24.18.12.57.13.76.23.35.19.5.46.88.59-.23-.16-.97-1.41-1.91-1.87-.72-.35-1.63-.01-2.03.29Z"/><path class="cls-2" d="m1515.31,569.25c-.47-.33-.99-1.14-1.63-.71-.15.1-1.34.23-1.42.39-.21.39-2.35.41-2.35.41,0,0-1.3.37-1.65.91,1.24-.29,2.51.21,3.78.38.29.04.6.06.87-.05.09-.04.17-.08.26-.13,1.19-.61,1.95-.06,3.11.2l1.25.29c-.12-.4-.73-.99-.73-.99,0,0-1.15-.46-1.49-.7Z"/><path class="cls-2" d="m900.52,553.82c-1.15-1.06-5.27-5.18-5.71-5.44s-2.52-1.81-3.45-2.12c-.93-.31-3.32-.53-3.89-.53s-2.88-.35-3.36-.31c-.49.04-2.39,1.06-2.79,1.37-.4.31-5.44,5-5.44,5,0,0,3.58-2.92,4.16-3.32s1.95-1.19,2.66-1.19,1.28-.4,1.64-.4,2.88.35,3.32.35,3.19.18,3.76.35c.58.18,2.7,2.35,3.01,2.52.31.18,6.11,3.72,6.11,3.72Z"/><path class="cls-2" d="m1193.21,566.38c-.99.74-1.86,1.37-3.24,1.44-2.52.12-4.73-.86-7.07-1.56-2.42-.72-4.93-1.15-7.46-1.28-1.21-.06-2.55.05-3.73-.25-.95-.24-1.7-.88-2.57-1.33-1.08-.56-2.31-.76-3.52-.96-1.7-.28-3.53-.38-5.18-.82-2.4-.64-4.68-1.21-7.05-1.83-1.33-.34-2.69-.56-4.05-.73-2.73-.34-5.48-.39-8.22-.47-2.74-.07-5.66,0-8.4.3-2.08.23-3.91-.09-5.91-.7-1.14-.35-2.18-.8-3.39-.9-1.34-.11-2.72.09-4.03-.26-1.27-.34-2.44-.8-3.78-.49-2.77.63-5.16.29-7.95-.1-1.17-.16-1.67-.69-6.91-.41,2.36.24,3.88.45,4.16.52.99.26,1.88.67,2.9.76,1.26.11,2.38.52,3.58.84.91.24,1.86.48,2.79.33,1.42-.23,2.34-.67,3.83-.22,1.14.34,2.21.55,3.41.56,1.16.02,2.32-.04,3.44.33.81.27,1.6.58,2.43.8.81.21,1.71.18,2.24.89-.99.53-1.97,1.06-2.96,1.59-.79.42-2.32.6-2.32.6,0,0,1.81.65,3.2.06.47-.2.95-.4,1.46-.48,1.18-.2,2.12-.11,3.22-.58,1.27-.55,2.74-.78,4.09-1.12,1.31-.33,2.6-.73,3.96-.76,2.65-.06,5.36.09,8,.34,1.43.14,2.85.35,4.24.67,1.38.32,2.67.86,3.98,1.4,1.28.53,2.81.98,3.88,1.9.86.75,1.5,1.61,2.6,2.1.58.26,1.23.28,1.87.26,1.36-.04,2.6-.46,3.92-.63,1.11-.14,2.35.2,3.43.5,1.32.37,2.6.84,3.92,1.21,1.87.52,3.39.71,5.28.54,3.1-.28,6.36,1.53,9.46.35.65-.25,1.02-.91,1.57-1.33.54-.41,1.76-1.91,1.76-1.91,0,0-.61.59-.89.8Z"/><path class="cls-2" d="m850.21,558.56c-3.01-.53-8.33-2.12-8.33-2.12l-10.61-5.85s-4.07-1.95-5.13-1.95-8.5.35-10.62.35-13.28-1.06-16.82-1.06-17.17-1.77-17.17-1.77c0,0,6.2,2.66,8.5,3.01s12.74,1.06,14.34,1.24c1.59.18,8.5,1.95,10.09,2.3s10.8,0,12.74.18,6.55,1.95,8.32,3.54c1.77,1.59,10.44,2.66,10.44,2.66l4.25-.53Z"/><path class="cls-3" d="m799.41,555.72c5.58,0,11.15.27,12.21.8,1.06.53,3.98,2.39,5.31,3.72,1.33,1.33,2.92,2.12,5.31,2.39.15.02.34.05.56.09,3.13.61,12.34,3.63,14.58,3.63,0,0-12.74-.27-14.34-.53-1.59-.27-5.04-1.59-6.64-2.12s-6.11-5.31-7.7-5.31-9.29-2.66-9.29-2.66Z"/></svg>