<?xml version="1.0" encoding="utf-8"?>
<!-- Generator: Adobe Illustrator 28.0.0, SVG Export Plug-In . SVG Version: 6.00 Build 0)  -->
<svg version="1.1" id="Layer_1" xmlns="http://www.w3.org/2000/svg" xmlns:xlink="http://www.w3.org/1999/xlink" x="0px" y="0px"
	 viewBox="0 0 1080 1080" style="enable-background:new 0 0 1080 1080;" xml:space="preserve">
<style type="text/css">
	.st0{filter:url(#Adobe_OpacityMaskFilter);}
	.st1{filter:url(#Adobe_OpacityMaskFilter_00000165921297175966313700000002185431583273797784_);}
	.st2{mask:url(#SVGID_1_);fill:url(#SVGID_00000142142065723638505160000006438367175088730295_);}
	.st3{fill:url(#SVGID_00000158709499867021952950000006306117591203342010_);}
	.st4{filter:url(#Adobe_OpacityMaskFilter_00000014610825363690873690000017177165616688722055_);}
	.st5{filter:url(#Adobe_OpacityMaskFilter_00000004528651654195097250000001463614971425629111_);}
	
		.st6{mask:url(#SVGID_00000122707924857090636250000014746640048844829611_);fill:url(#SVGID_00000020358549986025723420000007176671471214230424_);}
	.st7{fill:url(#SVGID_00000134939288924782651900000000588409950466467756_);}
	.st8{filter:url(#Adobe_OpacityMaskFilter_00000044881922301152151160000017199466238974224791_);}
	.st9{filter:url(#Adobe_OpacityMaskFilter_00000031890310954153048170000010508743181046453949_);}
	
		.st10{mask:url(#SVGID_00000177464819067035475770000016849081406442580137_);fill:url(#SVGID_00000063609589995376629420000010251864095954227386_);}
	.st11{opacity:0.67;fill:url(#SVGID_00000113344402952578756800000017116567984369026957_);}
	.st12{filter:url(#Adobe_OpacityMaskFilter_00000153663474674986196410000002748692793820669876_);}
	.st13{filter:url(#Adobe_OpacityMaskFilter_00000165210339810712309000000004449541847828179106_);}
	
		.st14{mask:url(#SVGID_00000021826777659843350840000010213536030301994882_);fill:url(#SVGID_00000035512158153175194300000007819560288076034709_);}
	.st15{fill:url(#SVGID_00000095320896490810496690000011938705296073452446_);}
	.st16{fill:#615598;}
	.st17{fill:#75E5FC;}
</style>
<g id="blurple">
	<defs>
		<filter id="Adobe_OpacityMaskFilter" filterUnits="userSpaceOnUse" x="18.9" y="48.9" width="979.9" height="883.9">
			<feFlood  style="flood-color:white;flood-opacity:1" result="back"/>
			<feBlend  in="SourceGraphic" in2="back" mode="normal"/>
		</filter>
	</defs>
	<mask maskUnits="userSpaceOnUse" x="18.9" y="48.9" width="979.9" height="883.9" id="SVGID_1_">
		<g class="st0">
			<defs>
				
					<filter id="Adobe_OpacityMaskFilter_00000055678021448563954390000008484756765446920842_" filterUnits="userSpaceOnUse" x="18.9" y="48.9" width="979.9" height="883.9">
					<feFlood  style="flood-color:white;flood-opacity:1" result="back"/>
					<feBlend  in="SourceGraphic" in2="back" mode="normal"/>
				</filter>
			</defs>
			<mask maskUnits="userSpaceOnUse" x="18.9" y="48.9" width="979.9" height="883.9" id="SVGID_1_">
				<g style="filter:url(#Adobe_OpacityMaskFilter_00000055678021448563954390000008484756765446920842_);">
				</g>
			</mask>
			
				<linearGradient id="SVGID_00000112604736326459251860000004451727885042890395_" gradientUnits="userSpaceOnUse" x1="-60.8574" y1="973.4258" x2="1155.2759" y2="-77.3572" gradientTransform="matrix(0.9983 -5.860000e-02 5.860000e-02 0.9983 -33.2954 34.8729)">
				<stop  offset="5.405410e-03" style="stop-color:#FFFFFF"/>
				<stop  offset="0.1641" style="stop-color:#C1C1C1"/>
				<stop  offset="0.3298" style="stop-color:#878787"/>
				<stop  offset="0.4905" style="stop-color:#565656"/>
				<stop  offset="0.6417" style="stop-color:#313131"/>
				<stop  offset="0.7813" style="stop-color:#161616"/>
				<stop  offset="0.905" style="stop-color:#060606"/>
				<stop  offset="1" style="stop-color:#000000"/>
			</linearGradient>
			<polygon style="mask:url(#SVGID_1_);fill:url(#SVGID_00000112604736326459251860000004451727885042890395_);" points="
				18.9,900.4 998.7,48.9 99.7,932.8 			"/>
		</g>
	</mask>
	
		<linearGradient id="SVGID_00000082353306247063521650000011791048462779827077_" gradientUnits="userSpaceOnUse" x1="-60.8574" y1="973.4258" x2="1155.2759" y2="-77.3572" gradientTransform="matrix(0.9983 -5.860000e-02 5.860000e-02 0.9983 -33.2954 34.8729)">
		<stop  offset="5.405250e-03" style="stop-color:#75E5FC"/>
		<stop  offset="2.273802e-02" style="stop-color:#73DFF7"/>
		<stop  offset="0.2168" style="stop-color:#5BA6C2"/>
		<stop  offset="0.4045" style="stop-color:#487595"/>
		<stop  offset="0.5812" style="stop-color:#395073"/>
		<stop  offset="0.7443" style="stop-color:#2E355A"/>
		<stop  offset="0.8889" style="stop-color:#27254B"/>
		<stop  offset="1" style="stop-color:#251F46"/>
	</linearGradient>
	<polygon style="fill:url(#SVGID_00000082353306247063521650000011791048462779827077_);" points="18.9,900.4 998.7,48.9 
		99.7,932.8 	"/>
	<defs>
		
			<filter id="Adobe_OpacityMaskFilter_00000023265911375450093680000013484149570212232581_" filterUnits="userSpaceOnUse" x="73.4" y="205.8" width="821.9" height="784.4">
			<feFlood  style="flood-color:white;flood-opacity:1" result="back"/>
			<feBlend  in="SourceGraphic" in2="back" mode="normal"/>
		</filter>
	</defs>
	
		<mask maskUnits="userSpaceOnUse" x="73.4" y="205.8" width="821.9" height="784.4" id="SVGID_00000160896902735535941220000001269038027379696021_">
		<g style="filter:url(#Adobe_OpacityMaskFilter_00000023265911375450093680000013484149570212232581_);">
			<defs>
				
					<filter id="Adobe_OpacityMaskFilter_00000044145433866012301740000008439321171154141087_" filterUnits="userSpaceOnUse" x="73.4" y="205.8" width="821.9" height="784.4">
					<feFlood  style="flood-color:white;flood-opacity:1" result="back"/>
					<feBlend  in="SourceGraphic" in2="back" mode="normal"/>
				</filter>
			</defs>
			
				<mask maskUnits="userSpaceOnUse" x="73.4" y="205.8" width="821.9" height="784.4" id="SVGID_00000160896902735535941220000001269038027379696021_">
				<g style="filter:url(#Adobe_OpacityMaskFilter_00000044145433866012301740000008439321171154141087_);">
				</g>
			</mask>
			
				<linearGradient id="SVGID_00000150823913974299405570000016744239858344657833_" gradientUnits="userSpaceOnUse" x1="-12.3208" y1="1015.8206" x2="1038.0859" y2="108.2312" gradientTransform="matrix(0.9983 -5.860000e-02 5.860000e-02 0.9983 -33.2954 34.8729)">
				<stop  offset="5.405410e-03" style="stop-color:#FFFFFF"/>
				<stop  offset="0.1641" style="stop-color:#C1C1C1"/>
				<stop  offset="0.3298" style="stop-color:#878787"/>
				<stop  offset="0.4905" style="stop-color:#565656"/>
				<stop  offset="0.6417" style="stop-color:#313131"/>
				<stop  offset="0.7813" style="stop-color:#161616"/>
				<stop  offset="0.905" style="stop-color:#060606"/>
				<stop  offset="1" style="stop-color:#000000"/>
			</linearGradient>
			
				<polygon style="mask:url(#SVGID_00000160896902735535941220000001269038027379696021_);fill:url(#SVGID_00000150823913974299405570000016744239858344657833_);" points="
				73.4,966.4 895.3,205.8 101.4,990.2 			"/>
		</g>
	</mask>
	
		<linearGradient id="SVGID_00000133512501264765818670000017216471874805327543_" gradientUnits="userSpaceOnUse" x1="-12.3208" y1="1015.8206" x2="1038.0859" y2="108.2312" gradientTransform="matrix(0.9983 -5.860000e-02 5.860000e-02 0.9983 -33.2954 34.8729)">
		<stop  offset="5.405410e-03" style="stop-color:#75E5FC"/>
		<stop  offset="2.272713e-02" style="stop-color:#73DFF7"/>
		<stop  offset="0.2167" style="stop-color:#5BA6C2"/>
		<stop  offset="0.4042" style="stop-color:#487595"/>
		<stop  offset="0.5808" style="stop-color:#395073"/>
		<stop  offset="0.7438" style="stop-color:#2E355A"/>
		<stop  offset="0.8883" style="stop-color:#27254B"/>
		<stop  offset="0.9994" style="stop-color:#251F46"/>
	</linearGradient>
	<polygon style="fill:url(#SVGID_00000133512501264765818670000017216471874805327543_);" points="73.4,966.4 895.3,205.8 
		101.4,990.2 	"/>
	<defs>
		
			<filter id="Adobe_OpacityMaskFilter_00000183958647653111481660000002131030452625943742_" filterUnits="userSpaceOnUse" x="163.4" y="29.9" width="793.7" height="687.5">
			<feFlood  style="flood-color:white;flood-opacity:1" result="back"/>
			<feBlend  in="SourceGraphic" in2="back" mode="normal"/>
		</filter>
	</defs>
	
		<mask maskUnits="userSpaceOnUse" x="163.4" y="29.9" width="793.7" height="687.5" id="SVGID_00000134972033541158911860000006449996290242940333_">
		<g style="filter:url(#Adobe_OpacityMaskFilter_00000183958647653111481660000002131030452625943742_);">
			<defs>
				
					<filter id="Adobe_OpacityMaskFilter_00000049912430369204525990000010034613885265984144_" filterUnits="userSpaceOnUse" x="163.4" y="29.9" width="793.7" height="687.5">
					<feFlood  style="flood-color:white;flood-opacity:1" result="back"/>
					<feBlend  in="SourceGraphic" in2="back" mode="normal"/>
				</filter>
			</defs>
			
				<mask maskUnits="userSpaceOnUse" x="163.4" y="29.9" width="793.7" height="687.5" id="SVGID_00000134972033541158911860000006449996290242940333_">
				<g style="filter:url(#Adobe_OpacityMaskFilter_00000049912430369204525990000010034613885265984144_);">
				</g>
			</mask>
			
				<linearGradient id="SVGID_00000039103003984972633910000008761095451028062652_" gradientUnits="userSpaceOnUse" x1="112.4574" y1="759.8116" x2="1081.1304" y2="-77.1569" gradientTransform="matrix(0.9983 -5.860000e-02 5.860000e-02 0.9983 -33.2954 34.8729)">
				<stop  offset="5.405410e-03" style="stop-color:#FFFFFF"/>
				<stop  offset="0.1641" style="stop-color:#C1C1C1"/>
				<stop  offset="0.3298" style="stop-color:#878787"/>
				<stop  offset="0.4905" style="stop-color:#565656"/>
				<stop  offset="0.6417" style="stop-color:#313131"/>
				<stop  offset="0.7813" style="stop-color:#161616"/>
				<stop  offset="0.905" style="stop-color:#060606"/>
				<stop  offset="1" style="stop-color:#000000"/>
			</linearGradient>
			
				<polygon style="mask:url(#SVGID_00000134972033541158911860000006449996290242940333_);fill:url(#SVGID_00000039103003984972633910000008761095451028062652_);" points="
				163.4,694.6 957.1,29.9 187.4,717.4 			"/>
		</g>
	</mask>
	
		<linearGradient id="SVGID_00000121256788082775231550000014462275226155063484_" gradientUnits="userSpaceOnUse" x1="112.4574" y1="759.8116" x2="1081.1304" y2="-77.1569" gradientTransform="matrix(0.9983 -5.860000e-02 5.860000e-02 0.9983 -33.2954 34.8729)">
		<stop  offset="5.405410e-03" style="stop-color:#615598"/>
		<stop  offset="0.2797" style="stop-color:#493F77"/>
		<stop  offset="0.5593" style="stop-color:#352D5C"/>
		<stop  offset="0.8084" style="stop-color:#29234C"/>
		<stop  offset="1" style="stop-color:#251F46"/>
	</linearGradient>
	<polygon style="opacity:0.67;fill:url(#SVGID_00000121256788082775231550000014462275226155063484_);" points="163.4,694.6 
		957.1,29.9 187.4,717.4 	"/>
	<defs>
		
			<filter id="Adobe_OpacityMaskFilter_00000085246897001647825130000005381870411453947056_" filterUnits="userSpaceOnUse" x="80.1" y="69.2" width="999.9" height="963.3">
			<feFlood  style="flood-color:white;flood-opacity:1" result="back"/>
			<feBlend  in="SourceGraphic" in2="back" mode="normal"/>
		</filter>
	</defs>
	
		<mask maskUnits="userSpaceOnUse" x="80.1" y="69.2" width="999.9" height="963.3" id="SVGID_00000160903707172079469460000014199902868919149230_">
		<g style="filter:url(#Adobe_OpacityMaskFilter_00000085246897001647825130000005381870411453947056_);">
			<defs>
				
					<filter id="Adobe_OpacityMaskFilter_00000182520082173493812070000015644325537073384074_" filterUnits="userSpaceOnUse" x="80.1" y="69.2" width="999.9" height="963.3">
					<feFlood  style="flood-color:white;flood-opacity:1" result="back"/>
					<feBlend  in="SourceGraphic" in2="back" mode="normal"/>
				</filter>
			</defs>
			
				<mask maskUnits="userSpaceOnUse" x="80.1" y="69.2" width="999.9" height="963.3" id="SVGID_00000160903707172079469460000014199902868919149230_">
				<g style="filter:url(#Adobe_OpacityMaskFilter_00000182520082173493812070000015644325537073384074_);">
				</g>
			</mask>
			
				<linearGradient id="SVGID_00000141442027348789221230000016049256649449252992_" gradientUnits="userSpaceOnUse" x1="-33.9666" y1="1079.5599" x2="1262.3605" y2="-40.5134" gradientTransform="matrix(0.9983 -5.860000e-02 5.860000e-02 0.9983 -33.2954 34.8729)">
				<stop  offset="5.405410e-03" style="stop-color:#FFFFFF"/>
				<stop  offset="0.1641" style="stop-color:#C1C1C1"/>
				<stop  offset="0.3298" style="stop-color:#878787"/>
				<stop  offset="0.4905" style="stop-color:#565656"/>
				<stop  offset="0.6417" style="stop-color:#313131"/>
				<stop  offset="0.7813" style="stop-color:#161616"/>
				<stop  offset="0.905" style="stop-color:#060606"/>
				<stop  offset="1" style="stop-color:#000000"/>
			</linearGradient>
			
				<polygon style="mask:url(#SVGID_00000160903707172079469460000014199902868919149230_);fill:url(#SVGID_00000141442027348789221230000016049256649449252992_);" points="
				80.1,1022.7 1080,69.2 91,1032.5 			"/>
		</g>
	</mask>
	
		<linearGradient id="SVGID_00000150084032166508556020000013034300193374937230_" gradientUnits="userSpaceOnUse" x1="-33.9666" y1="1079.5599" x2="1262.3605" y2="-40.5134" gradientTransform="matrix(0.9983 -5.860000e-02 5.860000e-02 0.9983 -33.2954 34.8729)">
		<stop  offset="5.405410e-03" style="stop-color:#75E5FC"/>
		<stop  offset="2.273818e-02" style="stop-color:#73DFF7"/>
		<stop  offset="0.2168" style="stop-color:#5BA6C2"/>
		<stop  offset="0.4045" style="stop-color:#487595"/>
		<stop  offset="0.5812" style="stop-color:#395073"/>
		<stop  offset="0.7443" style="stop-color:#2E355A"/>
		<stop  offset="0.8889" style="stop-color:#27254B"/>
		<stop  offset="1" style="stop-color:#251F46"/>
	</linearGradient>
	<polygon style="fill:url(#SVGID_00000150084032166508556020000013034300193374937230_);" points="80.1,1022.7 1080,69.2 91,1032.5 
			"/>
	<g>
		<g>
			<path class="st16" d="M93.9,995l18.8-26.5l-4.4-3.9l4.4,3.9l49.1-69L140,877.1l-8.8,15.4l8.8-15.4l-3.5-3.6l3.5,3.6l14.1-24.7
				l-3.9-3.9l-40.1,46.3l13.1,14.9l6.5-6.5l-6.5,6.5l10.3,11.7l-10.3-11.7l-53.5,53.4l6,6.1l-6-6.1l-13,13l13-13l-33-33.5l-6.5,7
				l6.5-7l-9.6-9.7l9.6,9.7l9.2-9.9l-26.3-24.3c-3.8,2.6-7.6,5.2-11.3,7.8c-8.2,5.6-10.6,16.6-5.7,25.2l20.8,36.1
				c0.6,1.1,1.2,2.2,1.5,3.4c2.3,8.4-5.4,10.3-9.2,14.9c-7.6,9.4,2.9,22.4,12.6,29.7c15.6,11.8,31.3,23.6,46.9,35.4
				c1.5,1.1,3.2,2.3,5.1,2.1c1.8-0.2,3.2-1.7,4.4-3.1l50.3-58.7l-22.2-19.7L93.9,995z"/>
		</g>
		<g>
			<path class="st17" d="M191.7,896.7c-7-8.5-14.6-16.5-22.8-23.8c-5.1-4.6-6.3-12.1-2.9-18l13.5-23.9c0.9-1.6,1.9-3.4,1.8-5.3
				c-0.1-2.8-2.5-5-4.7-6.8c-8.5-7.1-17.1-14.2-25.6-21.3c-6.8-5.6-16.6-6-23.7-0.8c-14.6,10.7-30.4,19.9-46.9,27.2
				c-19.3,8.5-10,27.7-23.1,41.4c-10.6,11.1-24.3,20.7-37.9,30l26.3,24.3l4.8-5.1l-4.8,5.1l10.1,9.3l-10.1-9.3l-9.2,9.9l33,33.5
				l53.5-53.4l-13.1-14.9l-8.6,9.9l8.6-9.9l-4-4.6l4,4.6l40.1-46.3l-6.9-6.9l6.9,6.9l5.3-6.1l-5.3,6.1l3.9,3.9l4.4-7.7l-4.4,7.7
				l1.4,1.4l-1.4-1.4L140,877.1l21.9,22.4l5-7l-5,7l8.8,9l-8.8-9l-49.1,69l22.2,19.7l56.5-66C197.8,914.8,197.8,904.1,191.7,896.7z"
				/>
		</g>
	</g>
	<g>
		<path class="st16" d="M177.1,690l-11.4,2.8c-4.2,1-6.6,5.5-5,9.6l1.2,3c1.1,2.9,0.3,6.1-2.1,8.1l-1.3,1.1
			c-3.1,2.6-3.4,7.2-0.8,10.2l4.1,4.7c2.5,2.9,7,3.3,10,0.8l15.6-12.8c2.2-1.8,3.1-4.7,2.4-7.4l-4-15
			C184.7,691.3,180.9,689,177.1,690z"/>
	</g>
	<g>
		<path class="st17" d="M231.8,831.9l-4.9,1.2c-1.8,0.4-2.8,2.4-2.1,4.1l0.5,1.3c0.5,1.2,0.1,2.6-0.9,3.5l-0.5,0.5
			c-1.3,1.1-1.5,3.1-0.3,4.4l1.8,2c1.1,1.3,3,1.4,4.3,0.4l6.7-5.5c0.9-0.8,1.3-2,1-3.2l-1.7-6.4
			C235.1,832.5,233.4,831.5,231.8,831.9z"/>
	</g>
	<g>
		<path class="st17" d="M240.2,907.4l-2.5-0.4c-0.9-0.1-2.5,1.1-3.3,2.7l-0.6,1.2c-0.6,1.1-1.6,2.1-2.5,2.5l-0.5,0.2
			c-1.1,0.5-2.4,2-2.8,3.4l-0.6,2.1c-0.4,1.3,0.2,1.9,1.3,1.5l5.7-2.5c0.8-0.3,1.7-1.2,2.3-2.2l3.4-5.5
			C241,908.8,241,907.6,240.2,907.4z"/>
	</g>
</g>
</svg>
