<?xml version="1.0" encoding="utf-8"?>
<!-- Generator: Adobe Illustrator 28.0.0, SVG Export Plug-In . SVG Version: 6.00 Build 0)  -->
<svg version="1.1" id="Layer_1" xmlns="http://www.w3.org/2000/svg" xmlns:xlink="http://www.w3.org/1999/xlink" x="0px" y="0px"
	 viewBox="0 0 1080 1080" style="enable-background:new 0 0 1080 1080;" xml:space="preserve">
<style type="text/css">
	.st0{filter:url(#Adobe_OpacityMaskFilter);}
	.st1{filter:url(#Adobe_OpacityMaskFilter_00000057108731092937498000000005045352589974384288_);}
	.st2{mask:url(#SVGID_1_);fill:url(#SVGID_00000016774950489484449880000012414237777326988708_);}
	.st3{filter:url(#Adobe_OpacityMaskFilter_00000067193828342658826800000001229896019458150800_);}
	.st4{filter:url(#Adobe_OpacityMaskFilter_00000124122308763550696960000004143133335253109915_);}
	
		.st5{mask:url(#SVGID_00000079474390511430856830000015747052027620065165_);fill:url(#SVGID_00000049932577768227672290000010870024334980756669_);}
	.st6{filter:url(#Adobe_OpacityMaskFilter_00000156587118788404506220000014395667805105794226_);}
	.st7{filter:url(#Adobe_OpacityMaskFilter_00000057848858537120686900000011047335869330424496_);}
	
		.st8{mask:url(#SVGID_00000067941061494636657990000001412845206004889768_);fill:url(#SVGID_00000059299766442656925940000000245180187774541503_);}
	.st9{filter:url(#Adobe_OpacityMaskFilter_00000141418171692238291680000005546063614347402374_);}
	.st10{filter:url(#Adobe_OpacityMaskFilter_00000017483958936149327610000018156091803665529731_);}
	
		.st11{mask:url(#SVGID_00000077324604599394188720000014742328118556850833_);fill:url(#SVGID_00000155835292684379406850000015875401786508079787_);}
	.st12{fill:url(#SVGID_00000173839345626065512010000007184381747303922349_);enable-background:new    ;}
	.st13{filter:url(#Adobe_OpacityMaskFilter_00000099659249573232617780000000228797184721745558_);}
	.st14{filter:url(#Adobe_OpacityMaskFilter_00000088823860892514430300000008777766084897537199_);}
	
		.st15{mask:url(#SVGID_00000177473030396054037140000005262102633087616148_);fill:url(#SVGID_00000015319503152940407250000017417215091765951924_);}
	.st16{fill:url(#SVGID_00000044153752075920357240000008383758279444367545_);}
	.st17{filter:url(#Adobe_OpacityMaskFilter_00000050653681106275720610000011922514358267879576_);}
	.st18{filter:url(#Adobe_OpacityMaskFilter_00000151538175294539134670000012245277598432560008_);}
	
		.st19{mask:url(#SVGID_00000125578580914873040940000016462663403842959525_);fill:url(#SVGID_00000066487149563864007630000017613748679534514615_);}
	.st20{filter:url(#Adobe_OpacityMaskFilter_00000019675576922482506880000014007113863136802461_);}
	.st21{filter:url(#Adobe_OpacityMaskFilter_00000049935269554560020040000011936238101243980714_);}
	
		.st22{mask:url(#SVGID_00000128475143797804660220000003434529804877732269_);fill:url(#SVGID_00000088833205471399993610000006257949824280791439_);}
	.st23{filter:url(#Adobe_OpacityMaskFilter_00000159443446944593381370000012791841298800439736_);}
	.st24{filter:url(#Adobe_OpacityMaskFilter_00000002362770774995455760000004782779607338391471_);}
	
		.st25{mask:url(#SVGID_00000060745028622198748350000012106417522178135681_);fill:url(#SVGID_00000047049950787690627010000002112354425252190136_);}
	.st26{filter:url(#Adobe_OpacityMaskFilter_00000049185809258915933110000004769034733149555878_);}
	.st27{filter:url(#Adobe_OpacityMaskFilter_00000108281939407245729350000014717954203262863800_);}
	
		.st28{mask:url(#SVGID_00000146478150043135001680000010515545335280540043_);fill:url(#SVGID_00000134209973769150896820000002881585271266989496_);}
	.st29{fill:url(#SVGID_00000103252200994026472060000011884365097929799846_);}
	.st30{fill:#CB6036;}
	.st31{fill:#E89257;}
</style>
<g id="orange">
	<defs>
		<filter id="Adobe_OpacityMaskFilter" filterUnits="userSpaceOnUse" x="103.3" y="83.5" width="976.7" height="811.3">
			<feColorMatrix  type="matrix" values="1 0 0 0 0  0 1 0 0 0  0 0 1 0 0  0 0 0 1 0"/>
		</filter>
	</defs>
	<mask maskUnits="userSpaceOnUse" x="103.3" y="83.5" width="976.7" height="811.3" id="SVGID_1_">
		<g class="st0">
			<defs>
				
					<filter id="Adobe_OpacityMaskFilter_00000174562680645827916480000010166628952862648200_" filterUnits="userSpaceOnUse" x="103.3" y="83.5" width="976.7" height="811.3">
					<feFlood  style="flood-color:white;flood-opacity:1" result="back"/>
					<feBlend  in="SourceGraphic" in2="back" mode="normal"/>
				</filter>
			</defs>
			<mask maskUnits="userSpaceOnUse" x="103.3" y="83.5" width="976.7" height="811.3" id="SVGID_1_">
				<g style="filter:url(#Adobe_OpacityMaskFilter_00000174562680645827916480000010166628952862648200_);">
				</g>
			</mask>
			
				<linearGradient id="SVGID_00000151518322469104722840000001105653472189280408_" gradientUnits="userSpaceOnUse" x1="-87.779" y1="1049.4425" x2="1100.1194" y2="29.4441">
				<stop  offset="0.3027" style="stop-color:#FFFFFF"/>
				<stop  offset="0.4139" style="stop-color:#C1C1C1"/>
				<stop  offset="0.5301" style="stop-color:#878787"/>
				<stop  offset="0.6428" style="stop-color:#565656"/>
				<stop  offset="0.7488" style="stop-color:#313131"/>
				<stop  offset="0.8466" style="stop-color:#161616"/>
				<stop  offset="0.9334" style="stop-color:#060606"/>
				<stop  offset="1" style="stop-color:#000000"/>
			</linearGradient>
			<path style="mask:url(#SVGID_1_);fill:url(#SVGID_00000151518322469104722840000001105653472189280408_);" d="M1079.1,85
				C1049.8,50.7,300,609.7,130.2,754.5c-9.2,7.8-18.1,15.6-26.9,23.4l114,116.9c6.4-5.3,12.7-10.6,19.1-16.1
				C406.2,734,1108.4,119.3,1079.1,85z"/>
		</g>
	</mask>
	<g>
		<defs>
			
				<filter id="Adobe_OpacityMaskFilter_00000174573124917126181120000010223550513655125438_" filterUnits="userSpaceOnUse" x="103.3" y="83.5" width="976.7" height="811.3">
				<feFlood  style="flood-color:white;flood-opacity:1" result="back"/>
				<feBlend  in="SourceGraphic" in2="back" mode="normal"/>
			</filter>
		</defs>
		
			<mask maskUnits="userSpaceOnUse" x="103.3" y="83.5" width="976.7" height="811.3" id="SVGID_00000162351560983810430470000017768884714782041486_">
			<g style="filter:url(#Adobe_OpacityMaskFilter_00000174573124917126181120000010223550513655125438_);">
				<defs>
					
						<filter id="Adobe_OpacityMaskFilter_00000088132582219195401730000001685007014097305771_" filterUnits="userSpaceOnUse" x="103.3" y="83.5" width="976.7" height="811.3">
						<feFlood  style="flood-color:white;flood-opacity:1" result="back"/>
						<feBlend  in="SourceGraphic" in2="back" mode="normal"/>
					</filter>
				</defs>
				
					<mask maskUnits="userSpaceOnUse" x="103.3" y="83.5" width="976.7" height="811.3" id="SVGID_00000162351560983810430470000017768884714782041486_">
					<g style="filter:url(#Adobe_OpacityMaskFilter_00000088132582219195401730000001685007014097305771_);">
					</g>
				</mask>
				
					<linearGradient id="SVGID_00000068653218747389243430000000347490878374171561_" gradientUnits="userSpaceOnUse" x1="-87.779" y1="1049.4425" x2="1100.1194" y2="29.4441">
					<stop  offset="0.3027" style="stop-color:#FFFFFF"/>
					<stop  offset="0.4139" style="stop-color:#C1C1C1"/>
					<stop  offset="0.5301" style="stop-color:#878787"/>
					<stop  offset="0.6428" style="stop-color:#565656"/>
					<stop  offset="0.7488" style="stop-color:#313131"/>
					<stop  offset="0.8466" style="stop-color:#161616"/>
					<stop  offset="0.9334" style="stop-color:#060606"/>
					<stop  offset="1" style="stop-color:#000000"/>
				</linearGradient>
				
					<path style="mask:url(#SVGID_00000162351560983810430470000017768884714782041486_);fill:url(#SVGID_00000068653218747389243430000000347490878374171561_);" d="
					M1079.1,85C1049.8,50.7,300,609.7,130.2,754.5c-9.2,7.8-18.1,15.6-26.9,23.4l114,116.9c6.4-5.3,12.7-10.6,19.1-16.1
					C406.2,734,1108.4,119.3,1079.1,85z"/>
			</g>
		</mask>
		<g>
			<defs>
				
					<filter id="Adobe_OpacityMaskFilter_00000042722426850016327330000010398870928296831900_" filterUnits="userSpaceOnUse" x="103.3" y="83.5" width="976.7" height="811.3">
					<feFlood  style="flood-color:white;flood-opacity:1" result="back"/>
					<feBlend  in="SourceGraphic" in2="back" mode="normal"/>
				</filter>
			</defs>
			
				<mask maskUnits="userSpaceOnUse" x="103.3" y="83.5" width="976.7" height="811.3" id="SVGID_00000066503074873637458420000008403231896197452422_">
				<g style="filter:url(#Adobe_OpacityMaskFilter_00000042722426850016327330000010398870928296831900_);">
					<defs>
						
							<filter id="Adobe_OpacityMaskFilter_00000032649277652262652860000015099199145653539215_" filterUnits="userSpaceOnUse" x="103.3" y="83.5" width="976.7" height="811.3">
							<feFlood  style="flood-color:white;flood-opacity:1" result="back"/>
							<feBlend  in="SourceGraphic" in2="back" mode="normal"/>
						</filter>
					</defs>
					
						<mask maskUnits="userSpaceOnUse" x="103.3" y="83.5" width="976.7" height="811.3" id="SVGID_00000066503074873637458420000008403231896197452422_">
						<g style="filter:url(#Adobe_OpacityMaskFilter_00000032649277652262652860000015099199145653539215_);">
						</g>
					</mask>
					
						<linearGradient id="SVGID_00000150099120283668003220000002639656754359222956_" gradientUnits="userSpaceOnUse" x1="-87.779" y1="1049.4425" x2="1100.1194" y2="29.4441">
						<stop  offset="0.3027" style="stop-color:#FFFFFF"/>
						<stop  offset="0.4537" style="stop-color:#D5D5D5"/>
						<stop  offset="0.6148" style="stop-color:#B0B0B0"/>
						<stop  offset="0.7648" style="stop-color:#969696"/>
						<stop  offset="0.8978" style="stop-color:#858585"/>
						<stop  offset="1" style="stop-color:#808080"/>
					</linearGradient>
					
						<path style="mask:url(#SVGID_00000066503074873637458420000008403231896197452422_);fill:url(#SVGID_00000150099120283668003220000002639656754359222956_);" d="
						M1079.1,85C1049.8,50.7,300,609.7,130.2,754.5c-9.2,7.8-18.1,15.6-26.9,23.4l114,116.9c6.4-5.3,12.7-10.6,19.1-16.1
						C406.2,734,1108.4,119.3,1079.1,85z"/>
				</g>
			</mask>
			<g>
				<defs>
					
						<filter id="Adobe_OpacityMaskFilter_00000011712854467133358140000012899863262098783643_" filterUnits="userSpaceOnUse" x="103.3" y="83.5" width="976.7" height="811.3">
						<feFlood  style="flood-color:white;flood-opacity:1" result="back"/>
						<feBlend  in="SourceGraphic" in2="back" mode="normal"/>
					</filter>
				</defs>
				
					<mask maskUnits="userSpaceOnUse" x="103.3" y="83.5" width="976.7" height="811.3" id="SVGID_00000058564335707795223310000018329991107011238581_">
					<g style="filter:url(#Adobe_OpacityMaskFilter_00000011712854467133358140000012899863262098783643_);">
						<defs>
							
								<filter id="Adobe_OpacityMaskFilter_00000001652366444910624530000008399937129268038817_" filterUnits="userSpaceOnUse" x="103.3" y="83.5" width="976.7" height="811.3">
								<feFlood  style="flood-color:white;flood-opacity:1" result="back"/>
								<feBlend  in="SourceGraphic" in2="back" mode="normal"/>
							</filter>
						</defs>
						
							<mask maskUnits="userSpaceOnUse" x="103.3" y="83.5" width="976.7" height="811.3" id="SVGID_00000058564335707795223310000018329991107011238581_">
							<g style="filter:url(#Adobe_OpacityMaskFilter_00000001652366444910624530000008399937129268038817_);">
							</g>
						</mask>
						
							<linearGradient id="SVGID_00000155106063458929501460000005851547717754790562_" gradientUnits="userSpaceOnUse" x1="-87.779" y1="1049.4425" x2="1100.1194" y2="29.4441">
							<stop  offset="0.3027" style="stop-color:#FFFFFF"/>
							<stop  offset="0.4537" style="stop-color:#D5D5D5"/>
							<stop  offset="0.6148" style="stop-color:#B0B0B0"/>
							<stop  offset="0.7648" style="stop-color:#969696"/>
							<stop  offset="0.8978" style="stop-color:#858585"/>
							<stop  offset="1" style="stop-color:#808080"/>
						</linearGradient>
						
							<path style="mask:url(#SVGID_00000058564335707795223310000018329991107011238581_);fill:url(#SVGID_00000155106063458929501460000005851547717754790562_);" d="
							M1079.1,85C1049.8,50.7,300,609.7,130.2,754.5c-9.2,7.8-18.1,15.6-26.9,23.4l114,116.9c6.4-5.3,12.7-10.6,19.1-16.1
							C406.2,734,1108.4,119.3,1079.1,85z"/>
					</g>
				</mask>
				
					<linearGradient id="SVGID_00000049218011803793409230000008821699295475042969_" gradientUnits="userSpaceOnUse" x1="-87.779" y1="1049.4425" x2="1100.1194" y2="29.4441">
					<stop  offset="0.3013" style="stop-color:#CB6036"/>
					<stop  offset="0.4102" style="stop-color:#D57B4B"/>
					<stop  offset="0.5842" style="stop-color:#E3A068"/>
					<stop  offset="0.7461" style="stop-color:#EEBB7D"/>
					<stop  offset="0.8896" style="stop-color:#F4CB8A"/>
					<stop  offset="1" style="stop-color:#F6D18E"/>
				</linearGradient>
				<path style="fill:url(#SVGID_00000049218011803793409230000008821699295475042969_);enable-background:new    ;" d="M1079.1,85
					C1049.8,50.7,300,609.7,130.2,754.5c-9.2,7.8-18.1,15.6-26.9,23.4l114,116.9c6.4-5.3,12.7-10.6,19.1-16.1
					C406.2,734,1108.4,119.3,1079.1,85z"/>
			</g>
		</g>
	</g>
	<defs>
		
			<filter id="Adobe_OpacityMaskFilter_00000152224700749997310720000002072475447749671099_" filterUnits="userSpaceOnUse" x="0" y="698.5" width="298.3" height="298">
			<feFlood  style="flood-color:white;flood-opacity:1" result="back"/>
			<feBlend  in="SourceGraphic" in2="back" mode="normal"/>
		</filter>
	</defs>
	
		<mask maskUnits="userSpaceOnUse" x="0" y="698.5" width="298.3" height="298" id="SVGID_00000039812068779319810400000013974015499244581297_">
		<g style="filter:url(#Adobe_OpacityMaskFilter_00000152224700749997310720000002072475447749671099_);">
			<defs>
				
					<filter id="Adobe_OpacityMaskFilter_00000051377453227676099730000007455806697981990323_" filterUnits="userSpaceOnUse" x="0" y="698.5" width="298.3" height="298">
					<feFlood  style="flood-color:white;flood-opacity:1" result="back"/>
					<feBlend  in="SourceGraphic" in2="back" mode="normal"/>
				</filter>
			</defs>
			
				<mask maskUnits="userSpaceOnUse" x="0" y="698.5" width="298.3" height="298" id="SVGID_00000039812068779319810400000013974015499244581297_">
				<g style="filter:url(#Adobe_OpacityMaskFilter_00000051377453227676099730000007455806697981990323_);">
				</g>
			</mask>
			
				<radialGradient id="SVGID_00000123400748700642246410000007556056303350166458_" cx="149.3199" cy="847.2489" r="149.0441" gradientTransform="matrix(1.0007 0 0 0.9998 -0.2742 0.4215)" gradientUnits="userSpaceOnUse">
				<stop  offset="0" style="stop-color:#FFFFFF"/>
				<stop  offset="9.553533e-02" style="stop-color:#F9F9F9"/>
				<stop  offset="0.2199" style="stop-color:#E9E9E9"/>
				<stop  offset="0.3602" style="stop-color:#CECECE"/>
				<stop  offset="0.5123" style="stop-color:#A9A9A9"/>
				<stop  offset="0.6738" style="stop-color:#787878"/>
				<stop  offset="0.8405" style="stop-color:#3E3E3E"/>
				<stop  offset="1" style="stop-color:#000000"/>
			</radialGradient>
			
				<path style="mask:url(#SVGID_00000039812068779319810400000013974015499244581297_);fill:url(#SVGID_00000123400748700642246410000007556056303350166458_);" d="
				M149.2,698.5c-42.7,0-81.2,18-108.4,46.7C15.5,771.9,0,807.9,0,847.5c0,82.3,66.8,149,149.2,149c74.3,0,135.9-54.3,147.3-125.4
				c1.2-7.7,1.9-15.6,1.9-23.7C298.3,765.2,231.5,698.5,149.2,698.5z"/>
		</g>
	</mask>
	
		<radialGradient id="SVGID_00000162314735423517940300000002448377758394094254_" cx="149.3199" cy="847.2489" r="149.0441" gradientTransform="matrix(1.0007 0 0 0.9998 -0.2742 0.4215)" gradientUnits="userSpaceOnUse">
		<stop  offset="0" style="stop-color:#CB6036"/>
		<stop  offset="0.1107" style="stop-color:#CC653C;stop-opacity:0.8893"/>
		<stop  offset="0.2547" style="stop-color:#D1714C;stop-opacity:0.7453"/>
		<stop  offset="0.4171" style="stop-color:#D88767;stop-opacity:0.5829"/>
		<stop  offset="0.5932" style="stop-color:#E1A48C;stop-opacity:0.4068"/>
		<stop  offset="0.7801" style="stop-color:#EECABD;stop-opacity:0.2199"/>
		<stop  offset="0.9734" style="stop-color:#FDF8F6;stop-opacity:2.658498e-02"/>
		<stop  offset="1" style="stop-color:#FFFFFF;stop-opacity:0"/>
	</radialGradient>
	<path style="fill:url(#SVGID_00000162314735423517940300000002448377758394094254_);" d="M149.2,698.5c-42.7,0-81.2,18-108.4,46.7
		C15.5,771.9,0,807.9,0,847.5c0,82.3,66.8,149,149.2,149c74.3,0,135.9-54.3,147.3-125.4c1.2-7.7,1.9-15.6,1.9-23.7
		C298.3,765.2,231.5,698.5,149.2,698.5z"/>
	<defs>
		
			<filter id="Adobe_OpacityMaskFilter_00000104670474363313484550000017780724320058007182_" filterUnits="userSpaceOnUse" x="79.6" y="542.9" width="438.3" height="373.3">
			<feColorMatrix  type="matrix" values="1 0 0 0 0  0 1 0 0 0  0 0 1 0 0  0 0 0 1 0"/>
		</filter>
	</defs>
	
		<mask maskUnits="userSpaceOnUse" x="79.6" y="542.9" width="438.3" height="373.3" id="SVGID_00000135649660409987130760000013052667598386015116_">
		<g style="filter:url(#Adobe_OpacityMaskFilter_00000104670474363313484550000017780724320058007182_);">
			<defs>
				
					<filter id="Adobe_OpacityMaskFilter_00000170278279161405290070000001343107181995677875_" filterUnits="userSpaceOnUse" x="79.6" y="542.9" width="438.3" height="373.3">
					<feFlood  style="flood-color:white;flood-opacity:1" result="back"/>
					<feBlend  in="SourceGraphic" in2="back" mode="normal"/>
				</filter>
			</defs>
			
				<mask maskUnits="userSpaceOnUse" x="79.6" y="542.9" width="438.3" height="373.3" id="SVGID_00000135649660409987130760000013052667598386015116_">
				<g style="filter:url(#Adobe_OpacityMaskFilter_00000170278279161405290070000001343107181995677875_);">
				</g>
			</mask>
			
				<linearGradient id="SVGID_00000021836815345051861200000002943336832985241017_" gradientUnits="userSpaceOnUse" x1="-21.23" y1="984.2851" x2="524.3586" y2="515.8112" gradientTransform="matrix(0.9997 -2.560000e-02 2.560000e-02 0.9997 -12.3907 12.8249)">
				<stop  offset="0.3027" style="stop-color:#FFFFFF"/>
				<stop  offset="0.4139" style="stop-color:#C1C1C1"/>
				<stop  offset="0.5301" style="stop-color:#878787"/>
				<stop  offset="0.6428" style="stop-color:#565656"/>
				<stop  offset="0.7488" style="stop-color:#313131"/>
				<stop  offset="0.8466" style="stop-color:#161616"/>
				<stop  offset="0.9334" style="stop-color:#060606"/>
				<stop  offset="1" style="stop-color:#000000"/>
			</linearGradient>
			
				<path style="mask:url(#SVGID_00000135649660409987130760000013052667598386015116_);fill:url(#SVGID_00000021836815345051861200000002943336832985241017_);" d="
				M80.6,832.4c0,0,22.2-120.4,183.8-198.7c0,0-75.6,73.7-100,138.4c0,0,93.3-130.4,247.2-189.7c0,0-160.8,116.3-178.6,166.9
				l49.5-26.3c0,0-11.6,40.5-38.2,60.2c0,0,246.7-193.5,273.6-240.3c0,0-113.4,214.1-243,287.6c0,0,95.2-33.1,127.3-77.3
				c0,0-92.2,129.4-211.9,158.3c-18.8,4.5-38.7,6.8-57.4,1.9C105.2,906.2,73.6,884.6,80.6,832.4z"/>
		</g>
	</mask>
	<g>
		<defs>
			
				<filter id="Adobe_OpacityMaskFilter_00000142878591766357632140000001911476929801542025_" filterUnits="userSpaceOnUse" x="79.6" y="542.9" width="438.3" height="373.3">
				<feFlood  style="flood-color:white;flood-opacity:1" result="back"/>
				<feBlend  in="SourceGraphic" in2="back" mode="normal"/>
			</filter>
		</defs>
		
			<mask maskUnits="userSpaceOnUse" x="79.6" y="542.9" width="438.3" height="373.3" id="SVGID_00000049901395583963830170000004326756727902160571_">
			<g style="filter:url(#Adobe_OpacityMaskFilter_00000142878591766357632140000001911476929801542025_);">
				<defs>
					
						<filter id="Adobe_OpacityMaskFilter_00000074408507968095879550000008116208323742112915_" filterUnits="userSpaceOnUse" x="79.6" y="542.9" width="438.3" height="373.3">
						<feFlood  style="flood-color:white;flood-opacity:1" result="back"/>
						<feBlend  in="SourceGraphic" in2="back" mode="normal"/>
					</filter>
				</defs>
				
					<mask maskUnits="userSpaceOnUse" x="79.6" y="542.9" width="438.3" height="373.3" id="SVGID_00000049901395583963830170000004326756727902160571_">
					<g style="filter:url(#Adobe_OpacityMaskFilter_00000074408507968095879550000008116208323742112915_);">
					</g>
				</mask>
				
					<linearGradient id="SVGID_00000076577570942885534260000001747820796652001947_" gradientUnits="userSpaceOnUse" x1="-21.23" y1="984.2851" x2="524.3586" y2="515.8112" gradientTransform="matrix(0.9997 -2.560000e-02 2.560000e-02 0.9997 -12.3907 12.8249)">
					<stop  offset="0.3027" style="stop-color:#FFFFFF"/>
					<stop  offset="0.4537" style="stop-color:#D5D5D5"/>
					<stop  offset="0.6148" style="stop-color:#B0B0B0"/>
					<stop  offset="0.7648" style="stop-color:#969696"/>
					<stop  offset="0.8978" style="stop-color:#858585"/>
					<stop  offset="1" style="stop-color:#808080"/>
				</linearGradient>
				
					<path style="mask:url(#SVGID_00000049901395583963830170000004326756727902160571_);fill:url(#SVGID_00000076577570942885534260000001747820796652001947_);" d="
					M80.6,832.4c0,0,22.2-120.4,183.8-198.7c0,0-75.6,73.7-100,138.4c0,0,93.3-130.4,247.2-189.7c0,0-160.8,116.3-178.6,166.9
					l49.5-26.3c0,0-11.6,40.5-38.2,60.2c0,0,246.7-193.5,273.6-240.3c0,0-113.4,214.1-243,287.6c0,0,95.2-33.1,127.3-77.3
					c0,0-92.2,129.4-211.9,158.3c-18.8,4.5-38.7,6.8-57.4,1.9C105.2,906.2,73.6,884.6,80.6,832.4z"/>
			</g>
		</mask>
		<g>
			<defs>
				
					<filter id="Adobe_OpacityMaskFilter_00000141449864176836473560000016009952766953242553_" filterUnits="userSpaceOnUse" x="79.6" y="542.9" width="438.3" height="373.3">
					<feFlood  style="flood-color:white;flood-opacity:1" result="back"/>
					<feBlend  in="SourceGraphic" in2="back" mode="normal"/>
				</filter>
			</defs>
			
				<mask maskUnits="userSpaceOnUse" x="79.6" y="542.9" width="438.3" height="373.3" id="SVGID_00000155856355300924900130000017500935005859634319_">
				<g style="filter:url(#Adobe_OpacityMaskFilter_00000141449864176836473560000016009952766953242553_);">
					<defs>
						
							<filter id="Adobe_OpacityMaskFilter_00000036220057287353036960000001202952092338193573_" filterUnits="userSpaceOnUse" x="79.6" y="542.9" width="438.3" height="373.3">
							<feFlood  style="flood-color:white;flood-opacity:1" result="back"/>
							<feBlend  in="SourceGraphic" in2="back" mode="normal"/>
						</filter>
					</defs>
					
						<mask maskUnits="userSpaceOnUse" x="79.6" y="542.9" width="438.3" height="373.3" id="SVGID_00000155856355300924900130000017500935005859634319_">
						<g style="filter:url(#Adobe_OpacityMaskFilter_00000036220057287353036960000001202952092338193573_);">
						</g>
					</mask>
					
						<linearGradient id="SVGID_00000089574419466923076670000001069329249685656490_" gradientUnits="userSpaceOnUse" x1="-21.23" y1="984.2851" x2="524.3586" y2="515.8112" gradientTransform="matrix(0.9997 -2.560000e-02 2.560000e-02 0.9997 -12.3907 12.8249)">
						<stop  offset="0.3027" style="stop-color:#FFFFFF"/>
						<stop  offset="0.4537" style="stop-color:#D5D5D5"/>
						<stop  offset="0.6148" style="stop-color:#B0B0B0"/>
						<stop  offset="0.7648" style="stop-color:#969696"/>
						<stop  offset="0.8978" style="stop-color:#858585"/>
						<stop  offset="1" style="stop-color:#808080"/>
					</linearGradient>
					
						<path style="mask:url(#SVGID_00000155856355300924900130000017500935005859634319_);fill:url(#SVGID_00000089574419466923076670000001069329249685656490_);" d="
						M80.6,832.4c0,0,22.2-120.4,183.8-198.7c0,0-75.6,73.7-100,138.4c0,0,93.3-130.4,247.2-189.7c0,0-160.8,116.3-178.6,166.9
						l49.5-26.3c0,0-11.6,40.5-38.2,60.2c0,0,246.7-193.5,273.6-240.3c0,0-113.4,214.1-243,287.6c0,0,95.2-33.1,127.3-77.3
						c0,0-92.2,129.4-211.9,158.3c-18.8,4.5-38.7,6.8-57.4,1.9C105.2,906.2,73.6,884.6,80.6,832.4z"/>
				</g>
			</mask>
			<g>
				<defs>
					
						<filter id="Adobe_OpacityMaskFilter_00000170992430142260571060000013041776748190278320_" filterUnits="userSpaceOnUse" x="79.6" y="542.9" width="438.3" height="373.3">
						<feFlood  style="flood-color:white;flood-opacity:1" result="back"/>
						<feBlend  in="SourceGraphic" in2="back" mode="normal"/>
					</filter>
				</defs>
				
					<mask maskUnits="userSpaceOnUse" x="79.6" y="542.9" width="438.3" height="373.3" id="SVGID_00000101818334460234474640000006161388227786746044_">
					<g style="filter:url(#Adobe_OpacityMaskFilter_00000170992430142260571060000013041776748190278320_);">
						<defs>
							
								<filter id="Adobe_OpacityMaskFilter_00000164486579806826838120000014206402727908169348_" filterUnits="userSpaceOnUse" x="79.6" y="542.9" width="438.3" height="373.3">
								<feFlood  style="flood-color:white;flood-opacity:1" result="back"/>
								<feBlend  in="SourceGraphic" in2="back" mode="normal"/>
							</filter>
						</defs>
						
							<mask maskUnits="userSpaceOnUse" x="79.6" y="542.9" width="438.3" height="373.3" id="SVGID_00000101818334460234474640000006161388227786746044_">
							<g style="filter:url(#Adobe_OpacityMaskFilter_00000164486579806826838120000014206402727908169348_);">
							</g>
						</mask>
						
							<linearGradient id="SVGID_00000052785264296420056820000011772774937895683774_" gradientUnits="userSpaceOnUse" x1="-21.23" y1="984.2851" x2="524.3586" y2="515.8112" gradientTransform="matrix(0.9997 -2.560000e-02 2.560000e-02 0.9997 -12.3907 12.8249)">
							<stop  offset="0.3027" style="stop-color:#FFFFFF"/>
							<stop  offset="0.4537" style="stop-color:#D5D5D5"/>
							<stop  offset="0.6148" style="stop-color:#B0B0B0"/>
							<stop  offset="0.7648" style="stop-color:#969696"/>
							<stop  offset="0.8978" style="stop-color:#858585"/>
							<stop  offset="1" style="stop-color:#808080"/>
						</linearGradient>
						
							<path style="mask:url(#SVGID_00000101818334460234474640000006161388227786746044_);fill:url(#SVGID_00000052785264296420056820000011772774937895683774_);" d="
							M80.6,832.4c0,0,22.2-120.4,183.8-198.7c0,0-75.6,73.7-100,138.4c0,0,93.3-130.4,247.2-189.7c0,0-160.8,116.3-178.6,166.9
							l49.5-26.3c0,0-11.6,40.5-38.2,60.2c0,0,246.7-193.5,273.6-240.3c0,0-113.4,214.1-243,287.6c0,0,95.2-33.1,127.3-77.3
							c0,0-92.2,129.4-211.9,158.3c-18.8,4.5-38.7,6.8-57.4,1.9C105.2,906.2,73.6,884.6,80.6,832.4z"/>
					</g>
				</mask>
				
					<linearGradient id="SVGID_00000100384079727083612510000006780287330811229358_" gradientUnits="userSpaceOnUse" x1="-21.23" y1="984.2851" x2="524.3586" y2="515.8112" gradientTransform="matrix(0.9997 -2.560000e-02 2.560000e-02 0.9997 -12.3907 12.8249)">
					<stop  offset="0.3027" style="stop-color:#CB6036"/>
					<stop  offset="0.4114" style="stop-color:#D57B4B"/>
					<stop  offset="0.585" style="stop-color:#E3A068"/>
					<stop  offset="0.7466" style="stop-color:#EEBB7D"/>
					<stop  offset="0.8899" style="stop-color:#F4CB8A"/>
					<stop  offset="1" style="stop-color:#F6D18E"/>
				</linearGradient>
				<path style="fill:url(#SVGID_00000100384079727083612510000006780287330811229358_);" d="M80.6,832.4
					c0,0,22.2-120.4,183.8-198.7c0,0-75.6,73.7-100,138.4c0,0,93.3-130.4,247.2-189.7c0,0-160.8,116.3-178.6,166.9l49.5-26.3
					c0,0-11.6,40.5-38.2,60.2c0,0,246.7-193.5,273.6-240.3c0,0-113.4,214.1-243,287.6c0,0,95.2-33.1,127.3-77.3
					c0,0-92.2,129.4-211.9,158.3c-18.8,4.5-38.7,6.8-57.4,1.9C105.2,906.2,73.6,884.6,80.6,832.4z"/>
			</g>
		</g>
	</g>
	<g>
		<g>
			<path class="st30" d="M200.8,872.7c-10.7-3.6,17.8-21.4,10.7-24.9c-24.9-10.7-49.9,46.3-67.7,28.5
				c-17.8-17.8,28.5-42.7,42.7-67.6c3.6-7.1,0-17.8-7.1-21.4c-35.6-10.7-57,24.9-85.5,35.6c-3.6-14.2,21.4-24.9,7.1-32
				c-2.5-1.9-4.7-2.7-6.8-2.8c-14.2,15-22.9,35.2-22.9,57.4c0,46.2,37.5,83.6,83.7,83.6c41.7,0,76.3-30.5,82.7-70.4
				C223.4,858.6,209,878.1,200.8,872.7z"/>
		</g>
		<path class="st31" d="M155.1,761.7c-24,0-45.6,10.1-60.8,26.2c2.1,0.1,4.3,1,6.8,2.8c14.2,7.1-10.7,17.8-7.1,32
			c28.5-10.7,49.9-46.3,85.5-35.6c7.1,3.6,10.7,14.2,7.1,21.4c-14.2,24.9-60.6,49.8-42.7,67.6c17.8,17.8,42.7-39.1,67.7-28.5
			c7.1,3.6-21.4,21.4-10.7,24.9c8.2,5.4,22.6-14.1,36.9-14c0.7-4.3,1.1-8.8,1.1-13.3C238.8,799.2,201.3,761.7,155.1,761.7z"/>
	</g>
	<path class="st31" d="M253.4,745.3c0,2.9-2.3,5.2-5.2,5.2c-2.9,0-5.2-2.3-5.2-5.2c0-2.9,2.3-5.2,5.2-5.2
		C251.1,740.1,253.4,742.4,253.4,745.3z"/>
	<ellipse class="st31" cx="240.6" cy="781.2" rx="11" ry="11"/>
	<ellipse class="st31" cx="227" cy="815" rx="13.1" ry="13.1"/>
</g>
</svg>
