<?xml version="1.0" encoding="utf-8"?>
<!-- Generator: Adobe Illustrator 28.0.0, SVG Export Plug-In . SVG Version: 6.00 Build 0)  -->
<svg version="1.1" id="Layer_1" xmlns="http://www.w3.org/2000/svg" xmlns:xlink="http://www.w3.org/1999/xlink" x="0px" y="0px"
	 viewBox="0 0 1080 1080" style="enable-background:new 0 0 1080 1080;" xml:space="preserve">
<style type="text/css">
	.st0{filter:url(#Adobe_OpacityMaskFilter);}
	.st1{filter:url(#Adobe_OpacityMaskFilter_00000021823456590778448990000011038879393114453404_);}
	.st2{mask:url(#SVGID_1_);fill:url(#SVGID_00000175319055150216402150000015834421372598704299_);}
	.st3{filter:url(#Adobe_OpacityMaskFilter_00000113349030813233536310000015416755833946982555_);}
	.st4{filter:url(#Adobe_OpacityMaskFilter_00000152258517205575308290000002146335623688313762_);}
	
		.st5{mask:url(#SVGID_00000021826112710812413040000016251038093292477827_);fill:url(#SVGID_00000057139075082704774490000013974996590048797572_);}
	.st6{opacity:0.68;fill:url(#SVGID_00000084515161591678257230000015899001586834146731_);}
	.st7{filter:url(#Adobe_OpacityMaskFilter_00000149365933465881020410000013267610972361788603_);}
	.st8{filter:url(#Adobe_OpacityMaskFilter_00000054959243066886073720000010309858194568351159_);}
	
		.st9{mask:url(#SVGID_00000006676906760038688260000008877386866938705581_);fill:url(#SVGID_00000176744141874767108370000016598690240258269583_);}
	.st10{opacity:0.68;fill:url(#SVGID_00000078747740952632737210000016197300792025534087_);}
	.st11{filter:url(#Adobe_OpacityMaskFilter_00000095300907163642963530000017047587800216886427_);}
	.st12{filter:url(#Adobe_OpacityMaskFilter_00000100368605394146514110000013280979829191505339_);}
	
		.st13{mask:url(#SVGID_00000031207185589781347970000015406874072040391566_);fill:url(#SVGID_00000091010984724115046490000009585745099373295025_);}
	.st14{opacity:0.68;fill:url(#SVGID_00000000213778539762155190000017734317871109774471_);}
	.st15{fill:#8F88B8;}
	.st16{fill:#615598;}
</style>
<g id="indigo">
	<defs>
		<filter id="Adobe_OpacityMaskFilter" filterUnits="userSpaceOnUse" x="40.8" y="60.5" width="1039.2" height="905.3">
			<feFlood  style="flood-color:white;flood-opacity:1" result="back"/>
			<feBlend  in="SourceGraphic" in2="back" mode="normal"/>
		</filter>
	</defs>
	<mask maskUnits="userSpaceOnUse" x="40.8" y="60.5" width="1039.2" height="905.3" id="SVGID_1_">
		<g class="st0">
			<defs>
				
					<filter id="Adobe_OpacityMaskFilter_00000132795525577312350050000005729729058141490311_" filterUnits="userSpaceOnUse" x="40.8" y="60.5" width="1039.2" height="905.3">
					<feFlood  style="flood-color:white;flood-opacity:1" result="back"/>
					<feBlend  in="SourceGraphic" in2="back" mode="normal"/>
				</filter>
			</defs>
			<mask maskUnits="userSpaceOnUse" x="40.8" y="60.5" width="1039.2" height="905.3" id="SVGID_1_">
				<g style="filter:url(#Adobe_OpacityMaskFilter_00000132795525577312350050000005729729058141490311_);">
				</g>
			</mask>
			
				<linearGradient id="SVGID_00000082333131209130581790000014902455263270556803_" gradientUnits="userSpaceOnUse" x1="-10.415" y1="939.8491" x2="1187.9258" y2="143.0642">
				<stop  offset="5.405410e-03" style="stop-color:#808080"/>
				<stop  offset="0.1812" style="stop-color:#7B7B7B"/>
				<stop  offset="0.3576" style="stop-color:#6F6F6F"/>
				<stop  offset="0.5346" style="stop-color:#5B5B5B"/>
				<stop  offset="0.7119" style="stop-color:#3F3F3F"/>
				<stop  offset="0.8877" style="stop-color:#1B1B1B"/>
				<stop  offset="1" style="stop-color:#000000"/>
			</linearGradient>
			<path style="mask:url(#SVGID_1_);fill:url(#SVGID_00000082333131209130581790000014902455263270556803_);" d="M40.8,810.1
				L1059.7,63.1c12.6-9.2,27.5,8,16.5,19.1L199.1,965.8L40.8,810.1z"/>
		</g>
	</mask>
	<g>
		<defs>
			
				<filter id="Adobe_OpacityMaskFilter_00000098190064436086897960000016894765188660056745_" filterUnits="userSpaceOnUse" x="40.8" y="60.5" width="1039.2" height="905.3">
				<feFlood  style="flood-color:white;flood-opacity:1" result="back"/>
				<feBlend  in="SourceGraphic" in2="back" mode="normal"/>
			</filter>
		</defs>
		
			<mask maskUnits="userSpaceOnUse" x="40.8" y="60.5" width="1039.2" height="905.3" id="SVGID_00000139261250984505371680000013185360260550463404_">
			<g style="filter:url(#Adobe_OpacityMaskFilter_00000098190064436086897960000016894765188660056745_);">
				<defs>
					
						<filter id="Adobe_OpacityMaskFilter_00000070811394022849712100000016801277229736317313_" filterUnits="userSpaceOnUse" x="40.8" y="60.5" width="1039.2" height="905.3">
						<feFlood  style="flood-color:white;flood-opacity:1" result="back"/>
						<feBlend  in="SourceGraphic" in2="back" mode="normal"/>
					</filter>
				</defs>
				
					<mask maskUnits="userSpaceOnUse" x="40.8" y="60.5" width="1039.2" height="905.3" id="SVGID_00000139261250984505371680000013185360260550463404_">
					<g style="filter:url(#Adobe_OpacityMaskFilter_00000070811394022849712100000016801277229736317313_);">
					</g>
				</mask>
				
					<linearGradient id="SVGID_00000124881714741667669170000014522262281325170365_" gradientUnits="userSpaceOnUse" x1="-10.415" y1="939.8491" x2="1187.9258" y2="143.0642">
					<stop  offset="5.405410e-03" style="stop-color:#FFFFFF"/>
					<stop  offset="0.1296" style="stop-color:#FBFBFB"/>
					<stop  offset="0.2543" style="stop-color:#EFEFEF"/>
					<stop  offset="0.3795" style="stop-color:#DBDBDB"/>
					<stop  offset="0.5049" style="stop-color:#BEBEBE"/>
					<stop  offset="0.6306" style="stop-color:#9A9A9A"/>
					<stop  offset="0.7566" style="stop-color:#6D6D6D"/>
					<stop  offset="0.8803" style="stop-color:#3A3A3A"/>
					<stop  offset="1" style="stop-color:#000000"/>
				</linearGradient>
				
					<path style="mask:url(#SVGID_00000139261250984505371680000013185360260550463404_);fill:url(#SVGID_00000124881714741667669170000014522262281325170365_);" d="
					M40.8,810.1L1059.7,63.1c12.6-9.2,27.5,8,16.5,19.1L199.1,965.8L40.8,810.1z"/>
			</g>
		</mask>
		
			<linearGradient id="SVGID_00000054240006356392749080000014628244888231457418_" gradientUnits="userSpaceOnUse" x1="-10.415" y1="939.8491" x2="1187.9258" y2="143.0642">
			<stop  offset="5.405573e-03" style="stop-color:#8F88B8"/>
			<stop  offset="0.1913" style="stop-color:#8B84B4"/>
			<stop  offset="0.378" style="stop-color:#8079A8"/>
			<stop  offset="0.5651" style="stop-color:#6D6794"/>
			<stop  offset="0.7526" style="stop-color:#534D78"/>
			<stop  offset="0.9387" style="stop-color:#322C54"/>
			<stop  offset="1" style="stop-color:#251F46"/>
		</linearGradient>
		<path style="opacity:0.68;fill:url(#SVGID_00000054240006356392749080000014628244888231457418_);" d="M40.8,810.1L1059.7,63.1
			c12.6-9.2,27.5,8,16.5,19.1L199.1,965.8L40.8,810.1z"/>
	</g>
	<defs>
		
			<filter id="Adobe_OpacityMaskFilter_00000007428624879017143650000010906160344654153386_" filterUnits="userSpaceOnUse" x="190.7" y="369.6" width="485.1" height="385">
			<feFlood  style="flood-color:white;flood-opacity:1" result="back"/>
			<feBlend  in="SourceGraphic" in2="back" mode="normal"/>
		</filter>
	</defs>
	
		<mask maskUnits="userSpaceOnUse" x="190.7" y="369.6" width="485.1" height="385" id="SVGID_00000148621096094788362880000004983909488022807994_">
		<g style="filter:url(#Adobe_OpacityMaskFilter_00000007428624879017143650000010906160344654153386_);">
			<defs>
				
					<filter id="Adobe_OpacityMaskFilter_00000154398819807425382240000015681211898355635603_" filterUnits="userSpaceOnUse" x="190.7" y="369.6" width="485.1" height="385">
					<feFlood  style="flood-color:white;flood-opacity:1" result="back"/>
					<feBlend  in="SourceGraphic" in2="back" mode="normal"/>
				</filter>
			</defs>
			
				<mask maskUnits="userSpaceOnUse" x="190.7" y="369.6" width="485.1" height="385" id="SVGID_00000148621096094788362880000004983909488022807994_">
				<g style="filter:url(#Adobe_OpacityMaskFilter_00000154398819807425382240000015681211898355635603_);">
				</g>
			</mask>
			
				<linearGradient id="SVGID_00000113314830076235674100000012214700427328381322_" gradientUnits="userSpaceOnUse" x1="136.7133" y1="762.5914" x2="711.4414" y2="380.4508">
				<stop  offset="5.405410e-03" style="stop-color:#808080"/>
				<stop  offset="0.1812" style="stop-color:#7B7B7B"/>
				<stop  offset="0.3576" style="stop-color:#6F6F6F"/>
				<stop  offset="0.5346" style="stop-color:#5B5B5B"/>
				<stop  offset="0.7119" style="stop-color:#3F3F3F"/>
				<stop  offset="0.8877" style="stop-color:#1B1B1B"/>
				<stop  offset="1" style="stop-color:#000000"/>
			</linearGradient>
			
				<polygon style="mask:url(#SVGID_00000148621096094788362880000004983909488022807994_);fill:url(#SVGID_00000113314830076235674100000012214700427328381322_);" points="
				190.7,744.7 675.8,369.6 200.8,754.6 			"/>
		</g>
	</mask>
	
		<linearGradient id="SVGID_00000136387010985772863440000001355368689189897399_" gradientUnits="userSpaceOnUse" x1="136.7133" y1="762.5914" x2="711.4414" y2="380.4508">
		<stop  offset="5.405411e-03" style="stop-color:#8F88B8"/>
		<stop  offset="0.1913" style="stop-color:#8B84B4"/>
		<stop  offset="0.378" style="stop-color:#8079A8"/>
		<stop  offset="0.5651" style="stop-color:#6D6794"/>
		<stop  offset="0.7526" style="stop-color:#534D78"/>
		<stop  offset="0.9387" style="stop-color:#322C54"/>
		<stop  offset="1" style="stop-color:#251F46"/>
	</linearGradient>
	<polygon style="opacity:0.68;fill:url(#SVGID_00000136387010985772863440000001355368689189897399_);" points="190.7,744.7 
		675.8,369.6 200.8,754.6 	"/>
	<defs>
		
			<filter id="Adobe_OpacityMaskFilter_00000131327021262426019890000011231612238739644561_" filterUnits="userSpaceOnUse" x="343.1" y="202.9" width="613.3" height="556.4">
			<feFlood  style="flood-color:white;flood-opacity:1" result="back"/>
			<feBlend  in="SourceGraphic" in2="back" mode="normal"/>
		</filter>
	</defs>
	
		<mask maskUnits="userSpaceOnUse" x="343.1" y="202.9" width="613.3" height="556.4" id="SVGID_00000034068841966935153050000007102558078232912526_">
		<g style="filter:url(#Adobe_OpacityMaskFilter_00000131327021262426019890000011231612238739644561_);">
			<defs>
				
					<filter id="Adobe_OpacityMaskFilter_00000120534448353624808410000004264501533381813125_" filterUnits="userSpaceOnUse" x="343.1" y="202.9" width="613.3" height="556.4">
					<feFlood  style="flood-color:white;flood-opacity:1" result="back"/>
					<feBlend  in="SourceGraphic" in2="back" mode="normal"/>
				</filter>
			</defs>
			
				<mask maskUnits="userSpaceOnUse" x="343.1" y="202.9" width="613.3" height="556.4" id="SVGID_00000034068841966935153050000007102558078232912526_">
				<g style="filter:url(#Adobe_OpacityMaskFilter_00000120534448353624808410000004264501533381813125_);">
				</g>
			</mask>
			
				<linearGradient id="SVGID_00000026855775324772408720000016081312297795519122_" gradientUnits="userSpaceOnUse" x1="261.2785" y1="746.8229" x2="1020.0312" y2="242.3232">
				<stop  offset="5.405410e-03" style="stop-color:#808080"/>
				<stop  offset="0.1812" style="stop-color:#7B7B7B"/>
				<stop  offset="0.3576" style="stop-color:#6F6F6F"/>
				<stop  offset="0.5346" style="stop-color:#5B5B5B"/>
				<stop  offset="0.7119" style="stop-color:#3F3F3F"/>
				<stop  offset="0.8877" style="stop-color:#1B1B1B"/>
				<stop  offset="1" style="stop-color:#000000"/>
			</linearGradient>
			
				<polygon style="mask:url(#SVGID_00000034068841966935153050000007102558078232912526_);fill:url(#SVGID_00000026855775324772408720000016081312297795519122_);" points="
				343.1,738.9 956.4,202.9 365.3,759.4 			"/>
		</g>
	</mask>
	
		<linearGradient id="SVGID_00000092433732390476069360000005421423360169740965_" gradientUnits="userSpaceOnUse" x1="261.2785" y1="746.8229" x2="1020.0312" y2="242.3232">
		<stop  offset="5.405410e-03" style="stop-color:#8F88B8"/>
		<stop  offset="0.1913" style="stop-color:#8B84B4"/>
		<stop  offset="0.378" style="stop-color:#8079A8"/>
		<stop  offset="0.5651" style="stop-color:#6D6794"/>
		<stop  offset="0.7526" style="stop-color:#534D78"/>
		<stop  offset="0.9387" style="stop-color:#322C54"/>
		<stop  offset="1" style="stop-color:#251F46"/>
	</linearGradient>
	<polygon style="opacity:0.68;fill:url(#SVGID_00000092433732390476069360000005421423360169740965_);" points="343.1,738.9 
		956.4,202.9 365.3,759.4 	"/>
	<g>
		<path class="st15" d="M48.6,837.9c-18.6,21.7-34.1,58.9,1.6,57.4c17.1,0,37.2-27.9,54.3-46.5c-17.1-12.4-6.2-34.1,6.2-32.6
			c31,7.8,57.4,27.9,80.7-1.6c0,9.3,14,17.1,12.4,18.6c-41.9,43.4-102.4,68.2-135,120.9c4.7,1.6,7.8,9.3,10.9,6.2
			c27.9-23.3,49.7-48.1,76-71.3c7.8-6.2,15.5,6.2,24.8,7.8c-1.6-4.7,3.1-3.1,4.7-3.1c-6.2,18.6-20.2,45,10.9,46.5
			c16.4-30.6,37.4-58.6,58.8-86.1c-0.7-5.4-3.2-10.7-5.7-15.7c-9.9-20-25.1-43.3-47.4-41.3c-12.9,1.1-26.5,10.9-37.6,4.3
			c-7.9-4.7-10-15.9-17.9-20.9c-7.2-4.5-16.5-2.3-24.6,0c-34.2,9.8-67.6,17-93.5,39.7C34.1,826.7,41.3,831.8,48.6,837.9z"/>
	</g>
	<g>
		<path class="st16" d="M196,940.2c-31-1.6-17.1-27.9-10.9-46.5c-1.6,0-6.2-1.6-4.7,3.1c-9.3-1.6-17.1-14-24.8-7.8
			c-26.4,23.3-48.1,48.1-76,71.3c-3.1,3.1-6.2-4.7-10.9-6.2c32.6-52.7,93.1-77.5,135-120.9c1.6-1.5-12.4-9.3-12.4-18.6
			c-23.3,29.5-49.7,9.3-80.7,1.6c-12.4-1.6-23.3,20.2-6.2,32.6c-17.1,18.6-37.2,46.5-54.3,46.5c-35.7,1.6-20.2-35.7-1.6-57.4
			c-7.3-6.1-14.5-11.2-20.3-17.6c-5.9,5.2-11.4,11.2-16.5,18.2C0.9,853.6-4.1,874.3,4.1,891c3.4,6.9,9,13.5,8.2,21.1
			c-0.4,3.9-2.6,7.4-4.4,10.9c-16.2,31.7-4,75,26.4,93.6c2.3,1.4,4.8,2.7,7.4,2.9c3.6,0.2,7-1.6,10.2-3.4c21.7-12.3,43.3-24.7,65-37
			c5.9-3.3,11.9-6.8,18.6-7.9c15.7-2.8,31.8,7.2,47.4,3.7c16.1-3.6,25.6-19.9,33-34.6c11.4-22.4,22.7-44.7,34.1-67.1
			c2.3-4.5,4.6-9.1,5-14.1c0.1-1.6,0.1-3.2-0.1-4.8C233.4,881.6,212.4,909.6,196,940.2z"/>
	</g>
	<g>
		<path class="st15" d="M187.4,749.1l4.3,6.9c0.4,0.6,1.1,0.9,1.9,0.7l7.2-2.1c0.7-0.2,1.1-0.8,1.2-1.5l0.2-4.1c0-0.5-0.2-1-0.5-1.3
			l-1.8-1.6c-0.5-0.4-0.7-1.1-0.5-1.7l0.3-1c0.2-0.9-0.3-1.8-1.2-2l-1.9-0.5c-0.5-0.1-1,0-1.4,0.3l-7.4,5.7
			C187.1,747.4,187,748.4,187.4,749.1z"/>
	</g>
	<g>
		<path class="st15" d="M365.3,759.4l9.3-20.3c0.8-1.8,0.5-3.5-1-4.1l-14.4-6.2c-1.3-0.6-3.3-0.1-4.8,1.3l-9.2,7.9
			c-1.1,1-1.9,2.3-2.2,3.5l-1.1,5.8c-0.3,1.5-1.4,3.1-3,4.1l-2.6,1.6c-2.3,1.4-3.6,4.1-2.9,5.9l1.6,3.8c0.4,1,1.3,1.5,2.5,1.4
			l22.4-0.8C362.1,763.1,364.4,761.5,365.3,759.4z"/>
	</g>
</g>
</svg>
