<?xml version="1.0" encoding="utf-8"?>
<!-- Generator: Adobe Illustrator 28.0.0, SVG Export Plug-In . SVG Version: 6.00 Build 0)  -->
<svg version="1.1" id="Layer_1" xmlns="http://www.w3.org/2000/svg" xmlns:xlink="http://www.w3.org/1999/xlink" x="0px" y="0px"
	 viewBox="0 0 1080 1080" style="enable-background:new 0 0 1080 1080;" xml:space="preserve">
<style type="text/css">
	.st0{filter:url(#Adobe_OpacityMaskFilter);}
	.st1{filter:url(#Adobe_OpacityMaskFilter_00000083062595211138818810000014857891795374353542_);}
	.st2{mask:url(#SVGID_1_);fill:url(#SVGID_00000174573351254809919570000009665426441529842074_);}
	.st3{fill:url(#SVGID_00000152226715728388708970000000235800363796655294_);}
	.st4{filter:url(#Adobe_OpacityMaskFilter_00000181768797959211514300000007753775462436943806_);}
	.st5{filter:url(#Adobe_OpacityMaskFilter_00000155847879358992273230000005637493309627523743_);}
	
		.st6{mask:url(#SVGID_00000145761274051037796160000008351756260963575681_);fill:url(#SVGID_00000031914515379892897360000004797398075937448585_);}
	.st7{filter:url(#Adobe_OpacityMaskFilter_00000049209054948706475570000005579262685294467996_);}
	.st8{filter:url(#Adobe_OpacityMaskFilter_00000003063627260203390230000013681729083524772480_);}
	
		.st9{mask:url(#SVGID_00000139252393404023876540000003219064783764120719_);fill:url(#SVGID_00000074406163546311059610000012186330984365263785_);}
	.st10{fill:url(#SVGID_00000147924661663921810690000007734591011570834872_);}
	.st11{fill:#E89257;}
	.st12{fill:#CB6036;}
	.st13{filter:url(#Adobe_OpacityMaskFilter_00000095321382900156269850000012107195681150302905_);}
	.st14{filter:url(#Adobe_OpacityMaskFilter_00000154405340856217549460000010863461442677169334_);}
	
		.st15{mask:url(#SVGID_00000080911827545347936250000002087123998285661090_);fill:url(#SVGID_00000024715433287842336750000011649035730709684616_);}
	.st16{fill:url(#SVGID_00000039129676556705753630000004222723966842563260_);}
	.st17{filter:url(#Adobe_OpacityMaskFilter_00000124125152401376733350000010886377973391318956_);}
	.st18{filter:url(#Adobe_OpacityMaskFilter_00000075842077538064146670000003729663035798409405_);}
	
		.st19{mask:url(#SVGID_00000116208671374721408810000002838806796367728779_);fill:url(#SVGID_00000156586611723055216760000001822738452741906313_);}
	.st20{opacity:0.67;fill:url(#SVGID_00000120520625168601584630000012556321472008886412_);}
	.st21{filter:url(#Adobe_OpacityMaskFilter_00000039812258407211950800000001547081997966409370_);}
	.st22{filter:url(#Adobe_OpacityMaskFilter_00000166658140499767398240000014296548785802855052_);}
	
		.st23{mask:url(#SVGID_00000098934754161667060690000009161831597580825775_);fill:url(#SVGID_00000145746201567205355880000007064481376140414085_);}
	.st24{fill:url(#SVGID_00000159437936238756757520000003261816340559985056_);}
	.st25{filter:url(#Adobe_OpacityMaskFilter_00000070838119638423248210000010320817546421846419_);}
	.st26{filter:url(#Adobe_OpacityMaskFilter_00000042723197017680158820000002160129736846493097_);}
	
		.st27{mask:url(#SVGID_00000030449929502614492470000015731063143337678523_);fill:url(#SVGID_00000003810752065987129460000013544093243159025540_);}
	.st28{opacity:0.67;fill:url(#SVGID_00000162339629488174591280000000901694917218685315_);}
	.st29{filter:url(#Adobe_OpacityMaskFilter_00000049218194323989323020000002618097902649162648_);}
	.st30{filter:url(#Adobe_OpacityMaskFilter_00000157275265034419602600000011749074339404861627_);}
	
		.st31{mask:url(#SVGID_00000020359315066645116280000016340728218671098513_);fill:url(#SVGID_00000141443637057666062520000007928795900371661483_);}
	.st32{fill:url(#SVGID_00000075124151094299531830000004237999975787222154_);}
	.st33{filter:url(#Adobe_OpacityMaskFilter_00000116926426907097567950000014083407472458719892_);}
	.st34{filter:url(#Adobe_OpacityMaskFilter_00000078752978424046538090000006993268741326082434_);}
	
		.st35{mask:url(#SVGID_00000065044006873759899120000008257828229477179063_);fill:url(#SVGID_00000039831736596681301840000011700173322926177163_);}
	.st36{opacity:0.67;fill:url(#SVGID_00000169528341412261068910000014444228626695704758_);}
	.st37{filter:url(#Adobe_OpacityMaskFilter_00000086650789365101328000000011635887913861835164_);}
	.st38{filter:url(#Adobe_OpacityMaskFilter_00000110465460889055023650000018271210743309842878_);}
	
		.st39{mask:url(#SVGID_00000077290052569861240820000011169001818032038576_);fill:url(#SVGID_00000156585541882637310890000014735643354815143560_);}
	.st40{opacity:0.67;fill:url(#SVGID_00000053507518564047991920000014717095468581041038_);}
</style>
<g id="yellow">
	<g>
		<defs>
			<filter id="Adobe_OpacityMaskFilter" filterUnits="userSpaceOnUse" x="0" y="771.5" width="217.8" height="217.6">
				<feFlood  style="flood-color:white;flood-opacity:1" result="back"/>
				<feBlend  in="SourceGraphic" in2="back" mode="normal"/>
			</filter>
		</defs>
		<mask maskUnits="userSpaceOnUse" x="0" y="771.5" width="217.8" height="217.6" id="SVGID_1_">
			<g class="st0">
				<defs>
					
						<filter id="Adobe_OpacityMaskFilter_00000098189031668251186510000011476688185700754844_" filterUnits="userSpaceOnUse" x="0" y="771.5" width="217.8" height="217.6">
						<feFlood  style="flood-color:white;flood-opacity:1" result="back"/>
						<feBlend  in="SourceGraphic" in2="back" mode="normal"/>
					</filter>
				</defs>
				<mask maskUnits="userSpaceOnUse" x="0" y="771.5" width="217.8" height="217.6" id="SVGID_1_">
					<g style="filter:url(#Adobe_OpacityMaskFilter_00000098189031668251186510000011476688185700754844_);">
					</g>
				</mask>
				
					<radialGradient id="SVGID_00000006691505934825824090000010001556384741104011_" cx="109.0917" cy="880.0146" r="108.8165" gradientTransform="matrix(1.0007 0 0 0.9998 -0.2742 0.4215)" gradientUnits="userSpaceOnUse">
					<stop  offset="0" style="stop-color:#FFFFFF"/>
					<stop  offset="0.1363" style="stop-color:#FBFBFB"/>
					<stop  offset="0.2633" style="stop-color:#F0F0F0"/>
					<stop  offset="0.3867" style="stop-color:#DDDDDD"/>
					<stop  offset="0.5078" style="stop-color:#C3C3C3"/>
					<stop  offset="0.6273" style="stop-color:#A0A0A0"/>
					<stop  offset="0.7456" style="stop-color:#767676"/>
					<stop  offset="0.863" style="stop-color:#454545"/>
					<stop  offset="0.9768" style="stop-color:#0C0C0C"/>
					<stop  offset="1" style="stop-color:#000000"/>
				</radialGradient>
				<path style="mask:url(#SVGID_1_);fill:url(#SVGID_00000006691505934825824090000010001556384741104011_);" d="M108.9,771.5
					c-33.1,0-62.7,14.7-82.6,38C9.9,828.5,0,853.2,0,880.3c0,60.1,48.8,108.8,108.9,108.8c49.3,0,90.9-32.7,104.3-77.6
					c3-9.9,4.6-20.4,4.6-31.2C217.8,820.2,169,771.5,108.9,771.5z"/>
			</g>
		</mask>
		
			<radialGradient id="SVGID_00000040572911243525762100000013663400597257556877_" cx="109.0917" cy="880.0146" r="108.8165" gradientTransform="matrix(1.0007 0 0 0.9998 -0.2742 0.4215)" gradientUnits="userSpaceOnUse">
			<stop  offset="0" style="stop-color:#E89257"/>
			<stop  offset="0.1659" style="stop-color:#E9945B;stop-opacity:0.8341"/>
			<stop  offset="0.3204" style="stop-color:#EA9C66;stop-opacity:0.6796"/>
			<stop  offset="0.4704" style="stop-color:#EDA879;stop-opacity:0.5296"/>
			<stop  offset="0.6176" style="stop-color:#F0B993;stop-opacity:0.3824"/>
			<stop  offset="0.7628" style="stop-color:#F5CFB6;stop-opacity:0.2372"/>
			<stop  offset="0.9046" style="stop-color:#FBEADF;stop-opacity:9.539628e-02"/>
			<stop  offset="1" style="stop-color:#FFFFFF;stop-opacity:0"/>
		</radialGradient>
		<path style="fill:url(#SVGID_00000040572911243525762100000013663400597257556877_);" d="M108.9,771.5c-33.1,0-62.7,14.7-82.6,38
			C9.9,828.5,0,853.2,0,880.3c0,60.1,48.8,108.8,108.9,108.8c49.3,0,90.9-32.7,104.3-77.6c3-9.9,4.6-20.4,4.6-31.2
			C217.8,820.2,169,771.5,108.9,771.5z"/>
	</g>
	<defs>
		
			<filter id="Adobe_OpacityMaskFilter_00000107553931665218372930000008779788378972138638_" filterUnits="userSpaceOnUse" x="75.7" y="90.9" width="1004.3" height="809.9">
			<feFlood  style="flood-color:white;flood-opacity:1" result="back"/>
			<feBlend  in="SourceGraphic" in2="back" mode="normal"/>
		</filter>
	</defs>
	
		<mask maskUnits="userSpaceOnUse" x="75.7" y="90.9" width="1004.3" height="809.9" id="SVGID_00000083056208483136805780000017522243536733475239_">
		<g style="filter:url(#Adobe_OpacityMaskFilter_00000107553931665218372930000008779788378972138638_);">
			<defs>
				
					<filter id="Adobe_OpacityMaskFilter_00000177475808523993115380000010259354445196948136_" filterUnits="userSpaceOnUse" x="75.7" y="90.9" width="1004.3" height="809.9">
					<feFlood  style="flood-color:white;flood-opacity:1" result="back"/>
					<feBlend  in="SourceGraphic" in2="back" mode="normal"/>
				</filter>
			</defs>
			
				<mask maskUnits="userSpaceOnUse" x="75.7" y="90.9" width="1004.3" height="809.9" id="SVGID_00000083056208483136805780000017522243536733475239_">
				<g style="filter:url(#Adobe_OpacityMaskFilter_00000177475808523993115380000010259354445196948136_);">
				</g>
			</mask>
			
				<linearGradient id="SVGID_00000054962061216310310980000009492442216078492582_" gradientUnits="userSpaceOnUse" x1="26.068" y1="942.0021" x2="1191.5684" y2="-65.0323">
				<stop  offset="0" style="stop-color:#FFFFFF"/>
				<stop  offset="0.1595" style="stop-color:#C1C1C1"/>
				<stop  offset="0.3262" style="stop-color:#878787"/>
				<stop  offset="0.4877" style="stop-color:#565656"/>
				<stop  offset="0.6398" style="stop-color:#313131"/>
				<stop  offset="0.7801" style="stop-color:#161616"/>
				<stop  offset="0.9045" style="stop-color:#060606"/>
				<stop  offset="1" style="stop-color:#000000"/>
			</linearGradient>
			
				<polygon style="mask:url(#SVGID_00000083056208483136805780000017522243536733475239_);fill:url(#SVGID_00000054962061216310310980000009492442216078492582_);" points="
				75.7,828.6 1080,90.9 155.3,900.9 			"/>
		</g>
	</mask>
	<g>
		<defs>
			
				<filter id="Adobe_OpacityMaskFilter_00000121970462953869939000000016166059576850212257_" filterUnits="userSpaceOnUse" x="75.7" y="90.9" width="1004.3" height="809.9">
				<feFlood  style="flood-color:white;flood-opacity:1" result="back"/>
				<feBlend  in="SourceGraphic" in2="back" mode="normal"/>
			</filter>
		</defs>
		
			<mask maskUnits="userSpaceOnUse" x="75.7" y="90.9" width="1004.3" height="809.9" id="SVGID_00000138560292019595311270000008228893280554121889_">
			<g style="filter:url(#Adobe_OpacityMaskFilter_00000121970462953869939000000016166059576850212257_);">
				<defs>
					
						<filter id="Adobe_OpacityMaskFilter_00000131362824982314622630000002664756256368563124_" filterUnits="userSpaceOnUse" x="75.7" y="90.9" width="1004.3" height="809.9">
						<feFlood  style="flood-color:white;flood-opacity:1" result="back"/>
						<feBlend  in="SourceGraphic" in2="back" mode="normal"/>
					</filter>
				</defs>
				
					<mask maskUnits="userSpaceOnUse" x="75.7" y="90.9" width="1004.3" height="809.9" id="SVGID_00000138560292019595311270000008228893280554121889_">
					<g style="filter:url(#Adobe_OpacityMaskFilter_00000131362824982314622630000002664756256368563124_);">
					</g>
				</mask>
				
					<linearGradient id="SVGID_00000091699629062336262490000008052565294473391750_" gradientUnits="userSpaceOnUse" x1="26.068" y1="942.0021" x2="1191.5684" y2="-65.0323">
					<stop  offset="0" style="stop-color:#FFFFFF"/>
					<stop  offset="0.1595" style="stop-color:#C1C1C1"/>
					<stop  offset="0.3262" style="stop-color:#878787"/>
					<stop  offset="0.4877" style="stop-color:#565656"/>
					<stop  offset="0.6398" style="stop-color:#313131"/>
					<stop  offset="0.7801" style="stop-color:#161616"/>
					<stop  offset="0.9045" style="stop-color:#060606"/>
					<stop  offset="1" style="stop-color:#000000"/>
				</linearGradient>
				
					<polygon style="mask:url(#SVGID_00000138560292019595311270000008228893280554121889_);fill:url(#SVGID_00000091699629062336262490000008052565294473391750_);" points="
					75.7,828.6 1080,90.9 155.3,900.9 				"/>
			</g>
		</mask>
		
			<linearGradient id="SVGID_00000146480722484065769100000011789533859228202426_" gradientUnits="userSpaceOnUse" x1="26.068" y1="942.0021" x2="1191.5684" y2="-65.0323">
			<stop  offset="0" style="stop-color:#E89257"/>
			<stop  offset="8.114219e-03" style="stop-color:#E59057"/>
			<stop  offset="0.2051" style="stop-color:#AC6E52"/>
			<stop  offset="0.3956" style="stop-color:#7B524E"/>
			<stop  offset="0.5749" style="stop-color:#563C4A"/>
			<stop  offset="0.7404" style="stop-color:#3B2C48"/>
			<stop  offset="0.8872" style="stop-color:#2B2246"/>
			<stop  offset="1" style="stop-color:#251F46"/>
		</linearGradient>
		<polygon style="fill:url(#SVGID_00000146480722484065769100000011789533859228202426_);" points="75.7,828.6 1080,90.9 
			155.3,900.9 		"/>
	</g>
	<g>
		<path class="st11" d="M60.4,857.5c13.7-11.9,30.7-20.5,49.5-23.9c-13.7,18.8-20.5,40.9-30.7,61.4c8.5-5.1,15.4-13.6,23.9-18.8
			c0,5.1-5.1,10.2-5.1,15.4c13.7-6.8,23.9-17.1,35.8-25.6c0,11.9-5.1,23.9-10.2,35.8c13.7-13.6,30.7-27.3,32.4-46.1
			c3.4,20.5,0,40.9-10.2,59.7c8.1-5.4,14.2-12.6,19.5-20.5c1.7-5.7,2.6-11.7,2.6-17.9c0-34.5-28-62.5-62.5-62.5
			c-19,0-36,8.5-47.5,21.8c5.1-3.6,11.1-6.1,17.9-7.8C68.9,837.1,63.8,847.3,60.4,857.5z"/>
		<g>
			<path class="st12" d="M145.7,915.5c10.2-18.8,13.7-39.2,10.2-59.7c-1.7,18.8-18.8,32.4-32.4,46.1c5.1-11.9,10.2-23.9,10.2-35.8
				c-12,8.5-22.2,18.8-35.8,25.6c0-5.1,5.1-10.2,5.1-15.4c-8.5,5.1-15.4,13.6-23.9,18.8c10.2-20.5,17.1-42.6,30.7-61.4
				c-18.8,3.4-35.8,11.9-49.5,23.9c3.4-10.2,8.5-20.5,15.4-29c-6.8,1.7-12.8,4.2-17.9,7.8c-9.4,10.9-15.1,25.1-15.1,40.7
				c0,34.5,28,62.5,62.5,62.5c28.3,0,52.2-18.8,59.9-44.6C160,902.9,153.8,910.2,145.7,915.5z"/>
		</g>
	</g>
	<g>
		<defs>
			
				<filter id="Adobe_OpacityMaskFilter_00000149373416737132004370000009209668510206078618_" filterUnits="userSpaceOnUse" x="229.9" y="286.9" width="542.1" height="376.3">
				<feFlood  style="flood-color:white;flood-opacity:1" result="back"/>
				<feBlend  in="SourceGraphic" in2="back" mode="normal"/>
			</filter>
		</defs>
		
			<mask maskUnits="userSpaceOnUse" x="229.9" y="286.9" width="542.1" height="376.3" id="SVGID_00000010284346641623468900000005954183174539050133_">
			<g style="filter:url(#Adobe_OpacityMaskFilter_00000149373416737132004370000009209668510206078618_);">
				<defs>
					
						<filter id="Adobe_OpacityMaskFilter_00000183950227449649683510000009950598573663670183_" filterUnits="userSpaceOnUse" x="229.9" y="286.9" width="542.1" height="376.3">
						<feFlood  style="flood-color:white;flood-opacity:1" result="back"/>
						<feBlend  in="SourceGraphic" in2="back" mode="normal"/>
					</filter>
				</defs>
				
					<mask maskUnits="userSpaceOnUse" x="229.9" y="286.9" width="542.1" height="376.3" id="SVGID_00000010284346641623468900000005954183174539050133_">
					<g style="filter:url(#Adobe_OpacityMaskFilter_00000183950227449649683510000009950598573663670183_);">
					</g>
				</mask>
				
					<linearGradient id="SVGID_00000105400210390017674640000008839461500574203529_" gradientUnits="userSpaceOnUse" x1="202.6421" y1="708.6306" x2="812.7394" y2="181.4845" gradientTransform="matrix(0.9976 6.860000e-02 -6.860000e-02 0.9976 40.5932 -23.2423)">
					<stop  offset="0" style="stop-color:#FFFFFF"/>
					<stop  offset="0.1595" style="stop-color:#C1C1C1"/>
					<stop  offset="0.3262" style="stop-color:#878787"/>
					<stop  offset="0.4877" style="stop-color:#565656"/>
					<stop  offset="0.6398" style="stop-color:#313131"/>
					<stop  offset="0.7801" style="stop-color:#161616"/>
					<stop  offset="0.9045" style="stop-color:#060606"/>
					<stop  offset="1" style="stop-color:#000000"/>
				</linearGradient>
				
					<polygon style="mask:url(#SVGID_00000010284346641623468900000005954183174539050133_);fill:url(#SVGID_00000105400210390017674640000008839461500574203529_);" points="
					229.9,647.7 772,286.9 244.7,663.2 				"/>
			</g>
		</mask>
		
			<linearGradient id="SVGID_00000165229445124153843420000015860452467320990868_" gradientUnits="userSpaceOnUse" x1="202.6421" y1="708.6306" x2="812.7394" y2="181.4845" gradientTransform="matrix(0.9976 6.860000e-02 -6.860000e-02 0.9976 40.5932 -23.2423)">
			<stop  offset="6.838198e-04" style="stop-color:#E89257"/>
			<stop  offset="8.792490e-03" style="stop-color:#E59057"/>
			<stop  offset="0.2056" style="stop-color:#AC6E52"/>
			<stop  offset="0.396" style="stop-color:#7B524E"/>
			<stop  offset="0.5752" style="stop-color:#563C4A"/>
			<stop  offset="0.7406" style="stop-color:#3B2C48"/>
			<stop  offset="0.8873" style="stop-color:#2B2246"/>
			<stop  offset="1" style="stop-color:#251F46"/>
		</linearGradient>
		<polygon style="fill:url(#SVGID_00000165229445124153843420000015860452467320990868_);" points="229.9,647.7 772,286.9 
			244.7,663.2 		"/>
		<path class="st12" d="M247.9,656c-0.4,6.1-5.7,10.7-11.8,10.2c-6.1-0.4-10.7-5.7-10.2-11.8c0.4-6.1,5.7-10.7,11.8-10.2
			C243.7,644.7,248.3,650,247.9,656z"/>
		<defs>
			
				<filter id="Adobe_OpacityMaskFilter_00000003820574361453917460000017894048503973900710_" filterUnits="userSpaceOnUse" x="226" y="629.6" width="48.6" height="36.8">
				<feFlood  style="flood-color:white;flood-opacity:1" result="back"/>
				<feBlend  in="SourceGraphic" in2="back" mode="normal"/>
			</filter>
		</defs>
		
			<mask maskUnits="userSpaceOnUse" x="226" y="629.6" width="48.6" height="36.8" id="SVGID_00000021117291426752233220000008191232425779883186_">
			<g style="filter:url(#Adobe_OpacityMaskFilter_00000003820574361453917460000017894048503973900710_);">
				<defs>
					
						<filter id="Adobe_OpacityMaskFilter_00000038407062280440261100000015893331095927647419_" filterUnits="userSpaceOnUse" x="226" y="629.6" width="48.6" height="36.8">
						<feFlood  style="flood-color:white;flood-opacity:1" result="back"/>
						<feBlend  in="SourceGraphic" in2="back" mode="normal"/>
					</filter>
				</defs>
				
					<mask maskUnits="userSpaceOnUse" x="226" y="629.6" width="48.6" height="36.8" id="SVGID_00000021117291426752233220000008191232425779883186_">
					<g style="filter:url(#Adobe_OpacityMaskFilter_00000038407062280440261100000015893331095927647419_);">
					</g>
				</mask>
				
					<linearGradient id="SVGID_00000060750149803249616210000015150661663701277060_" gradientUnits="userSpaceOnUse" x1="234.9364" y1="682.6411" x2="288.0396" y2="636.7579" gradientTransform="matrix(0.994 0.1097 -0.1097 0.994 65.1179 -39.695)">
					<stop  offset="0" style="stop-color:#FFFFFF"/>
					<stop  offset="0.1363" style="stop-color:#FBFBFB"/>
					<stop  offset="0.2633" style="stop-color:#F0F0F0"/>
					<stop  offset="0.3867" style="stop-color:#DDDDDD"/>
					<stop  offset="0.5078" style="stop-color:#C3C3C3"/>
					<stop  offset="0.6273" style="stop-color:#A0A0A0"/>
					<stop  offset="0.7456" style="stop-color:#767676"/>
					<stop  offset="0.863" style="stop-color:#454545"/>
					<stop  offset="0.9768" style="stop-color:#0C0C0C"/>
					<stop  offset="1" style="stop-color:#000000"/>
				</linearGradient>
				
					<path style="mask:url(#SVGID_00000021117291426752233220000008191232425779883186_);fill:url(#SVGID_00000060750149803249616210000015150661663701277060_);" d="
					M274.6,629.6c-20.2,4.4-33.3,12.2-37.4,15c-2.9-0.1-5.7,1-7.7,2.9c-1.8,1.7-3.1,4.1-3.4,6.8c-0.7,6,3.7,11.4,9.7,12
					c4.9,0.5,9.4-2.3,11.3-6.6c0.2-0.5,0.4-1,0.5-1.5C252.2,655,263.6,645.9,274.6,629.6z"/>
			</g>
		</mask>
		
			<linearGradient id="SVGID_00000181071898125089758740000013006698899102086076_" gradientUnits="userSpaceOnUse" x1="234.9364" y1="682.6411" x2="288.0396" y2="636.7579" gradientTransform="matrix(0.994 0.1097 -0.1097 0.994 65.1179 -39.695)">
			<stop  offset="0" style="stop-color:#F88968"/>
			<stop  offset="0.144" style="stop-color:#F48767"/>
			<stop  offset="0.2781" style="stop-color:#E98065"/>
			<stop  offset="0.4084" style="stop-color:#D67561"/>
			<stop  offset="0.5362" style="stop-color:#BC655B"/>
			<stop  offset="0.6624" style="stop-color:#995154"/>
			<stop  offset="0.7873" style="stop-color:#6F384C"/>
			<stop  offset="0.9088" style="stop-color:#3F1B42"/>
			<stop  offset="1" style="stop-color:#150239"/>
		</linearGradient>
		<path style="opacity:0.67;fill:url(#SVGID_00000181071898125089758740000013006698899102086076_);" d="M274.6,629.6
			c-20.2,4.4-33.3,12.2-37.4,15c-2.9-0.1-5.7,1-7.7,2.9c-1.8,1.7-3.1,4.1-3.4,6.8c-0.7,6,3.7,11.4,9.7,12c4.9,0.5,9.4-2.3,11.3-6.6
			c0.2-0.5,0.4-1,0.5-1.5C252.2,655,263.6,645.9,274.6,629.6z"/>
	</g>
	<g>
		<defs>
			
				<filter id="Adobe_OpacityMaskFilter_00000129916936850466088360000009102328472433715363_" filterUnits="userSpaceOnUse" x="432.7" y="253.3" width="446.5" height="359.2">
				<feFlood  style="flood-color:white;flood-opacity:1" result="back"/>
				<feBlend  in="SourceGraphic" in2="back" mode="normal"/>
			</filter>
		</defs>
		
			<mask maskUnits="userSpaceOnUse" x="432.7" y="253.3" width="446.5" height="359.2" id="SVGID_00000116207149685813464790000001637111458101437103_">
			<g style="filter:url(#Adobe_OpacityMaskFilter_00000129916936850466088360000009102328472433715363_);">
				<defs>
					
						<filter id="Adobe_OpacityMaskFilter_00000041295150381373467710000008853584680267218305_" filterUnits="userSpaceOnUse" x="432.7" y="253.3" width="446.5" height="359.2">
						<feFlood  style="flood-color:white;flood-opacity:1" result="back"/>
						<feBlend  in="SourceGraphic" in2="back" mode="normal"/>
					</filter>
				</defs>
				
					<mask maskUnits="userSpaceOnUse" x="432.7" y="253.3" width="446.5" height="359.2" id="SVGID_00000116207149685813464790000001637111458101437103_">
					<g style="filter:url(#Adobe_OpacityMaskFilter_00000041295150381373467710000008853584680267218305_);">
					</g>
				</mask>
				
					<linearGradient id="SVGID_00000091718441911012845790000010339300090998946969_" gradientUnits="userSpaceOnUse" x1="399.3399" y1="640.9603" x2="934.9929" y2="178.1367" gradientTransform="matrix(0.9999 1.550000e-02 -1.550000e-02 0.9999 8.3152 0.4558)">
					<stop  offset="0" style="stop-color:#FFFFFF"/>
					<stop  offset="0.1595" style="stop-color:#C1C1C1"/>
					<stop  offset="0.3262" style="stop-color:#878787"/>
					<stop  offset="0.4877" style="stop-color:#565656"/>
					<stop  offset="0.6398" style="stop-color:#313131"/>
					<stop  offset="0.7801" style="stop-color:#161616"/>
					<stop  offset="0.9045" style="stop-color:#060606"/>
					<stop  offset="1" style="stop-color:#000000"/>
				</linearGradient>
				
					<polygon style="mask:url(#SVGID_00000116207149685813464790000001637111458101437103_);fill:url(#SVGID_00000091718441911012845790000010339300090998946969_);" points="
					432.7,609.3 879.2,253.3 436.1,612.6 				"/>
			</g>
		</mask>
		
			<linearGradient id="SVGID_00000041279435960037182780000013852784514256840347_" gradientUnits="userSpaceOnUse" x1="399.3399" y1="640.9603" x2="934.9929" y2="178.1367" gradientTransform="matrix(0.9999 1.550000e-02 -1.550000e-02 0.9999 8.3152 0.4558)">
			<stop  offset="0" style="stop-color:#F88968"/>
			<stop  offset="9.694695e-02" style="stop-color:#D57461"/>
			<stop  offset="0.2762" style="stop-color:#9C5255"/>
			<stop  offset="0.4496" style="stop-color:#6B354B"/>
			<stop  offset="0.6129" style="stop-color:#461F43"/>
			<stop  offset="0.7637" style="stop-color:#2B0F3E"/>
			<stop  offset="0.8974" style="stop-color:#1B053A"/>
			<stop  offset="1" style="stop-color:#150239"/>
		</linearGradient>
		<polygon style="fill:url(#SVGID_00000041279435960037182780000013852784514256840347_);" points="432.7,609.3 879.2,253.3 
			436.1,612.6 		"/>
		<path class="st11" d="M436.7,610.9c0,1.3-1.1,2.4-2.5,2.4s-2.4-1.1-2.4-2.5c0-1.3,1.1-2.4,2.5-2.4
			C435.7,608.5,436.8,609.6,436.7,610.9z"/>
		<defs>
			
				<filter id="Adobe_OpacityMaskFilter_00000058564156263780347700000001676925510073921958_" filterUnits="userSpaceOnUse" x="431.9" y="604.8" width="10.4" height="8.6">
				<feFlood  style="flood-color:white;flood-opacity:1" result="back"/>
				<feBlend  in="SourceGraphic" in2="back" mode="normal"/>
			</filter>
		</defs>
		
			<mask maskUnits="userSpaceOnUse" x="431.9" y="604.8" width="10.4" height="8.6" id="SVGID_00000045618750104433525990000002185574257137602717_">
			<g style="filter:url(#Adobe_OpacityMaskFilter_00000058564156263780347700000001676925510073921958_);">
				<defs>
					
						<filter id="Adobe_OpacityMaskFilter_00000164487398781898270390000007046494389363516088_" filterUnits="userSpaceOnUse" x="431.9" y="604.8" width="10.4" height="8.6">
						<feFlood  style="flood-color:white;flood-opacity:1" result="back"/>
						<feBlend  in="SourceGraphic" in2="back" mode="normal"/>
					</filter>
				</defs>
				
					<mask maskUnits="userSpaceOnUse" x="431.9" y="604.8" width="10.4" height="8.6" id="SVGID_00000045618750104433525990000002185574257137602717_">
					<g style="filter:url(#Adobe_OpacityMaskFilter_00000164487398781898270390000007046494389363516088_);">
					</g>
				</mask>
				
					<linearGradient id="SVGID_00000083791730450529202160000010228408326256228741_" gradientUnits="userSpaceOnUse" x1="435.1585" y1="607.6352" x2="446.9215" y2="597.4715" gradientTransform="matrix(0.9984 5.670000e-02 -5.670000e-02 0.9984 31.499 -18.2178)">
					<stop  offset="0" style="stop-color:#FFFFFF"/>
					<stop  offset="0.1363" style="stop-color:#FBFBFB"/>
					<stop  offset="0.2633" style="stop-color:#F0F0F0"/>
					<stop  offset="0.3867" style="stop-color:#DDDDDD"/>
					<stop  offset="0.5078" style="stop-color:#C3C3C3"/>
					<stop  offset="0.6273" style="stop-color:#A0A0A0"/>
					<stop  offset="0.7456" style="stop-color:#767676"/>
					<stop  offset="0.863" style="stop-color:#454545"/>
					<stop  offset="0.9768" style="stop-color:#0C0C0C"/>
					<stop  offset="1" style="stop-color:#000000"/>
				</linearGradient>
				
					<path style="mask:url(#SVGID_00000045618750104433525990000002185574257137602717_);fill:url(#SVGID_00000083791730450529202160000010228408326256228741_);" d="
					M442.3,604.8c-4.4,1.2-7.2,3.1-8.1,3.8c-0.6,0-1.2,0.3-1.7,0.7c-0.4,0.4-0.6,0.9-0.7,1.5c-0.1,1.3,0.9,2.5,2.3,2.6
					c1.1,0.1,2.1-0.6,2.4-1.6c0-0.1,0.1-0.2,0.1-0.3C437.7,610.7,440.1,608.5,442.3,604.8z"/>
			</g>
		</mask>
		
			<linearGradient id="SVGID_00000091696945244576073260000017345762155289151133_" gradientUnits="userSpaceOnUse" x1="435.1585" y1="607.6352" x2="446.9215" y2="597.4715" gradientTransform="matrix(0.9984 5.670000e-02 -5.670000e-02 0.9984 31.499 -18.2178)">
			<stop  offset="0" style="stop-color:#E89257"/>
			<stop  offset="0.1547" style="stop-color:#E49057"/>
			<stop  offset="0.2987" style="stop-color:#D98956"/>
			<stop  offset="0.4386" style="stop-color:#C67E54"/>
			<stop  offset="0.5759" style="stop-color:#AC6E52"/>
			<stop  offset="0.7114" style="stop-color:#895A4F"/>
			<stop  offset="0.8455" style="stop-color:#5F414B"/>
			<stop  offset="0.9762" style="stop-color:#2F2547"/>
			<stop  offset="1" style="stop-color:#251F46"/>
		</linearGradient>
		<path style="opacity:0.67;fill:url(#SVGID_00000091696945244576073260000017345762155289151133_);" d="M442.3,604.8
			c-4.4,1.2-7.2,3.1-8.1,3.8c-0.6,0-1.2,0.3-1.7,0.7c-0.4,0.4-0.6,0.9-0.7,1.5c-0.1,1.3,0.9,2.5,2.3,2.6c1.1,0.1,2.1-0.6,2.4-1.6
			c0-0.1,0.1-0.2,0.1-0.3C437.7,610.7,440.1,608.5,442.3,604.8z"/>
	</g>
	<g>
		<defs>
			
				<filter id="Adobe_OpacityMaskFilter_00000142135408033894391400000015993060593255263628_" filterUnits="userSpaceOnUse" x="194" y="301.3" width="608.7" height="469.3">
				<feFlood  style="flood-color:white;flood-opacity:1" result="back"/>
				<feBlend  in="SourceGraphic" in2="back" mode="normal"/>
			</filter>
		</defs>
		
			<mask maskUnits="userSpaceOnUse" x="194" y="301.3" width="608.7" height="469.3" id="SVGID_00000155104738316943085360000016654801746560113073_">
			<g style="filter:url(#Adobe_OpacityMaskFilter_00000142135408033894391400000015993060593255263628_);">
				<defs>
					
						<filter id="Adobe_OpacityMaskFilter_00000005225948430084430700000009915688006871975350_" filterUnits="userSpaceOnUse" x="194" y="301.3" width="608.7" height="469.3">
						<feFlood  style="flood-color:white;flood-opacity:1" result="back"/>
						<feBlend  in="SourceGraphic" in2="back" mode="normal"/>
					</filter>
				</defs>
				
					<mask maskUnits="userSpaceOnUse" x="194" y="301.3" width="608.7" height="469.3" id="SVGID_00000155104738316943085360000016654801746560113073_">
					<g style="filter:url(#Adobe_OpacityMaskFilter_00000005225948430084430700000009915688006871975350_);">
					</g>
				</mask>
				
					<linearGradient id="SVGID_00000139984113835820453630000003341128448238246317_" gradientUnits="userSpaceOnUse" x1="156.3507" y1="819.2107" x2="871.4476" y2="201.3412" gradientTransform="matrix(0.9993 3.680000e-02 -3.680000e-02 0.9993 21.4632 -12.3323)">
					<stop  offset="0" style="stop-color:#FFFFFF"/>
					<stop  offset="0.1595" style="stop-color:#C1C1C1"/>
					<stop  offset="0.3262" style="stop-color:#878787"/>
					<stop  offset="0.4877" style="stop-color:#565656"/>
					<stop  offset="0.6398" style="stop-color:#313131"/>
					<stop  offset="0.7801" style="stop-color:#161616"/>
					<stop  offset="0.9045" style="stop-color:#060606"/>
					<stop  offset="1" style="stop-color:#000000"/>
				</linearGradient>
				
					<polygon style="mask:url(#SVGID_00000155104738316943085360000016654801746560113073_);fill:url(#SVGID_00000139984113835820453630000003341128448238246317_);" points="
					194,760.4 802.7,301.3 204.5,770.6 				"/>
			</g>
		</mask>
		
			<linearGradient id="SVGID_00000013873113068700596210000013757504882377654683_" gradientUnits="userSpaceOnUse" x1="156.3507" y1="819.2107" x2="871.4476" y2="201.3412" gradientTransform="matrix(0.9993 3.680000e-02 -3.680000e-02 0.9993 21.4632 -12.3323)">
			<stop  offset="0" style="stop-color:#E89257"/>
			<stop  offset="8.114219e-03" style="stop-color:#E59057"/>
			<stop  offset="0.2051" style="stop-color:#AC6E52"/>
			<stop  offset="0.3956" style="stop-color:#7B524E"/>
			<stop  offset="0.5749" style="stop-color:#563C4A"/>
			<stop  offset="0.7404" style="stop-color:#3B2C48"/>
			<stop  offset="0.8872" style="stop-color:#2B2246"/>
			<stop  offset="1" style="stop-color:#251F46"/>
		</linearGradient>
		<polygon style="fill:url(#SVGID_00000013873113068700596210000013757504882377654683_);" points="194,760.4 802.7,301.3 
			204.5,770.6 		"/>
		<path class="st11" d="M206.5,765.6c-0.2,4.2-3.7,7.4-7.8,7.3c-4.2-0.2-7.4-3.7-7.3-7.8c0.2-4.2,3.7-7.4,7.8-7.3
			C203.4,758,206.6,761.5,206.5,765.6z"/>
		<defs>
			
				<filter id="Adobe_OpacityMaskFilter_00000065797011022484826100000002793769962907611041_" filterUnits="userSpaceOnUse" x="191.5" y="747" width="32.7" height="26">
				<feFlood  style="flood-color:white;flood-opacity:1" result="back"/>
				<feBlend  in="SourceGraphic" in2="back" mode="normal"/>
			</filter>
		</defs>
		
			<mask maskUnits="userSpaceOnUse" x="191.5" y="747" width="32.7" height="26" id="SVGID_00000011030526560307634960000017235608136023125665_">
			<g style="filter:url(#Adobe_OpacityMaskFilter_00000065797011022484826100000002793769962907611041_);">
				<defs>
					
						<filter id="Adobe_OpacityMaskFilter_00000070810511282263193420000013154197478354689708_" filterUnits="userSpaceOnUse" x="191.5" y="747" width="32.7" height="26">
						<feFlood  style="flood-color:white;flood-opacity:1" result="back"/>
						<feBlend  in="SourceGraphic" in2="back" mode="normal"/>
					</filter>
				</defs>
				
					<mask maskUnits="userSpaceOnUse" x="191.5" y="747" width="32.7" height="26" id="SVGID_00000011030526560307634960000017235608136023125665_">
					<g style="filter:url(#Adobe_OpacityMaskFilter_00000070810511282263193420000013154197478354689708_);">
					</g>
				</mask>
				
					<linearGradient id="SVGID_00000061469301181033079630000017951085201391097226_" gradientUnits="userSpaceOnUse" x1="206.1805" y1="788.7379" x2="242.543" y2="757.3194" gradientTransform="matrix(0.997 7.790000e-02 -7.790000e-02 0.997 46.0647 -30.3829)">
					<stop  offset="0" style="stop-color:#FFFFFF"/>
					<stop  offset="0.1363" style="stop-color:#FBFBFB"/>
					<stop  offset="0.2633" style="stop-color:#F0F0F0"/>
					<stop  offset="0.3867" style="stop-color:#DDDDDD"/>
					<stop  offset="0.5078" style="stop-color:#C3C3C3"/>
					<stop  offset="0.6273" style="stop-color:#A0A0A0"/>
					<stop  offset="0.7456" style="stop-color:#767676"/>
					<stop  offset="0.863" style="stop-color:#454545"/>
					<stop  offset="0.9768" style="stop-color:#0C0C0C"/>
					<stop  offset="1" style="stop-color:#000000"/>
				</linearGradient>
				
					<path style="mask:url(#SVGID_00000011030526560307634960000017235608136023125665_);fill:url(#SVGID_00000061469301181033079630000017951085201391097226_);" d="
					M224.2,747c-13.8,3.5-22.5,9.1-25.3,11.1c-2,0-3.8,0.8-5.2,2.2c-1.2,1.2-2,2.9-2.2,4.7c-0.3,4.1,2.8,7.7,6.9,8
					c3.4,0.3,6.4-1.8,7.6-4.8c0.1-0.3,0.2-0.7,0.3-1C209.4,764.8,217,758.4,224.2,747z"/>
			</g>
		</mask>
		
			<linearGradient id="SVGID_00000000942797194882664850000013514141812126813322_" gradientUnits="userSpaceOnUse" x1="206.1805" y1="788.7379" x2="242.543" y2="757.3194" gradientTransform="matrix(0.997 7.790000e-02 -7.790000e-02 0.997 46.0647 -30.3829)">
			<stop  offset="0" style="stop-color:#F88968"/>
			<stop  offset="0.144" style="stop-color:#F48767"/>
			<stop  offset="0.2781" style="stop-color:#E98065"/>
			<stop  offset="0.4084" style="stop-color:#D67561"/>
			<stop  offset="0.5362" style="stop-color:#BC655B"/>
			<stop  offset="0.6624" style="stop-color:#995154"/>
			<stop  offset="0.7873" style="stop-color:#6F384C"/>
			<stop  offset="0.9088" style="stop-color:#3F1B42"/>
			<stop  offset="1" style="stop-color:#150239"/>
		</linearGradient>
		<path style="opacity:0.67;fill:url(#SVGID_00000000942797194882664850000013514141812126813322_);" d="M224.2,747
			c-13.8,3.5-22.5,9.1-25.3,11.1c-2,0-3.8,0.8-5.2,2.2c-1.2,1.2-2,2.9-2.2,4.7c-0.3,4.1,2.8,7.7,6.9,8c3.4,0.3,6.4-1.8,7.6-4.8
			c0.1-0.3,0.2-0.7,0.3-1C209.4,764.8,217,758.4,224.2,747z"/>
	</g>
	<defs>
		
			<filter id="Adobe_OpacityMaskFilter_00000100377595633309877210000016999281856639643270_" filterUnits="userSpaceOnUse" x="43.3" y="705.6" width="260.4" height="233.5">
			<feFlood  style="flood-color:white;flood-opacity:1" result="back"/>
			<feBlend  in="SourceGraphic" in2="back" mode="normal"/>
		</filter>
	</defs>
	
		<mask maskUnits="userSpaceOnUse" x="43.3" y="705.6" width="260.4" height="233.5" id="SVGID_00000116938281962438308850000016012514352040827788_">
		<g style="filter:url(#Adobe_OpacityMaskFilter_00000100377595633309877210000016999281856639643270_);">
			<defs>
				
					<filter id="Adobe_OpacityMaskFilter_00000037693513686950136970000008980896878977874055_" filterUnits="userSpaceOnUse" x="43.3" y="705.6" width="260.4" height="233.5">
					<feFlood  style="flood-color:white;flood-opacity:1" result="back"/>
					<feBlend  in="SourceGraphic" in2="back" mode="normal"/>
				</filter>
			</defs>
			
				<mask maskUnits="userSpaceOnUse" x="43.3" y="705.6" width="260.4" height="233.5" id="SVGID_00000116938281962438308850000016012514352040827788_">
				<g style="filter:url(#Adobe_OpacityMaskFilter_00000037693513686950136970000008980896878977874055_);">
				</g>
			</mask>
			
				<linearGradient id="SVGID_00000078002890035384248970000012711156630417772672_" gradientUnits="userSpaceOnUse" x1="36.5044" y1="936.4841" x2="340.541" y2="673.7855">
				<stop  offset="0" style="stop-color:#FFFFFF"/>
				<stop  offset="0.1363" style="stop-color:#FBFBFB"/>
				<stop  offset="0.2633" style="stop-color:#F0F0F0"/>
				<stop  offset="0.3867" style="stop-color:#DDDDDD"/>
				<stop  offset="0.5078" style="stop-color:#C3C3C3"/>
				<stop  offset="0.6273" style="stop-color:#A0A0A0"/>
				<stop  offset="0.7456" style="stop-color:#767676"/>
				<stop  offset="0.863" style="stop-color:#454545"/>
				<stop  offset="0.9768" style="stop-color:#0C0C0C"/>
				<stop  offset="1" style="stop-color:#000000"/>
			</linearGradient>
			
				<path style="mask:url(#SVGID_00000116938281962438308850000016012514352040827788_);fill:url(#SVGID_00000078002890035384248970000012711156630417772672_);" d="
				M303.7,705.6c-112.4,37.8-181.6,90.5-203.5,108.8c-16.7,1.5-31.5,9.5-41.9,21.5C49,846.8,43.3,861,43.3,876.5
				c0,34.5,28,62.5,62.5,62.5c28.3,0,52.2-18.8,59.9-44.6c0.9-2.8,1.5-5.8,2-8.8C192.2,863.9,251.4,804.9,303.7,705.6z"/>
		</g>
	</mask>
	
		<linearGradient id="SVGID_00000121973876969090674120000006017635393731081859_" gradientUnits="userSpaceOnUse" x1="36.5044" y1="936.4841" x2="340.541" y2="673.7855">
		<stop  offset="0" style="stop-color:#E89257"/>
		<stop  offset="0.1547" style="stop-color:#E49057"/>
		<stop  offset="0.2987" style="stop-color:#D98956"/>
		<stop  offset="0.4386" style="stop-color:#C67E54"/>
		<stop  offset="0.5759" style="stop-color:#AC6E52"/>
		<stop  offset="0.7114" style="stop-color:#895A4F"/>
		<stop  offset="0.8455" style="stop-color:#5F414B"/>
		<stop  offset="0.9762" style="stop-color:#2F2547"/>
		<stop  offset="1" style="stop-color:#251F46"/>
	</linearGradient>
	<path style="opacity:0.67;fill:url(#SVGID_00000121973876969090674120000006017635393731081859_);" d="M303.7,705.6
		c-112.4,37.8-181.6,90.5-203.5,108.8c-16.7,1.5-31.5,9.5-41.9,21.5C49,846.8,43.3,861,43.3,876.5c0,34.5,28,62.5,62.5,62.5
		c28.3,0,52.2-18.8,59.9-44.6c0.9-2.8,1.5-5.8,2-8.8C192.2,863.9,251.4,804.9,303.7,705.6z"/>
</g>
</svg>
