<?xml version="1.0" encoding="utf-8"?>
<!-- Generator: Adobe Illustrator 28.1.0, SVG Export Plug-In . SVG Version: 6.00 Build 0)  -->
<svg version="1.1" id="Layer_1" xmlns="http://www.w3.org/2000/svg" xmlns:xlink="http://www.w3.org/1999/xlink" x="0px" y="0px"
	 viewBox="0 0 1080 1080" style="enable-background:new 0 0 1080 1080;" xml:space="preserve">
<style type="text/css">
	.st0{fill:#124466;}
	.st1{fill:url(#SVGID_1_);}
	.st2{fill:url(#SVGID_00000157299628045398593290000016499050701218277505_);}
	.st3{fill:url(#SVGID_00000024715810529192910200000008443285622407497624_);}
	.st4{fill:url(#SVGID_00000111155719477330593690000007775313853416089277_);}
	.st5{fill:url(#SVGID_00000060028167185538591650000009033186903491916677_);}
	.st6{fill:url(#SVGID_00000039106948751505263590000001792771186361473423_);}
	.st7{opacity:0.1;fill:#FFFFFF;enable-background:new    ;}
	.st8{opacity:0.5;fill:#DFD7FF;enable-background:new    ;}
</style>
<g>
	<polygon class="st0" points="706.3,1056.4 906.9,735.8 819.6,69.7 671.6,17 338.8,17.1 242.1,58.3 216.5,866.2 	"/>
	
		<linearGradient id="SVGID_1_" gradientUnits="userSpaceOnUse" x1="-1574.2994" y1="-3448.4368" x2="-1292.5994" y2="-3448.4368" gradientTransform="matrix(-1 0 0 -1 -667.3994 -2648.3867)">
		<stop  offset="0" style="stop-color:#AF9AFF"/>
		<stop  offset="1" style="stop-color:#6C7CFF"/>
	</linearGradient>
	<polygon class="st1" points="706.3,1056.4 906.9,735.8 625.2,543.7 	"/>
	
		<linearGradient id="SVGID_00000119107683969960220370000006371352322314086584_" gradientUnits="userSpaceOnUse" x1="-1373.6995" y1="-3448.4368" x2="-1006.1994" y2="-3448.4368" gradientTransform="matrix(-1 0 0 -1 -667.3994 -2648.3867)">
		<stop  offset="0" style="stop-color:#AF9AFF"/>
		<stop  offset="1" style="stop-color:#6C7CFF"/>
	</linearGradient>
	<polygon style="fill:url(#SVGID_00000119107683969960220370000006371352322314086584_);" points="625.2,543.7 338.8,661.4 
		706.3,1056.4 	"/>
	
		<linearGradient id="SVGID_00000129203390261608637600000006104377246454284681_" gradientUnits="userSpaceOnUse" x1="-1373.6995" y1="-3507.2866" x2="-883.8994" y2="-3507.2866" gradientTransform="matrix(-1 0 0 -1 -667.3994 -2648.3867)">
		<stop  offset="0" style="stop-color:#AF9AFF"/>
		<stop  offset="1" style="stop-color:#6C7CFF"/>
	</linearGradient>
	<polygon style="fill:url(#SVGID_00000129203390261608637600000006104377246454284681_);" points="338.8,661.4 216.5,866.2 
		706.3,1056.4 	"/>
	
		<linearGradient id="SVGID_00000082370192376325520380000007243461779423875758_" gradientUnits="userSpaceOnUse" x1="-1433.4495" y1="-3384.1868" x2="-1433.4495" y2="-2665.3867" gradientTransform="matrix(-1 0 0 -1 -667.3994 -2648.3867)">
		<stop  offset="0" style="stop-color:#6C7CFF"/>
		<stop  offset="0.1239" style="stop-color:#6879F8"/>
		<stop  offset="0.3067" style="stop-color:#5C70E4"/>
		<stop  offset="0.5259" style="stop-color:#4962C3"/>
		<stop  offset="0.7711" style="stop-color:#2F5196"/>
		<stop  offset="1" style="stop-color:#124466"/>
	</linearGradient>
	<polygon style="fill:url(#SVGID_00000082370192376325520380000007243461779423875758_);" points="906.9,735.8 819.6,69.7 671.6,17 
		625.2,543.7 	"/>
	
		<linearGradient id="SVGID_00000101089833895373427300000001696605431308395451_" gradientUnits="userSpaceOnUse" x1="-1172.8994" y1="-3309.7866" x2="-1172.8994" y2="-2665.3867" gradientTransform="matrix(-1 0 0 -1 -667.3994 -2648.3867)">
		<stop  offset="0" style="stop-color:#6C7CFF"/>
		<stop  offset="1" style="stop-color:#124466"/>
	</linearGradient>
	<polygon style="fill:url(#SVGID_00000101089833895373427300000001696605431308395451_);" points="625.4,543.8 339.1,661.4 
		339.1,17.1 671.9,17 	"/>
	
		<linearGradient id="SVGID_00000075163237989097951270000016114598823604915642_" gradientUnits="userSpaceOnUse" x1="-945.2994" y1="-3514.5867" x2="-945.2994" y2="-2665.4868" gradientTransform="matrix(-1 0 0 -1 -667.3994 -2648.3867)">
		<stop  offset="0" style="stop-color:#6C7CFF"/>
		<stop  offset="0.1967" style="stop-color:#6A7BFC"/>
		<stop  offset="0.3579" style="stop-color:#6476F2"/>
		<stop  offset="0.5066" style="stop-color:#5A6EE0"/>
		<stop  offset="0.6477" style="stop-color:#4C64C8"/>
		<stop  offset="0.7835" style="stop-color:#3A56A9"/>
		<stop  offset="0.9135" style="stop-color:#234B84"/>
		<stop  offset="1" style="stop-color:#124466"/>
	</linearGradient>
	<polygon style="fill:url(#SVGID_00000075163237989097951270000016114598823604915642_);" points="339.1,17.1 242.3,58.3 
		216.7,866.2 339.1,661.4 	"/>
	<polygon class="st7" points="906.9,735.8 625.2,543.7 338.8,661.4 216.5,866.2 351.4,705 706.3,1056.4 377,688.9 615.9,610 
		696,991.3 647.9,618.5 	"/>
	<polygon class="st8" points="645.6,312.2 688.5,586.8 625.2,543.7 	"/>
	<polygon class="st7" points="625.2,543.7 461.4,101.5 338.8,661.4 	"/>
	<polygon class="st7" points="571.7,565.7 445.5,357 395.8,638 	"/>
	<polygon class="st7" points="339.1,497.5 224.7,613.1 227.4,530.6 339.1,326.4 	"/>
	<polygon class="st8" points="339.1,264.1 229.6,458.5 231.9,386.4 339.1,51.7 	"/>
</g>
</svg>
