<?xml version="1.0" encoding="utf-8"?>
<!-- Generator: Adobe Illustrator 28.1.0, SVG Export Plug-In . SVG Version: 6.00 Build 0)  -->
<svg version="1.1" id="Layer_1" xmlns="http://www.w3.org/2000/svg" xmlns:xlink="http://www.w3.org/1999/xlink" x="0px" y="0px"
	 viewBox="0 0 1080 1080" style="enable-background:new 0 0 1080 1080;" xml:space="preserve">
<style type="text/css">
	.st0{fill:#124666;}
	.st1{fill:url(#SVGID_1_);}
	.st2{fill:url(#SVGID_00000115495764166641820430000000588053149692894893_);}
	.st3{fill:url(#SVGID_00000050623832756544195440000004446312241261950135_);}
	.st4{fill:url(#SVGID_00000175285981757222727340000015275102206185454475_);}
	.st5{fill:url(#SVGID_00000106147904433404374090000016266642122113797310_);}
	.st6{opacity:0.1;fill:#FFFFFF;enable-background:new    ;}
	.st7{opacity:0.5;fill:#DFD7FF;enable-background:new    ;}
	.st8{opacity:0.2;fill:#FFFFFF;enable-background:new    ;}
	.st9{opacity:0.3;fill:#DFD7FF;enable-background:new    ;}
	.st10{fill:url(#SVGID_00000154393948510710344740000013764920107902016925_);}
	.st11{fill:url(#SVGID_00000087397549464918530170000011958610108427043005_);}
	.st12{fill:url(#SVGID_00000111875763187112453250000006902830916164873146_);}
	.st13{fill:url(#SVGID_00000013182438475661095110000009634348950457313469_);}
	.st14{fill:url(#SVGID_00000087373522871962176150000001266755511696949150_);}
	.st15{fill:url(#SVGID_00000074414492484589234450000007616764652576538008_);}
	.st16{fill:url(#SVGID_00000036936029440509005200000006510089476466953356_);}
	.st17{fill:url(#SVGID_00000104707393317090466270000001945693816532376486_);}
</style>
<g>
	<polygon class="st0" points="554.4,1071.5 400.6,808.4 422.1,40.3 462.9,18.3 554.4,8.5 629.3,56.8 645.6,739.1 	"/>
	
		<linearGradient id="SVGID_1_" gradientUnits="userSpaceOnUse" x1="484.55" y1="-3719.8867" x2="484.55" y2="-3364.8867" gradientTransform="matrix(1 0 0 -1 0 -2648.3867)">
		<stop  offset="0" style="stop-color:#AE9AFF"/>
		<stop  offset="1" style="stop-color:#6C7EFF"/>
	</linearGradient>
	<polygon class="st1" points="568.5,765.8 445.4,716.5 400.6,808.4 471.7,930.1 554.4,1071.5 560.1,948.1 	"/>
	
		<linearGradient id="SVGID_00000168800470996288656610000014326372415441181095_" gradientUnits="userSpaceOnUse" x1="554.4" y1="-3553.6868" x2="645.6" y2="-3553.6868" gradientTransform="matrix(1 0 0 -1 0 -2648.3867)">
		<stop  offset="0" style="stop-color:#AE9AFF"/>
		<stop  offset="1" style="stop-color:#6C7EFF"/>
	</linearGradient>
	<polygon style="fill:url(#SVGID_00000168800470996288656610000014326372415441181095_);" points="645.6,739.1 568.5,765.8 
		557.8,997.1 554.4,1071.5 585.6,957.7 	"/>
	
		<linearGradient id="SVGID_00000014612409814910190010000001062513024148158393_" gradientUnits="userSpaceOnUse" x1="431.75" y1="-3456.7869" x2="431.75" y2="-2666.6868" gradientTransform="matrix(1 0 0 -1 0 -2648.3867)">
		<stop  offset="0" style="stop-color:#6C7EFF"/>
		<stop  offset="1" style="stop-color:#124666"/>
	</linearGradient>
	<polygon style="fill:url(#SVGID_00000014612409814910190010000001062513024148158393_);" points="462.9,18.3 431.5,35.2 
		422.1,40.3 407.3,570.5 400.6,808.4 445.4,716.5 	"/>
	
		<linearGradient id="SVGID_00000140015156328508008630000001081810781240934784_" gradientUnits="userSpaceOnUse" x1="506.95" y1="-3414.1868" x2="506.95" y2="-2656.8867" gradientTransform="matrix(1 0 0 -1 0 -2648.3867)">
		<stop  offset="0" style="stop-color:#6C7EFF"/>
		<stop  offset="8.537828e-02" style="stop-color:#6276EE"/>
		<stop  offset="0.3984" style="stop-color:#405CB4"/>
		<stop  offset="0.6662" style="stop-color:#27508A"/>
		<stop  offset="0.8753" style="stop-color:#184970"/>
		<stop  offset="1" style="stop-color:#124666"/>
	</linearGradient>
	<polygon style="fill:url(#SVGID_00000140015156328508008630000001081810781240934784_);" points="568.5,765.8 568,723.1 568,723 
		566.8,640 566.8,639.9 564.4,568.7 564.4,568.6 562,405.8 562,405.8 555.9,105.5 555.9,105.5 554.3,8.5 463.5,18.3 463.2,61.7 
		463.2,61.7 454.7,331.5 454.7,331.6 454.6,343.3 450.8,499.4 448.4,596.3 446,693.4 445.4,716.5 	"/>
	
		<linearGradient id="SVGID_00000028320623353737624900000001034245623024304773_" gradientUnits="userSpaceOnUse" x1="600" y1="-3414.1868" x2="600" y2="-2656.8867" gradientTransform="matrix(1 0 0 -1 0 -2648.3867)">
		<stop  offset="0" style="stop-color:#6C7EFF"/>
		<stop  offset="0.13" style="stop-color:#6579F3"/>
		<stop  offset="0.3622" style="stop-color:#536BD5"/>
		<stop  offset="0.6698" style="stop-color:#3656A3"/>
		<stop  offset="1" style="stop-color:#124666"/>
	</linearGradient>
	<polygon style="fill:url(#SVGID_00000028320623353737624900000001034245623024304773_);" points="645.6,739.1 629.3,56.8 
		554.4,8.5 568.5,765.8 	"/>
	<polygon class="st6" points="560.1,948.1 494.3,817.6 471.7,930.1 513.8,1002.1 554.4,1071.5 557.8,998.3 	"/>
	<polygon class="st7" points="557.8,998.3 528.5,969.1 523.1,1000.5 510,989.2 513.8,1002.1 554.4,1071.5 	"/>
	<polygon class="st7" points="585.6,957.7 576,950.3 557.8,997.1 554.4,1071.5 	"/>
	<polygon class="st6" points="583.7,760.5 645.6,739.1 568.5,789.3 567.5,788.9 445.4,740.1 400.6,808.4 445.4,717.3 560,763.1 
		563.9,519.2 	"/>
	<polygon class="st8" points="431.8,547.5 431.8,35.2 422.2,40.3 407.5,570.5 	"/>
	<polygon class="st8" points="564.4,568.7 564.4,568.6 562,405.8 562,405.8 454.7,331.6 454.7,331.6 454.6,343.3 450.8,499.4 
		564.5,568.6 	"/>
	<polygon class="st6" points="561.6,405.8 555.9,105.5 555.9,105.5 556,105.5 461.9,61.7 454.7,331.5 454.7,331.6 454.8,331.6 	"/>
	<polygon class="st9" points="558.6,228.8 634.8,286.9 557.1,162.3 	"/>
</g>
<g>
	
		<linearGradient id="SVGID_00000002344083650308800350000011995142633094075051_" gradientUnits="userSpaceOnUse" x1="565.4218" y1="-2942.9331" x2="565.4218" y2="-2531.0894" gradientTransform="matrix(0.9939 0.11 0.11 -0.9939 12.5015 -2534.5901)">
		<stop  offset="0" style="stop-color:#6C7EFF"/>
		<stop  offset="1" style="stop-color:#124666"/>
	</linearGradient>
	<polygon style="fill:url(#SVGID_00000002344083650308800350000011995142633094075051_);" points="132.5,439.5 295.2,50.8 385,53.1 
		374.7,414.2 	"/>
	
		<linearGradient id="SVGID_00000029006492859324374450000016805610457876967808_" gradientUnits="userSpaceOnUse" x1="565.4218" y1="-3075.6335" x2="565.4218" y2="-2864.4978" gradientTransform="matrix(0.9939 0.11 0.11 -0.9939 12.5015 -2534.5901)">
		<stop  offset="0" style="stop-color:#AE9AFF"/>
		<stop  offset="1" style="stop-color:#6C7EFF"/>
	</linearGradient>
	<polygon style="fill:url(#SVGID_00000029006492859324374450000016805610457876967808_);" points="249,585.9 132.5,439.5 
		258.2,374.5 374.7,414.2 	"/>
	
		<linearGradient id="SVGID_00000158742041018193260020000003676253856079629196_" gradientUnits="userSpaceOnUse" x1="654.9424" y1="-3075.6335" x2="654.9424" y2="-2891.1423" gradientTransform="matrix(0.9939 0.11 0.11 -0.9939 12.5015 -2534.5901)">
		<stop  offset="0" style="stop-color:#AE9AFF"/>
		<stop  offset="1" style="stop-color:#6C7EFF"/>
	</linearGradient>
	<polygon style="fill:url(#SVGID_00000158742041018193260020000003676253856079629196_);" points="249,585.9 406.2,558.1 
		374.7,414.2 	"/>
	
		<linearGradient id="SVGID_00000131345624547582869110000013533637018552657341_" gradientUnits="userSpaceOnUse" x1="693.2261" y1="-3030.7083" x2="693.2261" y2="-2531.0894" gradientTransform="matrix(0.9939 0.11 0.11 -0.9939 12.5015 -2534.5901)">
		<stop  offset="0" style="stop-color:#6C7EFF"/>
		<stop  offset="6.749427e-02" style="stop-color:#6277EF"/>
		<stop  offset="0.2914" style="stop-color:#4661BE"/>
		<stop  offset="0.5037" style="stop-color:#2F5498"/>
		<stop  offset="0.6987" style="stop-color:#1F4C7D"/>
		<stop  offset="0.8703" style="stop-color:#15466C"/>
		<stop  offset="1" style="stop-color:#124666"/>
	</linearGradient>
	<polygon style="fill:url(#SVGID_00000131345624547582869110000013533637018552657341_);" points="385,53.1 434.3,89.8 406.2,558.1 
		374.7,414.2 	"/>
	<polygon class="st7" points="132.5,439.5 258.2,374.5 375,401.8 377.7,308.5 387.1,439 406.2,558.1 376.5,454.7 249,585.9 
		361.6,417.8 257.6,391 	"/>
	<polygon class="st6" points="170.1,486.8 249,585.9 300.4,509.1 262.7,528.2 225.6,456.9 214.7,494.8 	"/>
	<polygon class="st6" points="249,585.9 293.2,520 224.2,554.8 	"/>
	<polygon class="st6" points="376.5,454.7 330.3,547.5 406.2,558.1 	"/>
	<polygon class="st6" points="375,401.8 168.8,352.8 231.4,203.2 	"/>
	<polygon class="st6" points="434.3,89.8 416.1,91.8 406.2,558.1 	"/>
</g>
<g>
	
		<linearGradient id="SVGID_00000112632626476265911890000017343224637148738955_" gradientUnits="userSpaceOnUse" x1="245.6199" y1="-1611.2897" x2="245.6199" y2="-1199.3864" gradientTransform="matrix(0.7764 -0.6302 -0.6302 -0.7764 -363.8554 -642.2989)">
		<stop  offset="0" style="stop-color:#6C7EFF"/>
		<stop  offset="1" style="stop-color:#124666"/>
	</linearGradient>
	<polygon style="fill:url(#SVGID_00000112632626476265911890000017343224637148738955_);" points="749.9,528.9 587.5,140 
		652.2,77.7 902,338.7 	"/>
	
		<linearGradient id="SVGID_00000021086975071377648760000003100472080735939518_" gradientUnits="userSpaceOnUse" x1="245.6199" y1="-1743.9493" x2="245.6199" y2="-1532.7847" gradientTransform="matrix(0.7764 -0.6302 -0.6302 -0.7764 -363.8554 -642.2989)">
		<stop  offset="0" style="stop-color:#AE9AFF"/>
		<stop  offset="1" style="stop-color:#6C7EFF"/>
	</linearGradient>
	<polygon style="fill:url(#SVGID_00000021086975071377648760000003100472080735939518_);" points="936,548.7 749.9,528.9 
		791.9,393.7 902,338.7 	"/>
	
		<linearGradient id="SVGID_00000070117511824174657410000009227903588200966057_" gradientUnits="userSpaceOnUse" x1="335.1935" y1="-1743.9493" x2="335.1935" y2="-1559.4691" gradientTransform="matrix(0.7764 -0.6302 -0.6302 -0.7764 -363.8554 -642.2989)">
		<stop  offset="0" style="stop-color:#AE9AFF"/>
		<stop  offset="1" style="stop-color:#6C7EFF"/>
	</linearGradient>
	<polygon style="fill:url(#SVGID_00000070117511824174657410000009227903588200966057_);" points="936,548.7 1026.5,417.3 
		902,338.7 	"/>
	
		<linearGradient id="SVGID_00000042701371993838359300000004800711511136667557_" gradientUnits="userSpaceOnUse" x1="373.4365" y1="-1698.9611" x2="373.4365" y2="-1199.3864" gradientTransform="matrix(0.7764 -0.6302 -0.6302 -0.7764 -363.8554 -642.2989)">
		<stop  offset="0" style="stop-color:#6C7EFF"/>
		<stop  offset="6.749427e-02" style="stop-color:#6277EF"/>
		<stop  offset="0.2914" style="stop-color:#4661BE"/>
		<stop  offset="0.5037" style="stop-color:#2F5498"/>
		<stop  offset="0.6987" style="stop-color:#1F4C7D"/>
		<stop  offset="0.8703" style="stop-color:#15466C"/>
		<stop  offset="1" style="stop-color:#124666"/>
	</linearGradient>
	<polygon style="fill:url(#SVGID_00000042701371993838359300000004800711511136667557_);" points="652.2,77.7 712.9,68.4 
		1026.5,417.3 902,338.7 	"/>
	<polygon class="st7" points="749.9,528.9 791.9,393.7 893.4,329.7 828.8,262.3 928.4,347.2 1026.5,417.3 932,365.9 936,548.7 
		895.3,350.5 803.2,405.7 	"/>
	<polygon class="st6" points="810,535.3 936,548.7 917.4,458.2 904.5,498.4 827.7,474.8 847,509.2 	"/>
	<polygon class="st6" points="936,548.7 920,471 896.4,544.5 	"/>
	<polygon class="st6" points="932,365.9 965.7,463.9 1026.5,417.3 	"/>
	<polygon class="st6" points="893.4,329.7 713.7,442.1 651.2,292.5 	"/>
	<polygon class="st6" points="712.9,68.4 701.5,82.7 1026.5,417.3 	"/>
</g>
</svg>
