<?xml version="1.0" encoding="utf-8"?>
<!-- Generator: Adobe Illustrator 28.0.0, SVG Export Plug-In . SVG Version: 6.00 Build 0)  -->
<svg version="1.1" id="Layer_1" xmlns="http://www.w3.org/2000/svg" xmlns:xlink="http://www.w3.org/1999/xlink" x="0px" y="0px"
	 viewBox="0 0 1080 1080" style="enable-background:new 0 0 1080 1080;" xml:space="preserve">
<style type="text/css">
	.st0{fill:#516612;}
	.st1{fill:url(#SVGID_1_);}
	.st2{fill:url(#SVGID_00000055672497506201766240000004165679773225109647_);}
	.st3{fill:url(#SVGID_00000098188395760196653340000001553669689658538427_);}
	.st4{fill:url(#SVGID_00000108266855776272709020000011918874789752889018_);}
	.st5{fill:url(#SVGID_00000129194463047203520180000009180571734688461234_);}
	.st6{fill:url(#SVGID_00000096741936190952261630000002196634379666081937_);}
	.st7{opacity:0.1;fill:#FFFFFF;}
	.st8{opacity:0.5;fill:#D7FFE0;}
</style>
<g>
	<polygon class="st0" points="706.3,1056.4 906.9,735.8 819.6,69.7 671.6,17 338.8,17.1 242.1,58.3 216.5,866.2 	"/>
	
		<linearGradient id="SVGID_1_" gradientUnits="userSpaceOnUse" x1="-1574.3031" y1="-3448.4304" x2="-1292.6473" y2="-3448.4304" gradientTransform="matrix(-1 0 0 -1 -667.3994 -2648.3867)">
		<stop  offset="0" style="stop-color:#9AFFB1"/>
		<stop  offset="1" style="stop-color:#91FF6C"/>
	</linearGradient>
	<polygon class="st1" points="706.3,1056.4 906.9,735.8 625.2,543.7 	"/>
	
		<linearGradient id="SVGID_00000133517362237450186920000016887702954509010345_" gradientUnits="userSpaceOnUse" x1="-1373.7305" y1="-3448.4304" x2="-1006.2192" y2="-3448.4304" gradientTransform="matrix(-1 0 0 -1 -667.3994 -2648.3867)">
		<stop  offset="0" style="stop-color:#9AFFB1"/>
		<stop  offset="1" style="stop-color:#91FF6C"/>
	</linearGradient>
	<polygon style="fill:url(#SVGID_00000133517362237450186920000016887702954509010345_);" points="625.2,543.7 338.8,661.4 
		706.3,1056.4 	"/>
	
		<linearGradient id="SVGID_00000000938238452533831950000017002588224457577107_" gradientUnits="userSpaceOnUse" x1="-1373.7305" y1="-3507.2732" x2="-883.896" y2="-3507.2732" gradientTransform="matrix(-1 0 0 -1 -667.3994 -2648.3867)">
		<stop  offset="0" style="stop-color:#9AFFB1"/>
		<stop  offset="1" style="stop-color:#91FF6C"/>
	</linearGradient>
	<polygon style="fill:url(#SVGID_00000000938238452533831950000017002588224457577107_);" points="338.8,661.4 216.5,866.2 
		706.3,1056.4 	"/>
	
		<linearGradient id="SVGID_00000047024067582893468460000015177641355104832663_" gradientUnits="userSpaceOnUse" x1="-1433.4752" y1="-3384.1431" x2="-1433.4752" y2="-2665.3992" gradientTransform="matrix(-1 0 0 -1 -667.3994 -2648.3867)">
		<stop  offset="0" style="stop-color:#91FF6C"/>
		<stop  offset="0.1239" style="stop-color:#8EF868"/>
		<stop  offset="0.3067" style="stop-color:#86E45C"/>
		<stop  offset="0.5259" style="stop-color:#78C349"/>
		<stop  offset="0.7711" style="stop-color:#65962F"/>
		<stop  offset="1" style="stop-color:#516612"/>
	</linearGradient>
	<polygon style="fill:url(#SVGID_00000047024067582893468460000015177641355104832663_);" points="906.9,735.8 819.6,69.7 671.6,17 
		625.2,543.7 	"/>
	
		<linearGradient id="SVGID_00000049921199954549316100000000173679423087530400_" gradientUnits="userSpaceOnUse" x1="-1172.8999" y1="-3309.792" x2="-1172.8999" y2="-2665.3992" gradientTransform="matrix(-1 0 0 -1 -667.3994 -2648.3867)">
		<stop  offset="0" style="stop-color:#91FF6C"/>
		<stop  offset="1" style="stop-color:#516612"/>
	</linearGradient>
	<polygon style="fill:url(#SVGID_00000049921199954549316100000000173679423087530400_);" points="625.4,543.8 339.1,661.4 
		339.1,17.1 671.9,17 	"/>
	
		<linearGradient id="SVGID_00000060750623518530886030000009050764964031710623_" gradientUnits="userSpaceOnUse" x1="-945.3246" y1="-3514.6089" x2="-945.3246" y2="-2665.4697" gradientTransform="matrix(-1 0 0 -1 -667.3994 -2648.3867)">
		<stop  offset="0" style="stop-color:#91FF6C"/>
		<stop  offset="0.1967" style="stop-color:#90FC6A"/>
		<stop  offset="0.3579" style="stop-color:#8BF264"/>
		<stop  offset="0.5066" style="stop-color:#84E05A"/>
		<stop  offset="0.6477" style="stop-color:#7AC84C"/>
		<stop  offset="0.7835" style="stop-color:#6DA93A"/>
		<stop  offset="0.9135" style="stop-color:#5D8423"/>
		<stop  offset="1" style="stop-color:#516612"/>
	</linearGradient>
	<polygon style="fill:url(#SVGID_00000060750623518530886030000009050764964031710623_);" points="339.1,17.1 242.3,58.3 
		216.7,866.2 339.1,661.4 	"/>
	<polygon class="st7" points="906.9,735.8 625.2,543.7 338.8,661.4 216.5,866.2 351.4,705 706.3,1056.4 377,688.9 615.9,610 
		696,991.3 647.9,618.5 	"/>
	<polygon class="st8" points="645.6,312.2 688.5,586.8 625.2,543.7 	"/>
	<polygon class="st7" points="625.2,543.7 461.4,101.5 338.8,661.4 	"/>
	<polygon class="st7" points="571.7,565.7 445.5,357 395.8,638 	"/>
	<polygon class="st7" points="339.1,497.5 224.7,613.1 227.4,530.6 339.1,326.4 	"/>
	<polygon class="st8" points="339.1,264.1 229.6,458.5 231.9,386.4 339.1,51.7 	"/>
</g>
</svg>
