<?xml version="1.0" encoding="utf-8"?>
<!-- Generator: Adobe Illustrator 28.0.0, SVG Export Plug-In . SVG Version: 6.00 Build 0)  -->
<svg version="1.1" id="Layer_1" xmlns="http://www.w3.org/2000/svg" xmlns:xlink="http://www.w3.org/1999/xlink" x="0px" y="0px"
	 viewBox="0 0 1080 1080" style="enable-background:new 0 0 1080 1080;" xml:space="preserve">
<style type="text/css">
	.st0{fill:#516612;}
	.st1{fill:url(#SVGID_1_);}
	.st2{fill:url(#SVGID_00000067943577153576949310000010109029007200382885_);}
	.st3{fill:url(#SVGID_00000027580122109428781160000001617312112400235920_);}
	.st4{fill:url(#SVGID_00000146470770426349331360000014875706997854342580_);}
	.st5{fill:url(#SVGID_00000058578024929477887650000003276166642271255702_);}
	.st6{opacity:0.1;fill:#FFFFFF;}
	.st7{opacity:0.5;fill:#D7FFE0;}
	.st8{opacity:0.2;fill:#FFFFFF;}
	.st9{opacity:0.3;fill:#D7FFE0;}
	.st10{fill:url(#SVGID_00000161602537997023983660000017094479576794651013_);}
	.st11{fill:url(#SVGID_00000057856235088601087380000010252344299511203770_);}
	.st12{fill:url(#SVGID_00000008108062356905508720000014587677571239022473_);}
	.st13{fill:url(#SVGID_00000089557608389134723370000014096084082358460546_);}
	.st14{fill:url(#SVGID_00000058585355088866171450000014425102189574396317_);}
	.st15{fill:url(#SVGID_00000134222528925932808880000001770028209889352877_);}
	.st16{fill:url(#SVGID_00000069357204502039594990000014750833239507600820_);}
	.st17{fill:url(#SVGID_00000062168045914518751890000007273318603984970372_);}
</style>
<g>
	<polygon class="st0" points="554.4,1071.5 400.6,808.4 422.1,40.3 462.9,18.3 554.4,8.5 629.3,56.8 645.6,739.1 	"/>
	
		<linearGradient id="SVGID_1_" gradientUnits="userSpaceOnUse" x1="484.5818" y1="-3719.8804" x2="484.5818" y2="-3364.916" gradientTransform="matrix(1 0 0 -1 0 -2648.3867)">
		<stop  offset="0" style="stop-color:#9AFFB1"/>
		<stop  offset="1" style="stop-color:#91FF6C"/>
	</linearGradient>
	<polygon class="st1" points="568.5,765.8 445.4,716.5 400.6,808.4 471.7,930.1 554.4,1071.5 560.1,948.1 	"/>
	
		<linearGradient id="SVGID_00000160894044791029287200000003900262463373923761_" gradientUnits="userSpaceOnUse" x1="554.3929" y1="-3553.6765" x2="645.6279" y2="-3553.6765" gradientTransform="matrix(1 0 0 -1 0 -2648.3867)">
		<stop  offset="0" style="stop-color:#9AFFB1"/>
		<stop  offset="1" style="stop-color:#91FF6C"/>
	</linearGradient>
	<polygon style="fill:url(#SVGID_00000160894044791029287200000003900262463373923761_);" points="645.6,739.1 568.5,765.8 
		557.8,997.1 554.4,1071.5 585.6,957.7 	"/>
	
		<linearGradient id="SVGID_00000159466923588745762750000008919332121741013415_" gradientUnits="userSpaceOnUse" x1="431.7652" y1="-3456.7856" x2="431.7652" y2="-2666.7075" gradientTransform="matrix(1 0 0 -1 0 -2648.3867)">
		<stop  offset="0" style="stop-color:#91FF6C"/>
		<stop  offset="1" style="stop-color:#516612"/>
	</linearGradient>
	<polygon style="fill:url(#SVGID_00000159466923588745762750000008919332121741013415_);" points="462.9,18.3 431.5,35.2 
		422.1,40.3 407.3,570.5 400.6,808.4 445.4,716.5 	"/>
	
		<linearGradient id="SVGID_00000036250581123519827790000009635408026462499248_" gradientUnits="userSpaceOnUse" x1="506.9399" y1="-3414.1682" x2="506.9399" y2="-2656.8931" gradientTransform="matrix(1 0 0 -1 0 -2648.3867)">
		<stop  offset="0" style="stop-color:#91FF6C"/>
		<stop  offset="8.537829e-02" style="stop-color:#8AEE62"/>
		<stop  offset="0.3984" style="stop-color:#72B440"/>
		<stop  offset="0.6662" style="stop-color:#608A27"/>
		<stop  offset="0.8753" style="stop-color:#557018"/>
		<stop  offset="1" style="stop-color:#516612"/>
	</linearGradient>
	<polygon style="fill:url(#SVGID_00000036250581123519827790000009635408026462499248_);" points="568.5,765.8 568,723.1 568,723 
		566.8,640 566.8,639.9 564.4,568.7 564.4,568.6 562,405.8 562,405.8 555.9,105.5 555.9,105.5 554.3,8.5 463.5,18.3 463.2,61.7 
		463.2,61.7 454.7,331.5 454.7,331.6 454.6,343.3 450.8,499.4 448.4,596.3 446,693.4 445.4,716.5 	"/>
	
		<linearGradient id="SVGID_00000072968789132961784290000001455893451338859697_" gradientUnits="userSpaceOnUse" x1="600.0122" y1="-3414.1682" x2="600.0122" y2="-2656.8931" gradientTransform="matrix(1 0 0 -1 0 -2648.3867)">
		<stop  offset="0" style="stop-color:#91FF6C"/>
		<stop  offset="0.13" style="stop-color:#8CF365"/>
		<stop  offset="0.3622" style="stop-color:#7FD553"/>
		<stop  offset="0.6698" style="stop-color:#6AA336"/>
		<stop  offset="1" style="stop-color:#516612"/>
	</linearGradient>
	<polygon style="fill:url(#SVGID_00000072968789132961784290000001455893451338859697_);" points="645.6,739.1 629.3,56.8 
		554.4,8.5 568.5,765.8 	"/>
	<polygon class="st6" points="560.1,948.1 494.3,817.6 471.7,930.1 513.8,1002.1 554.4,1071.5 557.8,998.3 	"/>
	<polygon class="st7" points="557.8,998.3 528.5,969.1 523.1,1000.5 510,989.2 513.8,1002.1 554.4,1071.5 	"/>
	<polygon class="st7" points="585.6,957.7 576,950.3 557.8,997.1 554.4,1071.5 	"/>
	<polygon class="st6" points="583.7,760.5 645.6,739.1 568.5,789.3 567.5,788.9 445.4,740.1 400.6,808.4 445.4,717.3 560,763.1 
		563.9,519.2 	"/>
	<polygon class="st8" points="431.8,547.5 431.8,35.2 422.2,40.3 407.5,570.5 	"/>
	<polygon class="st8" points="564.4,568.7 564.4,568.6 562,405.8 562,405.8 454.7,331.6 454.7,331.6 454.6,343.3 450.8,499.4 
		564.5,568.6 	"/>
	<polygon class="st6" points="561.6,405.8 555.9,105.5 555.9,105.5 556,105.5 461.9,61.7 454.7,331.5 454.7,331.6 454.8,331.6 	"/>
	<polygon class="st9" points="558.6,228.8 634.8,286.9 557.1,162.3 	"/>
</g>
<g>
	
		<linearGradient id="SVGID_00000083797725331311519200000010972509046156967331_" gradientUnits="userSpaceOnUse" x1="565.4218" y1="-2942.9675" x2="565.4218" y2="-2531.1157" gradientTransform="matrix(0.9939 0.11 0.11 -0.9939 12.5015 -2534.5901)">
		<stop  offset="0" style="stop-color:#91FF6C"/>
		<stop  offset="1" style="stop-color:#516612"/>
	</linearGradient>
	<polygon style="fill:url(#SVGID_00000083797725331311519200000010972509046156967331_);" points="132.5,439.5 295.2,50.8 385,53.1 
		374.7,414.2 	"/>
	
		<linearGradient id="SVGID_00000151531837489417947470000005159265023557059200_" gradientUnits="userSpaceOnUse" x1="565.4218" y1="-3075.6631" x2="565.4218" y2="-2864.4519" gradientTransform="matrix(0.9939 0.11 0.11 -0.9939 12.5015 -2534.5901)">
		<stop  offset="0" style="stop-color:#9AFFB1"/>
		<stop  offset="1" style="stop-color:#91FF6C"/>
	</linearGradient>
	<polygon style="fill:url(#SVGID_00000151531837489417947470000005159265023557059200_);" points="249,585.9 132.5,439.5 
		258.2,374.5 374.7,414.2 	"/>
	
		<linearGradient id="SVGID_00000152959322721778921900000006052096069585891743_" gradientUnits="userSpaceOnUse" x1="654.9396" y1="-3075.6631" x2="654.9396" y2="-2891.1492" gradientTransform="matrix(0.9939 0.11 0.11 -0.9939 12.5015 -2534.5901)">
		<stop  offset="0" style="stop-color:#9AFFB1"/>
		<stop  offset="1" style="stop-color:#91FF6C"/>
	</linearGradient>
	<polygon style="fill:url(#SVGID_00000152959322721778921900000006052096069585891743_);" points="249,585.9 406.2,558.1 
		374.7,414.2 	"/>
	
		<linearGradient id="SVGID_00000164490718610607337720000002494347084795872397_" gradientUnits="userSpaceOnUse" x1="693.2231" y1="-3030.6628" x2="693.2231" y2="-2531.1157" gradientTransform="matrix(0.9939 0.11 0.11 -0.9939 12.5015 -2534.5901)">
		<stop  offset="0" style="stop-color:#91FF6C"/>
		<stop  offset="6.749427e-02" style="stop-color:#8AEF62"/>
		<stop  offset="0.2914" style="stop-color:#76BE46"/>
		<stop  offset="0.5037" style="stop-color:#66982F"/>
		<stop  offset="0.6987" style="stop-color:#5A7D1F"/>
		<stop  offset="0.8703" style="stop-color:#536C15"/>
		<stop  offset="1" style="stop-color:#516612"/>
	</linearGradient>
	<polygon style="fill:url(#SVGID_00000164490718610607337720000002494347084795872397_);" points="385,53.1 434.3,89.8 406.2,558.1 
		374.7,414.2 	"/>
	<polygon class="st7" points="132.5,439.5 258.2,374.5 375,401.8 377.7,308.5 387.1,439 406.2,558.1 376.5,454.7 249,585.9 
		361.6,417.8 257.6,391 	"/>
	<polygon class="st6" points="170.1,486.8 249,585.9 300.4,509.1 262.7,528.2 225.6,456.9 214.7,494.8 	"/>
	<polygon class="st6" points="249,585.9 293.2,520 224.2,554.8 	"/>
	<polygon class="st6" points="376.5,454.7 330.3,547.5 406.2,558.1 	"/>
	<polygon class="st6" points="375,401.8 168.8,352.8 231.4,203.2 	"/>
	<polygon class="st6" points="434.3,89.8 416.1,91.8 406.2,558.1 	"/>
</g>
<g>
	
		<linearGradient id="SVGID_00000090268902359591647580000013332403334540331667_" gradientUnits="userSpaceOnUse" x1="245.6264" y1="-1611.2714" x2="245.6264" y2="-1199.4089" gradientTransform="matrix(0.7764 -0.6302 -0.6302 -0.7764 -363.8554 -642.2989)">
		<stop  offset="0" style="stop-color:#91FF6C"/>
		<stop  offset="1" style="stop-color:#516612"/>
	</linearGradient>
	<polygon style="fill:url(#SVGID_00000090268902359591647580000013332403334540331667_);" points="749.9,528.9 587.5,140 
		652.2,77.7 902,338.7 	"/>
	
		<linearGradient id="SVGID_00000120522741168445686970000011198548078889886364_" gradientUnits="userSpaceOnUse" x1="245.6264" y1="-1743.9573" x2="245.6264" y2="-1532.7487" gradientTransform="matrix(0.7764 -0.6302 -0.6302 -0.7764 -363.8554 -642.2989)">
		<stop  offset="0" style="stop-color:#9AFFB1"/>
		<stop  offset="1" style="stop-color:#91FF6C"/>
	</linearGradient>
	<polygon style="fill:url(#SVGID_00000120522741168445686970000011198548078889886364_);" points="936,548.7 749.9,528.9 
		791.9,393.7 902,338.7 	"/>
	
		<linearGradient id="SVGID_00000109710808577168867390000012608592494158656130_" gradientUnits="userSpaceOnUse" x1="335.1531" y1="-1743.9573" x2="335.1531" y2="-1559.4375" gradientTransform="matrix(0.7764 -0.6302 -0.6302 -0.7764 -363.8554 -642.2989)">
		<stop  offset="0" style="stop-color:#9AFFB1"/>
		<stop  offset="1" style="stop-color:#91FF6C"/>
	</linearGradient>
	<polygon style="fill:url(#SVGID_00000109710808577168867390000012608592494158656130_);" points="936,548.7 1026.5,417.3 
		902,338.7 	"/>
	
		<linearGradient id="SVGID_00000118380899606854031740000008571996575958889357_" gradientUnits="userSpaceOnUse" x1="373.4184" y1="-1698.9476" x2="373.4184" y2="-1199.4089" gradientTransform="matrix(0.7764 -0.6302 -0.6302 -0.7764 -363.8554 -642.2989)">
		<stop  offset="0" style="stop-color:#91FF6C"/>
		<stop  offset="6.749427e-02" style="stop-color:#8AEF62"/>
		<stop  offset="0.2914" style="stop-color:#76BE46"/>
		<stop  offset="0.5037" style="stop-color:#66982F"/>
		<stop  offset="0.6987" style="stop-color:#5A7D1F"/>
		<stop  offset="0.8703" style="stop-color:#536C15"/>
		<stop  offset="1" style="stop-color:#516612"/>
	</linearGradient>
	<polygon style="fill:url(#SVGID_00000118380899606854031740000008571996575958889357_);" points="652.2,77.7 712.9,68.4 
		1026.5,417.3 902,338.7 	"/>
	<polygon class="st7" points="749.9,528.9 791.9,393.7 893.4,329.7 828.8,262.3 928.4,347.2 1026.5,417.3 932,365.9 936,548.7 
		895.3,350.5 803.2,405.7 	"/>
	<polygon class="st6" points="810,535.3 936,548.7 917.4,458.2 904.5,498.4 827.7,474.8 847,509.2 	"/>
	<polygon class="st6" points="936,548.7 920,471 896.4,544.5 	"/>
	<polygon class="st6" points="932,365.9 965.7,463.9 1026.5,417.3 	"/>
	<polygon class="st6" points="893.4,329.7 713.7,442.1 651.2,292.5 	"/>
	<polygon class="st6" points="712.9,68.4 701.5,82.7 1026.5,417.3 	"/>
</g>
</svg>
