<?xml version="1.0" encoding="utf-8"?>
<!-- Generator: Adobe Illustrator 28.1.0, SVG Export Plug-In . SVG Version: 6.00 Build 0)  -->
<svg version="1.1" id="Layer_1" xmlns="http://www.w3.org/2000/svg" xmlns:xlink="http://www.w3.org/1999/xlink" x="0px" y="0px"
	 viewBox="0 0 1080 1080" style="enable-background:new 0 0 1080 1080;" xml:space="preserve">
<style type="text/css">
	.st0{fill:#125166;}
	.st1{fill:url(#SVGID_1_);}
	.st2{fill:url(#SVGID_00000050636651804461641950000001437054528165015699_);}
	.st3{fill:url(#SVGID_00000091702455217177453180000012381705333761160863_);}
	.st4{fill:url(#SVGID_00000102514266706715490930000012536069195559669677_);}
	.st5{fill:url(#SVGID_00000099636205105130189380000014540894806470563755_);}
	.st6{fill:url(#SVGID_00000039116808834963961740000004599051224954403220_);}
	.st7{opacity:0.1;fill:#FFFFFF;enable-background:new    ;}
	.st8{opacity:0.5;fill:#DCD7FF;enable-background:new    ;}
	.st9{fill:url(#SVGID_00000022518397815329597990000011715941321440768644_);}
	.st10{fill:url(#SVGID_00000062880869266175926590000003154330477942501807_);}
	.st11{fill:url(#SVGID_00000124856659403990921910000009844774591349287065_);}
	.st12{fill:url(#SVGID_00000098925039162767703920000008951116690481366924_);}
	.st13{fill:url(#SVGID_00000116202254032145369910000003164257416141580684_);}
	.st14{opacity:0.2;fill:#FFFFFF;enable-background:new    ;}
	.st15{opacity:0.3;fill:#DCD7FF;enable-background:new    ;}
	.st16{fill:url(#SVGID_00000132805604865698575660000007193414096814837402_);}
	.st17{fill:url(#SVGID_00000099656237920236643230000001116420352389945012_);}
	.st18{fill:url(#SVGID_00000127031310116108450810000001278323611381319064_);}
	.st19{fill:url(#SVGID_00000169518202481676923140000001154520089440104861_);}
</style>
<g>
	<polygon class="st0" points="284.2,530.4 185.1,688.8 228.2,1017.9 301.3,1043.9 465.7,1043.9 513.5,1023.5 526.2,624.3 	"/>
	
		<linearGradient id="SVGID_1_" gradientUnits="userSpaceOnUse" x1="-2787.0767" y1="657.05" x2="-2647.9768" y2="657.05" gradientTransform="matrix(1 0 0 1 2972.1768 0)">
		<stop  offset="0" style="stop-color:#A79AFF"/>
		<stop  offset="1" style="stop-color:#6C89FF"/>
	</linearGradient>
	<polygon class="st1" points="284.2,530.4 185.1,688.8 324.2,783.7 	"/>
	
		<linearGradient id="SVGID_00000046299491145698774730000008017797143014217393_" gradientUnits="userSpaceOnUse" x1="-2687.9768" y1="657.05" x2="-2506.4768" y2="657.05" gradientTransform="matrix(1 0 0 1 2972.1768 0)">
		<stop  offset="0" style="stop-color:#A79AFF"/>
		<stop  offset="1" style="stop-color:#6C89FF"/>
	</linearGradient>
	<polygon style="fill:url(#SVGID_00000046299491145698774730000008017797143014217393_);" points="324.2,783.7 465.7,725.5 
		284.2,530.4 	"/>
	
		<linearGradient id="SVGID_00000160151303095601484790000012288674973542694306_" gradientUnits="userSpaceOnUse" x1="-2687.9768" y1="627.95" x2="-2445.9768" y2="627.95" gradientTransform="matrix(1 0 0 1 2972.1768 0)">
		<stop  offset="0" style="stop-color:#A79AFF"/>
		<stop  offset="1" style="stop-color:#6C89FF"/>
	</linearGradient>
	<polygon style="fill:url(#SVGID_00000160151303095601484790000012288674973542694306_);" points="465.7,725.5 526.2,624.3 
		284.2,530.4 	"/>
	
		<linearGradient id="SVGID_00000036228262326840269300000000121192991680091578_" gradientUnits="userSpaceOnUse" x1="-2717.5269" y1="688.8" x2="-2717.5269" y2="1043.9" gradientTransform="matrix(1 0 0 1 2972.1768 0)">
		<stop  offset="0" style="stop-color:#6C89FF"/>
		<stop  offset="0.1239" style="stop-color:#6885F8"/>
		<stop  offset="0.3067" style="stop-color:#5C7BE4"/>
		<stop  offset="0.5259" style="stop-color:#496FC3"/>
		<stop  offset="0.7711" style="stop-color:#2F6096"/>
		<stop  offset="1" style="stop-color:#125166"/>
	</linearGradient>
	<polygon style="fill:url(#SVGID_00000036228262326840269300000000121192991680091578_);" points="185.1,688.8 228.2,1017.9 
		301.3,1043.9 324.2,783.7 	"/>
	
		<linearGradient id="SVGID_00000093871196307077219970000007764232102689532584_" gradientUnits="userSpaceOnUse" x1="-2589.0269" y1="725.5" x2="-2589.0269" y2="1043.9" gradientTransform="matrix(1 0 0 1 2972.1768 0)">
		<stop  offset="0" style="stop-color:#6C89FF"/>
		<stop  offset="1" style="stop-color:#125166"/>
	</linearGradient>
	<polygon style="fill:url(#SVGID_00000093871196307077219970000007764232102689532584_);" points="324,783.7 465.3,725.5 
		465.3,1043.9 301,1043.9 	"/>
	
		<linearGradient id="SVGID_00000019655751988030628960000009129183762960683188_" gradientUnits="userSpaceOnUse" x1="-2476.6267" y1="624.3" x2="-2476.6267" y2="1043.9" gradientTransform="matrix(1 0 0 1 2972.1768 0)">
		<stop  offset="0" style="stop-color:#6C89FF"/>
		<stop  offset="0.1967" style="stop-color:#6A87FC"/>
		<stop  offset="0.3579" style="stop-color:#6482F2"/>
		<stop  offset="0.5066" style="stop-color:#5A79E0"/>
		<stop  offset="0.6477" style="stop-color:#4C71C8"/>
		<stop  offset="0.7835" style="stop-color:#3A67A9"/>
		<stop  offset="0.9135" style="stop-color:#235A84"/>
		<stop  offset="1" style="stop-color:#125166"/>
	</linearGradient>
	<polygon style="fill:url(#SVGID_00000019655751988030628960000009129183762960683188_);" points="465.3,1043.9 513.3,1023.5 
		525.8,624.3 465.3,725.5 	"/>
	<polygon class="st7" points="185.1,688.8 324.2,783.7 465.7,725.5 526.2,624.3 459.5,704 284.2,530.4 446.9,711.9 328.8,750.9 
		289.2,562.5 313,746.7 	"/>
	<polygon class="st8" points="314.1,898.1 293,762.4 324.2,783.7 	"/>
	<polygon class="st7" points="324.2,783.7 405.2,1002.1 465.7,725.5 	"/>
	<polygon class="st7" points="350.7,772.8 413,875.9 437.6,737.1 	"/>
	<polygon class="st7" points="465.3,806.5 522,749.4 520.6,790.2 465.3,891 	"/>
	<polygon class="st8" points="465.3,921.8 519.6,825.8 518.3,861.4 465.3,1026.8 	"/>
</g>
<g>
	<polygon class="st0" points="411.2,65.6 595.5,266.7 721.9,942.8 690.3,969.7 612.1,995.6 537.4,967.5 394.2,373.7 	"/>
	
		<linearGradient id="SVGID_00000113342154877145637460000016449025155937260955_" gradientUnits="userSpaceOnUse" x1="1405.4048" y1="-58.8561" x2="1405.4048" y2="258.9034" gradientTransform="matrix(-0.9775 0.2112 0.2112 0.9775 1858.5076 -186.8897)">
		<stop  offset="0" style="stop-color:#A79AFF"/>
		<stop  offset="1" style="stop-color:#6C89FF"/>
	</linearGradient>
	<polygon style="fill:url(#SVGID_00000113342154877145637460000016449025155937260955_);" points="456.6,335.7 573.7,355.6 
		595.5,266.7 510.3,173.7 411.2,65.6 429.6,174.6 	"/>
	
		<linearGradient id="SVGID_00000179634013085039956150000003004870705760716172_" gradientUnits="userSpaceOnUse" x1="1467.9049" y1="89.916" x2="1549.584" y2="89.916" gradientTransform="matrix(-0.9775 0.2112 0.2112 0.9775 1858.5076 -186.8897)">
		<stop  offset="0" style="stop-color:#A79AFF"/>
		<stop  offset="1" style="stop-color:#6C89FF"/>
	</linearGradient>
	<polygon style="fill:url(#SVGID_00000179634013085039956150000003004870705760716172_);" points="394.2,373.7 456.6,335.7 
		422.3,131.3 411.2,65.6 405.4,171.1 	"/>
	
		<linearGradient id="SVGID_00000099641221193226793650000014882935341438084491_" gradientUnits="userSpaceOnUse" x1="1358.1395" y1="176.6171" x2="1358.1395" y2="883.7423" gradientTransform="matrix(-0.9775 0.2112 0.2112 0.9775 1858.5076 -186.8897)">
		<stop  offset="0" style="stop-color:#6C89FF"/>
		<stop  offset="1" style="stop-color:#125166"/>
	</linearGradient>
	<polygon style="fill:url(#SVGID_00000099641221193226793650000014882935341438084491_);" points="690.3,969.7 714.6,949 
		721.9,942.8 634.6,476.1 595.5,266.7 573.7,355.6 	"/>
	
		<linearGradient id="SVGID_00000145047539085461210930000010018723019640778134_" gradientUnits="userSpaceOnUse" x1="1425.5045" y1="214.8223" x2="1425.5045" y2="892.5638" gradientTransform="matrix(-0.9775 0.2112 0.2112 0.9775 1858.5076 -186.8897)">
		<stop  offset="0" style="stop-color:#6C89FF"/>
		<stop  offset="8.537828e-02" style="stop-color:#6280EE"/>
		<stop  offset="0.3984" style="stop-color:#406AB4"/>
		<stop  offset="0.6662" style="stop-color:#275C8A"/>
		<stop  offset="0.8753" style="stop-color:#185470"/>
		<stop  offset="1" style="stop-color:#125166"/>
	</linearGradient>
	<polygon style="fill:url(#SVGID_00000145047539085461210930000010018723019640778134_);" points="456.6,335.8 465,373.1 465,373.1 
		482,445.4 482,445.5 496.8,507.5 497.1,507.6 530.8,649.5 530.8,649.5 592.5,911 592.3,911.1 612.2,995.6 690.4,969.7 683.2,931.6 
		683.2,931.6 638.5,694.1 638.4,694.1 636.2,683.8 610.1,546.5 593.8,461.3 577.6,375.9 573.6,355.6 	"/>
	
		<linearGradient id="SVGID_00000007426099524267111970000010853801395417496999_" gradientUnits="userSpaceOnUse" x1="1508.7626" y1="214.7246" x2="1508.7626" y2="892.5427" gradientTransform="matrix(-0.9775 0.2112 0.2112 0.9775 1858.5076 -186.8897)">
		<stop  offset="0" style="stop-color:#6C89FF"/>
		<stop  offset="0.13" style="stop-color:#6583F3"/>
		<stop  offset="0.3622" style="stop-color:#5374D5"/>
		<stop  offset="0.6698" style="stop-color:#3664A3"/>
		<stop  offset="1" style="stop-color:#125166"/>
	</linearGradient>
	<polygon style="fill:url(#SVGID_00000007426099524267111970000010853801395417496999_);" points="394.2,373.7 537.4,967.5 
		612.1,995.6 456.6,335.7 	"/>
	<polygon class="st7" points="429.6,174.6 511.8,276.4 510.3,173.7 459.8,118.7 411.2,65.6 422.1,130.3 	"/>
	<polygon class="st8" points="422.1,130.3 453.3,150.3 452,121.8 465.6,129.3 459.8,118.7 411.2,65.6 	"/>
	<polygon class="st8" points="405.4,171.1 415.3,175.7 422.3,131.3 411.2,65.6 	"/>
	<polygon class="st7" points="444.4,343.2 394.2,373.7 452.2,315.1 453.2,315.3 569.2,335 595.5,266.7 573.5,354.9 464.6,336.4 
		507.3,550.6 	"/>
	<polygon class="st14" points="618.4,500.7 715.2,948.8 722.2,942.7 635.1,476 	"/>
	<polygon class="st14" points="496.8,507.5 497.1,507.6 530.8,649.5 530.8,649.5 638.6,694.1 638.5,694.1 636.3,683.8 610.1,546.5 
		497.1,507.5 	"/>
	<polygon class="st7" points="530.6,649.4 592.2,911 592.2,911.1 592.3,911.1 683,931.6 638.3,694.1 638.3,694.1 638.2,694.1 	"/>
	<polygon class="st15" points="566.8,803.7 489.1,767.3 580.7,861.6 	"/>
</g>
<g>
	
		<linearGradient id="SVGID_00000060024935429476819100000015529861997565022616_" gradientUnits="userSpaceOnUse" x1="1411.6549" y1="910.3216" x2="1411.6549" y2="1278.8954" gradientTransform="matrix(-0.9939 -0.11 -0.11 0.9939 2292.2759 -113.7964)">
		<stop  offset="0" style="stop-color:#6C89FF"/>
		<stop  offset="1" style="stop-color:#125166"/>
	</linearGradient>
	<polygon style="fill:url(#SVGID_00000060024935429476819100000015529861997565022616_);" points="894.9,647.4 749.3,995.3 
		668.9,993.2 678.2,670 	"/>
	
		<linearGradient id="SVGID_00000067229503263836626030000008477020360891103114_" gradientUnits="userSpaceOnUse" x1="1411.6549" y1="791.4868" x2="1411.6549" y2="980.546" gradientTransform="matrix(-0.9939 -0.11 -0.11 0.9939 2292.2759 -113.7964)">
		<stop  offset="0" style="stop-color:#A79AFF"/>
		<stop  offset="1" style="stop-color:#6C89FF"/>
	</linearGradient>
	<polygon style="fill:url(#SVGID_00000067229503263836626030000008477020360891103114_);" points="790.6,516.3 894.9,647.4 
		782.4,705.6 678.2,670 	"/>
	
		<linearGradient id="SVGID_00000116234752932271763960000014639302816352825245_" gradientUnits="userSpaceOnUse" x1="1491.7948" y1="791.4868" x2="1491.7948" y2="956.6237" gradientTransform="matrix(-0.9939 -0.11 -0.11 0.9939 2292.2759 -113.7964)">
		<stop  offset="0" style="stop-color:#A79AFF"/>
		<stop  offset="1" style="stop-color:#6C89FF"/>
	</linearGradient>
	<polygon style="fill:url(#SVGID_00000116234752932271763960000014639302816352825245_);" points="790.6,516.3 650,541.3 678.2,670 
			"/>
	
		<linearGradient id="SVGID_00000178909417873341762430000007043314720004895640_" gradientUnits="userSpaceOnUse" x1="1526.0463" y1="831.8029" x2="1526.0463" y2="1278.8954" gradientTransform="matrix(-0.9939 -0.11 -0.11 0.9939 2292.2759 -113.7964)">
		<stop  offset="0" style="stop-color:#6C89FF"/>
		<stop  offset="6.749427e-02" style="stop-color:#6280EF"/>
		<stop  offset="0.2914" style="stop-color:#466DBE"/>
		<stop  offset="0.5037" style="stop-color:#2F6198"/>
		<stop  offset="0.6987" style="stop-color:#1F577D"/>
		<stop  offset="0.8703" style="stop-color:#15526C"/>
		<stop  offset="1" style="stop-color:#125166"/>
	</linearGradient>
	<polygon style="fill:url(#SVGID_00000178909417873341762430000007043314720004895640_);" points="668.9,993.2 624.8,960.4 
		650,541.3 678.2,670 	"/>
	<polygon class="st8" points="894.9,647.4 782.4,705.6 677.9,681.2 675.5,764.7 667,647.8 650,541.3 676.6,633.8 790.6,516.3 
		689.9,666.9 783,690.8 	"/>
	<polygon class="st7" points="861.3,605.1 790.6,516.3 744.6,585.1 778.4,568 811.6,631.8 821.4,597.9 	"/>
	<polygon class="st7" points="790.6,516.3 751.1,575.4 812.8,544.2 	"/>
	<polygon class="st7" points="676.6,633.8 717.9,550.7 650,541.3 	"/>
	<polygon class="st7" points="677.9,681.2 862.4,725 806.4,858.9 	"/>
	<polygon class="st7" points="624.8,960.4 641.1,958.6 650,541.3 	"/>
</g>
</svg>
