<?xml version="1.0" encoding="utf-8"?>
<!-- Generator: Adobe Illustrator 28.0.0, SVG Export Plug-In . SVG Version: 6.00 Build 0)  -->
<svg version="1.1" id="Layer_1" xmlns="http://www.w3.org/2000/svg" xmlns:xlink="http://www.w3.org/1999/xlink" x="0px" y="0px"
	 viewBox="0 0 1080 1080" style="enable-background:new 0 0 1080 1080;" xml:space="preserve">
<style type="text/css">
	.st0{fill:#516612;}
	.st1{fill:url(#SVGID_1_);}
	.st2{fill:url(#SVGID_00000112593599235551113360000002316387737466421171_);}
	.st3{fill:url(#SVGID_00000168838911400738480030000014001516709987607703_);}
	.st4{fill:url(#SVGID_00000080897903173628438390000008027176822264175496_);}
	.st5{fill:url(#SVGID_00000158719212608517611400000001901689955955987097_);}
	.st6{fill:url(#SVGID_00000120555915986137991550000007643070343107229356_);}
	.st7{opacity:0.1;fill:#FFFFFF;}
	.st8{opacity:0.5;fill:#D7FFE0;}
	.st9{fill:url(#SVGID_00000036235650566495165230000017106032278591657656_);}
	.st10{fill:url(#SVGID_00000038374065716678607310000003053348286159018888_);}
	.st11{fill:url(#SVGID_00000075885276434880109760000018114705625666137764_);}
	.st12{fill:url(#SVGID_00000001653156013965042580000007796039456050482870_);}
	.st13{fill:url(#SVGID_00000084497555645683592080000015306940587177167532_);}
	.st14{opacity:0.2;fill:#FFFFFF;}
	.st15{opacity:0.3;fill:#D7FFE0;}
	.st16{fill:url(#SVGID_00000116227998155865935460000010605086683291523767_);}
	.st17{fill:url(#SVGID_00000047050520775892551940000008608314251727465895_);}
	.st18{fill:url(#SVGID_00000021084867065440059460000012142406225343965610_);}
	.st19{fill:url(#SVGID_00000020370866677273094730000013112055664383395748_);}
</style>
<g>
	<polygon class="st0" points="284.2,530.4 185.1,688.8 228.2,1017.9 301.3,1043.9 465.7,1043.9 513.5,1023.5 526.2,624.3 	"/>
	
		<linearGradient id="SVGID_1_" gradientUnits="userSpaceOnUse" x1="-2787.1074" y1="657.0362" x2="-2647.9521" y2="657.0362" gradientTransform="matrix(1 0 0 1 2972.1768 0)">
		<stop  offset="0" style="stop-color:#9AFFB1"/>
		<stop  offset="1" style="stop-color:#91FF6C"/>
	</linearGradient>
	<polygon class="st1" points="284.2,530.4 185.1,688.8 324.2,783.7 	"/>
	
		<linearGradient id="SVGID_00000034798165351068018920000017194684502265402262_" gradientUnits="userSpaceOnUse" x1="-2688.012" y1="657.0362" x2="-2506.4377" y2="657.0362" gradientTransform="matrix(1 0 0 1 2972.1768 0)">
		<stop  offset="0" style="stop-color:#9AFFB1"/>
		<stop  offset="1" style="stop-color:#91FF6C"/>
	</linearGradient>
	<polygon style="fill:url(#SVGID_00000034798165351068018920000017194684502265402262_);" points="324.2,783.7 465.7,725.5 
		284.2,530.4 	"/>
	
		<linearGradient id="SVGID_00000180324607306893783580000008287313515434443426_" gradientUnits="userSpaceOnUse" x1="-2688.012" y1="627.9642" x2="-2446.0015" y2="627.9642" gradientTransform="matrix(1 0 0 1 2972.1768 0)">
		<stop  offset="0" style="stop-color:#9AFFB1"/>
		<stop  offset="1" style="stop-color:#91FF6C"/>
	</linearGradient>
	<polygon style="fill:url(#SVGID_00000180324607306893783580000008287313515434443426_);" points="465.7,725.5 526.2,624.3 
		284.2,530.4 	"/>
	
		<linearGradient id="SVGID_00000065032681957174896650000008658547317968882346_" gradientUnits="userSpaceOnUse" x1="-2717.5298" y1="688.7988" x2="-2717.5298" y2="1043.905" gradientTransform="matrix(1 0 0 1 2972.1768 0)">
		<stop  offset="0" style="stop-color:#91FF6C"/>
		<stop  offset="0.1239" style="stop-color:#8EF868"/>
		<stop  offset="0.3067" style="stop-color:#86E45C"/>
		<stop  offset="0.5259" style="stop-color:#78C349"/>
		<stop  offset="0.7711" style="stop-color:#65962F"/>
		<stop  offset="1" style="stop-color:#516612"/>
	</linearGradient>
	<polygon style="fill:url(#SVGID_00000065032681957174896650000008658547317968882346_);" points="185.1,688.8 228.2,1017.9 
		301.3,1043.9 324.2,783.7 	"/>
	
		<linearGradient id="SVGID_00000023978526207338814720000016988756212210324412_" gradientUnits="userSpaceOnUse" x1="-2589.0544" y1="725.5334" x2="-2589.0544" y2="1043.905" gradientTransform="matrix(1 0 0 1 2972.1768 0)">
		<stop  offset="0" style="stop-color:#91FF6C"/>
		<stop  offset="1" style="stop-color:#516612"/>
	</linearGradient>
	<polygon style="fill:url(#SVGID_00000023978526207338814720000016988756212210324412_);" points="324,783.7 465.3,725.5 
		465.3,1043.9 301,1043.9 	"/>
	
		<linearGradient id="SVGID_00000068677190141470334560000007249381557953289093_" gradientUnits="userSpaceOnUse" x1="-2476.6167" y1="624.3401" x2="-2476.6167" y2="1043.8699" gradientTransform="matrix(1 0 0 1 2972.1768 0)">
		<stop  offset="0" style="stop-color:#91FF6C"/>
		<stop  offset="0.1967" style="stop-color:#90FC6A"/>
		<stop  offset="0.3579" style="stop-color:#8BF264"/>
		<stop  offset="0.5066" style="stop-color:#84E05A"/>
		<stop  offset="0.6477" style="stop-color:#7AC84C"/>
		<stop  offset="0.7835" style="stop-color:#6DA93A"/>
		<stop  offset="0.9135" style="stop-color:#5D8423"/>
		<stop  offset="1" style="stop-color:#516612"/>
	</linearGradient>
	<polygon style="fill:url(#SVGID_00000068677190141470334560000007249381557953289093_);" points="465.3,1043.9 513.3,1023.5 
		525.8,624.3 465.3,725.5 	"/>
	<polygon class="st7" points="185.1,688.8 324.2,783.7 465.7,725.5 526.2,624.3 459.5,704 284.2,530.4 446.9,711.9 328.8,750.9 
		289.2,562.5 313,746.7 	"/>
	<polygon class="st8" points="314.1,898.1 293,762.4 324.2,783.7 	"/>
	<polygon class="st7" points="324.2,783.7 405.2,1002.1 465.7,725.5 	"/>
	<polygon class="st7" points="350.7,772.8 413,875.9 437.6,737.1 	"/>
	<polygon class="st7" points="465.3,806.5 522,749.4 520.6,790.2 465.3,891 	"/>
	<polygon class="st8" points="465.3,921.8 519.6,825.8 518.3,861.4 465.3,1026.8 	"/>
</g>
<g>
	<polygon class="st0" points="411.2,65.6 595.5,266.7 721.9,942.8 690.3,969.7 612.1,995.6 537.4,967.5 394.2,373.7 	"/>
	
		<linearGradient id="SVGID_00000163052996564849393650000005586117221431962014_" gradientUnits="userSpaceOnUse" x1="1405.4036" y1="-58.8235" x2="1405.4036" y2="258.8654" gradientTransform="matrix(-0.9775 0.2112 0.2112 0.9775 1858.5074 -186.8897)">
		<stop  offset="0" style="stop-color:#9AFFB1"/>
		<stop  offset="1" style="stop-color:#91FF6C"/>
	</linearGradient>
	<polygon style="fill:url(#SVGID_00000163052996564849393650000005586117221431962014_);" points="456.6,335.7 573.7,355.6 
		595.5,266.7 510.3,173.7 411.2,65.6 429.6,174.6 	"/>
	
		<linearGradient id="SVGID_00000153668837299420890660000004071763290523271098_" gradientUnits="userSpaceOnUse" x1="1467.8738" y1="89.9241" x2="1549.5374" y2="89.9241" gradientTransform="matrix(-0.9775 0.2112 0.2112 0.9775 1858.5074 -186.8897)">
		<stop  offset="0" style="stop-color:#9AFFB1"/>
		<stop  offset="1" style="stop-color:#91FF6C"/>
	</linearGradient>
	<polygon style="fill:url(#SVGID_00000153668837299420890660000004071763290523271098_);" points="394.2,373.7 456.6,335.7 
		422.3,131.3 411.2,65.6 405.4,171.1 	"/>
	
		<linearGradient id="SVGID_00000044889420439575798140000011472939048757861289_" gradientUnits="userSpaceOnUse" x1="1358.1451" y1="176.6453" x2="1358.1451" y2="883.7497" gradientTransform="matrix(-0.9775 0.2112 0.2112 0.9775 1858.5074 -186.8897)">
		<stop  offset="0" style="stop-color:#91FF6C"/>
		<stop  offset="1" style="stop-color:#516612"/>
	</linearGradient>
	<polygon style="fill:url(#SVGID_00000044889420439575798140000011472939048757861289_);" points="690.3,969.7 714.6,949 
		721.9,942.8 634.6,476.1 595.5,266.7 573.7,355.6 	"/>
	
		<linearGradient id="SVGID_00000089568175618305510430000011537327294931255943_" gradientUnits="userSpaceOnUse" x1="1425.4801" y1="214.7834" x2="1425.4801" y2="892.5449" gradientTransform="matrix(-0.9775 0.2112 0.2112 0.9775 1858.5074 -186.8897)">
		<stop  offset="0" style="stop-color:#91FF6C"/>
		<stop  offset="8.537829e-02" style="stop-color:#8AEE62"/>
		<stop  offset="0.3984" style="stop-color:#72B440"/>
		<stop  offset="0.6662" style="stop-color:#608A27"/>
		<stop  offset="0.8753" style="stop-color:#557018"/>
		<stop  offset="1" style="stop-color:#516612"/>
	</linearGradient>
	<polygon style="fill:url(#SVGID_00000089568175618305510430000011537327294931255943_);" points="456.6,335.8 465,373.1 465,373.1 
		482,445.4 482,445.5 496.8,507.5 497.1,507.6 530.8,649.5 530.8,649.5 592.5,911 592.3,911.1 612.2,995.6 690.4,969.7 683.2,931.6 
		683.2,931.6 638.5,694.1 638.4,694.1 636.2,683.8 610.1,546.5 593.8,461.3 577.6,375.9 573.6,355.6 	"/>
	
		<linearGradient id="SVGID_00000144313578263009939690000014678981112050436776_" gradientUnits="userSpaceOnUse" x1="1508.7241" y1="214.7826" x2="1508.7241" y2="892.5287" gradientTransform="matrix(-0.9775 0.2112 0.2112 0.9775 1858.5074 -186.8897)">
		<stop  offset="0" style="stop-color:#91FF6C"/>
		<stop  offset="0.13" style="stop-color:#8CF365"/>
		<stop  offset="0.3622" style="stop-color:#7FD553"/>
		<stop  offset="0.6698" style="stop-color:#6AA336"/>
		<stop  offset="1" style="stop-color:#516612"/>
	</linearGradient>
	<polygon style="fill:url(#SVGID_00000144313578263009939690000014678981112050436776_);" points="394.2,373.7 537.4,967.5 
		612.1,995.6 456.6,335.7 	"/>
	<polygon class="st7" points="429.6,174.6 511.8,276.4 510.3,173.7 459.8,118.7 411.2,65.6 422.1,130.3 	"/>
	<polygon class="st8" points="422.1,130.3 453.3,150.3 452,121.8 465.6,129.3 459.8,118.7 411.2,65.6 	"/>
	<polygon class="st8" points="405.4,171.1 415.3,175.7 422.3,131.3 411.2,65.6 	"/>
	<polygon class="st7" points="444.4,343.2 394.2,373.7 452.2,315.1 453.2,315.3 569.2,335 595.5,266.7 573.5,354.9 464.6,336.4 
		507.3,550.6 	"/>
	<polygon class="st14" points="618.4,500.7 715.2,948.8 722.2,942.7 635.1,476 	"/>
	<polygon class="st14" points="496.8,507.5 497.1,507.6 530.8,649.5 530.8,649.5 638.6,694.1 638.5,694.1 636.3,683.8 610.1,546.5 
		497.1,507.5 	"/>
	<polygon class="st7" points="530.6,649.4 592.2,911 592.2,911.1 592.3,911.1 683,931.6 638.3,694.1 638.3,694.1 638.2,694.1 	"/>
	<polygon class="st15" points="566.8,803.7 489.1,767.3 580.7,861.6 	"/>
</g>
<g>
	
		<linearGradient id="SVGID_00000169537515651022756160000008439160457891365014_" gradientUnits="userSpaceOnUse" x1="1411.6543" y1="910.2802" x2="1411.6543" y2="1278.8999" gradientTransform="matrix(-0.9939 -0.11 -0.11 0.9939 2292.2759 -113.7964)">
		<stop  offset="0" style="stop-color:#91FF6C"/>
		<stop  offset="1" style="stop-color:#516612"/>
	</linearGradient>
	<polygon style="fill:url(#SVGID_00000169537515651022756160000008439160457891365014_);" points="894.9,647.4 749.3,995.3 
		668.9,993.2 678.2,670 	"/>
	
		<linearGradient id="SVGID_00000085233831729896942560000008849438844488827538_" gradientUnits="userSpaceOnUse" x1="1411.6543" y1="791.514" x2="1411.6543" y2="980.5537" gradientTransform="matrix(-0.9939 -0.11 -0.11 0.9939 2292.2759 -113.7964)">
		<stop  offset="0" style="stop-color:#9AFFB1"/>
		<stop  offset="1" style="stop-color:#91FF6C"/>
	</linearGradient>
	<polygon style="fill:url(#SVGID_00000085233831729896942560000008849438844488827538_);" points="790.6,516.3 894.9,647.4 
		782.4,705.6 678.2,670 	"/>
	
		<linearGradient id="SVGID_00000076594072584792008210000012428680982280857246_" gradientUnits="userSpaceOnUse" x1="1491.7739" y1="791.514" x2="1491.7739" y2="956.6586" gradientTransform="matrix(-0.9939 -0.11 -0.11 0.9939 2292.2759 -113.7964)">
		<stop  offset="0" style="stop-color:#9AFFB1"/>
		<stop  offset="1" style="stop-color:#91FF6C"/>
	</linearGradient>
	<polygon style="fill:url(#SVGID_00000076594072584792008210000012428680982280857246_);" points="790.6,516.3 650,541.3 678.2,670 
			"/>
	
		<linearGradient id="SVGID_00000130636630540640964850000013974068640956150415_" gradientUnits="userSpaceOnUse" x1="1526.0393" y1="831.7891" x2="1526.0393" y2="1278.8999" gradientTransform="matrix(-0.9939 -0.11 -0.11 0.9939 2292.2759 -113.7964)">
		<stop  offset="0" style="stop-color:#91FF6C"/>
		<stop  offset="6.749427e-02" style="stop-color:#8AEF62"/>
		<stop  offset="0.2914" style="stop-color:#76BE46"/>
		<stop  offset="0.5037" style="stop-color:#66982F"/>
		<stop  offset="0.6987" style="stop-color:#5A7D1F"/>
		<stop  offset="0.8703" style="stop-color:#536C15"/>
		<stop  offset="1" style="stop-color:#516612"/>
	</linearGradient>
	<polygon style="fill:url(#SVGID_00000130636630540640964850000013974068640956150415_);" points="668.9,993.2 624.8,960.4 
		650,541.3 678.2,670 	"/>
	<polygon class="st8" points="894.9,647.4 782.4,705.6 677.9,681.2 675.5,764.7 667,647.8 650,541.3 676.6,633.8 790.6,516.3 
		689.9,666.9 783,690.8 	"/>
	<polygon class="st7" points="861.3,605.1 790.6,516.3 744.6,585.1 778.4,568 811.6,631.8 821.4,597.9 	"/>
	<polygon class="st7" points="790.6,516.3 751.1,575.4 812.8,544.2 	"/>
	<polygon class="st7" points="676.6,633.8 717.9,550.7 650,541.3 	"/>
	<polygon class="st7" points="677.9,681.2 862.4,725 806.4,858.9 	"/>
	<polygon class="st7" points="624.8,960.4 641.1,958.6 650,541.3 	"/>
</g>
</svg>
