<?xml version="1.0" encoding="utf-8"?>
<!-- Generator: Adobe Illustrator 28.0.0, SVG Export Plug-In . SVG Version: 6.00 Build 0)  -->
<svg version="1.1" id="Layer_1" xmlns="http://www.w3.org/2000/svg" xmlns:xlink="http://www.w3.org/1999/xlink" x="0px" y="0px"
	 viewBox="0 0 1080 1080" style="enable-background:new 0 0 1080 1080;" xml:space="preserve">
<style type="text/css">
	.st0{fill:#516612;}
	.st1{fill:url(#SVGID_1_);}
	.st2{fill:url(#SVGID_00000166656807335931961010000018128243031172679857_);}
	.st3{fill:url(#SVGID_00000101791698457936555790000011139059347371266958_);}
	.st4{fill:url(#SVGID_00000106845317199953125690000009462947524588374936_);}
	.st5{fill:url(#SVGID_00000014628755535574709120000007249195707850140047_);}
	.st6{fill:url(#SVGID_00000049185212706983327140000008581621465227402135_);}
	.st7{opacity:0.1;fill:#FFFFFF;}
	.st8{opacity:0.5;fill:#D7FFE0;}
	.st9{fill:url(#SVGID_00000109723084585173244690000017139337991878116253_);}
	.st10{fill:url(#SVGID_00000051373742685328022480000007569628188595670921_);}
	.st11{fill:url(#SVGID_00000084529834307799004430000013089978469925162170_);}
	.st12{fill:url(#SVGID_00000177473471041783927560000012484373207812593819_);}
	.st13{fill:url(#SVGID_00000052089490523028748930000017672624758997346490_);}
	.st14{opacity:0.2;fill:#FFFFFF;}
	.st15{opacity:0.3;fill:#D7FFE0;}
	.st16{fill:url(#SVGID_00000043455540466813404340000018003681225804662717_);}
	.st17{fill:url(#SVGID_00000085968675037038795730000017354304321928535195_);}
	.st18{fill:url(#SVGID_00000075855537100624505220000016930018575068948612_);}
	.st19{fill:url(#SVGID_00000149345492508541213470000016332736603522322603_);}
	.st20{fill:url(#SVGID_00000025407463262784163440000009891354366340048774_);}
	.st21{fill:url(#SVGID_00000060716643152306563430000010181071766761925520_);}
</style>
<g>
	<polygon class="st0" points="291.1,225.5 137.8,470.6 204.6,979.6 317.6,1019.8 572,1019.8 645.9,988.3 665.5,370.8 	"/>
	
		<linearGradient id="SVGID_1_" gradientUnits="userSpaceOnUse" x1="1010.7412" y1="421.4195" x2="1225.9907" y2="421.4195" gradientTransform="matrix(1 0 0 1 -872.9033 0)">
		<stop  offset="0" style="stop-color:#9AFFB1"/>
		<stop  offset="1" style="stop-color:#91FF6C"/>
	</linearGradient>
	<polygon class="st1" points="291.1,225.5 137.8,470.6 353.1,617.3 	"/>
	
		<linearGradient id="SVGID_00000009579792102744541100000006731412123268825529_" gradientUnits="userSpaceOnUse" x1="1164.0249" y1="421.4195" x2="1444.8917" y2="421.4195" gradientTransform="matrix(1 0 0 1 -872.9033 0)">
		<stop  offset="0" style="stop-color:#9AFFB1"/>
		<stop  offset="1" style="stop-color:#91FF6C"/>
	</linearGradient>
	<polygon style="fill:url(#SVGID_00000009579792102744541100000006731412123268825529_);" points="353.1,617.3 572,527.4 
		291.1,225.5 	"/>
	
		<linearGradient id="SVGID_00000060725184989148919660000004954100176615852457_" gradientUnits="userSpaceOnUse" x1="1164.0249" y1="376.4497" x2="1538.3746" y2="376.4497" gradientTransform="matrix(1 0 0 1 -872.9033 0)">
		<stop  offset="0" style="stop-color:#9AFFB1"/>
		<stop  offset="1" style="stop-color:#91FF6C"/>
	</linearGradient>
	<polygon style="fill:url(#SVGID_00000060725184989148919660000004954100176615852457_);" points="572,527.4 665.5,370.8 
		291.1,225.5 	"/>
	
		<linearGradient id="SVGID_00000126297462122632539020000005700408952298017935_" gradientUnits="userSpaceOnUse" x1="1118.366" y1="470.5509" x2="1118.366" y2="1019.842" gradientTransform="matrix(1 0 0 1 -872.9033 0)">
		<stop  offset="0" style="stop-color:#91FF6C"/>
		<stop  offset="0.1239" style="stop-color:#8EF868"/>
		<stop  offset="0.3067" style="stop-color:#86E45C"/>
		<stop  offset="0.5259" style="stop-color:#78C349"/>
		<stop  offset="0.7711" style="stop-color:#65962F"/>
		<stop  offset="1" style="stop-color:#516612"/>
	</linearGradient>
	<polygon style="fill:url(#SVGID_00000126297462122632539020000005700408952298017935_);" points="137.8,470.6 204.6,979.6 
		317.6,1019.8 353.1,617.3 	"/>
	
		<linearGradient id="SVGID_00000054247819651295347800000004174279830129230726_" gradientUnits="userSpaceOnUse" x1="1317.1572" y1="527.3721" x2="1317.1572" y2="1019.842" gradientTransform="matrix(1 0 0 1 -872.9033 0)">
		<stop  offset="0" style="stop-color:#91FF6C"/>
		<stop  offset="1" style="stop-color:#516612"/>
	</linearGradient>
	<polygon style="fill:url(#SVGID_00000054247819651295347800000004174279830129230726_);" points="352.8,617.3 571.4,527.4 
		571.4,1019.8 317.2,1019.8 	"/>
	
		<linearGradient id="SVGID_00000150813266692087502890000001197256467356837013_" gradientUnits="userSpaceOnUse" x1="1491.0785" y1="370.8436" x2="1491.0785" y2="1019.7877" gradientTransform="matrix(1 0 0 1 -872.9033 0)">
		<stop  offset="0" style="stop-color:#91FF6C"/>
		<stop  offset="0.1967" style="stop-color:#90FC6A"/>
		<stop  offset="0.3579" style="stop-color:#8BF264"/>
		<stop  offset="0.5066" style="stop-color:#84E05A"/>
		<stop  offset="0.6477" style="stop-color:#7AC84C"/>
		<stop  offset="0.7835" style="stop-color:#6DA93A"/>
		<stop  offset="0.9135" style="stop-color:#5D8423"/>
		<stop  offset="1" style="stop-color:#516612"/>
	</linearGradient>
	<polygon style="fill:url(#SVGID_00000150813266692087502890000001197256467356837013_);" points="571.4,1019.8 645.6,988.3 
		665,370.8 571.4,527.4 	"/>
	<polygon class="st7" points="137.8,470.6 353.1,617.3 572,527.4 665.5,370.8 562.4,494.1 291.1,225.5 542.8,506.4 360.2,566.7 
		299,275.2 335.8,560.2 	"/>
	<polygon class="st8" points="337.5,794.3 304.8,584.4 353.1,617.3 	"/>
	<polygon class="st7" points="353.1,617.3 478.3,955.2 572,527.4 	"/>
	<polygon class="st7" points="394,600.5 490.5,760 528.5,545.3 	"/>
	<polygon class="st7" points="571.4,652.6 659,564.3 656.9,627.4 571.4,783.4 	"/>
	<polygon class="st8" points="571.4,831 655.3,682.5 653.4,737.5 571.4,993.3 	"/>
</g>
<g>
	<polygon class="st0" points="791.3,27.8 621.8,248.8 553.5,947.7 588,972.3 669.8,991.7 743.3,956.5 836,339.7 	"/>
	
		<linearGradient id="SVGID_00000072963180340864860690000006964262439860849302_" gradientUnits="userSpaceOnUse" x1="577.2831" y1="-156.9092" x2="577.2831" y2="167.477" gradientTransform="matrix(0.9922 0.125 -0.125 0.9922 135.5712 103.3894)">
		<stop  offset="0" style="stop-color:#9AFFB1"/>
		<stop  offset="1" style="stop-color:#91FF6C"/>
	</linearGradient>
	<polygon style="fill:url(#SVGID_00000072963180340864860690000006964262439860849302_);" points="769.2,306.7 651.9,337.2 
		621.8,248.8 700.2,146.6 791.3,27.8 782.3,140.3 	"/>
	
		<linearGradient id="SVGID_00000045609373690873692500000004479928972465652361_" gradientUnits="userSpaceOnUse" x1="641.0793" y1="-5.0237" x2="724.4554" y2="-5.0237" gradientTransform="matrix(0.9922 0.125 -0.125 0.9922 135.5712 103.3894)">
		<stop  offset="0" style="stop-color:#9AFFB1"/>
		<stop  offset="1" style="stop-color:#91FF6C"/>
	</linearGradient>
	<polygon style="fill:url(#SVGID_00000045609373690873692500000004479928972465652361_);" points="836,339.7 769.2,306.7 
		785.9,95.7 791.3,27.8 806.6,134.6 	"/>
	
		<linearGradient id="SVGID_00000098223386218985074070000003269063338342447495_" gradientUnits="userSpaceOnUse" x1="529.0176" y1="83.5219" x2="529.0176" y2="805.5367" gradientTransform="matrix(0.9922 0.125 -0.125 0.9922 135.5712 103.3894)">
		<stop  offset="0" style="stop-color:#91FF6C"/>
		<stop  offset="1" style="stop-color:#516612"/>
	</linearGradient>
	<polygon style="fill:url(#SVGID_00000098223386218985074070000003269063338342447495_);" points="588,972.3 561.5,953.4 
		553.5,947.7 600.6,465.3 621.8,248.8 651.9,337.2 	"/>
	
		<linearGradient id="SVGID_00000044895017406619529680000006690373158053581447_" gradientUnits="userSpaceOnUse" x1="597.9122" y1="122.4669" x2="597.9122" y2="814.5054" gradientTransform="matrix(0.9922 0.125 -0.125 0.9922 135.5712 103.3894)">
		<stop  offset="0" style="stop-color:#91FF6C"/>
		<stop  offset="8.537829e-02" style="stop-color:#8AEE62"/>
		<stop  offset="0.3984" style="stop-color:#72B440"/>
		<stop  offset="0.6662" style="stop-color:#608A27"/>
		<stop  offset="0.8753" style="stop-color:#557018"/>
		<stop  offset="1" style="stop-color:#516612"/>
	</linearGradient>
	<polygon style="fill:url(#SVGID_00000044895017406619529680000006690373158053581447_);" points="769.4,306.7 764.3,345.4 
		764.3,345.5 752.5,420.4 752.5,420.5 743.5,484.9 743.5,485 722.6,632.4 722.6,632.4 682.8,903.9 682.8,904 670,991.7 588.5,972.4 
		592.8,933 592.8,933 616.3,687.4 616.3,687.3 617.5,676.7 631.9,534.7 640.8,446.6 649.7,358.3 652,337.3 	"/>
	
		<linearGradient id="SVGID_00000056409194200415184520000013864919839655416222_" gradientUnits="userSpaceOnUse" x1="682.7707" y1="122.4666" x2="682.7707" y2="814.5055" gradientTransform="matrix(0.9922 0.125 -0.125 0.9922 135.5712 103.3894)">
		<stop  offset="0" style="stop-color:#91FF6C"/>
		<stop  offset="0.13" style="stop-color:#8CF365"/>
		<stop  offset="0.3622" style="stop-color:#7FD553"/>
		<stop  offset="0.6698" style="stop-color:#6AA336"/>
		<stop  offset="1" style="stop-color:#516612"/>
	</linearGradient>
	<polygon style="fill:url(#SVGID_00000056409194200415184520000013864919839655416222_);" points="836,339.7 743.3,956.5 
		669.8,991.7 769.2,306.7 	"/>
	<polygon class="st7" points="782.3,140.3 707.8,251.2 700.2,146.6 746.6,86.1 791.3,27.8 786,94.6 	"/>
	<polygon class="st8" points="786,94.6 756,117.7 754.8,88.6 741.6,97.4 746.6,86.1 791.3,27.8 	"/>
	<polygon class="st8" points="806.6,134.6 797,140.2 785.9,95.7 791.3,27.8 	"/>
	<polygon class="st7" points="782.3,313.1 836,339.7 771.8,285.3 770.9,285.6 654.6,315.9 621.8,248.8 652,336.5 761.1,308.1 
		736.8,529.7 	"/>
	<polygon class="st14" points="619.9,488.9 561.4,953.4 553.5,947.7 600.6,465.3 	"/>
	<polygon class="st14" points="743.5,484.9 743.5,485 722.6,632.4 722.6,632.4 616.3,687.4 616.3,687.3 617.5,676.7 631.9,534.7 
		743.3,485 	"/>
	<polygon class="st7" points="722,632.3 682.8,903.9 682.8,904 682.6,904 592.1,932.9 616.3,687.4 616.3,687.4 616.5,687.4 	"/>
	<polygon class="st15" points="698.8,792.4 774.6,748.5 689.9,852.6 	"/>
</g>
<g>
	
		<linearGradient id="SVGID_00000120550067151972979180000011522092271432690072_" gradientUnits="userSpaceOnUse" x1="-2291.8662" y1="738.6291" x2="-2291.8662" y2="944.084" gradientTransform="matrix(-0.9986 5.210000e-02 5.210000e-02 0.9986 -1541.2897 35.4944)">
		<stop  offset="0" style="stop-color:#9AFFB1"/>
		<stop  offset="1" style="stop-color:#91FF6C"/>
	</linearGradient>
	<polygon style="fill:url(#SVGID_00000120550067151972979180000011522092271432690072_);" points="942.2,809.9 638.1,661.4 
		729.1,862.4 	"/>
	
		<linearGradient id="SVGID_00000072280732354885749780000013932731695663444891_" gradientUnits="userSpaceOnUse" x1="-2067.9016" y1="738.6291" x2="-2067.9016" y2="944.084" gradientTransform="matrix(-0.9986 5.210000e-02 5.210000e-02 0.9986 -1541.2897 35.4944)">
		<stop  offset="0" style="stop-color:#9AFFB1"/>
		<stop  offset="0.2522" style="stop-color:#9AFFAD"/>
		<stop  offset="0.4869" style="stop-color:#98FFA2"/>
		<stop  offset="0.7146" style="stop-color:#96FF8F"/>
		<stop  offset="0.9369" style="stop-color:#92FF75"/>
		<stop  offset="1" style="stop-color:#91FF6C"/>
	</linearGradient>
	<polygon style="fill:url(#SVGID_00000072280732354885749780000013932731695663444891_);" points="729.1,862.4 638.1,661.4 
		412.8,804.8 	"/>
	
		<linearGradient id="SVGID_00000086671474045466539870000009899647692419157667_" gradientUnits="userSpaceOnUse" x1="-1996.7025" y1="738.6291" x2="-1996.7025" y2="870.1583" gradientTransform="matrix(-0.9986 5.210000e-02 5.210000e-02 0.9986 -1541.2897 35.4944)">
		<stop  offset="0" style="stop-color:#9AFFB1"/>
		<stop  offset="1" style="stop-color:#91FF6C"/>
	</linearGradient>
	<polygon style="fill:url(#SVGID_00000086671474045466539870000009899647692419157667_);" points="638.1,661.4 345.4,702 
		412.8,804.8 	"/>
	
		<linearGradient id="SVGID_00000182509005059372963420000018438028347209561744_" gradientUnits="userSpaceOnUse" x1="-2312.5156" y1="902.7553" x2="-2312.5156" y2="1147.3628" gradientTransform="matrix(-0.9986 5.210000e-02 5.210000e-02 0.9986 -1541.2897 35.4944)">
		<stop  offset="0" style="stop-color:#91FF6C"/>
		<stop  offset="1" style="stop-color:#516612"/>
	</linearGradient>
	<polygon style="fill:url(#SVGID_00000182509005059372963420000018438028347209561744_);" points="942.2,809.9 851.7,1028.9 
		700.6,1067.4 729.1,862.4 	"/>
	
		<linearGradient id="SVGID_00000162316231600933602070000007793703815757282493_" gradientUnits="userSpaceOnUse" x1="-2067.9016" y1="870.1583" x2="-2067.9016" y2="1147.3628" gradientTransform="matrix(-0.9986 5.210000e-02 5.210000e-02 0.9986 -1541.2897 35.4944)">
		<stop  offset="0" style="stop-color:#91FF6C"/>
		<stop  offset="9.860164e-02" style="stop-color:#87E75E"/>
		<stop  offset="0.3088" style="stop-color:#74B943"/>
		<stop  offset="0.5103" style="stop-color:#65952E"/>
		<stop  offset="0.698" style="stop-color:#5A7B1E"/>
		<stop  offset="0.8666" style="stop-color:#536B15"/>
		<stop  offset="1" style="stop-color:#516612"/>
	</linearGradient>
	<polygon style="fill:url(#SVGID_00000162316231600933602070000007793703815757282493_);" points="700.6,1067.4 729.1,862.4 
		412.8,804.8 497.1,1045.4 	"/>
	
		<linearGradient id="SVGID_00000144319411288993075910000002008450368925223098_" gradientUnits="userSpaceOnUse" x1="-1916.3063" y1="763.8981" x2="-1916.3063" y2="1114.7472" gradientTransform="matrix(-0.9986 5.210000e-02 5.210000e-02 0.9986 -1541.2897 35.4944)">
		<stop  offset="0" style="stop-color:#91FF6C"/>
		<stop  offset="1" style="stop-color:#516612"/>
	</linearGradient>
	<polygon style="fill:url(#SVGID_00000144319411288993075910000002008450368925223098_);" points="345.4,702 412.8,804.8 
		497.1,1045.4 469.6,1032.9 	"/>
	<polygon class="st8" points="942.2,809.9 744.8,870.3 709.7,1002.4 727.5,874 426.1,812.9 438,876.7 412.8,804.8 345.4,702 
		416.8,788 638.1,661.4 438.7,793.7 722.6,851.8 667.2,725.7 742,848.1 	"/>
	<polygon class="st7" points="851.7,765.7 678.9,698.8 667.2,725.7 638.1,661.4 	"/>
	<polygon class="st7" points="704.1,809.8 614.2,735.6 489.8,759.8 638.1,661.4 	"/>
	<polygon class="st7" points="942.2,809.9 859.1,954.6 744.8,870.3 	"/>
	<polygon class="st7" points="942.2,809.9 784.2,1007.2 744.8,870.3 	"/>
	<polygon class="st7" points="709.7,1002.4 703.1,1049.2 471.7,972.9 465.6,955.3 	"/>
	<polygon class="st7" points="700.6,1067.4 702.4,1054.8 479,993.5 485.1,1010.9 	"/>
</g>
</svg>
