<?xml version="1.0" encoding="utf-8"?>
<!-- Generator: Adobe Illustrator 28.1.0, SVG Export Plug-In . SVG Version: 6.00 Build 0)  -->
<svg version="1.1" id="Layer_1" xmlns="http://www.w3.org/2000/svg" xmlns:xlink="http://www.w3.org/1999/xlink" x="0px" y="0px"
	 viewBox="0 0 1080 1080" style="enable-background:new 0 0 1080 1080;" xml:space="preserve">
<style type="text/css">
	.st0{fill:#124866;}
	.st1{fill:url(#SVGID_1_);}
	.st2{fill:url(#SVGID_00000054226957496271456330000003061245225614276002_);}
	.st3{fill:url(#SVGID_00000024692246505407173840000011300358144500475289_);}
	.st4{fill:url(#SVGID_00000069383127894325959330000002523992139884668556_);}
	.st5{fill:url(#SVGID_00000181075695666173387030000004211344759905064837_);}
	.st6{fill:url(#SVGID_00000117677270194617222300000013176897951503529118_);}
	.st7{opacity:0.1;fill:#FFFFFF;enable-background:new    ;}
	.st8{opacity:0.5;fill:#DED7FF;enable-background:new    ;}
	.st9{fill:url(#SVGID_00000050630166814651166740000011764069387986482332_);}
	.st10{fill:url(#SVGID_00000006689580018220228800000010415727708119298690_);}
	.st11{fill:url(#SVGID_00000005964930679130173400000014710382637951699898_);}
	.st12{fill:url(#SVGID_00000146464565483389539640000014957064201774908068_);}
	.st13{fill:url(#SVGID_00000134935166402330918950000003411923843390875057_);}
	.st14{fill:url(#SVGID_00000084512558502961381040000001493186051640276384_);}
	.st15{fill:url(#SVGID_00000183228679705684800610000004397290479389411491_);}
	.st16{fill:url(#SVGID_00000089574472241603300400000001601205575842962829_);}
	.st17{fill:url(#SVGID_00000060747196451078291100000007801580591910237570_);}
	.st18{opacity:0.2;fill:#FFFFFF;enable-background:new    ;}
	.st19{opacity:0.3;fill:#DED7FF;enable-background:new    ;}
	.st20{fill:url(#SVGID_00000165943782446658869060000014503966208024573837_);}
	.st21{fill:url(#SVGID_00000128476692558097406100000008509407112212632244_);}
	.st22{fill:url(#SVGID_00000070833426640091460710000014746328650964895633_);}
	.st23{fill:url(#SVGID_00000167358723631941902260000014819250253785972155_);}
	.st24{fill:url(#SVGID_00000165929959653988338080000003038399577969789584_);}
	.st25{fill:url(#SVGID_00000108292112948768301730000006732264176821985420_);}
	.st26{fill:url(#SVGID_00000000210452850264620900000000837374570694770837_);}
	.st27{fill:url(#SVGID_00000054978642243891406580000000946663717368873890_);}
	.st28{fill:url(#SVGID_00000050641573963251215770000004271538628164495027_);}
	.st29{fill:url(#SVGID_00000113317938822658754050000005690788183229738883_);}
</style>
<g>
	<g>
		<polygon class="st0" points="807.8,562.4 898.7,707.6 859.1,1009.2 792.1,1033.1 641.4,1033.1 597.6,1014.4 586,648.5 		"/>
		
			<linearGradient id="SVGID_1_" gradientUnits="userSpaceOnUse" x1="-1566.0994" y1="678.5" x2="-1438.4994" y2="678.5" gradientTransform="matrix(-1 0 0 1 -667.3994 0)">
			<stop  offset="0" style="stop-color:#AC9AFF"/>
			<stop  offset="1" style="stop-color:#6C81FF"/>
		</linearGradient>
		<polygon class="st1" points="807.8,562.4 898.7,707.6 771.1,794.6 		"/>
		
			<linearGradient id="SVGID_00000149353359580180006260000009391496578134927023_" gradientUnits="userSpaceOnUse" x1="-1475.1995" y1="678.5" x2="-1308.7994" y2="678.5" gradientTransform="matrix(-1 0 0 1 -667.3994 0)">
			<stop  offset="0" style="stop-color:#AC9AFF"/>
			<stop  offset="1" style="stop-color:#6C81FF"/>
		</linearGradient>
		<polygon style="fill:url(#SVGID_00000149353359580180006260000009391496578134927023_);" points="771.1,794.6 641.4,741.3 
			807.8,562.4 		"/>
		
			<linearGradient id="SVGID_00000124849638219330064720000015113926919651998609_" gradientUnits="userSpaceOnUse" x1="-1475.1995" y1="651.85" x2="-1253.3994" y2="651.85" gradientTransform="matrix(-1 0 0 1 -667.3994 0)">
			<stop  offset="0" style="stop-color:#AC9AFF"/>
			<stop  offset="1" style="stop-color:#6C81FF"/>
		</linearGradient>
		<polygon style="fill:url(#SVGID_00000124849638219330064720000015113926919651998609_);" points="641.4,741.3 586,648.5 
			807.8,562.4 		"/>
		
			<linearGradient id="SVGID_00000050639725604777918250000018110524221938876343_" gradientUnits="userSpaceOnUse" x1="-1502.2994" y1="707.6" x2="-1502.2994" y2="1033.1" gradientTransform="matrix(-1 0 0 1 -667.3994 0)">
			<stop  offset="0" style="stop-color:#6C81FF"/>
			<stop  offset="0.1239" style="stop-color:#687EF8"/>
			<stop  offset="0.3067" style="stop-color:#5C74E4"/>
			<stop  offset="0.5259" style="stop-color:#4965C3"/>
			<stop  offset="0.7711" style="stop-color:#2F5796"/>
			<stop  offset="1" style="stop-color:#124866"/>
		</linearGradient>
		<polygon style="fill:url(#SVGID_00000050639725604777918250000018110524221938876343_);" points="898.7,707.6 859.1,1009.2 
			792.1,1033.1 771.1,794.6 		"/>
		
			<linearGradient id="SVGID_00000114782613448888330060000009906125356349003402_" gradientUnits="userSpaceOnUse" x1="-1384.7494" y1="741.3" x2="-1384.7494" y2="1033.1" gradientTransform="matrix(-1 0 0 1 -667.3994 0)">
			<stop  offset="0" style="stop-color:#6C81FF"/>
			<stop  offset="1" style="stop-color:#124866"/>
		</linearGradient>
		<polygon style="fill:url(#SVGID_00000114782613448888330060000009906125356349003402_);" points="771.5,794.6 642.1,741.3 
			642.1,1033.1 792.6,1033.1 		"/>
		
			<linearGradient id="SVGID_00000079450215072384487010000008565713002529077932_" gradientUnits="userSpaceOnUse" x1="-1281.6993" y1="648.5" x2="-1281.6993" y2="1033.1" gradientTransform="matrix(-1 0 0 1 -667.3994 0)">
			<stop  offset="0" style="stop-color:#6C81FF"/>
			<stop  offset="0.1967" style="stop-color:#6A80FC"/>
			<stop  offset="0.3579" style="stop-color:#647AF2"/>
			<stop  offset="0.5066" style="stop-color:#5A73E0"/>
			<stop  offset="0.6477" style="stop-color:#4C67C8"/>
			<stop  offset="0.7835" style="stop-color:#3A5CA9"/>
			<stop  offset="0.9135" style="stop-color:#235084"/>
			<stop  offset="1" style="stop-color:#124866"/>
		</linearGradient>
		<polygon style="fill:url(#SVGID_00000079450215072384487010000008565713002529077932_);" points="642.1,1033.1 597.9,1014.4 
			586.5,648.5 642.1,741.3 		"/>
		<polygon class="st7" points="898.7,707.6 771.1,794.6 641.4,741.3 586,648.5 647.1,721.6 807.8,562.4 658.7,728.8 766.9,764.6 
			803.2,591.9 781.4,760.7 		"/>
		<polygon class="st8" points="780.3,899.4 799.7,775.1 771.1,794.6 		"/>
		<polygon class="st7" points="771.1,794.6 696.9,994.8 641.4,741.3 		"/>
		<polygon class="st7" points="746.8,784.6 689.7,879.1 667.2,751.9 		"/>
		<polygon class="st7" points="642.1,815.5 590,763.2 591.3,800.6 642.1,893 		"/>
		<polygon class="st8" points="642.1,921.2 592.2,833.2 593.4,865.8 642.1,1017.4 		"/>
	</g>
	<g>
		
			<linearGradient id="SVGID_00000024708548668277460500000007328524214217945491_" gradientUnits="userSpaceOnUse" x1="781.0741" y1="-200.2147" x2="781.0741" y2="16.9173" gradientTransform="matrix(0.9879 0.1553 -0.1553 0.9879 -105.055 92.9372)">
			<stop  offset="0" style="stop-color:#AC9AFF"/>
			<stop  offset="1" style="stop-color:#6C81FF"/>
		</linearGradient>
		<polygon style="fill:url(#SVGID_00000024708548668277460500000007328524214217945491_);" points="712,18.7 652,139 689.7,235 		
			"/>
		
			<linearGradient id="SVGID_00000127033707215213344780000000119671261869828529_" gradientUnits="userSpaceOnUse" x1="829.402" y1="-200.2147" x2="829.402" y2="16.9173" gradientTransform="matrix(0.9879 0.1553 -0.1553 0.9879 -105.055 92.9372)">
			<stop  offset="0" style="stop-color:#AC9AFF"/>
			<stop  offset="1" style="stop-color:#6C81FF"/>
		</linearGradient>
		<polygon style="fill:url(#SVGID_00000127033707215213344780000000119671261869828529_);" points="689.7,235 760.7,144.4 712,18.7 
					"/>
		
			<linearGradient id="SVGID_00000065786365604594815990000005422939280497258939_" gradientUnits="userSpaceOnUse" x1="759.7673" y1="-72.0606" x2="759.7673" y2="828.926" gradientTransform="matrix(0.9879 0.1553 -0.1553 0.9879 -105.055 92.9372)">
			<stop  offset="0" style="stop-color:#6C81FF"/>
			<stop  offset="0.13" style="stop-color:#657BF3"/>
			<stop  offset="0.3622" style="stop-color:#536DD5"/>
			<stop  offset="0.6698" style="stop-color:#3659A3"/>
			<stop  offset="1" style="stop-color:#124866"/>
		</linearGradient>
		<polygon style="fill:url(#SVGID_00000065786365604594815990000005422939280497258939_);" points="652,139 472.9,1003.2 
			563.7,1037.2 689.7,235 		"/>
		
			<linearGradient id="SVGID_00000003814998168341652470000014894840131155229625_" gradientUnits="userSpaceOnUse" x1="856.1516" y1="-83.6063" x2="856.1516" y2="828.926" gradientTransform="matrix(0.9879 0.1553 -0.1553 0.9879 -105.055 92.9372)">
			<stop  offset="0" style="stop-color:#6C81FF"/>
			<stop  offset="0.2354" style="stop-color:#5972DF"/>
			<stop  offset="0.748" style="stop-color:#2A5490"/>
			<stop  offset="1" style="stop-color:#124866"/>
		</linearGradient>
		<polygon style="fill:url(#SVGID_00000003814998168341652470000014894840131155229625_);" points="563.7,1037.2 665.1,1022.6 
			760.7,144.4 689.7,235 		"/>
		<polygon class="st8" points="652,139 688,206.4 712,18.7 698.3,204.6 760.7,144.4 698.6,223.6 574.2,982.5 684.7,222.2 		"/>
		<polygon class="st7" points="627.2,257.8 674.8,288.7 652,434 615.4,315.5 		"/>
		<polygon class="st7" points="589.8,438.1 626.2,622.7 576.2,941.1 555.4,605.3 		"/>
		<polygon class="st7" points="715.9,201.5 673.9,537.9 680.1,885 760.7,144.4 		"/>
		<polygon class="st7" points="672.3,98.4 691.2,80.9 677.7,143.1 702.6,91.8 712,18.7 		"/>
		<polygon class="st7" points="712,18.7 712.9,100.6 757.3,135.7 		"/>
	</g>
	<g>
		<polygon class="st0" points="506.7,154.3 380.6,370.1 398.2,1000.2 431.7,1018.3 506.7,1026.3 568.2,986.7 581.6,427 		"/>
		
			<linearGradient id="SVGID_00000100376280430434476470000001083159485324571821_" gradientUnits="userSpaceOnUse" x1="449.45" y1="154.3" x2="449.45" y2="445.5">
			<stop  offset="0" style="stop-color:#AC9AFF"/>
			<stop  offset="1" style="stop-color:#6C81FF"/>
		</linearGradient>
		<polygon style="fill:url(#SVGID_00000100376280430434476470000001083159485324571821_);" points="518.3,405.1 417.3,445.5 
			380.6,370.1 438.9,270.3 506.7,154.3 511.4,255.5 		"/>
		
			<linearGradient id="SVGID_00000072999354381308503970000000194689076576982155_" gradientUnits="userSpaceOnUse" x1="506.7" y1="290.65" x2="581.6" y2="290.65">
			<stop  offset="0" style="stop-color:#AC9AFF"/>
			<stop  offset="1" style="stop-color:#6C81FF"/>
		</linearGradient>
		<polygon style="fill:url(#SVGID_00000072999354381308503970000000194689076576982155_);" points="581.6,427 518.3,405.1 
			509.6,215.3 506.7,154.3 532.4,247.6 		"/>
		
			<linearGradient id="SVGID_00000116919524413386376110000015895312433657660050_" gradientUnits="userSpaceOnUse" x1="406.15" y1="370.1" x2="406.15" y2="1018.3">
			<stop  offset="0" style="stop-color:#6C81FF"/>
			<stop  offset="1" style="stop-color:#124866"/>
		</linearGradient>
		<polygon style="fill:url(#SVGID_00000116919524413386376110000015895312433657660050_);" points="431.7,1018.3 405.9,1004.4 
			398.2,1000.2 386.1,565.3 380.6,370.1 417.3,445.5 		"/>
		
			<linearGradient id="SVGID_00000129179817892216451320000004926585345574888623_" gradientUnits="userSpaceOnUse" x1="468" y1="405.1" x2="468" y2="1026.3">
			<stop  offset="0" style="stop-color:#6C81FF"/>
			<stop  offset="8.537828e-02" style="stop-color:#6279EE"/>
			<stop  offset="0.3984" style="stop-color:#4060B4"/>
			<stop  offset="0.6662" style="stop-color:#27528A"/>
			<stop  offset="0.8753" style="stop-color:#184C70"/>
			<stop  offset="1" style="stop-color:#124866"/>
		</linearGradient>
		<polygon style="fill:url(#SVGID_00000129179817892216451320000004926585345574888623_);" points="518.5,405.1 518.3,440.1 
			518.3,440.2 517.1,508.2 517.1,508.4 515.9,566.8 515.9,566.8 513.4,700.4 513.4,700.4 508.5,946.7 508.5,946.8 506.9,1026.3 
			432,1018.3 431.3,982.7 431.3,982.7 425.2,761.3 425.2,761.3 425,751.6 421.8,623.6 419.8,544.1 417.8,464.5 417.5,445.5 		"/>
		
			<linearGradient id="SVGID_00000014614282590386856470000014429719441488183435_" gradientUnits="userSpaceOnUse" x1="544.15" y1="405.1" x2="544.15" y2="1026.3">
			<stop  offset="0" style="stop-color:#6C81FF"/>
			<stop  offset="0.13" style="stop-color:#657BF3"/>
			<stop  offset="0.3622" style="stop-color:#536DD5"/>
			<stop  offset="0.6698" style="stop-color:#3659A3"/>
			<stop  offset="1" style="stop-color:#124866"/>
		</linearGradient>
		<polygon style="fill:url(#SVGID_00000014614282590386856470000014429719441488183435_);" points="581.6,427 568.2,986.7 
			506.7,1026.3 518.3,405.1 		"/>
		<polygon class="st7" points="511.4,255.5 457.4,362.6 438.9,270.3 473.5,211.2 506.7,154.3 509.5,214.3 		"/>
		<polygon class="st8" points="509.5,214.3 485.5,238.3 481.1,212.5 470.3,221.8 473.5,211.2 506.7,154.3 		"/>
		<polygon class="st8" points="532.4,247.6 524.4,253.7 509.6,215.3 506.7,154.3 		"/>
		<polygon class="st7" points="530.8,409.4 581.6,427 518.3,385.8 517.5,386.1 417.3,426.2 380.6,370.1 417.3,444.8 511.3,407.2 
			514.6,607.3 		"/>
		<polygon class="st18" points="405.6,584.1 405.6,1004.4 398,1000.2 385.8,565.3 		"/>
		<polygon class="st18" points="515.9,566.8 515.9,566.8 513.4,700.4 513.4,700.4 425.2,761.3 425.2,761.3 425,751.6 421.8,623.6 
			515.5,566.8 		"/>
		<polygon class="st7" points="512.9,700.4 508.5,946.7 508.5,946.7 508.3,946.8 431.1,982.7 425.2,761.3 425.2,761.3 425.3,761.3 
					"/>
		<polygon class="st19" points="510.2,845.6 572.7,798 509,900.2 		"/>
	</g>
	<g>
		
			<linearGradient id="SVGID_00000040567021828605122650000016508198959147175061_" gradientUnits="userSpaceOnUse" x1="197.7364" y1="846.1724" x2="197.7364" y2="1184.0519" gradientTransform="matrix(0.9939 -0.11 0.11 0.9939 12.5015 -113.7964)">
			<stop  offset="0" style="stop-color:#6C81FF"/>
			<stop  offset="1" style="stop-color:#124866"/>
		</linearGradient>
		<polygon style="fill:url(#SVGID_00000040567021828605122650000016508198959147175061_);" points="205.1,716.2 338.6,1035.1 
			412.3,1033.2 403.8,737 		"/>
		
			<linearGradient id="SVGID_00000183936773837531472180000008404292374543529647_" gradientUnits="userSpaceOnUse" x1="197.7364" y1="737.3141" x2="197.7364" y2="910.6027" gradientTransform="matrix(0.9939 -0.11 0.11 0.9939 12.5015 -113.7964)">
			<stop  offset="0" style="stop-color:#AC9AFF"/>
			<stop  offset="1" style="stop-color:#6C81FF"/>
		</linearGradient>
		<polygon style="fill:url(#SVGID_00000183936773837531472180000008404292374543529647_);" points="300.7,596.1 205.1,716.2 
			308.3,769.6 403.8,737 		"/>
		
			<linearGradient id="SVGID_00000024680003069489702900000010701825592458980740_" gradientUnits="userSpaceOnUse" x1="271.1663" y1="737.3141" x2="271.1663" y2="888.7052" gradientTransform="matrix(0.9939 -0.11 0.11 0.9939 12.5015 -113.7964)">
			<stop  offset="0" style="stop-color:#AC9AFF"/>
			<stop  offset="1" style="stop-color:#6C81FF"/>
		</linearGradient>
		<polygon style="fill:url(#SVGID_00000024680003069489702900000010701825592458980740_);" points="300.7,596.1 429.6,619 
			403.8,737 		"/>
		
			<linearGradient id="SVGID_00000116216486931173605910000015486726782178122933_" gradientUnits="userSpaceOnUse" x1="302.5874" y1="774.2558" x2="302.5874" y2="1184.0519" gradientTransform="matrix(0.9939 -0.11 0.11 0.9939 12.5015 -113.7964)">
			<stop  offset="0" style="stop-color:#6C81FF"/>
			<stop  offset="6.749427e-02" style="stop-color:#6279EF"/>
			<stop  offset="0.2914" style="stop-color:#4663BE"/>
			<stop  offset="0.5037" style="stop-color:#2F5798"/>
			<stop  offset="0.6987" style="stop-color:#1F4E7D"/>
			<stop  offset="0.8703" style="stop-color:#154A6C"/>
			<stop  offset="1" style="stop-color:#124866"/>
		</linearGradient>
		<polygon style="fill:url(#SVGID_00000116216486931173605910000015486726782178122933_);" points="412.3,1033.2 452.7,1003.1 
			429.6,619 403.8,737 		"/>
		<polygon class="st8" points="205.1,716.2 308.3,769.6 404.1,747.2 406.3,823.7 414,716.6 429.6,619 405.3,703.8 300.7,596.1 
			393.1,734.1 307.7,756 		"/>
		<polygon class="st7" points="236,677.4 300.7,596.1 342.9,659.1 312,643.5 281.5,701.9 272.5,670.8 		"/>
		<polygon class="st7" points="300.7,596.1 336.9,650.2 280.4,621.7 		"/>
		<polygon class="st7" points="405.3,703.8 367.4,627.6 429.6,619 		"/>
		<polygon class="st7" points="404.1,747.2 234.9,787.3 286.3,910.1 		"/>
		<polygon class="st7" points="452.7,1003.1 437.8,1001.5 429.6,619 		"/>
	</g>
	<g>
		
			<linearGradient id="SVGID_00000139273119406027410650000000609268202472204452_" gradientUnits="userSpaceOnUse" x1="553.6954" y1="752.8461" x2="553.6954" y2="874.5977" gradientTransform="matrix(0.9986 5.210000e-02 -5.210000e-02 0.9986 0.9869 35.4944)">
			<stop  offset="0" style="stop-color:#AC9AFF"/>
			<stop  offset="1" style="stop-color:#6C81FF"/>
		</linearGradient>
		<polygon style="fill:url(#SVGID_00000139273119406027410650000000609268202472204452_);" points="422.1,908.7 602.2,820.7 
			548.3,939.8 		"/>
		
			<linearGradient id="SVGID_00000018216640336152491170000003547322616605167776_" gradientUnits="userSpaceOnUse" x1="686.3991" y1="752.8461" x2="686.3991" y2="874.5977" gradientTransform="matrix(0.9986 5.210000e-02 -5.210000e-02 0.9986 0.9869 35.4944)">
			<stop  offset="0" style="stop-color:#AC9AFF"/>
			<stop  offset="0.2522" style="stop-color:#A99AFF"/>
			<stop  offset="0.4869" style="stop-color:#A198FF"/>
			<stop  offset="0.7146" style="stop-color:#8F90FF"/>
			<stop  offset="0.9369" style="stop-color:#7585FF"/>
			<stop  offset="1" style="stop-color:#6C81FF"/>
		</linearGradient>
		<polygon style="fill:url(#SVGID_00000018216640336152491170000003547322616605167776_);" points="548.3,939.8 602.2,820.7 
			735.7,905.7 		"/>
		
			<linearGradient id="SVGID_00000035516089782496357970000009997725791156069817_" gradientUnits="userSpaceOnUse" x1="728.548" y1="752.8461" x2="728.548" y2="830.7783" gradientTransform="matrix(0.9986 5.210000e-02 -5.210000e-02 0.9986 0.9869 35.4944)">
			<stop  offset="0" style="stop-color:#AC9AFF"/>
			<stop  offset="1" style="stop-color:#6C81FF"/>
		</linearGradient>
		<polygon style="fill:url(#SVGID_00000035516089782496357970000009997725791156069817_);" points="602.2,820.7 775.6,844.8 
			735.7,905.7 		"/>
		
			<linearGradient id="SVGID_00000121995865843091037810000015992672575662748828_" gradientUnits="userSpaceOnUse" x1="541.4879" y1="850.1142" x2="541.4879" y2="995.0572" gradientTransform="matrix(0.9986 5.210000e-02 -5.210000e-02 0.9986 0.9869 35.4944)">
			<stop  offset="0" style="stop-color:#6C81FF"/>
			<stop  offset="1" style="stop-color:#124866"/>
		</linearGradient>
		<polygon style="fill:url(#SVGID_00000121995865843091037810000015992672575662748828_);" points="422.1,908.7 475.7,1038.5 
			565.2,1061.3 548.3,939.8 		"/>
		
			<linearGradient id="SVGID_00000113312491340215172280000006226632259216199584_" gradientUnits="userSpaceOnUse" x1="686.3991" y1="830.7783" x2="686.3991" y2="995.0572" gradientTransform="matrix(0.9986 5.210000e-02 -5.210000e-02 0.9986 0.9869 35.4944)">
			<stop  offset="0" style="stop-color:#6C81FF"/>
			<stop  offset="9.860164e-02" style="stop-color:#5E76E7"/>
			<stop  offset="0.3088" style="stop-color:#4361B9"/>
			<stop  offset="0.5103" style="stop-color:#2E5795"/>
			<stop  offset="0.698" style="stop-color:#1E4F7B"/>
			<stop  offset="0.8666" style="stop-color:#154B6B"/>
			<stop  offset="1" style="stop-color:#124866"/>
		</linearGradient>
		<polygon style="fill:url(#SVGID_00000113312491340215172280000006226632259216199584_);" points="565.2,1061.3 548.3,939.8 
			735.7,905.7 685.8,1048.2 		"/>
		
			<linearGradient id="SVGID_00000126315278833065575320000001153245163288356529_" gradientUnits="userSpaceOnUse" x1="776.2198" y1="767.8794" x2="776.2198" y2="975.6906" gradientTransform="matrix(0.9986 5.210000e-02 -5.210000e-02 0.9986 0.9869 35.4944)">
			<stop  offset="0" style="stop-color:#6C81FF"/>
			<stop  offset="1" style="stop-color:#124866"/>
		</linearGradient>
		<polygon style="fill:url(#SVGID_00000126315278833065575320000001153245163288356529_);" points="775.6,844.8 735.7,905.7 
			685.8,1048.2 702,1040.8 		"/>
		<polygon class="st8" points="422.1,908.7 539,944.5 559.8,1022.8 549.2,946.7 727.8,910.5 720.8,948.3 735.7,905.7 775.6,844.8 
			733.4,895.7 602.2,820.7 720.4,899.1 552.2,933.6 585,858.8 540.7,931.3 		"/>
		<polygon class="st7" points="475.7,882.5 578.1,842.9 585,858.8 602.2,820.7 		"/>
		<polygon class="st7" points="563.1,908.6 616.4,864.7 690.1,879 602.2,820.7 		"/>
		<polygon class="st7" points="422.1,908.7 471.3,994.5 539,944.5 		"/>
		<polygon class="st7" points="422.1,908.7 515.7,1025.6 539,944.5 		"/>
		<polygon class="st7" points="559.8,1022.8 563.7,1050.5 700.8,1005.3 704.5,994.9 		"/>
		<polygon class="st7" points="565.2,1061.3 564.1,1053.8 696.5,1017.5 692.9,1027.8 		"/>
	</g>
</g>
</svg>
