<?xml version="1.0" encoding="utf-8"?>
<!-- Generator: Adobe Illustrator 28.1.0, SVG Export Plug-In . SVG Version: 6.00 Build 0)  -->
<svg version="1.1" id="Layer_1" xmlns="http://www.w3.org/2000/svg" xmlns:xlink="http://www.w3.org/1999/xlink" x="0px" y="0px"
	 viewBox="0 0 1080 1080" style="enable-background:new 0 0 1080 1080;" xml:space="preserve">
<style type="text/css">
	.st0{fill:#123B66;}
	.st1{fill:url(#SVGID_1_);}
	.st2{fill:url(#SVGID_00000072988367636984524450000013217843569185300362_);}
	.st3{fill:url(#SVGID_00000177468504633182110690000001316153820236267680_);}
	.st4{fill:url(#SVGID_00000067919971053630838740000003995324107390568885_);}
	.st5{fill:url(#SVGID_00000082344065114686808100000016048693649641853618_);}
	.st6{fill:url(#SVGID_00000090990722816883620020000010627117510925111223_);}
	.st7{opacity:0.1;fill:#FFFFFF;enable-background:new    ;}
	.st8{opacity:0.5;fill:#C4AEFF;enable-background:new    ;}
	.st9{fill:url(#SVGID_00000098212681247155499120000016291066214158403262_);}
	.st10{fill:url(#SVGID_00000152239931819430189620000002206327426339403180_);}
	.st11{fill:url(#SVGID_00000048485354953185312410000000518088788797104805_);}
	.st12{fill:url(#SVGID_00000083089803847380053320000003755308068461103293_);}
	.st13{fill:url(#SVGID_00000106127546930327144160000014927120685862437521_);}
	.st14{fill:url(#SVGID_00000093890099018921318840000011479407290330205345_);}
</style>
<g>
	<polygon class="st0" points="829.6,1062.2 1019.8,758.2 937,126.7 796.7,76.8 481.1,76.8 389.4,116 365.2,881.9 	"/>
	
		<linearGradient id="SVGID_1_" gradientUnits="userSpaceOnUse" x1="-1687.1995" y1="-3467.5867" x2="-1420.0994" y2="-3467.5867" gradientTransform="matrix(-1 0 0 -1 -667.3994 -2648.3867)">
		<stop  offset="0" style="stop-color:#D3C2FF"/>
		<stop  offset="1" style="stop-color:#6C73FF"/>
	</linearGradient>
	<polygon class="st1" points="829.6,1062.2 1019.8,758.2 752.7,576.2 	"/>
	
		<linearGradient id="SVGID_00000117653683752292249190000016850922417651952774_" gradientUnits="userSpaceOnUse" x1="-1496.9994" y1="-3467.5867" x2="-1148.4994" y2="-3467.5867" gradientTransform="matrix(-1 0 0 -1 -667.3994 -2648.3867)">
		<stop  offset="0" style="stop-color:#D3C2FF"/>
		<stop  offset="1" style="stop-color:#6C73FF"/>
	</linearGradient>
	<polygon style="fill:url(#SVGID_00000117653683752292249190000016850922417651952774_);" points="752.7,576.2 481.1,687.7 
		829.6,1062.2 	"/>
	
		<linearGradient id="SVGID_00000049926150256190765790000009950404625707216788_" gradientUnits="userSpaceOnUse" x1="-1496.9994" y1="-3523.3367" x2="-1032.5994" y2="-3523.3367" gradientTransform="matrix(-1 0 0 -1 -667.3994 -2648.3867)">
		<stop  offset="0" style="stop-color:#D3C2FF"/>
		<stop  offset="1" style="stop-color:#6C73FF"/>
	</linearGradient>
	<polygon style="fill:url(#SVGID_00000049926150256190765790000009950404625707216788_);" points="481.1,687.7 365.2,881.9 
		829.6,1062.2 	"/>
	
		<linearGradient id="SVGID_00000109716656892292745530000000029656514464259712_" gradientUnits="userSpaceOnUse" x1="-1553.6494" y1="-3406.5867" x2="-1553.6494" y2="-2725.1868" gradientTransform="matrix(-1 0 0 -1 -667.3994 -2648.3867)">
		<stop  offset="0" style="stop-color:#6C73FF"/>
		<stop  offset="0.1239" style="stop-color:#6870F8"/>
		<stop  offset="0.3067" style="stop-color:#5C68E4"/>
		<stop  offset="0.5259" style="stop-color:#495AC3"/>
		<stop  offset="0.7711" style="stop-color:#2F4796"/>
		<stop  offset="1" style="stop-color:#123B66"/>
	</linearGradient>
	<polygon style="fill:url(#SVGID_00000109716656892292745530000000029656514464259712_);" points="1019.8,758.2 937,126.7 
		796.7,76.8 752.7,576.2 	"/>
	
		<linearGradient id="SVGID_00000067929314227919618130000012852293846330145935_" gradientUnits="userSpaceOnUse" x1="-1306.8994" y1="-3336.0867" x2="-1306.8994" y2="-2725.1868" gradientTransform="matrix(-1 0 0 -1 -667.3994 -2648.3867)">
		<stop  offset="0" style="stop-color:#6C73FF"/>
		<stop  offset="1" style="stop-color:#123B66"/>
	</linearGradient>
	<polygon style="fill:url(#SVGID_00000067929314227919618130000012852293846330145935_);" points="753,576.2 481.8,687.7 
		481.8,76.8 797.2,76.8 	"/>
	
		<linearGradient id="SVGID_00000007414530997677309870000004022105810998870180_" gradientUnits="userSpaceOnUse" x1="-1091.0994" y1="-3530.2866" x2="-1091.0994" y2="-2725.1868" gradientTransform="matrix(-1 0 0 -1 -667.3994 -2648.3867)">
		<stop  offset="0" style="stop-color:#6C73FF"/>
		<stop  offset="0.1967" style="stop-color:#6A72FC"/>
		<stop  offset="0.3579" style="stop-color:#646DF2"/>
		<stop  offset="0.5066" style="stop-color:#5A66E0"/>
		<stop  offset="0.6477" style="stop-color:#4C5CC8"/>
		<stop  offset="0.7835" style="stop-color:#3A4FA9"/>
		<stop  offset="0.9135" style="stop-color:#234184"/>
		<stop  offset="1" style="stop-color:#123B66"/>
	</linearGradient>
	<polygon style="fill:url(#SVGID_00000007414530997677309870000004022105810998870180_);" points="481.8,76.8 389.8,116 
		365.6,881.9 481.8,687.7 	"/>
	<polygon class="st7" points="1019.8,758.2 752.7,576.2 481.1,687.7 365.2,881.9 493,729.1 829.6,1062.2 517.3,713.8 743.8,639 
		819.8,1000.6 774.2,647.1 	"/>
	<polygon class="st8" points="772,356.6 812.7,617 752.7,576.2 	"/>
	<polygon class="st7" points="752.7,576.2 597.4,156.9 481.1,687.7 	"/>
	<polygon class="st7" points="701.9,597 582.3,399.1 535.1,665.6 	"/>
	<polygon class="st7" points="481.8,532.3 373.1,641.9 375.7,563.7 481.8,370.2 	"/>
	<polygon class="st8" points="481.8,311 377.7,495.3 380.1,427.1 481.8,109.7 	"/>
</g>
<g>
	
		<linearGradient id="SVGID_00000023276372915877644430000006663734016957469097_" gradientUnits="userSpaceOnUse" x1="47.0218" y1="-3221.905" x2="47.0218" y2="-2966.9507" gradientTransform="matrix(0.9986 -5.210000e-02 -5.210000e-02 -0.9986 0.9869 -2683.8813)">
		<stop  offset="0" style="stop-color:#D3C2FF"/>
		<stop  offset="1" style="stop-color:#6C73FF"/>
	</linearGradient>
	<polygon style="fill:url(#SVGID_00000023276372915877644430000006663734016957469097_);" points="21.9,337.3 399.1,521.5 
		286.2,272.1 	"/>
	
		<linearGradient id="SVGID_00000134236586505244309710000001944411413822599344_" gradientUnits="userSpaceOnUse" x1="324.8997" y1="-3221.905" x2="324.8997" y2="-2966.9507" gradientTransform="matrix(0.9986 -5.210000e-02 -5.210000e-02 -0.9986 0.9869 -2683.8813)">
		<stop  offset="0" style="stop-color:#D3C2FF"/>
		<stop  offset="0.2522" style="stop-color:#B39AFF"/>
		<stop  offset="0.4869" style="stop-color:#AB98FF"/>
		<stop  offset="0.7146" style="stop-color:#988FFF"/>
		<stop  offset="0.9369" style="stop-color:#7578FF"/>
		<stop  offset="1" style="stop-color:#6C73FF"/>
	</linearGradient>
	<polygon style="fill:url(#SVGID_00000134236586505244309710000001944411413822599344_);" points="286.2,272.1 399.1,521.5 
		678.6,343.5 	"/>
	
		<linearGradient id="SVGID_00000018927676833787663240000010011505400364770191_" gradientUnits="userSpaceOnUse" x1="413.1987" y1="-3221.905" x2="413.1987" y2="-3058.7024" gradientTransform="matrix(0.9986 -5.210000e-02 -5.210000e-02 -0.9986 0.9869 -2683.8813)">
		<stop  offset="0" style="stop-color:#D3C2FF"/>
		<stop  offset="1" style="stop-color:#6C73FF"/>
	</linearGradient>
	<polygon style="fill:url(#SVGID_00000018927676833787663240000010011505400364770191_);" points="399.1,521.5 762.2,471.1 
		678.6,343.5 	"/>
	
		<linearGradient id="SVGID_00000174570811448403273840000001939822166413753756_" gradientUnits="userSpaceOnUse" x1="21.3953" y1="-3018.2937" x2="21.3953" y2="-2714.8247" gradientTransform="matrix(0.9986 -5.210000e-02 -5.210000e-02 -0.9986 0.9869 -2683.8813)">
		<stop  offset="0" style="stop-color:#6C73FF"/>
		<stop  offset="1" style="stop-color:#123B66"/>
	</linearGradient>
	<polygon style="fill:url(#SVGID_00000174570811448403273840000001939822166413753756_);" points="21.9,337.3 134.1,65.5 
		321.5,17.8 286.2,272.1 	"/>
	
		<linearGradient id="SVGID_00000092440526925084868450000015951239357095848091_" gradientUnits="userSpaceOnUse" x1="324.8997" y1="-3058.7024" x2="324.8997" y2="-2714.8247" gradientTransform="matrix(0.9986 -5.210000e-02 -5.210000e-02 -0.9986 0.9869 -2683.8813)">
		<stop  offset="0" style="stop-color:#6C73FF"/>
		<stop  offset="9.860164e-02" style="stop-color:#5E69E7"/>
		<stop  offset="0.3088" style="stop-color:#4356B9"/>
		<stop  offset="0.5103" style="stop-color:#2E4695"/>
		<stop  offset="0.698" style="stop-color:#1E3F7B"/>
		<stop  offset="0.8666" style="stop-color:#153C6B"/>
		<stop  offset="1" style="stop-color:#123B66"/>
	</linearGradient>
	<polygon style="fill:url(#SVGID_00000092440526925084868450000015951239357095848091_);" points="321.5,17.8 286.2,272.1 
		678.6,343.5 574,45.1 	"/>
	
		<linearGradient id="SVGID_00000098913003224073721930000011526815390780739000_" gradientUnits="userSpaceOnUse" x1="512.9448" y1="-3190.4905" x2="512.9448" y2="-2755.2451" gradientTransform="matrix(0.9986 -5.210000e-02 -5.210000e-02 -0.9986 0.9869 -2683.8813)">
		<stop  offset="0" style="stop-color:#6C73FF"/>
		<stop  offset="1" style="stop-color:#123B66"/>
	</linearGradient>
	<polygon style="fill:url(#SVGID_00000098913003224073721930000011526815390780739000_);" points="762.2,471.1 678.6,343.5 
		574,45.1 608.1,60.6 	"/>
	<polygon class="st8" points="21.9,337.3 266.8,262.4 310.3,98.4 288.2,257.8 662.1,333.6 647.3,254.3 678.6,343.5 762.2,471.1 
		673.7,364.5 399.1,521.5 646.5,357.3 294.3,285.2 363,441.7 270.2,289.9 	"/>
	<polygon class="st7" points="134.1,392.1 348.5,475.1 363,441.7 399.1,521.5 	"/>
	<polygon class="st7" points="317.2,337.4 428.8,429.5 583.1,399.4 399.1,521.5 	"/>
	<polygon class="st7" points="21.9,337.3 124.9,157.7 266.8,262.4 	"/>
	<polygon class="st7" points="21.9,337.3 217.9,92.5 266.8,262.4 	"/>
	<polygon class="st7" points="310.3,98.4 318.4,40.3 605.5,135 613.2,156.9 	"/>
	<polygon class="st7" points="321.5,17.8 319.4,33.4 596.5,109.4 589,87.8 	"/>
</g>
</svg>
