<?xml version="1.0" encoding="utf-8"?>
<!-- Generator: Adobe Illustrator 28.0.0, SVG Export Plug-In . SVG Version: 6.00 Build 0)  -->
<svg version="1.1" id="Layer_1" xmlns="http://www.w3.org/2000/svg" xmlns:xlink="http://www.w3.org/1999/xlink" x="0px" y="0px"
	 viewBox="0 0 1080 1080" style="enable-background:new 0 0 1080 1080;" xml:space="preserve">
<style type="text/css">
	.st0{fill:#516612;}
	.st1{fill:url(#SVGID_1_);}
	.st2{fill:url(#SVGID_00000082364971714854030160000007078099572132157613_);}
	.st3{fill:url(#SVGID_00000100365482470098485530000004526706111904719232_);}
	.st4{fill:url(#SVGID_00000122689607671337684370000012732520098391124415_);}
	.st5{fill:url(#SVGID_00000055695551438936773700000009463586190566911664_);}
	.st6{fill:url(#SVGID_00000120529901947669523690000017332121017628342439_);}
	.st7{opacity:0.1;fill:#FFFFFF;}
	.st8{opacity:0.5;fill:#D7FFE0;}
	.st9{fill:url(#SVGID_00000049220267360612025940000005186498974005563559_);}
	.st10{fill:url(#SVGID_00000164472533274824641740000015453616897336340099_);}
	.st11{fill:url(#SVGID_00000026845627425312679280000001029866032615194784_);}
	.st12{fill:url(#SVGID_00000092440951277793135980000003245067786065103769_);}
	.st13{fill:url(#SVGID_00000100378899907201047450000000376158265405780871_);}
	.st14{fill:url(#SVGID_00000013165953754379265600000014330041965131504527_);}
</style>
<g>
	<polygon class="st0" points="829.6,1062.2 1019.8,758.2 937,126.7 796.7,76.8 481.1,76.8 389.4,116 365.2,881.9 	"/>
	
		<linearGradient id="SVGID_1_" gradientUnits="userSpaceOnUse" x1="-1687.1539" y1="-3467.5852" x2="-1420.1055" y2="-3467.5852" gradientTransform="matrix(-1 0 0 -1 -667.3994 -2648.3867)">
		<stop  offset="0" style="stop-color:#9AFFB1"/>
		<stop  offset="1" style="stop-color:#91FF6C"/>
	</linearGradient>
	<polygon class="st1" points="829.6,1062.2 1019.8,758.2 752.7,576.2 	"/>
	
		<linearGradient id="SVGID_00000041266537800094684560000008146805263977629880_" gradientUnits="userSpaceOnUse" x1="-1496.983" y1="-3467.5852" x2="-1148.5316" y2="-3467.5852" gradientTransform="matrix(-1 0 0 -1 -667.3994 -2648.3867)">
		<stop  offset="0" style="stop-color:#9AFFB1"/>
		<stop  offset="1" style="stop-color:#91FF6C"/>
	</linearGradient>
	<polygon style="fill:url(#SVGID_00000041266537800094684560000008146805263977629880_);" points="752.7,576.2 481.1,687.7 
		829.6,1062.2 	"/>
	
		<linearGradient id="SVGID_00000162326847992995887220000005838118213361600181_" gradientUnits="userSpaceOnUse" x1="-1496.983" y1="-3523.3762" x2="-1032.5524" y2="-3523.3762" gradientTransform="matrix(-1 0 0 -1 -667.3994 -2648.3867)">
		<stop  offset="0" style="stop-color:#9AFFB1"/>
		<stop  offset="1" style="stop-color:#91FF6C"/>
	</linearGradient>
	<polygon style="fill:url(#SVGID_00000162326847992995887220000005838118213361600181_);" points="481.1,687.7 365.2,881.9 
		829.6,1062.2 	"/>
	
		<linearGradient id="SVGID_00000060025421594555350060000012274658734477936573_" gradientUnits="userSpaceOnUse" x1="-1553.6296" y1="-3406.6313" x2="-1553.6296" y2="-2725.1621" gradientTransform="matrix(-1 0 0 -1 -667.3994 -2648.3867)">
		<stop  offset="0" style="stop-color:#91FF6C"/>
		<stop  offset="0.1239" style="stop-color:#8EF868"/>
		<stop  offset="0.3067" style="stop-color:#86E45C"/>
		<stop  offset="0.5259" style="stop-color:#78C349"/>
		<stop  offset="0.7711" style="stop-color:#65962F"/>
		<stop  offset="1" style="stop-color:#516612"/>
	</linearGradient>
	<polygon style="fill:url(#SVGID_00000060025421594555350060000012274658734477936573_);" points="1019.8,758.2 937,126.7 
		796.7,76.8 752.7,576.2 	"/>
	
		<linearGradient id="SVGID_00000030457639241913770160000005348406203043569323_" gradientUnits="userSpaceOnUse" x1="-1306.8938" y1="-3336.1367" x2="-1306.8938" y2="-2725.1621" gradientTransform="matrix(-1 0 0 -1 -667.3994 -2648.3867)">
		<stop  offset="0" style="stop-color:#91FF6C"/>
		<stop  offset="1" style="stop-color:#516612"/>
	</linearGradient>
	<polygon style="fill:url(#SVGID_00000030457639241913770160000005348406203043569323_);" points="753,576.2 481.8,687.7 
		481.8,76.8 797.2,76.8 	"/>
	
		<linearGradient id="SVGID_00000069365430446950938680000012245669824458360254_" gradientUnits="userSpaceOnUse" x1="-1091.121" y1="-3530.3311" x2="-1091.121" y2="-2725.2297" gradientTransform="matrix(-1 0 0 -1 -667.3994 -2648.3867)">
		<stop  offset="0" style="stop-color:#91FF6C"/>
		<stop  offset="0.1967" style="stop-color:#90FC6A"/>
		<stop  offset="0.3579" style="stop-color:#8BF264"/>
		<stop  offset="0.5066" style="stop-color:#84E05A"/>
		<stop  offset="0.6477" style="stop-color:#7AC84C"/>
		<stop  offset="0.7835" style="stop-color:#6DA93A"/>
		<stop  offset="0.9135" style="stop-color:#5D8423"/>
		<stop  offset="1" style="stop-color:#516612"/>
	</linearGradient>
	<polygon style="fill:url(#SVGID_00000069365430446950938680000012245669824458360254_);" points="481.8,76.8 389.8,116 
		365.6,881.9 481.8,687.7 	"/>
	<polygon class="st7" points="1019.8,758.2 752.7,576.2 481.1,687.7 365.2,881.9 493,729.1 829.6,1062.2 517.3,713.8 743.8,639 
		819.8,1000.6 774.2,647.1 	"/>
	<polygon class="st8" points="772,356.6 812.7,617 752.7,576.2 	"/>
	<polygon class="st7" points="752.7,576.2 597.4,156.9 481.1,687.7 	"/>
	<polygon class="st7" points="701.9,597 582.3,399.1 535.1,665.6 	"/>
	<polygon class="st7" points="481.8,532.3 373.1,641.9 375.7,563.7 481.8,370.2 	"/>
	<polygon class="st8" points="481.8,311 377.7,495.3 380.1,427.1 481.8,109.7 	"/>
</g>
<g>
	
		<linearGradient id="SVGID_00000108310911893323509890000003618243011710592696_" gradientUnits="userSpaceOnUse" x1="47.0253" y1="-3221.887" x2="47.0253" y2="-2966.9924" gradientTransform="matrix(0.9986 -5.210000e-02 -5.210000e-02 -0.9986 0.9869 -2683.8813)">
		<stop  offset="0" style="stop-color:#9AFFB1"/>
		<stop  offset="1" style="stop-color:#91FF6C"/>
	</linearGradient>
	<polygon style="fill:url(#SVGID_00000108310911893323509890000003618243011710592696_);" points="21.9,337.3 399.1,521.5 
		286.2,272.1 	"/>
	
		<linearGradient id="SVGID_00000031180044519865802970000018398523906153626771_" gradientUnits="userSpaceOnUse" x1="324.8839" y1="-3221.887" x2="324.8839" y2="-2966.9924" gradientTransform="matrix(0.9986 -5.210000e-02 -5.210000e-02 -0.9986 0.9869 -2683.8813)">
		<stop  offset="0" style="stop-color:#9AFFB1"/>
		<stop  offset="0.2522" style="stop-color:#9AFFAD"/>
		<stop  offset="0.4869" style="stop-color:#98FFA2"/>
		<stop  offset="0.7146" style="stop-color:#96FF8F"/>
		<stop  offset="0.9369" style="stop-color:#92FF75"/>
		<stop  offset="1" style="stop-color:#91FF6C"/>
	</linearGradient>
	<polygon style="fill:url(#SVGID_00000031180044519865802970000018398523906153626771_);" points="286.2,272.1 399.1,521.5 
		678.6,343.5 	"/>
	
		<linearGradient id="SVGID_00000007402655419931720440000007509489564892241580_" gradientUnits="userSpaceOnUse" x1="413.2151" y1="-3221.887" x2="413.2151" y2="-3058.7065" gradientTransform="matrix(0.9986 -5.210000e-02 -5.210000e-02 -0.9986 0.9869 -2683.8813)">
		<stop  offset="0" style="stop-color:#9AFFB1"/>
		<stop  offset="1" style="stop-color:#91FF6C"/>
	</linearGradient>
	<polygon style="fill:url(#SVGID_00000007402655419931720440000007509489564892241580_);" points="399.1,521.5 762.2,471.1 
		678.6,343.5 	"/>
	
		<linearGradient id="SVGID_00000111880207342009955360000011266528043599065488_" gradientUnits="userSpaceOnUse" x1="21.4075" y1="-3018.2661" x2="21.4075" y2="-2714.7976" gradientTransform="matrix(0.9986 -5.210000e-02 -5.210000e-02 -0.9986 0.9869 -2683.8813)">
		<stop  offset="0" style="stop-color:#91FF6C"/>
		<stop  offset="1" style="stop-color:#516612"/>
	</linearGradient>
	<polygon style="fill:url(#SVGID_00000111880207342009955360000011266528043599065488_);" points="21.9,337.3 134.1,65.5 
		321.5,17.8 286.2,272.1 	"/>
	
		<linearGradient id="SVGID_00000091707152770475131400000015298687289078723257_" gradientUnits="userSpaceOnUse" x1="324.8839" y1="-3058.7065" x2="324.8839" y2="-2714.7976" gradientTransform="matrix(0.9986 -5.210000e-02 -5.210000e-02 -0.9986 0.9869 -2683.8813)">
		<stop  offset="0" style="stop-color:#91FF6C"/>
		<stop  offset="9.860164e-02" style="stop-color:#87E75E"/>
		<stop  offset="0.3088" style="stop-color:#74B943"/>
		<stop  offset="0.5103" style="stop-color:#65952E"/>
		<stop  offset="0.698" style="stop-color:#5A7B1E"/>
		<stop  offset="0.8666" style="stop-color:#536B15"/>
		<stop  offset="1" style="stop-color:#516612"/>
	</linearGradient>
	<polygon style="fill:url(#SVGID_00000091707152770475131400000015298687289078723257_);" points="321.5,17.8 286.2,272.1 
		678.6,343.5 574,45.1 	"/>
	
		<linearGradient id="SVGID_00000124877646127340103960000013348569763310831010_" gradientUnits="userSpaceOnUse" x1="512.9578" y1="-3190.5369" x2="512.9578" y2="-2755.2627" gradientTransform="matrix(0.9986 -5.210000e-02 -5.210000e-02 -0.9986 0.9869 -2683.8813)">
		<stop  offset="0" style="stop-color:#91FF6C"/>
		<stop  offset="1" style="stop-color:#516612"/>
	</linearGradient>
	<polygon style="fill:url(#SVGID_00000124877646127340103960000013348569763310831010_);" points="762.2,471.1 678.6,343.5 
		574,45.1 608.1,60.6 	"/>
	<polygon class="st8" points="21.9,337.3 266.8,262.4 310.3,98.4 288.2,257.8 662.1,333.6 647.3,254.3 678.6,343.5 762.2,471.1 
		673.7,364.5 399.1,521.5 646.5,357.3 294.3,285.2 363,441.7 270.2,289.9 	"/>
	<polygon class="st7" points="134.1,392.1 348.5,475.1 363,441.7 399.1,521.5 	"/>
	<polygon class="st7" points="317.2,337.4 428.8,429.5 583.1,399.4 399.1,521.5 	"/>
	<polygon class="st7" points="21.9,337.3 124.9,157.7 266.8,262.4 	"/>
	<polygon class="st7" points="21.9,337.3 217.9,92.5 266.8,262.4 	"/>
	<polygon class="st7" points="310.3,98.4 318.4,40.3 605.5,135 613.2,156.9 	"/>
	<polygon class="st7" points="321.5,17.8 319.4,33.4 596.5,109.4 589,87.8 	"/>
</g>
</svg>
