<?xml version="1.0" encoding="utf-8"?>
<!-- Generator: Adobe Illustrator 28.1.0, SVG Export Plug-In . SVG Version: 6.00 Build 0)  -->
<svg version="1.1" id="Layer_1" xmlns="http://www.w3.org/2000/svg" xmlns:xlink="http://www.w3.org/1999/xlink" x="0px" y="0px"
	 viewBox="0 0 1080 1080" style="enable-background:new 0 0 1080 1080;" xml:space="preserve">
<style type="text/css">
	.st0{fill:url(#SVGID_1_);}
	.st1{fill:url(#SVGID_00000019662040457782364760000016348630119163824043_);}
	.st2{fill:url(#SVGID_00000149353774803236731850000006430824451489055121_);}
	.st3{fill:url(#SVGID_00000036218840118359110800000008609304852183977601_);}
	.st4{opacity:0.5;fill:#DBD7FF;enable-background:new    ;}
	.st5{opacity:0.1;fill:#FFFFFF;enable-background:new    ;}
	.st6{fill:#125366;}
	.st7{fill:url(#SVGID_00000112598353686664809230000007221607397093371535_);}
	.st8{fill:url(#SVGID_00000111151736381999298880000008489329049586754495_);}
	.st9{fill:url(#SVGID_00000154408587932128023320000006411249965528775602_);}
	.st10{fill:url(#SVGID_00000180367127933602004720000012024331073411540354_);}
	.st11{fill:url(#SVGID_00000016057721156013821000000001894555883224540584_);}
	.st12{opacity:0.2;fill:#FFFFFF;enable-background:new    ;}
	.st13{opacity:0.3;fill:#DBD7FF;enable-background:new    ;}
	.st14{fill:url(#SVGID_00000074400148989912463590000003097384831412815765_);}
	.st15{fill:url(#SVGID_00000031200972282312251460000000423009912148242316_);}
	.st16{fill:url(#SVGID_00000180344549808822996090000015712973815832268960_);}
	.st17{fill:url(#SVGID_00000164474140409797052380000012151962271373704099_);}
	.st18{fill:url(#SVGID_00000058546838000825226500000005271926409322001029_);}
	.st19{fill:url(#SVGID_00000065076692021576891860000018345399612053207191_);}
</style>
<g>
	
		<linearGradient id="SVGID_1_" gradientUnits="userSpaceOnUse" x1="179.9263" y1="-3890.3875" x2="179.9263" y2="-3664.7192" gradientTransform="matrix(0.9879 -0.1553 -0.1553 -0.9879 -105.055 -2741.3245)">
		<stop  offset="0" style="stop-color:#A59AFF"/>
		<stop  offset="1" style="stop-color:#6C8BFF"/>
	</linearGradient>
	<polygon class="st0" points="691.8,1071.7 629.4,946.6 668.6,846.9 	"/>
	
		<linearGradient id="SVGID_00000021824360050550416220000016131060017770503596_" gradientUnits="userSpaceOnUse" x1="230.1782" y1="-3890.3875" x2="230.1782" y2="-3664.7192" gradientTransform="matrix(0.9879 -0.1553 -0.1553 -0.9879 -105.055 -2741.3245)">
		<stop  offset="0" style="stop-color:#A59AFF"/>
		<stop  offset="1" style="stop-color:#6C8BFF"/>
	</linearGradient>
	<polygon style="fill:url(#SVGID_00000021824360050550416220000016131060017770503596_);" points="668.6,846.9 742.4,941 
		691.8,1071.7 	"/>
	
		<linearGradient id="SVGID_00000165222713061977269160000000429591876171736204_" gradientUnits="userSpaceOnUse" x1="157.8093" y1="-3757.1191" x2="157.8093" y2="-2820.5208" gradientTransform="matrix(0.9879 -0.1553 -0.1553 -0.9879 -105.055 -2741.3245)">
		<stop  offset="0" style="stop-color:#6C8BFF"/>
		<stop  offset="0.13" style="stop-color:#6585F3"/>
		<stop  offset="0.3622" style="stop-color:#5378D5"/>
		<stop  offset="0.6698" style="stop-color:#3666A3"/>
		<stop  offset="1" style="stop-color:#125366"/>
	</linearGradient>
	<polygon style="fill:url(#SVGID_00000165222713061977269160000000429591876171736204_);" points="629.4,946.6 443.3,48.3 
		537.6,12.9 668.6,846.9 	"/>
	
		<linearGradient id="SVGID_00000101798583933716649330000012529662309478577066_" gradientUnits="userSpaceOnUse" x1="258.0021" y1="-3769.135" x2="258.0021" y2="-2820.5208" gradientTransform="matrix(0.9879 -0.1553 -0.1553 -0.9879 -105.055 -2741.3245)">
		<stop  offset="0" style="stop-color:#6C8BFF"/>
		<stop  offset="0.2354" style="stop-color:#597BDF"/>
		<stop  offset="0.748" style="stop-color:#2A6190"/>
		<stop  offset="1" style="stop-color:#125366"/>
	</linearGradient>
	<polygon style="fill:url(#SVGID_00000101798583933716649330000012529662309478577066_);" points="537.6,12.9 643.1,28.2 742.4,941 
		668.6,846.9 	"/>
	<polygon class="st4" points="629.4,946.6 666.8,876.5 691.8,1071.7 677.5,878.5 742.4,941 677.8,858.6 548.5,69.9 663.4,860.1 	"/>
	<polygon class="st5" points="603.6,823.1 653.2,791 629.4,640 591.4,763.1 	"/>
	<polygon class="st5" points="564.8,635.7 602.7,443.8 550.6,112.9 529,462 	"/>
	<polygon class="st5" points="695.9,881.7 652.2,532 658.6,171.2 742.4,941 	"/>
	<polygon class="st5" points="650.5,988.9 670.2,1007 656.2,942.4 682.1,995.7 691.8,1071.7 	"/>
	<polygon class="st5" points="691.8,1071.7 692.7,986.6 738.9,950.1 	"/>
</g>
<g>
	<polygon class="st6" points="844.2,932.8 713.1,708.5 731.4,53.5 766.2,34.7 844.2,26.3 908.2,67.5 922,649.3 	"/>
	
		<linearGradient id="SVGID_00000041283508905485668480000016404206389899294392_" gradientUnits="userSpaceOnUse" x1="784.7" y1="-3581.1868" x2="784.7" y2="-3278.4868" gradientTransform="matrix(1 0 0 -1 0 -2648.3867)">
		<stop  offset="0" style="stop-color:#A59AFF"/>
		<stop  offset="1" style="stop-color:#6C8BFF"/>
	</linearGradient>
	<polygon style="fill:url(#SVGID_00000041283508905485668480000016404206389899294392_);" points="856.3,672.1 751.3,630.1 
		713.1,708.5 773.8,812.2 844.2,932.8 849.1,827.6 	"/>
	
		<linearGradient id="SVGID_00000138565391850353798450000002677110784004042399_" gradientUnits="userSpaceOnUse" x1="844.2" y1="-3439.4368" x2="922" y2="-3439.4368" gradientTransform="matrix(1 0 0 -1 0 -2648.3867)">
		<stop  offset="0" style="stop-color:#A59AFF"/>
		<stop  offset="1" style="stop-color:#6C8BFF"/>
	</linearGradient>
	<polygon style="fill:url(#SVGID_00000138565391850353798450000002677110784004042399_);" points="922,649.3 856.3,672.1 
		847.2,869.4 844.2,932.8 870.9,835.8 	"/>
	
		<linearGradient id="SVGID_00000018198803869349446650000000886410799329502895_" gradientUnits="userSpaceOnUse" x1="739.65" y1="-3356.8867" x2="739.65" y2="-2683.0867" gradientTransform="matrix(1 0 0 -1 0 -2648.3867)">
		<stop  offset="0" style="stop-color:#6C8BFF"/>
		<stop  offset="1" style="stop-color:#125366"/>
	</linearGradient>
	<polygon style="fill:url(#SVGID_00000018198803869349446650000000886410799329502895_);" points="766.2,34.7 739.4,49.1 
		731.4,53.5 718.8,505.6 713.1,708.5 751.3,630.1 	"/>
	
		<linearGradient id="SVGID_00000162339475722377872150000014678924842040167580_" gradientUnits="userSpaceOnUse" x1="803.75" y1="-3320.4868" x2="803.75" y2="-2674.6868" gradientTransform="matrix(1 0 0 -1 0 -2648.3867)">
		<stop  offset="0" style="stop-color:#6C8BFF"/>
		<stop  offset="8.537828e-02" style="stop-color:#6282EE"/>
		<stop  offset="0.3984" style="stop-color:#406EB4"/>
		<stop  offset="0.6662" style="stop-color:#275F8A"/>
		<stop  offset="0.8753" style="stop-color:#185670"/>
		<stop  offset="1" style="stop-color:#125366"/>
	</linearGradient>
	<polygon style="fill:url(#SVGID_00000162339475722377872150000014678924842040167580_);" points="856.2,672.1 855.8,635.7 
		855.8,635.6 854.8,564.9 854.8,564.7 852.8,504 852.8,504 850.7,365.1 850.7,365.1 845.6,109.1 845.6,109 844.1,26.3 766.7,34.7 
		766.4,71.7 766.4,71.7 759.2,301.8 759.2,301.8 759.1,311.9 755.9,444.9 753.8,527.6 751.8,610.3 751.3,630.1 	"/>
	
		<linearGradient id="SVGID_00000060015347419774163530000015633327756596856226_" gradientUnits="userSpaceOnUse" x1="883.1" y1="-3320.4868" x2="883.1" y2="-2674.6868" gradientTransform="matrix(1 0 0 -1 0 -2648.3867)">
		<stop  offset="0" style="stop-color:#6C8BFF"/>
		<stop  offset="0.13" style="stop-color:#6585F3"/>
		<stop  offset="0.3622" style="stop-color:#5378D5"/>
		<stop  offset="0.6698" style="stop-color:#3666A3"/>
		<stop  offset="1" style="stop-color:#125366"/>
	</linearGradient>
	<polygon style="fill:url(#SVGID_00000060015347419774163530000015633327756596856226_);" points="922,649.3 908.2,67.5 844.2,26.3 
		856.3,672.1 	"/>
	<polygon class="st5" points="849.1,827.6 793,716.3 773.8,812.2 809.7,873.6 844.2,932.8 847.1,870.4 	"/>
	<polygon class="st4" points="847.1,870.4 822.1,845.5 817.6,872.3 806.4,862.6 809.7,873.6 844.2,932.8 	"/>
	<polygon class="st4" points="870.9,835.8 862.6,829.4 847.2,869.4 844.2,932.8 	"/>
	<polygon class="st5" points="869.2,667.6 922,649.3 856.3,692.2 855.4,691.8 751.3,650.2 713.1,708.5 751.3,630.8 849,669.9 
		852.4,461.9 	"/>
	<polygon class="st12" points="739.7,486 739.7,49.1 731.5,53.5 719,505.6 	"/>
	<polygon class="st12" points="852.8,504 852.8,504 850.7,365.1 850.7,365.1 759.2,301.8 759.2,301.8 759.1,311.9 755.9,444.9 
		852.9,504 	"/>
	<polygon class="st5" points="850.4,365.1 845.6,109.1 845.6,109.1 845.6,109 765.3,71.7 759.2,301.8 759.2,301.8 759.3,301.8 	"/>
	<polygon class="st13" points="847.8,214.2 912.8,263.7 846.6,157.5 	"/>
</g>
<g>
	
		<linearGradient id="SVGID_00000115485768390434028920000013145410938982579080_" gradientUnits="userSpaceOnUse" x1="130.36" y1="-2958.1631" x2="130.36" y2="-2831.603" gradientTransform="matrix(0.9986 -5.210000e-02 -5.210000e-02 -0.9986 0.9869 -2683.8813)">
		<stop  offset="0" style="stop-color:#A59AFF"/>
		<stop  offset="1" style="stop-color:#6C8BFF"/>
	</linearGradient>
	<polygon style="fill:url(#SVGID_00000115485768390434028920000013145410938982579080_);" points="189,167.1 376.3,258.6 
		320.2,134.8 	"/>
	
		<linearGradient id="SVGID_00000020370381466898715030000013511689393320017310_" gradientUnits="userSpaceOnUse" x1="268.2768" y1="-2958.1631" x2="268.2768" y2="-2831.603" gradientTransform="matrix(0.9986 -5.210000e-02 -5.210000e-02 -0.9986 0.9869 -2683.8813)">
		<stop  offset="0" style="stop-color:#A59AFF"/>
		<stop  offset="0.2522" style="stop-color:#A39AFF"/>
		<stop  offset="0.4869" style="stop-color:#9A98FF"/>
		<stop  offset="0.7146" style="stop-color:#8F98FF"/>
		<stop  offset="0.9369" style="stop-color:#758EFF"/>
		<stop  offset="1" style="stop-color:#6C8BFF"/>
	</linearGradient>
	<polygon style="fill:url(#SVGID_00000020370381466898715030000013511689393320017310_);" points="320.2,134.8 376.3,258.6 
		515,170.2 	"/>
	
		<linearGradient id="SVGID_00000116210009780403886000000016161139947424206267_" gradientUnits="userSpaceOnUse" x1="312.1855" y1="-2958.1631" x2="312.1855" y2="-2877.1064" gradientTransform="matrix(0.9986 -5.210000e-02 -5.210000e-02 -0.9986 0.9869 -2683.8813)">
		<stop  offset="0" style="stop-color:#A59AFF"/>
		<stop  offset="1" style="stop-color:#6C8BFF"/>
	</linearGradient>
	<polygon style="fill:url(#SVGID_00000116210009780403886000000016161139947424206267_);" points="376.3,258.6 556.6,233.6 
		515,170.2 	"/>
	
		<linearGradient id="SVGID_00000174579195175882948510000008197437344788423834_" gradientUnits="userSpaceOnUse" x1="117.651" y1="-2857.0244" x2="117.651" y2="-2706.3862" gradientTransform="matrix(0.9986 -5.210000e-02 -5.210000e-02 -0.9986 0.9869 -2683.8813)">
		<stop  offset="0" style="stop-color:#6C8BFF"/>
		<stop  offset="1" style="stop-color:#125366"/>
	</linearGradient>
	<polygon style="fill:url(#SVGID_00000174579195175882948510000008197437344788423834_);" points="189,167.1 244.7,32.2 337.8,8.5 
		320.2,134.8 	"/>
	
		<linearGradient id="SVGID_00000008136013599292098760000004853502076565867167_" gradientUnits="userSpaceOnUse" x1="268.2768" y1="-2877.1064" x2="268.2768" y2="-2706.3862" gradientTransform="matrix(0.9986 -5.210000e-02 -5.210000e-02 -0.9986 0.9869 -2683.8813)">
		<stop  offset="0" style="stop-color:#6C8BFF"/>
		<stop  offset="9.860164e-02" style="stop-color:#5E7FE7"/>
		<stop  offset="0.3088" style="stop-color:#436FB9"/>
		<stop  offset="0.5103" style="stop-color:#2E6395"/>
		<stop  offset="0.698" style="stop-color:#1E5B7B"/>
		<stop  offset="0.8666" style="stop-color:#15556B"/>
		<stop  offset="1" style="stop-color:#125366"/>
	</linearGradient>
	<polygon style="fill:url(#SVGID_00000008136013599292098760000004853502076565867167_);" points="337.8,8.5 320.2,134.8 515,170.2 
		463.1,22.1 	"/>
	
		<linearGradient id="SVGID_00000152949725734034649800000005295661759775317664_" gradientUnits="userSpaceOnUse" x1="361.6897" y1="-2942.5903" x2="361.6897" y2="-2726.4971" gradientTransform="matrix(0.9986 -5.210000e-02 -5.210000e-02 -0.9986 0.9869 -2683.8813)">
		<stop  offset="0" style="stop-color:#6C8BFF"/>
		<stop  offset="1" style="stop-color:#125366"/>
	</linearGradient>
	<polygon style="fill:url(#SVGID_00000152949725734034649800000005295661759775317664_);" points="556.6,233.6 515,170.2 
		463.1,22.1 480.1,29.8 	"/>
	<polygon class="st4" points="189,167.1 310.6,129.9 332.2,48.5 321.2,127.6 506.9,165.3 499.5,125.9 515,170.2 556.6,233.6 
		512.6,180.6 376.3,258.6 499.1,177.1 324.3,141.3 358.3,218.9 312.3,143.6 	"/>
	<polygon class="st5" points="244.7,194.3 351.2,235.5 358.3,218.9 376.3,258.6 	"/>
	<polygon class="st5" points="335.6,167.2 391,212.9 467.6,198 376.3,258.6 	"/>
	<polygon class="st5" points="189,167.1 240.2,77.9 310.6,129.9 	"/>
	<polygon class="st5" points="189,167.1 286.3,45.6 310.6,129.9 	"/>
	<polygon class="st5" points="332.2,48.5 336.2,19.7 478.8,66.7 482.6,77.5 	"/>
	<polygon class="st5" points="337.8,8.5 336.7,16.2 474.3,54 470.6,43.3 	"/>
</g>
</svg>
