<?xml version="1.0" encoding="utf-8"?>
<!-- Generator: Adobe Illustrator 28.1.0, SVG Export Plug-In . SVG Version: 6.00 Build 0)  -->
<svg version="1.1" id="Layer_1" xmlns="http://www.w3.org/2000/svg" xmlns:xlink="http://www.w3.org/1999/xlink" x="0px" y="0px"
	 viewBox="0 0 1080 1080" style="enable-background:new 0 0 1080 1080;" xml:space="preserve">
<style type="text/css">
	.st0{fill:#124966;}
	.st1{fill:url(#SVGID_1_);}
	.st2{fill:url(#SVGID_00000035521431209778085070000018373538709041893548_);}
	.st3{fill:url(#SVGID_00000142134054243551976780000006294122860980971400_);}
	.st4{fill:url(#SVGID_00000134939856394551245220000002329682500997589170_);}
	.st5{fill:url(#SVGID_00000059300251996970868300000018238862245077302427_);}
	.st6{fill:url(#SVGID_00000018923185623055410660000003844387102952901547_);}
	.st7{opacity:0.1;fill:#FFFFFF;enable-background:new    ;}
	.st8{opacity:0.5;fill:#DED7FF;enable-background:new    ;}
	.st9{fill:url(#SVGID_00000098213565089234135460000001871257805137307576_);}
	.st10{fill:url(#SVGID_00000023272392816758434180000008010759404428208308_);}
	.st11{fill:url(#SVGID_00000009586215810840852980000006872042423682880951_);}
	.st12{fill:url(#SVGID_00000003098786152589976510000018072344703268864152_);}
	.st13{fill:url(#SVGID_00000074428679116661966280000013479877556396909710_);}
	.st14{opacity:0.2;fill:#FFFFFF;enable-background:new    ;}
	.st15{opacity:0.3;fill:#DED7FF;enable-background:new    ;}
	.st16{fill:url(#SVGID_00000007429533287567479220000005165513037410055856_);}
	.st17{fill:url(#SVGID_00000118391313627387139070000013979781842608142260_);}
	.st18{fill:url(#SVGID_00000120530205742102240780000002206436338627062912_);}
	.st19{fill:url(#SVGID_00000081647106217843741330000012776934383937467830_);}
	.st20{fill:url(#SVGID_00000121255961488609150320000010904712559139915157_);}
	.st21{fill:url(#SVGID_00000034781252524608183990000003753855796821308342_);}
</style>
<g>
	<polygon class="st0" points="291.1,225.5 137.8,470.6 204.6,979.6 317.6,1019.8 572,1019.8 645.9,988.3 665.5,370.8 	"/>
	
		<linearGradient id="SVGID_1_" gradientUnits="userSpaceOnUse" x1="1010.7033" y1="421.4" x2="1226.0033" y2="421.4" gradientTransform="matrix(1 0 0 1 -872.9033 0)">
		<stop  offset="0" style="stop-color:#AB9AFF"/>
		<stop  offset="1" style="stop-color:#6C81FF"/>
	</linearGradient>
	<polygon class="st1" points="291.1,225.5 137.8,470.6 353.1,617.3 	"/>
	
		<linearGradient id="SVGID_00000057834835900358576460000011926928263038335895_" gradientUnits="userSpaceOnUse" x1="1164.0033" y1="421.4" x2="1444.9033" y2="421.4" gradientTransform="matrix(1 0 0 1 -872.9033 0)">
		<stop  offset="0" style="stop-color:#AB9AFF"/>
		<stop  offset="1" style="stop-color:#6C81FF"/>
	</linearGradient>
	<polygon style="fill:url(#SVGID_00000057834835900358576460000011926928263038335895_);" points="353.1,617.3 572,527.4 
		291.1,225.5 	"/>
	
		<linearGradient id="SVGID_00000166663265456016544480000003962234995471383944_" gradientUnits="userSpaceOnUse" x1="1164.0033" y1="376.45" x2="1538.4033" y2="376.45" gradientTransform="matrix(1 0 0 1 -872.9033 0)">
		<stop  offset="0" style="stop-color:#AB9AFF"/>
		<stop  offset="1" style="stop-color:#6C81FF"/>
	</linearGradient>
	<polygon style="fill:url(#SVGID_00000166663265456016544480000003962234995471383944_);" points="572,527.4 665.5,370.8 
		291.1,225.5 	"/>
	
		<linearGradient id="SVGID_00000155827407022848225440000015169485003198367914_" gradientUnits="userSpaceOnUse" x1="1118.3533" y1="470.6" x2="1118.3533" y2="1019.8" gradientTransform="matrix(1 0 0 1 -872.9033 0)">
		<stop  offset="0" style="stop-color:#6C81FF"/>
		<stop  offset="0.1239" style="stop-color:#687EF8"/>
		<stop  offset="0.3067" style="stop-color:#5C75E4"/>
		<stop  offset="0.5259" style="stop-color:#4966C3"/>
		<stop  offset="0.7711" style="stop-color:#2F5796"/>
		<stop  offset="1" style="stop-color:#124966"/>
	</linearGradient>
	<polygon style="fill:url(#SVGID_00000155827407022848225440000015169485003198367914_);" points="137.8,470.6 204.6,979.6 
		317.6,1019.8 353.1,617.3 	"/>
	
		<linearGradient id="SVGID_00000071561088119532479270000009222214610194437794_" gradientUnits="userSpaceOnUse" x1="1317.2034" y1="527.4" x2="1317.2034" y2="1019.8" gradientTransform="matrix(1 0 0 1 -872.9033 0)">
		<stop  offset="0" style="stop-color:#6C81FF"/>
		<stop  offset="1" style="stop-color:#124966"/>
	</linearGradient>
	<polygon style="fill:url(#SVGID_00000071561088119532479270000009222214610194437794_);" points="352.8,617.3 571.4,527.4 
		571.4,1019.8 317.2,1019.8 	"/>
	
		<linearGradient id="SVGID_00000062191000168209699370000007644219004776553605_" gradientUnits="userSpaceOnUse" x1="1491.1033" y1="370.8" x2="1491.1033" y2="1019.8" gradientTransform="matrix(1 0 0 1 -872.9033 0)">
		<stop  offset="0" style="stop-color:#6C81FF"/>
		<stop  offset="0.1967" style="stop-color:#6A80FC"/>
		<stop  offset="0.3579" style="stop-color:#647BF2"/>
		<stop  offset="0.5066" style="stop-color:#5A73E0"/>
		<stop  offset="0.6477" style="stop-color:#4C68C8"/>
		<stop  offset="0.7835" style="stop-color:#3A5CA9"/>
		<stop  offset="0.9135" style="stop-color:#235184"/>
		<stop  offset="1" style="stop-color:#124966"/>
	</linearGradient>
	<polygon style="fill:url(#SVGID_00000062191000168209699370000007644219004776553605_);" points="571.4,1019.8 645.6,988.3 
		665,370.8 571.4,527.4 	"/>
	<polygon class="st7" points="137.8,470.6 353.1,617.3 572,527.4 665.5,370.8 562.4,494.1 291.1,225.5 542.8,506.4 360.2,566.7 
		299,275.2 335.8,560.2 	"/>
	<polygon class="st8" points="337.5,794.3 304.8,584.4 353.1,617.3 	"/>
	<polygon class="st7" points="353.1,617.3 478.3,955.2 572,527.4 	"/>
	<polygon class="st7" points="394,600.5 490.5,760 528.5,545.3 	"/>
	<polygon class="st7" points="571.4,652.6 659,564.3 656.9,627.4 571.4,783.4 	"/>
	<polygon class="st8" points="571.4,831 655.3,682.5 653.4,737.5 571.4,993.3 	"/>
</g>
<g>
	<polygon class="st0" points="791.3,27.8 621.8,248.8 553.5,947.7 588,972.3 669.8,991.7 743.3,956.5 836,339.7 	"/>
	
		<linearGradient id="SVGID_00000011027379701882933910000000484404223086729137_" gradientUnits="userSpaceOnUse" x1="577.3069" y1="-156.9525" x2="577.3069" y2="167.4314" gradientTransform="matrix(0.9922 0.125 -0.125 0.9922 135.5712 103.3894)">
		<stop  offset="0" style="stop-color:#AB9AFF"/>
		<stop  offset="1" style="stop-color:#6C81FF"/>
	</linearGradient>
	<polygon style="fill:url(#SVGID_00000011027379701882933910000000484404223086729137_);" points="769.2,306.7 651.9,337.2 
		621.8,248.8 700.2,146.6 791.3,27.8 782.3,140.3 	"/>
	
		<linearGradient id="SVGID_00000013890307563182084950000011777194248899380107_" gradientUnits="userSpaceOnUse" x1="641.1104" y1="-5.0257" x2="724.4421" y2="-5.0257" gradientTransform="matrix(0.9922 0.125 -0.125 0.9922 135.5712 103.3894)">
		<stop  offset="0" style="stop-color:#AB9AFF"/>
		<stop  offset="1" style="stop-color:#6C81FF"/>
	</linearGradient>
	<polygon style="fill:url(#SVGID_00000013890307563182084950000011777194248899380107_);" points="836,339.7 769.2,306.7 
		785.9,95.7 791.3,27.8 806.6,134.6 	"/>
	
		<linearGradient id="SVGID_00000111874369537775969390000009506652670067413425_" gradientUnits="userSpaceOnUse" x1="529.0177" y1="83.4906" x2="529.0177" y2="805.5103" gradientTransform="matrix(0.9922 0.125 -0.125 0.9922 135.5712 103.3894)">
		<stop  offset="0" style="stop-color:#6C81FF"/>
		<stop  offset="1" style="stop-color:#124966"/>
	</linearGradient>
	<polygon style="fill:url(#SVGID_00000111874369537775969390000009506652670067413425_);" points="588,972.3 561.5,953.4 
		553.5,947.7 600.6,465.3 621.8,248.8 651.9,337.2 	"/>
	
		<linearGradient id="SVGID_00000024713935877823960810000003794894916451355530_" gradientUnits="userSpaceOnUse" x1="597.9178" y1="122.4856" x2="597.9178" y2="814.5082" gradientTransform="matrix(0.9922 0.125 -0.125 0.9922 135.5712 103.3894)">
		<stop  offset="0" style="stop-color:#6C81FF"/>
		<stop  offset="8.537828e-02" style="stop-color:#6279EE"/>
		<stop  offset="0.3984" style="stop-color:#4060B4"/>
		<stop  offset="0.6662" style="stop-color:#27538A"/>
		<stop  offset="0.8753" style="stop-color:#184C70"/>
		<stop  offset="1" style="stop-color:#124966"/>
	</linearGradient>
	<polygon style="fill:url(#SVGID_00000024713935877823960810000003794894916451355530_);" points="769.4,306.7 764.3,345.4 
		764.3,345.5 752.5,420.4 752.5,420.5 743.5,484.9 743.5,485 722.6,632.4 722.6,632.4 682.8,903.9 682.8,904 670,991.7 588.5,972.4 
		592.8,933 592.8,933 616.3,687.4 616.3,687.3 617.5,676.7 631.9,534.7 640.8,446.6 649.7,358.3 652,337.3 	"/>
	
		<linearGradient id="SVGID_00000024707673530131862790000010852454827814974098_" gradientUnits="userSpaceOnUse" x1="682.7438" y1="122.5106" x2="682.7438" y2="814.5332" gradientTransform="matrix(0.9922 0.125 -0.125 0.9922 135.5712 103.3894)">
		<stop  offset="0" style="stop-color:#6C81FF"/>
		<stop  offset="0.13" style="stop-color:#657CF3"/>
		<stop  offset="0.3622" style="stop-color:#536DD5"/>
		<stop  offset="0.6698" style="stop-color:#365AA3"/>
		<stop  offset="1" style="stop-color:#124966"/>
	</linearGradient>
	<polygon style="fill:url(#SVGID_00000024707673530131862790000010852454827814974098_);" points="836,339.7 743.3,956.5 
		669.8,991.7 769.2,306.7 	"/>
	<polygon class="st7" points="782.3,140.3 707.8,251.2 700.2,146.6 746.6,86.1 791.3,27.8 786,94.6 	"/>
	<polygon class="st8" points="786,94.6 756,117.7 754.8,88.6 741.6,97.4 746.6,86.1 791.3,27.8 	"/>
	<polygon class="st8" points="806.6,134.6 797,140.2 785.9,95.7 791.3,27.8 	"/>
	<polygon class="st7" points="782.3,313.1 836,339.7 771.8,285.3 770.9,285.6 654.6,315.9 621.8,248.8 652,336.5 761.1,308.1 
		736.8,529.7 	"/>
	<polygon class="st14" points="619.9,488.9 561.4,953.4 553.5,947.7 600.6,465.3 	"/>
	<polygon class="st14" points="743.5,484.9 743.5,485 722.6,632.4 722.6,632.4 616.3,687.4 616.3,687.3 617.5,676.7 631.9,534.7 
		743.3,485 	"/>
	<polygon class="st7" points="722,632.3 682.8,903.9 682.8,904 682.6,904 592.1,932.9 616.3,687.4 616.3,687.4 616.5,687.4 	"/>
	<polygon class="st15" points="698.8,792.4 774.6,748.5 689.9,852.6 	"/>
</g>
<g>
	
		<linearGradient id="SVGID_00000087412871113773024250000011909490728065195183_" gradientUnits="userSpaceOnUse" x1="-2291.8892" y1="738.6373" x2="-2291.8892" y2="944.1142" gradientTransform="matrix(-0.9986 5.210000e-02 5.210000e-02 0.9986 -1541.2897 35.4944)">
		<stop  offset="0" style="stop-color:#AB9AFF"/>
		<stop  offset="1" style="stop-color:#6C81FF"/>
	</linearGradient>
	<polygon style="fill:url(#SVGID_00000087412871113773024250000011909490728065195183_);" points="942.2,809.9 638.1,661.4 
		729.1,862.4 	"/>
	
		<linearGradient id="SVGID_00000026124633091307921590000018413540282203154070_" gradientUnits="userSpaceOnUse" x1="-2067.8743" y1="738.6373" x2="-2067.8743" y2="944.1142" gradientTransform="matrix(-0.9986 5.210000e-02 5.210000e-02 0.9986 -1541.2897 35.4944)">
		<stop  offset="0" style="stop-color:#AB9AFF"/>
		<stop  offset="0.2522" style="stop-color:#A99AFF"/>
		<stop  offset="0.4869" style="stop-color:#A198FF"/>
		<stop  offset="0.7146" style="stop-color:#8F91FF"/>
		<stop  offset="0.9369" style="stop-color:#7585FF"/>
		<stop  offset="1" style="stop-color:#6C81FF"/>
	</linearGradient>
	<polygon style="fill:url(#SVGID_00000026124633091307921590000018413540282203154070_);" points="729.1,862.4 638.1,661.4 
		412.8,804.8 	"/>
	
		<linearGradient id="SVGID_00000054946705334445972930000000330665279215740046_" gradientUnits="userSpaceOnUse" x1="-1996.6931" y1="738.6373" x2="-1996.6931" y2="870.1094" gradientTransform="matrix(-0.9986 5.210000e-02 5.210000e-02 0.9986 -1541.2897 35.4944)">
		<stop  offset="0" style="stop-color:#AB9AFF"/>
		<stop  offset="1" style="stop-color:#6C81FF"/>
	</linearGradient>
	<polygon style="fill:url(#SVGID_00000054946705334445972930000000330665279215740046_);" points="638.1,661.4 345.4,702 
		412.8,804.8 	"/>
	
		<linearGradient id="SVGID_00000023989874533092878120000011383002000827274917_" gradientUnits="userSpaceOnUse" x1="-2312.521" y1="902.7867" x2="-2312.521" y2="1147.3594" gradientTransform="matrix(-0.9986 5.210000e-02 5.210000e-02 0.9986 -1541.2897 35.4944)">
		<stop  offset="0" style="stop-color:#6C81FF"/>
		<stop  offset="1" style="stop-color:#124966"/>
	</linearGradient>
	<polygon style="fill:url(#SVGID_00000023989874533092878120000011383002000827274917_);" points="942.2,809.9 851.7,1028.9 
		700.6,1067.4 729.1,862.4 	"/>
	
		<linearGradient id="SVGID_00000150785421091455585060000000978661654684458651_" gradientUnits="userSpaceOnUse" x1="-2067.8743" y1="870.1094" x2="-2067.8743" y2="1147.3594" gradientTransform="matrix(-0.9986 5.210000e-02 5.210000e-02 0.9986 -1541.2897 35.4944)">
		<stop  offset="0" style="stop-color:#6C81FF"/>
		<stop  offset="9.860164e-02" style="stop-color:#5E76E7"/>
		<stop  offset="0.3088" style="stop-color:#4361B9"/>
		<stop  offset="0.5103" style="stop-color:#2E5895"/>
		<stop  offset="0.698" style="stop-color:#1E507B"/>
		<stop  offset="0.8666" style="stop-color:#154B6B"/>
		<stop  offset="1" style="stop-color:#124966"/>
	</linearGradient>
	<polygon style="fill:url(#SVGID_00000150785421091455585060000000978661654684458651_);" points="700.6,1067.4 729.1,862.4 
		412.8,804.8 497.1,1045.4 	"/>
	
		<linearGradient id="SVGID_00000150786762104943264150000008725596551107975065_" gradientUnits="userSpaceOnUse" x1="-1916.2819" y1="763.9329" x2="-1916.2819" y2="1114.785" gradientTransform="matrix(-0.9986 5.210000e-02 5.210000e-02 0.9986 -1541.2897 35.4944)">
		<stop  offset="0" style="stop-color:#6C81FF"/>
		<stop  offset="1" style="stop-color:#124966"/>
	</linearGradient>
	<polygon style="fill:url(#SVGID_00000150786762104943264150000008725596551107975065_);" points="345.4,702 412.8,804.8 
		497.1,1045.4 469.6,1032.9 	"/>
	<polygon class="st8" points="942.2,809.9 744.8,870.3 709.7,1002.4 727.5,874 426.1,812.9 438,876.7 412.8,804.8 345.4,702 
		416.8,788 638.1,661.4 438.7,793.7 722.6,851.8 667.2,725.7 742,848.1 	"/>
	<polygon class="st7" points="851.7,765.7 678.9,698.8 667.2,725.7 638.1,661.4 	"/>
	<polygon class="st7" points="704.1,809.8 614.2,735.6 489.8,759.8 638.1,661.4 	"/>
	<polygon class="st7" points="942.2,809.9 859.1,954.6 744.8,870.3 	"/>
	<polygon class="st7" points="942.2,809.9 784.2,1007.2 744.8,870.3 	"/>
	<polygon class="st7" points="709.7,1002.4 703.1,1049.2 471.7,972.9 465.6,955.3 	"/>
	<polygon class="st7" points="700.6,1067.4 702.4,1054.8 479,993.5 485.1,1010.9 	"/>
</g>
</svg>
