<?xml version="1.0" encoding="utf-8"?>
<!-- Generator: Adobe Illustrator 28.0.0, SVG Export Plug-In . SVG Version: 6.00 Build 0)  -->
<svg version="1.1" id="Layer_1" xmlns="http://www.w3.org/2000/svg" xmlns:xlink="http://www.w3.org/1999/xlink" x="0px" y="0px"
	 viewBox="0 0 1080 1080" style="enable-background:new 0 0 1080 1080;" xml:space="preserve">
<style type="text/css">
	.st0{fill:#516612;}
	.st1{fill:url(#SVGID_1_);}
	.st2{fill:url(#SVGID_00000117636967010244633010000013715563115439442819_);}
	.st3{fill:url(#SVGID_00000075144461999951753710000000222729759133783204_);}
	.st4{fill:url(#SVGID_00000095321116346201883550000011873663223447651476_);}
	.st5{fill:url(#SVGID_00000077310146282007344260000017329399688732983469_);}
	.st6{fill:url(#SVGID_00000028305610349781285240000006220387641170378940_);}
	.st7{opacity:0.1;fill:#FFFFFF;}
	.st8{opacity:0.5;fill:#D7FFE0;}
	.st9{fill:url(#SVGID_00000100366301863181620140000014595981151945023899_);}
	.st10{fill:url(#SVGID_00000085234417681208337940000017492103994051998893_);}
	.st11{fill:url(#SVGID_00000154405182898757357050000017692902318321936275_);}
	.st12{fill:url(#SVGID_00000125564186974377569250000016517208978503795117_);}
	.st13{fill:url(#SVGID_00000145037590873270589510000008571809102114551471_);}
	.st14{fill:url(#SVGID_00000060715323161605389790000009190302597953041044_);}
	.st15{fill:url(#SVGID_00000108275443374730291690000013679068978962245007_);}
	.st16{fill:url(#SVGID_00000141436153172287206800000012476481917487962519_);}
	.st17{fill:url(#SVGID_00000121967434753795768320000009275112202370755233_);}
	.st18{opacity:0.2;fill:#FFFFFF;}
	.st19{opacity:0.3;fill:#D7FFE0;}
	.st20{fill:url(#SVGID_00000052098998250055538620000001832594244208361346_);}
	.st21{fill:url(#SVGID_00000066500284621421724600000002850134534529614752_);}
	.st22{fill:url(#SVGID_00000176728205040892197990000013228828249217250183_);}
	.st23{fill:url(#SVGID_00000093884890142055280280000009224514205483161247_);}
	.st24{fill:url(#SVGID_00000003085218528810093370000006812739235262142600_);}
	.st25{fill:url(#SVGID_00000154385330935012409040000004989910225479982522_);}
	.st26{fill:url(#SVGID_00000036939818654012790340000002159841580171195782_);}
	.st27{fill:url(#SVGID_00000143609925494702787740000006706997206699740094_);}
	.st28{fill:url(#SVGID_00000125578313394107198000000014037503623355710126_);}
	.st29{fill:url(#SVGID_00000043419225099373266750000014293881227348899744_);}
</style>
<g>
	<g>
		<polygon class="st0" points="807.8,562.4 898.7,707.6 859.1,1009.2 792.1,1033.1 641.4,1033.1 597.6,1014.4 586,648.5 		"/>
		
			<linearGradient id="SVGID_1_" gradientUnits="userSpaceOnUse" x1="-1566.0526" y1="678.5155" x2="-1438.5082" y2="678.5155" gradientTransform="matrix(-1 0 0 1 -667.3994 0)">
			<stop  offset="0" style="stop-color:#9AFFB1"/>
			<stop  offset="1" style="stop-color:#91FF6C"/>
		</linearGradient>
		<polygon class="st1" points="807.8,562.4 898.7,707.6 771.1,794.6 		"/>
		
			<linearGradient id="SVGID_00000042707041038516003640000005881718679846641554_" gradientUnits="userSpaceOnUse" x1="-1475.2255" y1="678.5155" x2="-1308.8014" y2="678.5155" gradientTransform="matrix(-1 0 0 1 -667.3994 0)">
			<stop  offset="0" style="stop-color:#9AFFB1"/>
			<stop  offset="1" style="stop-color:#91FF6C"/>
		</linearGradient>
		<polygon style="fill:url(#SVGID_00000042707041038516003640000005881718679846641554_);" points="771.1,794.6 641.4,741.3 
			807.8,562.4 		"/>
		
			<linearGradient id="SVGID_00000152944005017855157350000017828082855231400628_" gradientUnits="userSpaceOnUse" x1="-1475.2255" y1="651.8693" x2="-1253.4077" y2="651.8693" gradientTransform="matrix(-1 0 0 1 -667.3994 0)">
			<stop  offset="0" style="stop-color:#9AFFB1"/>
			<stop  offset="1" style="stop-color:#91FF6C"/>
		</linearGradient>
		<polygon style="fill:url(#SVGID_00000152944005017855157350000017828082855231400628_);" points="641.4,741.3 586,648.5 
			807.8,562.4 		"/>
		
			<linearGradient id="SVGID_00000066496410660932826830000016220848015100222083_" gradientUnits="userSpaceOnUse" x1="-1502.2804" y1="707.6279" x2="-1502.2804" y2="1033.1052" gradientTransform="matrix(-1 0 0 1 -667.3994 0)">
			<stop  offset="0" style="stop-color:#91FF6C"/>
			<stop  offset="0.1239" style="stop-color:#8EF868"/>
			<stop  offset="0.3067" style="stop-color:#86E45C"/>
			<stop  offset="0.5259" style="stop-color:#78C349"/>
			<stop  offset="0.7711" style="stop-color:#65962F"/>
			<stop  offset="1" style="stop-color:#516612"/>
		</linearGradient>
		<polygon style="fill:url(#SVGID_00000066496410660932826830000016220848015100222083_);" points="898.7,707.6 859.1,1009.2 
			792.1,1033.1 771.1,794.6 		"/>
		
			<linearGradient id="SVGID_00000098932304671124144190000016329646460294876297_" gradientUnits="userSpaceOnUse" x1="-1384.7633" y1="741.2975" x2="-1384.7633" y2="1033.1052" gradientTransform="matrix(-1 0 0 1 -667.3994 0)">
			<stop  offset="0" style="stop-color:#91FF6C"/>
			<stop  offset="1" style="stop-color:#516612"/>
		</linearGradient>
		<polygon style="fill:url(#SVGID_00000098932304671124144190000016329646460294876297_);" points="771.5,794.6 642.1,741.3 
			642.1,1033.1 792.6,1033.1 		"/>
		
			<linearGradient id="SVGID_00000090261513480795243630000018348342770052572804_" gradientUnits="userSpaceOnUse" x1="-1281.7069" y1="648.5475" x2="-1281.7069" y2="1033.073" gradientTransform="matrix(-1 0 0 1 -667.3994 0)">
			<stop  offset="0" style="stop-color:#91FF6C"/>
			<stop  offset="0.1967" style="stop-color:#90FC6A"/>
			<stop  offset="0.3579" style="stop-color:#8BF264"/>
			<stop  offset="0.5066" style="stop-color:#84E05A"/>
			<stop  offset="0.6477" style="stop-color:#7AC84C"/>
			<stop  offset="0.7835" style="stop-color:#6DA93A"/>
			<stop  offset="0.9135" style="stop-color:#5D8423"/>
			<stop  offset="1" style="stop-color:#516612"/>
		</linearGradient>
		<polygon style="fill:url(#SVGID_00000090261513480795243630000018348342770052572804_);" points="642.1,1033.1 597.9,1014.4 
			586.5,648.5 642.1,741.3 		"/>
		<polygon class="st7" points="898.7,707.6 771.1,794.6 641.4,741.3 586,648.5 647.1,721.6 807.8,562.4 658.7,728.8 766.9,764.6 
			803.2,591.9 781.4,760.7 		"/>
		<polygon class="st8" points="780.3,899.4 799.7,775.1 771.1,794.6 		"/>
		<polygon class="st7" points="771.1,794.6 696.9,994.8 641.4,741.3 		"/>
		<polygon class="st7" points="746.8,784.6 689.7,879.1 667.2,751.9 		"/>
		<polygon class="st7" points="642.1,815.5 590,763.2 591.3,800.6 642.1,893 		"/>
		<polygon class="st8" points="642.1,921.2 592.2,833.2 593.4,865.8 642.1,1017.4 		"/>
	</g>
	<g>
		
			<linearGradient id="SVGID_00000030479514308929336000000013993276205865301909_" gradientUnits="userSpaceOnUse" x1="781.0634" y1="-200.1969" x2="781.0634" y2="16.8744" gradientTransform="matrix(0.9879 0.1553 -0.1553 0.9879 -105.055 92.9373)">
			<stop  offset="0" style="stop-color:#9AFFB1"/>
			<stop  offset="1" style="stop-color:#91FF6C"/>
		</linearGradient>
		<polygon style="fill:url(#SVGID_00000030479514308929336000000013993276205865301909_);" points="712,18.7 652,139 689.7,235 		
			"/>
		
			<linearGradient id="SVGID_00000004540372466582669520000011273325630505066679_" gradientUnits="userSpaceOnUse" x1="829.3743" y1="-200.1969" x2="829.3743" y2="16.8744" gradientTransform="matrix(0.9879 0.1553 -0.1553 0.9879 -105.055 92.9373)">
			<stop  offset="0" style="stop-color:#9AFFB1"/>
			<stop  offset="1" style="stop-color:#91FF6C"/>
		</linearGradient>
		<polygon style="fill:url(#SVGID_00000004540372466582669520000011273325630505066679_);" points="689.7,235 760.7,144.4 712,18.7 
					"/>
		
			<linearGradient id="SVGID_00000178892249877373655050000008198266859951501752_" gradientUnits="userSpaceOnUse" x1="759.7793" y1="-72.0169" x2="759.7793" y2="828.9553" gradientTransform="matrix(0.9879 0.1553 -0.1553 0.9879 -105.055 92.9373)">
			<stop  offset="0" style="stop-color:#91FF6C"/>
			<stop  offset="0.13" style="stop-color:#8CF365"/>
			<stop  offset="0.3622" style="stop-color:#7FD553"/>
			<stop  offset="0.6698" style="stop-color:#6AA336"/>
			<stop  offset="1" style="stop-color:#516612"/>
		</linearGradient>
		<polygon style="fill:url(#SVGID_00000178892249877373655050000008198266859951501752_);" points="652,139 472.9,1003.2 
			563.7,1037.2 689.7,235 		"/>
		
			<linearGradient id="SVGID_00000036216528400217152020000008556991384677666445_" gradientUnits="userSpaceOnUse" x1="856.1525" y1="-83.6109" x2="856.1525" y2="828.9553" gradientTransform="matrix(0.9879 0.1553 -0.1553 0.9879 -105.055 92.9373)">
			<stop  offset="0" style="stop-color:#91FF6C"/>
			<stop  offset="0.2354" style="stop-color:#84DF59"/>
			<stop  offset="0.748" style="stop-color:#62902A"/>
			<stop  offset="1" style="stop-color:#516612"/>
		</linearGradient>
		<polygon style="fill:url(#SVGID_00000036216528400217152020000008556991384677666445_);" points="563.7,1037.2 665.1,1022.6 
			760.7,144.4 689.7,235 		"/>
		<polygon class="st8" points="652,139 688,206.4 712,18.7 698.3,204.6 760.7,144.4 698.6,223.6 574.2,982.5 684.7,222.2 		"/>
		<polygon class="st7" points="627.2,257.8 674.8,288.7 652,434 615.4,315.5 		"/>
		<polygon class="st7" points="589.8,438.1 626.2,622.7 576.2,941.1 555.4,605.3 		"/>
		<polygon class="st7" points="715.9,201.5 673.9,537.9 680.1,885 760.7,144.4 		"/>
		<polygon class="st7" points="672.3,98.4 691.2,80.9 677.7,143.1 702.6,91.8 712,18.7 		"/>
		<polygon class="st7" points="712,18.7 712.9,100.6 757.3,135.7 		"/>
	</g>
	<g>
		<polygon class="st0" points="506.7,154.3 380.6,370.1 398.2,1000.2 431.7,1018.3 506.7,1026.3 568.2,986.7 581.6,427 		"/>
		
			<linearGradient id="SVGID_00000114760611165116144270000018145167940773607310_" gradientUnits="userSpaceOnUse" x1="449.4761" y1="154.2877" x2="449.4761" y2="445.4825">
			<stop  offset="0" style="stop-color:#9AFFB1"/>
			<stop  offset="1" style="stop-color:#91FF6C"/>
		</linearGradient>
		<polygon style="fill:url(#SVGID_00000114760611165116144270000018145167940773607310_);" points="518.3,405.1 417.3,445.5 
			380.6,370.1 438.9,270.3 506.7,154.3 511.4,255.5 		"/>
		
			<linearGradient id="SVGID_00000053532767155412779650000017131885532249733250_" gradientUnits="userSpaceOnUse" x1="506.7461" y1="290.6331" x2="581.5892" y2="290.6331">
			<stop  offset="0" style="stop-color:#9AFFB1"/>
			<stop  offset="1" style="stop-color:#91FF6C"/>
		</linearGradient>
		<polygon style="fill:url(#SVGID_00000053532767155412779650000017131885532249733250_);" points="581.6,427 518.3,405.1 
			509.6,215.3 506.7,154.3 532.4,247.6 		"/>
		
			<linearGradient id="SVGID_00000105417693486212927110000004714123365622403973_" gradientUnits="userSpaceOnUse" x1="406.1476" y1="370.1177" x2="406.1476" y2="1018.2604">
			<stop  offset="0" style="stop-color:#91FF6C"/>
			<stop  offset="1" style="stop-color:#516612"/>
		</linearGradient>
		<polygon style="fill:url(#SVGID_00000105417693486212927110000004714123365622403973_);" points="431.7,1018.3 405.9,1004.4 
			398.2,1000.2 386.1,565.3 380.6,370.1 417.3,445.5 		"/>
		
			<linearGradient id="SVGID_00000183945315538604281900000004014374206937665206_" gradientUnits="userSpaceOnUse" x1="467.9844" y1="405.0797" x2="467.9844" y2="1026.311">
			<stop  offset="0" style="stop-color:#91FF6C"/>
			<stop  offset="8.537829e-02" style="stop-color:#8AEE62"/>
			<stop  offset="0.3984" style="stop-color:#72B440"/>
			<stop  offset="0.6662" style="stop-color:#608A27"/>
			<stop  offset="0.8753" style="stop-color:#557018"/>
			<stop  offset="1" style="stop-color:#516612"/>
		</linearGradient>
		<polygon style="fill:url(#SVGID_00000183945315538604281900000004014374206937665206_);" points="518.5,405.1 518.3,440.1 
			518.3,440.2 517.1,508.2 517.1,508.4 515.9,566.8 515.9,566.8 513.4,700.4 513.4,700.4 508.5,946.7 508.5,946.8 506.9,1026.3 
			432,1018.3 431.3,982.7 431.3,982.7 425.2,761.3 425.2,761.3 425,751.6 421.8,623.6 419.8,544.1 417.8,464.5 417.5,445.5 		"/>
		
			<linearGradient id="SVGID_00000019676367549060624690000013496704947626608515_" gradientUnits="userSpaceOnUse" x1="544.1688" y1="405.0797" x2="544.1688" y2="1026.311">
			<stop  offset="0" style="stop-color:#91FF6C"/>
			<stop  offset="0.13" style="stop-color:#8CF365"/>
			<stop  offset="0.3622" style="stop-color:#7FD553"/>
			<stop  offset="0.6698" style="stop-color:#6AA336"/>
			<stop  offset="1" style="stop-color:#516612"/>
		</linearGradient>
		<polygon style="fill:url(#SVGID_00000019676367549060624690000013496704947626608515_);" points="581.6,427 568.2,986.7 
			506.7,1026.3 518.3,405.1 		"/>
		<polygon class="st7" points="511.4,255.5 457.4,362.6 438.9,270.3 473.5,211.2 506.7,154.3 509.5,214.3 		"/>
		<polygon class="st8" points="509.5,214.3 485.5,238.3 481.1,212.5 470.3,221.8 473.5,211.2 506.7,154.3 		"/>
		<polygon class="st8" points="532.4,247.6 524.4,253.7 509.6,215.3 506.7,154.3 		"/>
		<polygon class="st7" points="530.8,409.4 581.6,427 518.3,385.8 517.5,386.1 417.3,426.2 380.6,370.1 417.3,444.8 511.3,407.2 
			514.6,607.3 		"/>
		<polygon class="st18" points="405.6,584.1 405.6,1004.4 398,1000.2 385.8,565.3 		"/>
		<polygon class="st18" points="515.9,566.8 515.9,566.8 513.4,700.4 513.4,700.4 425.2,761.3 425.2,761.3 425,751.6 421.8,623.6 
			515.5,566.8 		"/>
		<polygon class="st7" points="512.9,700.4 508.5,946.7 508.5,946.7 508.3,946.8 431.1,982.7 425.2,761.3 425.2,761.3 425.3,761.3 
					"/>
		<polygon class="st19" points="510.2,845.6 572.7,798 509,900.2 		"/>
	</g>
	<g>
		
			<linearGradient id="SVGID_00000051354842510024467390000010262718151688333206_" gradientUnits="userSpaceOnUse" x1="197.7579" y1="846.186" x2="197.7579" y2="1184.0494" gradientTransform="matrix(0.9939 -0.11 0.11 0.9939 12.5015 -113.7964)">
			<stop  offset="0" style="stop-color:#91FF6C"/>
			<stop  offset="1" style="stop-color:#516612"/>
		</linearGradient>
		<polygon style="fill:url(#SVGID_00000051354842510024467390000010262718151688333206_);" points="205.1,716.2 338.6,1035.1 
			412.3,1033.2 403.8,737 		"/>
		
			<linearGradient id="SVGID_00000119814143059299916390000012715702852829908148_" gradientUnits="userSpaceOnUse" x1="197.7579" y1="737.3294" x2="197.7579" y2="910.5963" gradientTransform="matrix(0.9939 -0.11 0.11 0.9939 12.5015 -113.7964)">
			<stop  offset="0" style="stop-color:#9AFFB1"/>
			<stop  offset="1" style="stop-color:#91FF6C"/>
		</linearGradient>
		<polygon style="fill:url(#SVGID_00000119814143059299916390000012715702852829908148_);" points="300.7,596.1 205.1,716.2 
			308.3,769.6 403.8,737 		"/>
		
			<linearGradient id="SVGID_00000064312219722859020340000001839340896688656545_" gradientUnits="userSpaceOnUse" x1="271.1926" y1="737.3294" x2="271.1926" y2="888.6948" gradientTransform="matrix(0.9939 -0.11 0.11 0.9939 12.5015 -113.7964)">
			<stop  offset="0" style="stop-color:#9AFFB1"/>
			<stop  offset="1" style="stop-color:#91FF6C"/>
		</linearGradient>
		<polygon style="fill:url(#SVGID_00000064312219722859020340000001839340896688656545_);" points="300.7,596.1 429.6,619 
			403.8,737 		"/>
		
			<linearGradient id="SVGID_00000011018119174065279760000014301235139145845394_" gradientUnits="userSpaceOnUse" x1="302.599" y1="774.244" x2="302.599" y2="1184.0494" gradientTransform="matrix(0.9939 -0.11 0.11 0.9939 12.5015 -113.7964)">
			<stop  offset="0" style="stop-color:#91FF6C"/>
			<stop  offset="6.749427e-02" style="stop-color:#8AEF62"/>
			<stop  offset="0.2914" style="stop-color:#76BE46"/>
			<stop  offset="0.5037" style="stop-color:#66982F"/>
			<stop  offset="0.6987" style="stop-color:#5A7D1F"/>
			<stop  offset="0.8703" style="stop-color:#536C15"/>
			<stop  offset="1" style="stop-color:#516612"/>
		</linearGradient>
		<polygon style="fill:url(#SVGID_00000011018119174065279760000014301235139145845394_);" points="412.3,1033.2 452.7,1003.1 
			429.6,619 403.8,737 		"/>
		<polygon class="st8" points="205.1,716.2 308.3,769.6 404.1,747.2 406.3,823.7 414,716.6 429.6,619 405.3,703.8 300.7,596.1 
			393.1,734.1 307.7,756 		"/>
		<polygon class="st7" points="236,677.4 300.7,596.1 342.9,659.1 312,643.5 281.5,701.9 272.5,670.8 		"/>
		<polygon class="st7" points="300.7,596.1 336.9,650.2 280.4,621.7 		"/>
		<polygon class="st7" points="405.3,703.8 367.4,627.6 429.6,619 		"/>
		<polygon class="st7" points="404.1,747.2 234.9,787.3 286.3,910.1 		"/>
		<polygon class="st7" points="452.7,1003.1 437.8,1001.5 429.6,619 		"/>
	</g>
	<g>
		
			<linearGradient id="SVGID_00000024712915736142160820000005714274966012922298_" gradientUnits="userSpaceOnUse" x1="553.691" y1="752.8536" x2="553.691" y2="874.5955" gradientTransform="matrix(0.9986 5.210000e-02 -5.210000e-02 0.9986 0.9869 35.4944)">
			<stop  offset="0" style="stop-color:#9AFFB1"/>
			<stop  offset="1" style="stop-color:#91FF6C"/>
		</linearGradient>
		<polygon style="fill:url(#SVGID_00000024712915736142160820000005714274966012922298_);" points="422.1,908.7 602.2,820.7 
			548.3,939.8 		"/>
		
			<linearGradient id="SVGID_00000091718277092012965330000012876328623005831055_" gradientUnits="userSpaceOnUse" x1="686.3985" y1="752.8536" x2="686.3985" y2="874.5955" gradientTransform="matrix(0.9986 5.210000e-02 -5.210000e-02 0.9986 0.9869 35.4944)">
			<stop  offset="0" style="stop-color:#9AFFB1"/>
			<stop  offset="0.2522" style="stop-color:#9AFFAD"/>
			<stop  offset="0.4869" style="stop-color:#98FFA2"/>
			<stop  offset="0.7146" style="stop-color:#96FF8F"/>
			<stop  offset="0.9369" style="stop-color:#92FF75"/>
			<stop  offset="1" style="stop-color:#91FF6C"/>
		</linearGradient>
		<polygon style="fill:url(#SVGID_00000091718277092012965330000012876328623005831055_);" points="548.3,939.8 602.2,820.7 
			735.7,905.7 		"/>
		
			<linearGradient id="SVGID_00000002349612106948110470000009221987740057696420_" gradientUnits="userSpaceOnUse" x1="728.5876" y1="752.8536" x2="728.5876" y2="830.7908" gradientTransform="matrix(0.9986 5.210000e-02 -5.210000e-02 0.9986 0.9869 35.4944)">
			<stop  offset="0" style="stop-color:#9AFFB1"/>
			<stop  offset="1" style="stop-color:#91FF6C"/>
		</linearGradient>
		<polygon style="fill:url(#SVGID_00000002349612106948110470000009221987740057696420_);" points="602.2,820.7 775.6,844.8 
			735.7,905.7 		"/>
		
			<linearGradient id="SVGID_00000049219288076055757410000003654706946812774820_" gradientUnits="userSpaceOnUse" x1="541.4556" y1="850.105" x2="541.4556" y2="995.0457" gradientTransform="matrix(0.9986 5.210000e-02 -5.210000e-02 0.9986 0.9869 35.4944)">
			<stop  offset="0" style="stop-color:#91FF6C"/>
			<stop  offset="1" style="stop-color:#516612"/>
		</linearGradient>
		<polygon style="fill:url(#SVGID_00000049219288076055757410000003654706946812774820_);" points="422.1,908.7 475.7,1038.5 
			565.2,1061.3 548.3,939.8 		"/>
		
			<linearGradient id="SVGID_00000013908542139854679480000006264877466791543963_" gradientUnits="userSpaceOnUse" x1="686.3985" y1="830.7908" x2="686.3985" y2="995.0457" gradientTransform="matrix(0.9986 5.210000e-02 -5.210000e-02 0.9986 0.9869 35.4944)">
			<stop  offset="0" style="stop-color:#91FF6C"/>
			<stop  offset="9.860164e-02" style="stop-color:#87E75E"/>
			<stop  offset="0.3088" style="stop-color:#74B943"/>
			<stop  offset="0.5103" style="stop-color:#65952E"/>
			<stop  offset="0.698" style="stop-color:#5A7B1E"/>
			<stop  offset="0.8666" style="stop-color:#536B15"/>
			<stop  offset="1" style="stop-color:#516612"/>
		</linearGradient>
		<polygon style="fill:url(#SVGID_00000013908542139854679480000006264877466791543963_);" points="565.2,1061.3 548.3,939.8 
			735.7,905.7 685.8,1048.2 		"/>
		
			<linearGradient id="SVGID_00000117667409921146847530000002446373661569457047_" gradientUnits="userSpaceOnUse" x1="776.2263" y1="767.8282" x2="776.2263" y2="975.7202" gradientTransform="matrix(0.9986 5.210000e-02 -5.210000e-02 0.9986 0.9869 35.4944)">
			<stop  offset="0" style="stop-color:#91FF6C"/>
			<stop  offset="1" style="stop-color:#516612"/>
		</linearGradient>
		<polygon style="fill:url(#SVGID_00000117667409921146847530000002446373661569457047_);" points="775.6,844.8 735.7,905.7 
			685.8,1048.2 702,1040.8 		"/>
		<polygon class="st8" points="422.1,908.7 539,944.5 559.8,1022.8 549.2,946.7 727.8,910.5 720.8,948.3 735.7,905.7 775.6,844.8 
			733.4,895.7 602.2,820.7 720.4,899.1 552.2,933.6 585,858.8 540.7,931.3 		"/>
		<polygon class="st7" points="475.7,882.5 578.1,842.9 585,858.8 602.2,820.7 		"/>
		<polygon class="st7" points="563.1,908.6 616.4,864.7 690.1,879 602.2,820.7 		"/>
		<polygon class="st7" points="422.1,908.7 471.3,994.5 539,944.5 		"/>
		<polygon class="st7" points="422.1,908.7 515.7,1025.6 539,944.5 		"/>
		<polygon class="st7" points="559.8,1022.8 563.7,1050.5 700.8,1005.3 704.5,994.9 		"/>
		<polygon class="st7" points="565.2,1061.3 564.1,1053.8 696.5,1017.5 692.9,1027.8 		"/>
	</g>
</g>
</svg>
