<?xml version="1.0" encoding="utf-8"?>
<!-- Generator: Adobe Illustrator 28.0.0, SVG Export Plug-In . SVG Version: 6.00 Build 0)  -->
<svg version="1.1" id="Layer_1" xmlns="http://www.w3.org/2000/svg" xmlns:xlink="http://www.w3.org/1999/xlink" x="0px" y="0px"
	 viewBox="0 0 1080 1080" style="enable-background:new 0 0 1080 1080;" xml:space="preserve">
<style type="text/css">
	.st0{fill:url(#SVGID_1_);}
	.st1{fill:url(#SVGID_00000109010609795958674510000009288718798701590694_);}
	.st2{fill:url(#SVGID_00000122718071485824993750000011351443850705017772_);}
	.st3{fill:url(#SVGID_00000018227839461972474020000011296446215241161633_);}
	.st4{opacity:0.5;fill:#D7FFE0;}
	.st5{opacity:0.1;fill:#FFFFFF;}
	.st6{fill:#516612;}
	.st7{fill:url(#SVGID_00000180324354626022189500000015357398490924039322_);}
	.st8{fill:url(#SVGID_00000124132829905368431990000003017129859191947420_);}
	.st9{fill:url(#SVGID_00000000943177329075869050000013815536532361778093_);}
	.st10{fill:url(#SVGID_00000119094371382304535050000008008354522539221157_);}
	.st11{fill:url(#SVGID_00000083771163343180605360000013078502444787835306_);}
	.st12{opacity:0.2;fill:#FFFFFF;}
	.st13{opacity:0.3;fill:#D7FFE0;}
	.st14{fill:url(#SVGID_00000021113203309255062050000005719750690569846913_);}
	.st15{fill:url(#SVGID_00000057841879641352611860000015612755620063748279_);}
	.st16{fill:url(#SVGID_00000016072801963238602110000016255769191534163081_);}
	.st17{fill:url(#SVGID_00000050653297344326150720000005608836332590005888_);}
	.st18{fill:url(#SVGID_00000152947796317383353950000000484162719996397999_);}
	.st19{fill:url(#SVGID_00000062166676695264856660000010155486601704797113_);}
</style>
<g>
	
		<linearGradient id="SVGID_1_" gradientUnits="userSpaceOnUse" x1="179.9379" y1="-3890.3591" x2="179.9379" y2="-3664.7151" gradientTransform="matrix(0.9879 -0.1553 -0.1553 -0.9879 -105.055 -2741.3245)">
		<stop  offset="0" style="stop-color:#9AFFB1"/>
		<stop  offset="1" style="stop-color:#91FF6C"/>
	</linearGradient>
	<polygon class="st0" points="691.8,1071.7 629.4,946.6 668.6,846.9 	"/>
	
		<linearGradient id="SVGID_00000034050945391401955050000014985685481182779818_" gradientUnits="userSpaceOnUse" x1="230.1567" y1="-3890.3591" x2="230.1567" y2="-3664.7151" gradientTransform="matrix(0.9879 -0.1553 -0.1553 -0.9879 -105.055 -2741.3245)">
		<stop  offset="0" style="stop-color:#9AFFB1"/>
		<stop  offset="1" style="stop-color:#91FF6C"/>
	</linearGradient>
	<polygon style="fill:url(#SVGID_00000034050945391401955050000014985685481182779818_);" points="668.6,846.9 742.4,941 
		691.8,1071.7 	"/>
	
		<linearGradient id="SVGID_00000017502869203597112100000002240195685255541179_" gradientUnits="userSpaceOnUse" x1="157.8129" y1="-3757.1167" x2="157.8129" y2="-2820.5645" gradientTransform="matrix(0.9879 -0.1553 -0.1553 -0.9879 -105.055 -2741.3245)">
		<stop  offset="0" style="stop-color:#91FF6C"/>
		<stop  offset="0.13" style="stop-color:#8CF365"/>
		<stop  offset="0.3622" style="stop-color:#7FD553"/>
		<stop  offset="0.6698" style="stop-color:#6AA336"/>
		<stop  offset="1" style="stop-color:#516612"/>
	</linearGradient>
	<polygon style="fill:url(#SVGID_00000017502869203597112100000002240195685255541179_);" points="629.4,946.6 443.3,48.3 
		537.6,12.9 668.6,846.9 	"/>
	
		<linearGradient id="SVGID_00000137130824097547044670000008149985510580494268_" gradientUnits="userSpaceOnUse" x1="257.9919" y1="-3769.1689" x2="257.9919" y2="-2820.5645" gradientTransform="matrix(0.9879 -0.1553 -0.1553 -0.9879 -105.055 -2741.3245)">
		<stop  offset="0" style="stop-color:#91FF6C"/>
		<stop  offset="0.2354" style="stop-color:#84DF59"/>
		<stop  offset="0.748" style="stop-color:#62902A"/>
		<stop  offset="1" style="stop-color:#516612"/>
	</linearGradient>
	<polygon style="fill:url(#SVGID_00000137130824097547044670000008149985510580494268_);" points="537.6,12.9 643.1,28.2 742.4,941 
		668.6,846.9 	"/>
	<polygon class="st4" points="629.4,946.6 666.8,876.5 691.8,1071.7 677.5,878.5 742.4,941 677.8,858.6 548.5,69.9 663.4,860.1 	"/>
	<polygon class="st5" points="603.6,823.1 653.2,791 629.4,640 591.4,763.1 	"/>
	<polygon class="st5" points="564.8,635.7 602.7,443.8 550.6,112.9 529,462 	"/>
	<polygon class="st5" points="695.9,881.7 652.2,532 658.6,171.2 742.4,941 	"/>
	<polygon class="st5" points="650.5,988.9 670.2,1007 656.2,942.4 682.1,995.7 691.8,1071.7 	"/>
	<polygon class="st5" points="691.8,1071.7 692.7,986.6 738.9,950.1 	"/>
</g>
<g>
	<polygon class="st6" points="844.2,932.8 713.1,708.5 731.4,53.5 766.2,34.7 844.2,26.3 908.2,67.5 922,649.3 	"/>
	
		<linearGradient id="SVGID_00000029006548852277988350000005967416558368427440_" gradientUnits="userSpaceOnUse" x1="784.7109" y1="-3581.1904" x2="784.7109" y2="-3278.4951" gradientTransform="matrix(1 0 0 -1 0 -2648.3867)">
		<stop  offset="0" style="stop-color:#9AFFB1"/>
		<stop  offset="1" style="stop-color:#91FF6C"/>
	</linearGradient>
	<polygon style="fill:url(#SVGID_00000029006548852277988350000005967416558368427440_);" points="856.3,672.1 751.3,630.1 
		713.1,708.5 773.8,812.2 844.2,932.8 849.1,827.6 	"/>
	
		<linearGradient id="SVGID_00000012444736660451816730000000762979602045061792_" gradientUnits="userSpaceOnUse" x1="844.2422" y1="-3439.4604" x2="922.0425" y2="-3439.4604" gradientTransform="matrix(1 0 0 -1 0 -2648.3867)">
		<stop  offset="0" style="stop-color:#9AFFB1"/>
		<stop  offset="1" style="stop-color:#91FF6C"/>
	</linearGradient>
	<polygon style="fill:url(#SVGID_00000012444736660451816730000000762979602045061792_);" points="922,649.3 856.3,672.1 
		847.2,869.4 844.2,932.8 870.9,835.8 	"/>
	
		<linearGradient id="SVGID_00000138566455700090040960000013499367555392365709_" gradientUnits="userSpaceOnUse" x1="739.6716" y1="-3356.8367" x2="739.6716" y2="-2683.0991" gradientTransform="matrix(1 0 0 -1 0 -2648.3867)">
		<stop  offset="0" style="stop-color:#91FF6C"/>
		<stop  offset="1" style="stop-color:#516612"/>
	</linearGradient>
	<polygon style="fill:url(#SVGID_00000138566455700090040960000013499367555392365709_);" points="766.2,34.7 739.4,49.1 
		731.4,53.5 718.8,505.6 713.1,708.5 751.3,630.1 	"/>
	
		<linearGradient id="SVGID_00000092447692791689835210000011433841895513138570_" gradientUnits="userSpaceOnUse" x1="803.7767" y1="-3320.4949" x2="803.7767" y2="-2674.7297" gradientTransform="matrix(1 0 0 -1 0 -2648.3867)">
		<stop  offset="0" style="stop-color:#91FF6C"/>
		<stop  offset="8.537829e-02" style="stop-color:#8AEE62"/>
		<stop  offset="0.3984" style="stop-color:#72B440"/>
		<stop  offset="0.6662" style="stop-color:#608A27"/>
		<stop  offset="0.8753" style="stop-color:#557018"/>
		<stop  offset="1" style="stop-color:#516612"/>
	</linearGradient>
	<polygon style="fill:url(#SVGID_00000092447692791689835210000011433841895513138570_);" points="856.2,672.1 855.8,635.7 
		855.8,635.6 854.8,564.9 854.8,564.7 852.8,504 852.8,504 850.7,365.1 850.7,365.1 845.6,109.1 845.6,109 844.1,26.3 766.7,34.7 
		766.4,71.7 766.4,71.7 759.2,301.8 759.2,301.8 759.1,311.9 755.9,444.9 753.8,527.6 751.8,610.3 751.3,630.1 	"/>
	
		<linearGradient id="SVGID_00000079443508581687200040000015983555491718442647_" gradientUnits="userSpaceOnUse" x1="883.1439" y1="-3320.4949" x2="883.1439" y2="-2674.7297" gradientTransform="matrix(1 0 0 -1 0 -2648.3867)">
		<stop  offset="0" style="stop-color:#91FF6C"/>
		<stop  offset="0.13" style="stop-color:#8CF365"/>
		<stop  offset="0.3622" style="stop-color:#7FD553"/>
		<stop  offset="0.6698" style="stop-color:#6AA336"/>
		<stop  offset="1" style="stop-color:#516612"/>
	</linearGradient>
	<polygon style="fill:url(#SVGID_00000079443508581687200040000015983555491718442647_);" points="922,649.3 908.2,67.5 844.2,26.3 
		856.3,672.1 	"/>
	<polygon class="st5" points="849.1,827.6 793,716.3 773.8,812.2 809.7,873.6 844.2,932.8 847.1,870.4 	"/>
	<polygon class="st4" points="847.1,870.4 822.1,845.5 817.6,872.3 806.4,862.6 809.7,873.6 844.2,932.8 	"/>
	<polygon class="st4" points="870.9,835.8 862.6,829.4 847.2,869.4 844.2,932.8 	"/>
	<polygon class="st5" points="869.2,667.6 922,649.3 856.3,692.2 855.4,691.8 751.3,650.2 713.1,708.5 751.3,630.8 849,669.9 
		852.4,461.9 	"/>
	<polygon class="st12" points="739.7,486 739.7,49.1 731.5,53.5 719,505.6 	"/>
	<polygon class="st12" points="852.8,504 852.8,504 850.7,365.1 850.7,365.1 759.2,301.8 759.2,301.8 759.1,311.9 755.9,444.9 
		852.9,504 	"/>
	<polygon class="st5" points="850.4,365.1 845.6,109.1 845.6,109.1 845.6,109 765.3,71.7 759.2,301.8 759.2,301.8 759.3,301.8 	"/>
	<polygon class="st13" points="847.8,214.2 912.8,263.7 846.6,157.5 	"/>
</g>
<g>
	
		<linearGradient id="SVGID_00000003797638308511211540000018068146999149692037_" gradientUnits="userSpaceOnUse" x1="130.3623" y1="-2958.1223" x2="130.3623" y2="-2831.5745" gradientTransform="matrix(0.9986 -5.210000e-02 -5.210000e-02 -0.9986 0.9869 -2683.8813)">
		<stop  offset="0" style="stop-color:#9AFFB1"/>
		<stop  offset="1" style="stop-color:#91FF6C"/>
	</linearGradient>
	<polygon style="fill:url(#SVGID_00000003797638308511211540000018068146999149692037_);" points="189,167.1 376.3,258.6 
		320.2,134.8 	"/>
	
		<linearGradient id="SVGID_00000064339685859397621260000009389789447451768495_" gradientUnits="userSpaceOnUse" x1="268.3115" y1="-2958.1223" x2="268.3115" y2="-2831.5745" gradientTransform="matrix(0.9986 -5.210000e-02 -5.210000e-02 -0.9986 0.9869 -2683.8813)">
		<stop  offset="0" style="stop-color:#9AFFB1"/>
		<stop  offset="0.2522" style="stop-color:#9AFFAD"/>
		<stop  offset="0.4869" style="stop-color:#98FFA2"/>
		<stop  offset="0.7146" style="stop-color:#96FF8F"/>
		<stop  offset="0.9369" style="stop-color:#92FF75"/>
		<stop  offset="1" style="stop-color:#91FF6C"/>
	</linearGradient>
	<polygon style="fill:url(#SVGID_00000064339685859397621260000009389789447451768495_);" points="320.2,134.8 376.3,258.6 
		515,170.2 	"/>
	
		<linearGradient id="SVGID_00000071534268217366240340000009057677083847351180_" gradientUnits="userSpaceOnUse" x1="312.1656" y1="-2958.1223" x2="312.1656" y2="-2877.1082" gradientTransform="matrix(0.9986 -5.210000e-02 -5.210000e-02 -0.9986 0.9869 -2683.8813)">
		<stop  offset="0" style="stop-color:#9AFFB1"/>
		<stop  offset="1" style="stop-color:#91FF6C"/>
	</linearGradient>
	<polygon style="fill:url(#SVGID_00000071534268217366240340000009057677083847351180_);" points="376.3,258.6 556.6,233.6 
		515,170.2 	"/>
	
		<linearGradient id="SVGID_00000146497995299967219560000009738257469119996551_" gradientUnits="userSpaceOnUse" x1="117.6438" y1="-2857.0303" x2="117.6438" y2="-2706.3667" gradientTransform="matrix(0.9986 -5.210000e-02 -5.210000e-02 -0.9986 0.9869 -2683.8813)">
		<stop  offset="0" style="stop-color:#91FF6C"/>
		<stop  offset="1" style="stop-color:#516612"/>
	</linearGradient>
	<polygon style="fill:url(#SVGID_00000146497995299967219560000009738257469119996551_);" points="189,167.1 244.7,32.2 337.8,8.5 
		320.2,134.8 	"/>
	
		<linearGradient id="SVGID_00000153663971825380293230000008040622839479023527_" gradientUnits="userSpaceOnUse" x1="268.3115" y1="-2877.1082" x2="268.3115" y2="-2706.3667" gradientTransform="matrix(0.9986 -5.210000e-02 -5.210000e-02 -0.9986 0.9869 -2683.8813)">
		<stop  offset="0" style="stop-color:#91FF6C"/>
		<stop  offset="9.860164e-02" style="stop-color:#87E75E"/>
		<stop  offset="0.3088" style="stop-color:#74B943"/>
		<stop  offset="0.5103" style="stop-color:#65952E"/>
		<stop  offset="0.698" style="stop-color:#5A7B1E"/>
		<stop  offset="0.8666" style="stop-color:#536B15"/>
		<stop  offset="1" style="stop-color:#516612"/>
	</linearGradient>
	<polygon style="fill:url(#SVGID_00000153663971825380293230000008040622839479023527_);" points="337.8,8.5 320.2,134.8 515,170.2 
		463.1,22.1 	"/>
	
		<linearGradient id="SVGID_00000172429823389911523910000011105139644624118713_" gradientUnits="userSpaceOnUse" x1="361.6851" y1="-2942.5581" x2="361.6851" y2="-2726.4563" gradientTransform="matrix(0.9986 -5.210000e-02 -5.210000e-02 -0.9986 0.9869 -2683.8813)">
		<stop  offset="0" style="stop-color:#91FF6C"/>
		<stop  offset="1" style="stop-color:#516612"/>
	</linearGradient>
	<polygon style="fill:url(#SVGID_00000172429823389911523910000011105139644624118713_);" points="556.6,233.6 515,170.2 
		463.1,22.1 480.1,29.8 	"/>
	<polygon class="st4" points="189,167.1 310.6,129.9 332.2,48.5 321.2,127.6 506.9,165.3 499.5,125.9 515,170.2 556.6,233.6 
		512.6,180.6 376.3,258.6 499.1,177.1 324.3,141.3 358.3,218.9 312.3,143.6 	"/>
	<polygon class="st5" points="244.7,194.3 351.2,235.5 358.3,218.9 376.3,258.6 	"/>
	<polygon class="st5" points="335.6,167.2 391,212.9 467.6,198 376.3,258.6 	"/>
	<polygon class="st5" points="189,167.1 240.2,77.9 310.6,129.9 	"/>
	<polygon class="st5" points="189,167.1 286.3,45.6 310.6,129.9 	"/>
	<polygon class="st5" points="332.2,48.5 336.2,19.7 478.8,66.7 482.6,77.5 	"/>
	<polygon class="st5" points="337.8,8.5 336.7,16.2 474.3,54 470.6,43.3 	"/>
</g>
</svg>
