<?xml version="1.0" encoding="utf-8"?>
<!-- Generator: Adobe Illustrator 28.0.0, SVG Export Plug-In . SVG Version: 6.00 Build 0)  -->
<svg version="1.1" id="Layer_1" xmlns="http://www.w3.org/2000/svg" xmlns:xlink="http://www.w3.org/1999/xlink" x="0px" y="0px"
	 viewBox="0 0 1080 1080" style="enable-background:new 0 0 1080 1080;" xml:space="preserve">
<style type="text/css">
	.st0{fill-rule:evenodd;clip-rule:evenodd;fill:url(#SVGID_1_);}
	.st1{fill-rule:evenodd;clip-rule:evenodd;fill:url(#SVGID_00000029007338462689843820000010401855233687346108_);}
	.st2{fill-rule:evenodd;clip-rule:evenodd;fill:url(#SVGID_00000142858878826954510140000011763256676754235326_);}
	.st3{fill-rule:evenodd;clip-rule:evenodd;fill:#A0FFED;}
	.st4{fill-rule:evenodd;clip-rule:evenodd;fill:url(#SVGID_00000129177195918659898050000013723819157720023444_);}
	.st5{fill-rule:evenodd;clip-rule:evenodd;fill:url(#SVGID_00000059991861437566060900000015404732152656381573_);}
	.st6{fill-rule:evenodd;clip-rule:evenodd;fill:url(#SVGID_00000173867556650974363790000010325563859941984926_);}
	.st7{fill-rule:evenodd;clip-rule:evenodd;fill:url(#SVGID_00000002372001589088695150000007427709338566756255_);}
	.st8{fill-rule:evenodd;clip-rule:evenodd;fill:url(#SVGID_00000029740181293038636870000000067329074261126062_);}
	.st9{fill-rule:evenodd;clip-rule:evenodd;fill:#68F6FF;}
	.st10{fill-rule:evenodd;clip-rule:evenodd;fill:url(#SVGID_00000088850620893697686830000004026960799125258929_);}
	.st11{fill-rule:evenodd;clip-rule:evenodd;fill:url(#SVGID_00000180333285756344091760000014713819779813171877_);}
	.st12{fill-rule:evenodd;clip-rule:evenodd;fill:url(#SVGID_00000008133075112539664050000018196696847840029342_);}
	.st13{fill-rule:evenodd;clip-rule:evenodd;fill:url(#SVGID_00000158725420867461793130000009376070647246279819_);}
	.st14{fill-rule:evenodd;clip-rule:evenodd;fill:url(#SVGID_00000149375439284721007280000010219491548754813843_);}
	.st15{fill-rule:evenodd;clip-rule:evenodd;fill:url(#SVGID_00000042001643520165834860000016452588208310294672_);}
	.st16{fill-rule:evenodd;clip-rule:evenodd;fill:url(#SVGID_00000144317232274046536660000004910822575764757173_);}
	.st17{fill-rule:evenodd;clip-rule:evenodd;fill:url(#SVGID_00000071517350422644269710000011848731984643550891_);}
	.st18{fill-rule:evenodd;clip-rule:evenodd;fill:url(#SVGID_00000066491751624676814470000001520710906390350006_);}
	.st19{fill-rule:evenodd;clip-rule:evenodd;fill:url(#SVGID_00000009579681936985216640000017470164281217949832_);}
	.st20{fill-rule:evenodd;clip-rule:evenodd;fill:#C2FFFF;}
	.st21{fill-rule:evenodd;clip-rule:evenodd;fill:url(#SVGID_00000008118545291867346150000004733222386821269171_);}
	.st22{fill-rule:evenodd;clip-rule:evenodd;fill:url(#SVGID_00000029763116075450070510000016693311359694639753_);}
	.st23{fill-rule:evenodd;clip-rule:evenodd;fill:url(#SVGID_00000083065668878283600160000012900246657920012211_);}
	.st24{fill-rule:evenodd;clip-rule:evenodd;fill:url(#SVGID_00000169531090469190800640000002286192806369614001_);}
	.st25{fill-rule:evenodd;clip-rule:evenodd;fill:url(#SVGID_00000091001992752400666020000002849227987239779735_);}
</style>
<g>
	
		<linearGradient id="SVGID_1_" gradientUnits="userSpaceOnUse" x1="484.6055" y1="723.2515" x2="484.6055" y2="254.2654" gradientTransform="matrix(0.9994 3.320000e-02 -3.320000e-02 0.9994 16.5352 -21.8287)">
		<stop  offset="0" style="stop-color:#4C51DD"/>
		<stop  offset="0.9944" style="stop-color:#86F9FF"/>
	</linearGradient>
	<path class="st0" d="M599.8,496.4l-4.2,48.9l0.7,7.8c-8.1,41.2-23.5,79.8-23.5,79.8c-7.9,7.6-40.5,22.3-40.5,22.3l-19.5,39.2
		c-11.5,11.1-36.9,15.4-36.9,15.4l-0.2,7.2c-16-2.1-40.3-11.8-40.3-11.8L429,684c-7.6-4.1-35.5-23.4-35.5-23.4l-6.1-25
		c0,0-20.5-18.9-21.8-27.5c-0.2-1-0.5-3.3-1.1-6.6c-4.2-25.4-18.4-109.9-18.4-109.9s-3.2-7.6-2.8-14.4c0.4-6.8,2.6-27.7,2.6-27.7
		s97.2-25.1,113.8-26.4c16.6-1.3,84.3-0.4,84.3-0.4l1.6-48.7l23.6-26.7c4.8,5.5,8,12.7,10.1,19.4c0.1,0.5,0.3,0.9,0.4,1.4l0,0
		c1.3,4.5,2.2,8.6,2.7,11.7l0,0l0.1,0.4c0.4,2.8,0.6,4.5,0.6,4.5l-1.3-24.2l9.3-14.7c3.3-18.2,2.7-53.9,2.7-53.9l7-5.4l1.9-31.9
		l11.4-2.3l6.8,41.5l5.6,10.5c0,0-1.4,47.9-2.8,68c-1.4,20.1,3.6,80,3.6,80C617,480,599.8,496.4,599.8,496.4z"/>
	
		<linearGradient id="SVGID_00000129197701542692121490000004171131108234356383_" gradientUnits="userSpaceOnUse" x1="344.8618" y1="449.0699" x2="564.8498" y2="449.0699" gradientTransform="matrix(0.9994 3.320000e-02 -3.320000e-02 0.9994 16.5352 -21.8287)">
		<stop  offset="0" style="stop-color:#BDFFFF"/>
		<stop  offset="1" style="stop-color:#39D0DD"/>
	</linearGradient>
	<path style="fill-rule:evenodd;clip-rule:evenodd;fill:url(#SVGID_00000129197701542692121490000004171131108234356383_);" d="
		M345.9,449.6l26.6,11.9c0,0,28.2-7.2,30.9-9.6c2.7-2.4,22.8-16.4,22.8-16.4l49.9-3.9l3,13.7c0,0,14.5-1.3,30-3.5
		c15.5-2.1,25.5-0.8,31.3-4.9c5.8-4.1,4-6.8,11.4-7.5c7.4-0.6,14.8-1.1,14.8-1.1l-22.7-5.5c0,0-64.1,1.4-84.3,0.4
		C439.6,422.1,356.5,442.8,345.9,449.6z"/>
	
		<linearGradient id="SVGID_00000022530791807434306500000007783575386882248376_" gradientUnits="userSpaceOnUse" x1="382.7856" y1="566.7314" x2="596.602" y2="566.7314" gradientTransform="matrix(0.9994 3.320000e-02 -3.320000e-02 0.9994 16.5352 -21.8287)">
		<stop  offset="0" style="stop-color:#4CFFED"/>
		<stop  offset="1" style="stop-color:#39D0DD"/>
	</linearGradient>
	<path style="fill-rule:evenodd;clip-rule:evenodd;fill:url(#SVGID_00000022530791807434306500000007783575386882248376_);" d="
		M393.9,555.2l-14,14.9c0,0,37.3,5,48.8,5.8c11.5,0.8,39.1-0.9,39.1-0.9s43.9-7.9,56.8-9.2c12.9-1.3,60.2-10.9,60.2-10.9l9.5-3.1
		l-9.3-4.8c0,0-25.2-0.7-35.1,3.3c-9.9,4-45,10.8-57,14c-12,3.2-35.2,3.5-35.2,3.5S405,554.7,393.9,555.2z"/>
	<path class="st3" d="M545.6,374.1l15.5,6.6c0,0,8.8-2.2,12.2-5.4c3.4-3.3,6-8.6,6-8.6s-5.5-13.7-10.2-19.2
		C569.2,347.4,553.2,361.9,545.6,374.1z"/>
	<path class="st3" d="M581.8,360.7c0,0,11.9-1.8,19-2.1c7.1-0.2,17-5.4,17-5.4l0.2-7l-27-0.2C591,345.9,584.2,354.7,581.8,360.7z"/>
	<polygon class="st3" points="593.8,292 602.6,305.5 616.2,310.9 623.9,313.2 610.2,305 605.1,292.4 600.7,286.6 	"/>
	<polygon class="st3" points="602.6,254.7 606.2,273.6 612.7,279.2 614.6,269.2 614,252.4 	"/>
	
		<linearGradient id="SVGID_00000034772007521504873510000003606443068418788749_" gradientUnits="userSpaceOnUse" x1="556.0752" y1="441.5319" x2="595.5492" y2="441.5319" gradientTransform="matrix(0.9994 3.320000e-02 -3.320000e-02 0.9994 16.5352 -21.8287)">
		<stop  offset="0" style="stop-color:#84FFED"/>
		<stop  offset="1" style="stop-color:#39D0DD"/>
	</linearGradient>
	
		<polygon style="fill-rule:evenodd;clip-rule:evenodd;fill:url(#SVGID_00000034772007521504873510000003606443068418788749_);" points="
		597.2,434.7 586,446.4 569.2,450.6 557.2,450.2 573.5,442.3 580.5,433.4 585,426.5 	"/>
	
		<linearGradient id="SVGID_00000052818190034699581190000015372056281314830983_" gradientUnits="userSpaceOnUse" x1="628.5299" y1="601.9846" x2="445.7436" y2="398.2701" gradientTransform="matrix(0.9994 3.320000e-02 -3.320000e-02 0.9994 16.5352 -21.8287)">
		<stop  offset="0" style="stop-color:#2933B7"/>
		<stop  offset="1" style="stop-color:#1E7ABA"/>
	</linearGradient>
	<path style="fill-rule:evenodd;clip-rule:evenodd;fill:url(#SVGID_00000052818190034699581190000015372056281314830983_);" d="
		M599.8,496.4l-4.2,48.9l0.7,7.8c-8.1,41.2-23.5,79.8-23.5,79.8c-7.9,7.6-40.5,22.3-40.5,22.3l-19.5,39.2
		c-11.5,11.1-36.9,15.4-36.9,15.4l-0.2,7.2c-16-2.1-40.3-11.8-40.3-11.8L429,684c-7.6-4.1-35.5-23.4-35.5-23.4l-6.1-25
		c0,0-20.5-18.9-21.8-27.5c-0.2-1-0.5-3.3-1.1-6.6l14,8.2l6.3-10.8l-1.7-28.7l8.7,46.9l1.1,31l6.6,8.2l22,13.2l19,16.8l15.2-9.4
		l2.7-82.4l-4.4-11.4l6.6,6.9l6.6,57.8L471,680l25.1,0.8l16.5-22.5l18-18.8l22.8-23.9l13.3-27l13.2-31.8l14.6-4.9l-9.3-4.8
		l-28.5,1.6l-23.7,6.6c0,0-31.8,7.2-43.5,10c-11.7,2.8-31.6,2.7-31.6,2.7l-42.3-9.5l-2.6-12.5l-7.4-19.8l-1.1-46.2l-0.8-27.9
		l22.8-16.4l49.9-3.9l3,13.7l-0.7,84.8l12.8,31l20.5-6.5l22.8-25.8l4.4-49.5l1.4-42.3c7.1-8.4,11.4-7.5,11.4-7.5l-0.3,10.2l3.6,71.7
		l5.8-19.6l-1.2-39.9l9.5-1.3l16.7-4.2l9.3-7.7l-11.8-7.1l-12.1,11.8l-4.7-15.1l-1.6-19.9l-4-27.7l12.2-5.4l6-8.5l0.1-0.1l0.3,1.5
		l0,0l2.7,11.7l0,0l0,0.2l0,0.2l2.5,46.2l12.2,8.2l0.3,23.4l14.1-9.3l1.9-8.7c0,0-4.7-18.1-3.4-33.1c1.3-15,7.2-38.2,7.2-38.2
		l0.7-22.6l-0.3-33.2l6.2,0.2l-4.6-3.8l0.3-7.9c0,0-3.5-2.8-5-6.5c-1.6-3.7-1.8-15.7-1.8-15.7l1.9-10l-0.7-16.8l6.8,41.5l5.6,10.5
		c0,0-1.4,47.9-2.8,68c-1.4,20.1,3.6,80,3.6,80C617,480,599.8,496.4,599.8,496.4z"/>
	<g>
		
			<linearGradient id="SVGID_00000004542655141586350900000007413565923787987592_" gradientUnits="userSpaceOnUse" x1="607.1234" y1="247.2052" x2="607.1234" y2="144.8646" gradientTransform="matrix(0.9994 3.320000e-02 -3.320000e-02 0.9994 16.5352 -21.8287)">
			<stop  offset="5.586590e-03" style="stop-color:#86F9FF"/>
			<stop  offset="1" style="stop-color:#7D8CDD"/>
		</linearGradient>
		<path style="fill-rule:evenodd;clip-rule:evenodd;fill:url(#SVGID_00000004542655141586350900000007413565923787987592_);" d="
			M639.7,148.2c0,0-1.7,33.9-7.7,58l-8.4,10.9c0,0-3,20.7-5.2,26c-2.2,5.3-12.7-0.4-12.7-0.4s-4.5-16.8-7.4-38l0,0
			c-2-15.2-3.1-32.5-1-47.4c0,0,12.7-12.1,23.6-13.7c5.6-0.8,10.4,0.4,13.7,1.8l0.1,0.1C637.5,146.6,639.2,147.9,639.7,148.2
			L639.7,148.2z"/>
		
			<linearGradient id="SVGID_00000111909430853748620730000000366225441571280550_" gradientUnits="userSpaceOnUse" x1="608.7258" y1="247.2052" x2="608.7258" y2="146.5885" gradientTransform="matrix(0.9994 3.320000e-02 -3.320000e-02 0.9994 16.5352 -21.8287)">
			<stop  offset="0" style="stop-color:#3E1EC0"/>
			<stop  offset="1" style="stop-color:#4395BA"/>
		</linearGradient>
		<path style="fill-rule:evenodd;clip-rule:evenodd;fill:url(#SVGID_00000111909430853748620730000000366225441571280550_);" d="
			M639.7,148.2c0,0-1.7,33.9-7.7,58l-8.4,10.9c0,0-3,20.7-5.2,26c-2.2,5.3-12.7-0.4-12.7-0.4s-4.5-16.8-7.4-38l5.3,21.4l13.7-4.2
			l1.7-11.1l5.2-47.1l-1.2,37.4l7.4-8.2l0.5-15.1l3.8-32.5l0.1,0.1L639.7,148.2L639.7,148.2z"/>
	</g>
	<g>
		
			<linearGradient id="SVGID_00000044167155325012115230000009078898615488524705_" gradientUnits="userSpaceOnUse" x1="649.5608" y1="656.2193" x2="645.9049" y2="546.0483" gradientTransform="matrix(0.9994 3.320000e-02 -3.320000e-02 0.9994 16.5352 -21.8287)">
			<stop  offset="0" style="stop-color:#4C51DD"/>
			<stop  offset="0.9944" style="stop-color:#86F9FF"/>
		</linearGradient>
		<path style="fill-rule:evenodd;clip-rule:evenodd;fill:url(#SVGID_00000044167155325012115230000009078898615488524705_);" d="
			M676.6,608.6l-9,9.5l-15,14.8c0,0-1.2,11.7-6.7,16.9c-5.5,5.2-11.6,5.8-11.6,5.8l-3.5-14.4c0,0-11.6-4.7-15.9-8.1
			c-0.6-0.5-1.1-1-1.3-1.4c-1.9-3.1-7.3-53.1-5.6-66.8c0.2-1.3,0.4-2.3,0.7-2.9c11.3-21.8,46-15.9,46-15.9l7,15.2
			c0,0,6-0.3,11.2,1.5c2.3,0.8,4.4,2,5.7,3.8c0.6,0.8,1.1,1.8,1.3,3C681.7,578.6,676.6,608.6,676.6,608.6z"/>
		<path class="st9" d="M679.8,569.5c-6.3-1.2-22.5,0.1-22.5,0.1l-1.9,2.7c-13.8,1.7-45.4-6.9-47.5-7.5c0.2-1.3,0.4-2.3,0.7-2.9
			c11.3-21.8,46-15.9,46-15.9l7,15.2C661.5,561.2,677.9,560.4,679.8,569.5z"/>
		
			<linearGradient id="SVGID_00000101064169629737315910000015106608842677944228_" gradientUnits="userSpaceOnUse" x1="650.814" y1="642.2433" x2="650.814" y2="562.4542" gradientTransform="matrix(0.9994 3.320000e-02 -3.320000e-02 0.9994 16.5352 -21.8287)">
			<stop  offset="0" style="stop-color:#3E1EC0"/>
			<stop  offset="1" style="stop-color:#4395BA"/>
		</linearGradient>
		<path style="fill-rule:evenodd;clip-rule:evenodd;fill:url(#SVGID_00000101064169629737315910000015106608842677944228_);" d="
			M676.6,608.6l-2.9-22.5l-10.7,5.6l-9.3,32.9l-6.6,6.9l-8,1.2l-8.3,8.4c0,0-11.6-4.7-15.9-8.1l-1.3-1.4l16.7,0.5l11.8-9.7l6.6-18.9
			l6.8-31.1l-2-6l19.4-3.6l5.7,3.8c0.6,0.8,1.1,1.8,1.3,3C681.7,578.6,676.6,608.6,676.6,608.6z"/>
	</g>
</g>
<g>
	
		<linearGradient id="SVGID_00000097498457898988786850000012116524415639424935_" gradientUnits="userSpaceOnUse" x1="539.736" y1="930.8337" x2="539.736" y2="680.2026">
		<stop  offset="0" style="stop-color:#00AABA"/>
		<stop  offset="1" style="stop-color:#000E77"/>
	</linearGradient>
	<path style="fill-rule:evenodd;clip-rule:evenodd;fill:url(#SVGID_00000097498457898988786850000012116524415639424935_);" d="
		M334,680.2c0,0,6.5,13.3,11.7,21c5.2,7.7,9.8,12.5,9.8,12.5l-4.9,7.4l-179.3,8.2L0,744.2c0,0,10,14.2,14,18.3
		c4.1,4.1,9.7,7.7,9.7,7.7s3.6,17.4,4.9,24.5c1.3,7.2-2,13.8-2,13.8l7.6,24.5l243.6,51.1h155.9L750,914.3l329.4,16.5V759.6
		l-298.8-43.1L334,680.2z"/>
	
		<linearGradient id="SVGID_00000180338353827701198410000013509822949778190727_" gradientUnits="userSpaceOnUse" x1="0" y1="736.6399" x2="401.6851" y2="736.6399">
		<stop  offset="0" style="stop-color:#6BEBED"/>
		<stop  offset="1" style="stop-color:#3994DD"/>
	</linearGradient>
	<path style="fill-rule:evenodd;clip-rule:evenodd;fill:url(#SVGID_00000180338353827701198410000013509822949778190727_);" d="
		M401.7,722.2c0,0-14.9-7.1-24.5-8.3c-9.6-1.2-253.8,7.8-268.3,8.3l-32.5-2.5c0,0-6.6-7.1-13.1-5.9c-6.5,1.2-11.9,4.1-11.9,4.1
		s-2.4,7.5-4.4,9.4c-2.1,1.9-10.9,3.4-10.9,3.4l-6.7,5.4l-10.5-6.9l-11.5,6.9L0,744.2c0,0,17.6,2.3,23,3.8c5.4,1.5,88.6-3.4,113.1,0
		c24.5,3.5,52.1,3.5,54.1,5.4c1.9,1.9,27.3,7.1,36.7,6c9.3-1.1,103.7-15.2,103.7-15.2l54.3-11.3L401.7,722.2z"/>
	
		<radialGradient id="SVGID_00000134245924967076566560000005089787305227138950_" cx="651.224" cy="728.8499" r="307.0234" gradientUnits="userSpaceOnUse">
		<stop  offset="0" style="stop-color:#4CCCED"/>
		<stop  offset="1" style="stop-color:#39A5DD"/>
	</radialGradient>
	<path style="fill-rule:evenodd;clip-rule:evenodd;fill:url(#SVGID_00000134245924967076566560000005089787305227138950_);" d="
		M1080,660.5H648.5c0,0-10.9,4.7-18.5,5.3c-7.7,0.6-97.8,1.8-110.5,2c-12.7,0.2-47-1.7-68.7,0c-21.7,1.7-49.4,2.8-58,4.3
		c-8.7,1.5-33.3,4.1-42.2,5.6c-8.9,1.5-18.6,0-16.6,2.6c2,2.6,22.5,3.1,29.6,6.6c7.2,3.6,39.4,6.1,47.1,8.2s49.1,7.7,58.5,10.7
		c9.4,3.1,17.1,5.6,17.1,5.6s-81.5,9.2-91.6,12.3c-10.1,3.1-19.3,5.6-19.3,5.6s-122.6,14.3-134.6,18.9c-12,4.6-19.6,6.6-18.1,9.7
		c1.5,3.1,45.5,6.1,55.7,7.2c10.2,1,55.2-10.7,62.8-6.6c7.7,4.1,15.9,6.6,20.2,10.2c4.3,3.6,17.6,0.5,29.4,3.6
		c11.7,3.1,200.3,5.6,210.5,7.7c10.2,2,19.4,11.8,30.7,14.3c11.2,2.6,447.5,3.1,447.5,3.1L1080,660.5z"/>
	
		<linearGradient id="SVGID_00000057130710240580837320000012345725454314498719_" gradientUnits="userSpaceOnUse" x1="539.736" y1="936.6802" x2="539.736" y2="744.2233">
		<stop  offset="0" style="stop-color:#097098"/>
		<stop  offset="1" style="stop-color:#003194"/>
	</linearGradient>
	<path style="fill-rule:evenodd;clip-rule:evenodd;fill:url(#SVGID_00000057130710240580837320000012345725454314498719_);" d="
		M1022.6,797.8l9.5,126.2L921,926.6l-147.7-12.1l-18-61l-14-55.7l-1.7,60.2l1.7,40l-25,26l-61.7-13.1L632,794.2l-30.7-14.3
		l-11.1,64.9l-12.8,5.6l4.6,32.4l-71.6,2l-104.8,3.5l-14.9-116.2l-9.2-1.4l10.7,64.9l-26.6-65.6l-1.8,88.2L353.4,811l-21.9-0.5
		l1.8-53l-55,7.5l3.9,37.7l-41.7,5.8l-23.5-5.8l-29.8-50.1l-49.2-2.4l14.6,30.2l3.6,16.9l8.9,42.9l-40.4-8.6l-25.8-60.1l-2.2-13.8
		l-8-10.7L23,748l-23-3.8c0,0,10.9,15.5,14,18.3c3.1,2.8,9.7,7.7,9.7,7.7l21.6,1.6l14.9,9.5l11.1,16l-22.8,5.5l-8.7,6.3l-12.3,1.5
		l5.7,17.5L70,844.9l278.5,61.3l329,27.8l354.7,2.7l47.4-5.8V797.2L1022.6,797.8z"/>
	
		<linearGradient id="SVGID_00000127743695801636869020000013038687254637564309_" gradientUnits="userSpaceOnUse" x1="275.2287" y1="898.5621" x2="275.2287" y2="808.4889">
		<stop  offset="0" style="stop-color:#00B4BA"/>
		<stop  offset="1" style="stop-color:#0031A2"/>
	</linearGradient>
	<path style="fill-rule:evenodd;clip-rule:evenodd;fill:url(#SVGID_00000127743695801636869020000013038687254637564309_);" d="
		M197,808.5l12.4,71.7c0,0,38.8,14.8,54.2,17.8c15.4,3,33.2-7.1,33.2-7.1l28.4-2.5l19.5-13.2l8.7-64.1l-48.5-0.5L197,808.5z"/>
	
		<linearGradient id="SVGID_00000008124295743410204800000016102836461113344152_" gradientUnits="userSpaceOnUse" x1="197.03" y1="806.3524" x2="353.4274" y2="806.3524">
		<stop  offset="0" style="stop-color:#4CCCED"/>
		<stop  offset="1" style="stop-color:#39BDDD"/>
	</linearGradient>
	<path style="fill-rule:evenodd;clip-rule:evenodd;fill:url(#SVGID_00000008124295743410204800000016102836461113344152_);" d="
		M197,808.5c0,0,47-17.9,53.4-17.4c6.4,0.5,27.9,0,27.9,0s17.4,7.7,28.1,8.7c10.7,1,47,11.2,47,11.2s-25,4.1-32.9,4.1l3.3,5.1
		c0,0-17.4,3.1-44,0C279.8,820.2,257.9,815.6,197,808.5z"/>
	
		<linearGradient id="SVGID_00000018939955230956805210000000712737670597057684_" gradientUnits="userSpaceOnUse" x1="26.6823" y1="804.9995" x2="57.5212" y2="804.9995">
		<stop  offset="0" style="stop-color:#4CCCED"/>
		<stop  offset="1" style="stop-color:#39BDDD"/>
	</linearGradient>
	<path style="fill-rule:evenodd;clip-rule:evenodd;fill:url(#SVGID_00000018939955230956805210000000712737670597057684_);" d="
		M28.6,801.7l18.3-2.2l10.6,1.1l-9,2.2l-8.7,6.3l-12.3,1.5C27.5,810.5,25.1,806.1,28.6,801.7z"/>
	
		<linearGradient id="SVGID_00000139992659091373565720000006660107821509075130_" gradientUnits="userSpaceOnUse" x1="478.6444" y1="717.5369" x2="879.0631" y2="717.5369">
		<stop  offset="0" style="stop-color:#0059A2"/>
		<stop  offset="1" style="stop-color:#000E77"/>
	</linearGradient>
	
		<polygon style="fill-rule:evenodd;clip-rule:evenodd;fill:url(#SVGID_00000139992659091373565720000006660107821509075130_);" points="
		478.6,708.8 587.2,708 651.2,708.8 727.4,715.9 879.1,727.1 690.4,727.1 610,724.3 495.7,713.4 	"/>
	
		<linearGradient id="SVGID_00000153683782404720625030000014612124583866862737_" gradientUnits="userSpaceOnUse" x1="197.027" y1="745.6216" x2="879.0631" y2="745.6216">
		<stop  offset="0" style="stop-color:#4CCCED"/>
		<stop  offset="1" style="stop-color:#39BDDD"/>
	</linearGradient>
	<path style="fill-rule:evenodd;clip-rule:evenodd;fill:url(#SVGID_00000153683782404720625030000014612124583866862737_);" d="
		M213.5,761.5l64.8,3.6c0,0,21.7-0.5,55-7.5l32.4,12.6l25.1,2l4.9,5.7l205.6,1.9l78.7-11.1l39.1-7.3l160-34.3l-183.4-5.6l-31.5,5.6
		l-63.7-3.7l-114.1-12c0,0-77.7,9-91.6,12.3c-13.9,3.3-107.8,16.3-107.8,16.3L197,755.7C197,755.7,196.4,759.3,213.5,761.5z"/>
	<path class="st20" d="M51.4,718l6.2,4.7l10-2.3l4.6-2.3l-2.7-4.6C69.5,713.4,56.7,713.7,51.4,718z"/>
	<path class="st20" d="M33.7,732.7h8.4l6.1-4.9C48.2,727.8,41.8,725.9,33.7,732.7z"/>
	<polygon class="st20" points="18.8,729.3 9.1,736.6 11.3,739.9 22,739.9 29.3,736.2 	"/>
	
		<linearGradient id="SVGID_00000153706856928245074960000013881943828297030283_" gradientUnits="userSpaceOnUse" x1="926.162" y1="731.2736" x2="1080" y2="731.2736">
		<stop  offset="0" style="stop-color:#0059A2"/>
		<stop  offset="1" style="stop-color:#000E77"/>
	</linearGradient>
	
		<polygon style="fill-rule:evenodd;clip-rule:evenodd;fill:url(#SVGID_00000153706856928245074960000013881943828297030283_);" points="
		926.2,727.6 1079.5,722.6 1080,739.9 	"/>
	
		<linearGradient id="SVGID_00000036969249556018914240000002909435384869856397_" gradientUnits="userSpaceOnUse" x1="741.2843" y1="798.1918" x2="1079.4719" y2="798.1918">
		<stop  offset="0" style="stop-color:#4CCCED"/>
		<stop  offset="1" style="stop-color:#39BDDD"/>
	</linearGradient>
	
		<polygon style="fill-rule:evenodd;clip-rule:evenodd;fill:url(#SVGID_00000036969249556018914240000002909435384869856397_);" points="
		741.3,797.8 794.5,802.7 820.5,802.7 874.9,800.3 901.9,801.7 938.6,802.7 954,812.1 988.3,810.5 1017.5,807.5 1027.4,797.8 
		1059.4,796.1 1079.5,797.2 944.5,784.3 873.3,791.1 805.3,791.1 	"/>
	
		<linearGradient id="SVGID_00000063622628232123838060000005988779515884737158_" gradientUnits="userSpaceOnUse" x1="198.4176" y1="755.7393" x2="198.4176" y2="744.2233">
		<stop  offset="0" style="stop-color:#4CCCED"/>
		<stop  offset="1" style="stop-color:#39BDDD"/>
	</linearGradient>
	
		<polygon style="fill-rule:evenodd;clip-rule:evenodd;fill:url(#SVGID_00000063622628232123838060000005988779515884737158_);" points="
		138,750.2 156.7,748.2 170,745.6 191.3,747.9 222.4,750.2 258.8,744.2 197,755.7 188.1,754.2 184.2,755.7 	"/>
	
		<linearGradient id="SVGID_00000075874396838758122480000005408392089032570292_" gradientUnits="userSpaceOnUse" x1="653.5768" y1="808.4889" x2="653.5768" y2="759.5949">
		<stop  offset="0" style="stop-color:#0059A2"/>
		<stop  offset="1" style="stop-color:#000E77"/>
	</linearGradient>
	
		<polygon style="fill-rule:evenodd;clip-rule:evenodd;fill:url(#SVGID_00000075874396838758122480000005408392089032570292_);" points="
		601.3,779.9 636.6,774.8 680,768.7 727.7,759.6 666.8,766.6 579.5,778.7 595.7,808.5 	"/>
	
		<linearGradient id="SVGID_00000112615383620800579340000005818385778979407244_" gradientUnits="userSpaceOnUse" x1="605.9633" y1="667.5658" x2="722.6712" y2="667.5658">
		<stop  offset="0" style="stop-color:#4CCCED"/>
		<stop  offset="1" style="stop-color:#39BDDD"/>
	</linearGradient>
	
		<polygon style="fill-rule:evenodd;clip-rule:evenodd;fill:url(#SVGID_00000112615383620800579340000005818385778979407244_);" points="
		648.5,660.5 717,667.6 722.7,674.7 694.3,672.5 643.7,672.5 606,667.6 	"/>
</g>
</svg>
