<?xml version="1.0" encoding="utf-8"?>
<!-- Generator: Adobe Illustrator 28.1.0, SVG Export Plug-In . SVG Version: 6.00 Build 0)  -->
<svg version="1.1" id="Layer_1" xmlns="http://www.w3.org/2000/svg" xmlns:xlink="http://www.w3.org/1999/xlink" x="0px" y="0px"
	 viewBox="0 0 1080 1080" style="enable-background:new 0 0 1080 1080;" xml:space="preserve">
<style type="text/css">
	.st0{fill-rule:evenodd;clip-rule:evenodd;fill:url(#SVGID_1_);}
	.st1{fill-rule:evenodd;clip-rule:evenodd;fill:url(#SVGID_00000003077346209817382100000014310965688612429449_);}
	.st2{fill-rule:evenodd;clip-rule:evenodd;fill:url(#SVGID_00000062902835779649616880000013729030627206516404_);}
	.st3{fill-rule:evenodd;clip-rule:evenodd;fill:#9086D6;}
	.st4{fill-rule:evenodd;clip-rule:evenodd;fill:url(#SVGID_00000052066779010948050300000016925423789704351673_);}
	.st5{fill-rule:evenodd;clip-rule:evenodd;fill:url(#SVGID_00000000217518898465685550000011967465763755574967_);}
	.st6{fill-rule:evenodd;clip-rule:evenodd;fill:url(#SVGID_00000025415334876428227820000004222597672555060653_);}
	.st7{fill-rule:evenodd;clip-rule:evenodd;fill:url(#SVGID_00000016759640200792251710000005978264883439591588_);}
	.st8{fill-rule:evenodd;clip-rule:evenodd;fill:url(#SVGID_00000174579751617064069820000004324351018524249760_);}
	.st9{fill-rule:evenodd;clip-rule:evenodd;fill:url(#SVGID_00000054260143856354311730000012232182084778423181_);}
	.st10{fill-rule:evenodd;clip-rule:evenodd;fill:url(#SVGID_00000031197451389956693390000010606879426679586225_);}
	.st11{fill-rule:evenodd;clip-rule:evenodd;fill:url(#SVGID_00000183965507352428001720000008391763578891344575_);}
	.st12{fill-rule:evenodd;clip-rule:evenodd;fill:url(#SVGID_00000177466505640281844810000009450344725548651175_);}
	.st13{fill-rule:evenodd;clip-rule:evenodd;fill:url(#SVGID_00000026845946301549804820000006457285041590756792_);}
	.st14{fill-rule:evenodd;clip-rule:evenodd;fill:url(#SVGID_00000168114574451074413910000005005391696738003340_);}
	.st15{fill-rule:evenodd;clip-rule:evenodd;fill:url(#SVGID_00000011025769357987930530000008546826142674906513_);}
	.st16{fill-rule:evenodd;clip-rule:evenodd;fill:url(#SVGID_00000057111678626628594770000011457608308707918759_);}
	.st17{fill-rule:evenodd;clip-rule:evenodd;fill:url(#SVGID_00000147196780168269266370000005568444924890119865_);}
	.st18{fill-rule:evenodd;clip-rule:evenodd;fill:url(#SVGID_00000094602964325523373200000006794600533104296120_);}
	.st19{fill-rule:evenodd;clip-rule:evenodd;fill:url(#SVGID_00000000219308910152463480000002140264608032423333_);}
	.st20{fill-rule:evenodd;clip-rule:evenodd;fill:url(#SVGID_00000119825154739748336630000013696120860377362609_);}
	.st21{fill-rule:evenodd;clip-rule:evenodd;fill:url(#SVGID_00000073688346073515050290000001643926684564396459_);}
</style>
<g>
	
		<linearGradient id="SVGID_1_" gradientUnits="userSpaceOnUse" x1="151.8833" y1="70.3859" x2="151.8833" y2="279.8" gradientTransform="matrix(1 0 0 -1 0 1080)">
		<stop  offset="5.586590e-03" style="stop-color:#6A57AE"/>
		<stop  offset="1" style="stop-color:#3F2D70"/>
	</linearGradient>
	<path class="st0" d="M62.9,815.9c0,0-4.8,74.5,0,105.3c0,0,6.3,18,33.7,25.9v59.3c0,0,47,10.6,62.8-6.7S243,800.2,243,800.2
		l-81.7,9L62.9,815.9z"/>
	
		<linearGradient id="SVGID_00000154396734200497910670000013763853553691925181_" gradientUnits="userSpaceOnUse" x1="62.9" y1="269.6095" x2="243" y2="269.6095" gradientTransform="matrix(1 0 0 -1 0 1080)">
		<stop  offset="0" style="stop-color:#3F2D70"/>
		<stop  offset="1" style="stop-color:#4B416A"/>
	</linearGradient>
	<path style="fill-rule:evenodd;clip-rule:evenodd;fill:url(#SVGID_00000154396734200497910670000013763853553691925181_);" d="
		M62.9,815.9c0,0,57.7-4.8,67.4-10.6l19.8-9.6l92.9,4.5c0,0-12.6,9-25.1,15.7s-71.2,10.6-96.2,8.7C96.6,822.6,62.9,815.9,62.9,815.9
		z"/>
	
		<linearGradient id="SVGID_00000138535630899980848210000006042633756460212890_" gradientUnits="userSpaceOnUse" x1="152.95" y1="60.9" x2="152.95" y2="279.8" gradientTransform="matrix(1 0 0 -1 0 1080)">
		<stop  offset="0" style="stop-color:#322E56"/>
		<stop  offset="1" style="stop-color:#3F2D70"/>
	</linearGradient>
	<path style="fill-rule:evenodd;clip-rule:evenodd;fill:url(#SVGID_00000138535630899980848210000006042633756460212890_);" d="
		M62.9,921.2l29.7,5.6l15.9-5.6l10-62.1V921l4.4,23.4l29,11c0,0,19.9-8.9,23.3-22.1c3.5-13.2,28.6-113.4,28.6-113.4l39.2-19.7
		c0,0-51.2,148.6-74.1,183.2l-17,26.2l-52.6,9.5l-6.7-19.4l4-52.6C96.6,947.1,64.5,938.3,62.9,921.2z"/>
	<path class="st3" d="M130.2,805.3c0,0,26.7,3.6,36.7,3.2c10-0.4,31.8-3.2,31.8-3.2s-33.5-10.8-48.7-9.6
		C150,795.7,133.2,799.6,130.2,805.3z"/>
</g>
<g>
	
		<linearGradient id="SVGID_00000044860401280645091210000015173493637965863059_" gradientUnits="userSpaceOnUse" x1="583.2885" y1="37.1" x2="583.2885" y2="361.8" gradientTransform="matrix(1 0 0 -1 0 1080)">
		<stop  offset="5.586590e-03" style="stop-color:#6A57AE"/>
		<stop  offset="1" style="stop-color:#3F2D70"/>
	</linearGradient>
	<path style="fill-rule:evenodd;clip-rule:evenodd;fill:url(#SVGID_00000044860401280645091210000015173493637965863059_);" d="
		M278.1,718.2c0,0-12.7,62.5-11.2,77.4c1.4,14.9,30,48.1,30,48.1s30.2,64.9,39.7,96.7c9.6,31.7,42.2,72.2,42.2,72.2
		s195.4,30.3,248.8,30.3s80.3-25,80.3-25s75.4-130.9,81.9-137.3c6.6-6.5,44.1-20,44.1-20s61.1-110.3,65.9-139.3l-169.8,7
		L278.1,718.2z"/>
	
		<linearGradient id="SVGID_00000106110223644334065570000011777694230699101583_" gradientUnits="userSpaceOnUse" x1="278.1" y1="355.9653" x2="900" y2="355.9653" gradientTransform="matrix(1 0 0 -1 0 1080)">
		<stop  offset="0" style="stop-color:#3F2D70"/>
		<stop  offset="1" style="stop-color:#4B416A"/>
	</linearGradient>
	<path style="fill-rule:evenodd;clip-rule:evenodd;fill:url(#SVGID_00000106110223644334065570000011777694230699101583_);" d="
		M278.1,718.2l80.3-10.1l46.6-7.9c0,0,220.8,0.6,284.3,4.3c0,0,52.9-21.4,67.4-21.9c14.4-0.5,42.2,25.5,42.2,25.5L900,721.3
		c0,0-46.2,16.1-81.8,15.4l33.9,11.4c0,0-8,6.7-21.4,10.8C817.2,763,716,766,668,765.4c-48-0.5-69.1-17.3-69.1-17.3l22-8.3
		l-25.9-3.1c0,0-78.6,13.7-108.6,14.7c-30,1-68.5-6.4-68.5-6.4l-2.9-10.2C415,734.8,333.6,730.3,278.1,718.2z"/>
	
		<linearGradient id="SVGID_00000043454719950684402990000007788470251022746540_" gradientUnits="userSpaceOnUse" x1="458.85" y1="23.7" x2="458.85" y2="351.3999" gradientTransform="matrix(1 0 0 -1 0 1080)">
		<stop  offset="0" style="stop-color:#322E56"/>
		<stop  offset="1" style="stop-color:#3F2D70"/>
	</linearGradient>
	<path style="fill-rule:evenodd;clip-rule:evenodd;fill:url(#SVGID_00000043454719950684402990000007788470251022746540_);" d="
		M396,733.5v43.6l-44.3,7.5c0,0-1.9,0.9-6.8,13.4s-27.5,43.5-27.5,43.5l-20.5,2.2l16.4,36.8c0,0,23.7,0.2,33.1,6.1
		c9.4,5.9,30.3,23.3,30.3,23.3l12.5,34.4c0,0,12.5-63.5,13.4-73.6c0.8-10,13-53.2,11.1-60.4c-1.9-7.3,0.8-35.7,0.8-35.7l3.3-29.6
		c0,0,64.2,8.7,70.9,11.2c6.7,2.5,9.6,29.3,9.6,29.3l21.9,50.4l-24.5,73.6l9.5,62.5l3,47l34.9,37.3h27.6c0,0,22.6-122.1,24.2-129.6
		c1.7-7.5-6-25.1-6-25.1l11-76.7l-1.1-76.9l22-8.3l-25.9-3.1c0,0-81.6,12.2-95.1,13.5c-13.5,1.2-82.2-11.5-82.2-11.5l41.2-10
		L396,733.5z"/>
	
		<linearGradient id="SVGID_00000156568480021431861390000005071705613539347627_" gradientUnits="userSpaceOnUse" x1="792.1" y1="51.7" x2="792.1" y2="358.7" gradientTransform="matrix(1 0 0 -1 0 1080)">
		<stop  offset="0" style="stop-color:#322E56"/>
		<stop  offset="1" style="stop-color:#3F2D70"/>
	</linearGradient>
	<path style="fill-rule:evenodd;clip-rule:evenodd;fill:url(#SVGID_00000156568480021431861390000005071705613539347627_);" d="
		M748.1,765.5l55,9.2l-8.8,21l-23.8,57.6l-28.8,27.3l-32.3,11.9l-25,17.5h21.7l-1.7,23.3l-11.7,55.5l-0.6,39.5l14.8-2
		c0,0,58.9-106.6,82.9-145.7c0,0,40-12.4,44.1-20c4.2-7.6,60.7-113.3,65.9-139.3L818,736.7l33.9,11.4c0,0-23.9,10.6-39.8,13.2
		C796.5,763.8,748.1,765.5,748.1,765.5z"/>
	
		<linearGradient id="SVGID_00000083058549653491317480000016213747660676731275_" gradientUnits="userSpaceOnUse" x1="671.4" y1="381.0396" x2="784.1" y2="381.0396" gradientTransform="matrix(1 0 0 -1 0 1080)">
		<stop  offset="0" style="stop-color:#482F8B"/>
		<stop  offset="1" style="stop-color:#4B416A"/>
	</linearGradient>
	<path style="fill-rule:evenodd;clip-rule:evenodd;fill:url(#SVGID_00000083058549653491317480000016213747660676731275_);" d="
		M689.2,704.5l-17.8,8.8c0,0,13,2.9,20.5,5s48.8-1.3,56.2-3.3c7.3-2.1,34.5-10.4,34.5-10.4l1.5-8.5c0,0-20.3-18.1-26.4-17.1
		C751.6,679.8,700,699.2,689.2,704.5z"/>
	
		<linearGradient id="SVGID_00000114035418249647463000000011275717103226519435_" gradientUnits="userSpaceOnUse" x1="699.7" y1="372.45" x2="801.3" y2="372.45" gradientTransform="matrix(1 0 0 -1 0 1080)">
		<stop  offset="0" style="stop-color:#392F8B"/>
		<stop  offset="0.9777" style="stop-color:#291B4F"/>
	</linearGradient>
	<path style="fill-rule:evenodd;clip-rule:evenodd;fill:url(#SVGID_00000114035418249647463000000011275717103226519435_);" d="
		M801.3,708.5l-17.2,9.8l-27,0.7h-57.4c0,0,44.2-3.8,50.8-5.2s32.1-9.2,32.1-9.2l1.5-8.5L801.3,708.5z"/>
	
		<linearGradient id="SVGID_00000152982273444242532560000017214289851977439896_" gradientUnits="userSpaceOnUse" x1="427.45" y1="259.4" x2="427.45" y2="351.3" gradientTransform="matrix(1 0 0 -1 0 1080)">
		<stop  offset="0" style="stop-color:#251246"/>
		<stop  offset="0.9777" style="stop-color:#291B4F"/>
	</linearGradient>
	
		<polygon style="fill-rule:evenodd;clip-rule:evenodd;fill:url(#SVGID_00000152982273444242532560000017214289851977439896_);" points="
		396,777.2 414.6,820.6 417.8,738.7 458.9,728.7 396,733.5 	"/>
	
		<linearGradient id="SVGID_00000003095210628199232490000012741484988706613658_" gradientUnits="userSpaceOnUse" x1="859.05" y1="225.6" x2="859.05" y2="358.7" gradientTransform="matrix(1 0 0 -1 0 1080)">
		<stop  offset="0" style="stop-color:#251246"/>
		<stop  offset="0.9777" style="stop-color:#291B4F"/>
	</linearGradient>
	<path style="fill-rule:evenodd;clip-rule:evenodd;fill:url(#SVGID_00000003095210628199232490000012741484988706613658_);" d="
		M818.2,736.7l33.9,11.4l-14.7,106.3c0,0,45.6-87,62.5-133.1L818.2,736.7z"/>
	
		<linearGradient id="SVGID_00000172403255297418661310000017884693909151607731_" gradientUnits="userSpaceOnUse" x1="560.4" y1="235" x2="560.4" y2="343.3" gradientTransform="matrix(1 0 0 -1 0 1080)">
		<stop  offset="0" style="stop-color:#251246"/>
		<stop  offset="0.9777" style="stop-color:#291B4F"/>
	</linearGradient>
	
		<polygon style="fill-rule:evenodd;clip-rule:evenodd;fill:url(#SVGID_00000172403255297418661310000017884693909151607731_);" points="
		499.9,750.2 543.2,792.1 569.9,820.6 575.4,845 599.3,829.7 598.9,748.1 620.9,739.8 595,736.7 	"/>
</g>
<g>
	
		<linearGradient id="SVGID_00000145031179740578509510000008880149856637809836_" gradientUnits="userSpaceOnUse" x1="75.0032" y1="426.9999" x2="75.0032" y2="624.9415" gradientTransform="matrix(1 0 0 -1 0 1080)">
		<stop  offset="0" style="stop-color:#3F2D70"/>
		<stop  offset="0.9944" style="stop-color:#6A57AE"/>
	</linearGradient>
	<path style="fill-rule:evenodd;clip-rule:evenodd;fill:url(#SVGID_00000145031179740578509510000008880149856637809836_);" d="
		M150,592.4c0,0-11.7,36.3-20.4,45.9c-8.7,9.6-73,14.7-73,14.7S9.8,626.9,4.1,612.2c-0.6-1.5-1.2-4-1.6-7.2l0,0
		c-4.1-27.4-3.8-108,5.9-119.6c0,0,17.4-22.6,28.9-29.1c11.4-6.5,69.3,14.3,79,21.3c1.6,1.1,2.9,2.6,3.9,4.4c0,0,0.2,0.2,0.4,0.7
		c5.1,8.8,5.2,22.7,5.2,23.8c0,0,0,0,0,0.1c0,0,14.1,8.4,16.7,15.4l0.1,0.4C145.4,530.7,150,592.4,150,592.4z"/>
	
		<linearGradient id="SVGID_00000165926299323034981230000009443146437292060071_" gradientUnits="userSpaceOnUse" x1="76.25" y1="426.9999" x2="76.25" y2="598.0999" gradientTransform="matrix(1 0 0 -1 0 1080)">
		<stop  offset="0" style="stop-color:#3F2D70"/>
		<stop  offset="1" style="stop-color:#322E56"/>
	</linearGradient>
	<path style="fill-rule:evenodd;clip-rule:evenodd;fill:url(#SVGID_00000165926299323034981230000009443146437292060071_);" d="
		M150,592.4c0,0-11.7,36.3-20.4,45.9c-8.7,9.6-73,14.7-73,14.7S9.8,626.9,4.1,612.2c-0.6-1.5-1.2-4-1.6-7.2c1.2,1.1,20.5,19,33.6,23
		c13.6,4.1,25.1,0,25.1,0l3-23l2.5-34.3l2.5-37.7l5.7-20.1v36.2c0,0,15-12.1,16-21.1c1-9.1,7.5-24.2,7.5-24.2l21.8-21.9
		c0,0,0.2,0.2,0.4,0.7c1.6,2.4,6.7,11.1,5.2,23.8c0,0,0,0,0,0.1l-12.3,28.1l-1.5,28.9l7.6,33.2c0,0,9.6-12.8,13.6-18.9
		c4-6,4-23.8,4-23.8l5.3-32.1l0.1,0.4C145.4,530.7,150,592.4,150,592.4z"/>
	<path class="st3" d="M6.3,489.5l59.2,13.6h26.4l10-2.6l18.5-18.6c0,0-1.5-9.5-12.2-13.9S41,450.6,41,450.6l-6.4,4.4
		C34.5,455,11.6,478.9,6.3,489.5z"/>
	
		<linearGradient id="SVGID_00000126309884414383283130000009914510728799874195_" gradientUnits="userSpaceOnUse" x1="113.6502" y1="557.75" x2="142.7502" y2="557.75" gradientTransform="matrix(1 0 0 -1 0 1080)">
		<stop  offset="0" style="stop-color:#3F2D70"/>
		<stop  offset="1" style="stop-color:#4B416A"/>
	</linearGradient>
	<path style="fill-rule:evenodd;clip-rule:evenodd;fill:url(#SVGID_00000126309884414383283130000009914510728799874195_);" d="
		M126,506.4l-12.3,28.1l14.8,3.6l12.2-4.5l2.1-11.5C142.7,522.2,134.7,510.2,126,506.4z"/>
</g>
<g>
	
		<linearGradient id="SVGID_00000052786335415852267640000013059276465512423044_" gradientUnits="userSpaceOnUse" x1="12.5511" y1="870.3303" x2="268.7695" y2="870.3303" gradientTransform="matrix(-0.9992 3.900000e-02 -3.900000e-02 -0.9992 801.6669 1063.687)">
		<stop  offset="0" style="stop-color:#3F2D70"/>
		<stop  offset="1" style="stop-color:#4B416A"/>
	</linearGradient>
	<path style="fill-rule:evenodd;clip-rule:evenodd;fill:url(#SVGID_00000052786335415852267640000013059276465512423044_);" d="
		M494.5,84.9l8.4,53.6c0,0,28.5,9.5,32.9,18.8c4.4,9.3,22.6,175.7,22.6,175.7l19.6,15.3c0,0,12.3,30.5,22.2,27
		c9.9-3.4,20.2-44.8,20.2-44.8s1.6-1.8,4-5.1c2.4-3.3,5.8-8,9.4-13.8c4.4-7.2,9.4-35.2,12.5-55.4c1.9-12.3,3.1-21.7,3.1-21.7
		l49.9-10.5l6.2-12.3l41.5-25.1c12-61.6-0.8-139.3-0.8-139.3c-13.6-10.6-76.2-25.4-97-23.5c-19.5,1.7-59.8,15.3-64.7,17L584,41
		l-6.9,39.2C543.9,70.4,494.5,84.9,494.5,84.9z"/>
	
		<linearGradient id="SVGID_00000011717968475613921660000006283328590021810092_" gradientUnits="userSpaceOnUse" x1="144.6439" y1="695.5283" x2="144.6439" y2="1039.9939" gradientTransform="matrix(-0.9992 3.900000e-02 -3.900000e-02 -0.9992 801.6669 1063.687)">
		<stop  offset="0" style="stop-color:#1B1438"/>
		<stop  offset="0.9777" style="stop-color:#3A2F52"/>
	</linearGradient>
	<path style="fill-rule:evenodd;clip-rule:evenodd;fill:url(#SVGID_00000011717968475613921660000006283328590021810092_);" d="
		M494.5,84.9l8.4,53.6c0,0,28.5,9.5,32.9,18.8c4.4,9.3,22.6,175.7,22.6,175.7l19.6,15.3c0,0,12.3,30.5,22.2,27
		c9.9-3.4,20.2-44.8,20.2-44.8s1.6-1.8,4-5.1l-10.2-4.8L595.8,337l-8.6-22.3l-4.8-124l27,7.9l31.6,36.8l5.2,20.8
		c1.9-12.3,3.1-21.7,3.1-21.7l49.9-10.5l6.2-12.3l41.5-25.1l-28.1,4.8l-4-28.9l-9.9,43L692,206l-29.4-7.9c0,0-9.2-18.9-11.8-29
		c-2.7-10.1-9-75.6-9-75.6L639.5,34l-16.1-4.1l-38.9,10.8l-0.5,0.2l-6.9,39.2C543.9,70.4,494.5,84.9,494.5,84.9z"/>
</g>
<g>
	
		<linearGradient id="SVGID_00000178927967871375801600000000738762026169893299_" gradientUnits="userSpaceOnUse" x1="-74.4483" y1="808.4374" x2="-74.4483" y2="891.607" gradientTransform="matrix(-1 0 0 -1 846.8447 1080)">
		<stop  offset="0" style="stop-color:#3F2D70"/>
		<stop  offset="1" style="stop-color:#4B416A"/>
	</linearGradient>
	<path style="fill-rule:evenodd;clip-rule:evenodd;fill:url(#SVGID_00000178927967871375801600000000738762026169893299_);" d="
		M918.4,271.5c5.1-1.5,9.1-13.5,12.4-24.4l0.4-1.2c1.5-5.3,2.9-10.2,4-13.5c3.7-10.4,8-35.7,0-41.1c-6.7-4.6-15-2.9-21.6,0.5
		c-6,3.1-10.5,7.7-10.7,10C902.2,206.5,910.6,273.9,918.4,271.5z"/>
	
		<linearGradient id="SVGID_00000152950429090307741920000007213653916092758182_" gradientUnits="userSpaceOnUse" x1="-70.2288" y1="808.4374" x2="-70.2288" y2="888.3" gradientTransform="matrix(-1 0 0 -1 846.8447 1080)">
		<stop  offset="0" style="stop-color:#11092F"/>
		<stop  offset="1" style="stop-color:#231B44"/>
	</linearGradient>
	<path style="fill-rule:evenodd;clip-rule:evenodd;fill:url(#SVGID_00000152950429090307741920000007213653916092758182_);" d="
		M918.4,271.5c5.1-1.5,9.1-13.5,12.4-24.4l0.4-1.2h-7.5l-6.6-9.4l-3.4-44.8c-6,3.1-10.5,7.7-10.7,10
		C902.2,206.5,910.6,273.9,918.4,271.5z"/>
</g>
<g>
	
		<linearGradient id="SVGID_00000031181349548007703820000001986172071391814576_" gradientUnits="userSpaceOnUse" x1="1013.95" y1="281.2531" x2="1013.95" y2="414.5737" gradientTransform="matrix(1 0 0 -1 0 1080)">
		<stop  offset="0" style="stop-color:#3F2D70"/>
		<stop  offset="0.9944" style="stop-color:#6F648B"/>
	</linearGradient>
	<path style="fill-rule:evenodd;clip-rule:evenodd;fill:url(#SVGID_00000031181349548007703820000001986172071391814576_);" d="
		M1080,678.8l-0.1,0.6c-0.7,6-6.7,54.8-8.9,66.1c-2.4,12-6.6,12-6.7,12c0,0-12.4,34-23.1,39.3s-44-1.9-44-1.9S955,763,947.9,683.1
		c0,0,39.6-19,67.6-17.6C1043.6,667,1080,678.8,1080,678.8z"/>
	
		<linearGradient id="SVGID_00000052078160417415172820000007001499821416007867_" gradientUnits="userSpaceOnUse" x1="1013.9" y1="281.253" x2="1013.9" y2="400.6" gradientTransform="matrix(1 0 0 -1 0 1080)">
		<stop  offset="0" style="stop-color:#3F2D70"/>
		<stop  offset="1" style="stop-color:#322E56"/>
	</linearGradient>
	<path style="fill-rule:evenodd;clip-rule:evenodd;fill:url(#SVGID_00000052078160417415172820000007001499821416007867_);" d="
		M1079.9,679.4c-0.7,6-6.7,54.8-8.9,66.1c-2.4,12-6.6,12-6.7,12c0,0-12.4,34-23.1,39.3s-44-1.9-44-1.9S955,763,947.9,683.1
		c0,0,10.9,54.7,29.9,77.3c18.9,22.6,39.3,14.2,39.3,14.2l19.1-42.5l9.3-33.3l6.7-14.6l8.5,28.3l-4.5,28.2h12.5L1079.9,679.4z"/>
	<path class="st3" d="M948,683.2l36.6-0.6l34.6-3.2l45.1-0.7l15.7,0.7c0,0-39.1-15.1-61.4-17.4C996.3,659.9,948,683.2,948,683.2z"/>
</g>
<g id="_x32_1HeSP.tif">
	
		<image style="overflow:visible;enable-background:new    ;" width="521" height="772" id="Layer_0_00000060719235778419749100000012012520612348300682_" xlink:href="D96CBCE1935E7592.png"  transform="matrix(0.4997 0 0 0.4997 -504.8187 388.7658)">
	</image>
</g>
</svg>
