<?xml version="1.0" encoding="utf-8"?>
<!-- Generator: Adobe Illustrator 28.0.0, SVG Export Plug-In . SVG Version: 6.00 Build 0)  -->
<svg version="1.1" id="Layer_1" xmlns="http://www.w3.org/2000/svg" xmlns:xlink="http://www.w3.org/1999/xlink" x="0px" y="0px"
	 viewBox="0 0 1080 1080" style="enable-background:new 0 0 1080 1080;" xml:space="preserve">
<style type="text/css">
	.st0{fill-rule:evenodd;clip-rule:evenodd;fill:url(#SVGID_1_);}
	.st1{fill-rule:evenodd;clip-rule:evenodd;fill:url(#SVGID_00000082347062132020509480000004770675230522010520_);}
	.st2{fill-rule:evenodd;clip-rule:evenodd;fill:url(#SVGID_00000146471052903144828600000000640260367344154295_);}
	.st3{fill-rule:evenodd;clip-rule:evenodd;fill:#A0FFED;}
	.st4{fill-rule:evenodd;clip-rule:evenodd;fill:url(#SVGID_00000122718324714207339410000002198492218902956178_);}
	.st5{fill-rule:evenodd;clip-rule:evenodd;fill:url(#SVGID_00000111159834307756244690000005385936882860663440_);}
	.st6{fill-rule:evenodd;clip-rule:evenodd;fill:url(#SVGID_00000117659454862039301270000012945150894685208471_);}
	.st7{fill-rule:evenodd;clip-rule:evenodd;fill:url(#SVGID_00000039099698952014741990000016524094203560485005_);}
	.st8{fill-rule:evenodd;clip-rule:evenodd;fill:url(#SVGID_00000069356669596700796020000004185851870841427105_);}
	.st9{fill-rule:evenodd;clip-rule:evenodd;fill:url(#SVGID_00000149355752528577905560000000304132120987744688_);}
	.st10{fill-rule:evenodd;clip-rule:evenodd;fill:url(#SVGID_00000025419357114392465320000002677640312275877508_);}
	.st11{fill-rule:evenodd;clip-rule:evenodd;fill:url(#SVGID_00000137092480891391952350000015727520714201914762_);}
	.st12{fill-rule:evenodd;clip-rule:evenodd;fill:url(#SVGID_00000069365302248170113980000008485692491867933059_);}
	.st13{fill-rule:evenodd;clip-rule:evenodd;fill:url(#SVGID_00000180331286417926191040000008843316598252330123_);}
	.st14{fill-rule:evenodd;clip-rule:evenodd;fill:url(#SVGID_00000065073780644360966740000001253354233410634406_);}
	.st15{fill-rule:evenodd;clip-rule:evenodd;fill:url(#SVGID_00000106112275686241854530000002418168882979085218_);}
	.st16{fill-rule:evenodd;clip-rule:evenodd;fill:url(#SVGID_00000044179504256483470000000007248080742807689115_);}
	.st17{fill-rule:evenodd;clip-rule:evenodd;fill:url(#SVGID_00000150821065883990836770000001590869840842059180_);}
	.st18{fill-rule:evenodd;clip-rule:evenodd;fill:url(#SVGID_00000107558486964951411620000006551143700456687272_);}
	.st19{fill-rule:evenodd;clip-rule:evenodd;fill:url(#SVGID_00000158751085847826268280000004645907748103514550_);}
	.st20{fill-rule:evenodd;clip-rule:evenodd;fill:url(#SVGID_00000172404838922607212180000011682762282317525172_);}
	.st21{fill-rule:evenodd;clip-rule:evenodd;fill:url(#SVGID_00000001622595756440643820000001411603410588345505_);}
</style>
<g>
	<linearGradient id="SVGID_1_" gradientUnits="userSpaceOnUse" x1="151.8415" y1="1009.5873" x2="151.8415" y2="800.1721">
		<stop  offset="5.586590e-03" style="stop-color:#86F9FF"/>
		<stop  offset="1" style="stop-color:#4C51DD"/>
	</linearGradient>
	<path class="st0" d="M62.9,815.9c0,0-4.8,74.5,0,105.3c0,0,6.3,18,33.7,25.9v59.3c0,0,47,10.6,62.8-6.7
		c15.8-17.3,83.6-199.5,83.6-199.5l-81.7,9L62.9,815.9z"/>
	
		<linearGradient id="SVGID_00000139986941331722014710000007409374710512441484_" gradientUnits="userSpaceOnUse" x1="62.8865" y1="810.3649" x2="242.9336" y2="810.3649">
		<stop  offset="0" style="stop-color:#4CCCED"/>
		<stop  offset="1" style="stop-color:#39D0DD"/>
	</linearGradient>
	<path style="fill-rule:evenodd;clip-rule:evenodd;fill:url(#SVGID_00000139986941331722014710000007409374710512441484_);" d="
		M62.9,815.9c0,0,57.7-4.8,67.4-10.6l19.8-9.6l92.9,4.5c0,0-12.6,9-25.1,15.7c-12.5,6.7-71.2,10.6-96.2,8.7
		C96.6,822.6,62.9,815.9,62.9,815.9z"/>
	
		<linearGradient id="SVGID_00000029026904817473468410000006152778830851529910_" gradientUnits="userSpaceOnUse" x1="152.91" y1="1019.074" x2="152.91" y2="800.1721">
		<stop  offset="0" style="stop-color:#239ABA"/>
		<stop  offset="1" style="stop-color:#3E47BE"/>
	</linearGradient>
	<path style="fill-rule:evenodd;clip-rule:evenodd;fill:url(#SVGID_00000029026904817473468410000006152778830851529910_);" d="
		M62.9,921.2l29.7,5.6l15.9-5.6l10-62.1V921l4.4,23.4l29,11c0,0,19.9-8.9,23.3-22.1c3.5-13.2,28.6-113.4,28.6-113.4l39.2-19.7
		c0,0-51.2,148.6-74.1,183.2l-17,26.2l-52.6,9.5l-6.7-19.4l4-52.6C96.6,947.1,64.5,938.3,62.9,921.2z"/>
	<path class="st3" d="M130.2,805.3c0,0,26.7,3.6,36.7,3.2c10-0.4,31.8-3.2,31.8-3.2s-33.5-10.8-48.7-9.6
		C150,795.7,133.2,799.6,130.2,805.3z"/>
</g>
<g>
	
		<linearGradient id="SVGID_00000127022884778819489830000001840157703534878339_" gradientUnits="userSpaceOnUse" x1="583.3517" y1="1042.9595" x2="583.3517" y2="718.2336">
		<stop  offset="5.586590e-03" style="stop-color:#86F9FF"/>
		<stop  offset="1" style="stop-color:#4C51DD"/>
	</linearGradient>
	<path style="fill-rule:evenodd;clip-rule:evenodd;fill:url(#SVGID_00000127022884778819489830000001840157703534878339_);" d="
		M278.1,718.2c0,0-12.7,62.5-11.2,77.4c1.4,14.9,30,48.1,30,48.1s30.2,64.9,39.7,96.7c9.6,31.7,42.2,72.2,42.2,72.2
		s195.4,30.3,248.8,30.3c53.4,0,80.3-25,80.3-25s75.4-130.9,81.9-137.3c6.6-6.5,44.1-20,44.1-20s61.1-110.3,65.9-139.3l-169.8,7
		L278.1,718.2z"/>
	
		<linearGradient id="SVGID_00000154396291970137673300000004559659218297084597_" gradientUnits="userSpaceOnUse" x1="278.085" y1="724.0464" x2="899.9529" y2="724.0464">
		<stop  offset="0" style="stop-color:#4CCCED"/>
		<stop  offset="1" style="stop-color:#39D0DD"/>
	</linearGradient>
	<path style="fill-rule:evenodd;clip-rule:evenodd;fill:url(#SVGID_00000154396291970137673300000004559659218297084597_);" d="
		M278.1,718.2l80.3-10.1l46.6-7.9c0,0,220.8,0.6,284.3,4.3c0,0,52.9-21.4,67.4-21.9c14.4-0.5,42.2,25.5,42.2,25.5L900,721.3
		c0,0-46.2,16.1-81.8,15.4l33.9,11.4c0,0-8,6.7-21.4,10.8C817.2,763,716,766,668,765.4c-48-0.5-69.1-17.3-69.1-17.3l22-8.3
		l-25.9-3.1c0,0-78.6,13.7-108.6,14.7c-30,1-68.5-6.4-68.5-6.4l-2.9-10.2C415,734.8,333.6,730.3,278.1,718.2z"/>
	
		<linearGradient id="SVGID_00000083079698350987449610000006248593019264048299_" gradientUnits="userSpaceOnUse" x1="458.9237" y1="1056.3912" x2="458.9237" y2="728.6883">
		<stop  offset="0" style="stop-color:#239ABA"/>
		<stop  offset="1" style="stop-color:#3E47BE"/>
	</linearGradient>
	<path style="fill-rule:evenodd;clip-rule:evenodd;fill:url(#SVGID_00000083079698350987449610000006248593019264048299_);" d="
		M396,733.5v43.6l-44.3,7.5c0,0-1.9,0.9-6.8,13.4c-4.9,12.5-27.5,43.5-27.5,43.5l-20.5,2.2l16.4,36.8c0,0,23.7,0.2,33.1,6.1
		c9.4,5.9,30.3,23.3,30.3,23.3l12.5,34.4c0,0,12.5-63.5,13.4-73.6c0.8-10,13-53.2,11.1-60.4c-1.9-7.3,0.8-35.7,0.8-35.7l3.3-29.6
		c0,0,64.2,8.7,70.9,11.2c6.7,2.5,9.6,29.3,9.6,29.3l21.9,50.4l-24.5,73.6l9.5,62.5l3,47l34.9,37.3h27.6c0,0,22.6-122.1,24.2-129.6
		c1.7-7.5-6-25.1-6-25.1l11-76.7l-1.1-76.9l22-8.3l-25.9-3.1c0,0-81.6,12.2-95.1,13.5c-13.5,1.2-82.2-11.5-82.2-11.5l41.2-10
		L396,733.5z"/>
	
		<linearGradient id="SVGID_00000116942988779553205160000006421513422432773054_" gradientUnits="userSpaceOnUse" x1="792.1963" y1="1028.2852" x2="792.1963" y2="721.3179">
		<stop  offset="0" style="stop-color:#239ABA"/>
		<stop  offset="1" style="stop-color:#3E47BE"/>
	</linearGradient>
	<path style="fill-rule:evenodd;clip-rule:evenodd;fill:url(#SVGID_00000116942988779553205160000006421513422432773054_);" d="
		M748.1,765.5l55,9.2l-8.8,21l-23.8,57.6l-28.8,27.3l-32.3,11.9L684.4,910h21.7l-1.7,23.3l-11.7,55.5l-0.6,39.5l14.8-2
		c0,0,58.9-106.6,82.9-145.7c0,0,40-12.4,44.1-20c4.2-7.6,60.7-113.3,65.9-139.3l-81.8,15.4l33.9,11.4c0,0-23.9,10.6-39.8,13.2
		C796.5,763.8,748.1,765.5,748.1,765.5z"/>
	
		<linearGradient id="SVGID_00000088128257264311511200000010892185152569483402_" gradientUnits="userSpaceOnUse" x1="671.4753" y1="698.8326" x2="784.121" y2="698.8326">
		<stop  offset="0" style="stop-color:#4CFFED"/>
		<stop  offset="1" style="stop-color:#39D0DD"/>
	</linearGradient>
	<path style="fill-rule:evenodd;clip-rule:evenodd;fill:url(#SVGID_00000088128257264311511200000010892185152569483402_);" d="
		M689.2,704.5l-17.8,8.8c0,0,13,2.9,20.5,5c7.5,2.1,48.8-1.3,56.2-3.3c7.3-2.1,34.5-10.4,34.5-10.4l1.5-8.5c0,0-20.3-18.1-26.4-17.1
		C751.6,679.8,700,699.2,689.2,704.5z"/>
	
		<linearGradient id="SVGID_00000151508127023518079780000009300509939838520715_" gradientUnits="userSpaceOnUse" x1="699.758" y1="707.4274" x2="801.3269" y2="707.4274">
		<stop  offset="0" style="stop-color:#514DAE"/>
		<stop  offset="0.9777" style="stop-color:#0037A9"/>
	</linearGradient>
	<path style="fill-rule:evenodd;clip-rule:evenodd;fill:url(#SVGID_00000151508127023518079780000009300509939838520715_);" d="
		M801.3,708.5l-17.2,9.8l-27,0.7h-57.4c0,0,44.2-3.8,50.8-5.2c6.6-1.4,32.1-9.2,32.1-9.2l1.5-8.5L801.3,708.5z"/>
	
		<linearGradient id="SVGID_00000065775582821715294170000018420072563985555882_" gradientUnits="userSpaceOnUse" x1="427.4803" y1="820.644" x2="427.4803" y2="728.6883">
		<stop  offset="0" style="stop-color:#2257AE"/>
		<stop  offset="0.9777" style="stop-color:#0037A9"/>
	</linearGradient>
	
		<polygon style="fill-rule:evenodd;clip-rule:evenodd;fill:url(#SVGID_00000065775582821715294170000018420072563985555882_);" points="
		396,777.2 414.6,820.6 417.8,738.7 458.9,728.7 396,733.5 	"/>
	
		<linearGradient id="SVGID_00000077282486871040256940000009322072781421397167_" gradientUnits="userSpaceOnUse" x1="859.0647" y1="854.4055" x2="859.0647" y2="721.3179">
		<stop  offset="0" style="stop-color:#2257AE"/>
		<stop  offset="0.9777" style="stop-color:#0037A9"/>
	</linearGradient>
	<path style="fill-rule:evenodd;clip-rule:evenodd;fill:url(#SVGID_00000077282486871040256940000009322072781421397167_);" d="
		M818.2,736.7l33.9,11.4l-14.7,106.3c0,0,45.6-87,62.5-133.1L818.2,736.7z"/>
	
		<linearGradient id="SVGID_00000044163019167839106880000002703275360181511608_" gradientUnits="userSpaceOnUse" x1="560.4209" y1="845.027" x2="560.4209" y2="736.7173">
		<stop  offset="0" style="stop-color:#2257AE"/>
		<stop  offset="0.9777" style="stop-color:#0037A9"/>
	</linearGradient>
	
		<polygon style="fill-rule:evenodd;clip-rule:evenodd;fill:url(#SVGID_00000044163019167839106880000002703275360181511608_);" points="
		499.9,750.2 543.2,792.1 569.9,820.6 575.4,845 599.3,829.7 598.9,748.1 620.9,739.8 595,736.7 	"/>
</g>
<g>
	
		<linearGradient id="SVGID_00000106829018484401181180000011650722894917972616_" gradientUnits="userSpaceOnUse" x1="75.0095" y1="652.9837" x2="75.0095" y2="455.0107">
		<stop  offset="0" style="stop-color:#4C51DD"/>
		<stop  offset="0.9944" style="stop-color:#86F9FF"/>
	</linearGradient>
	<path style="fill-rule:evenodd;clip-rule:evenodd;fill:url(#SVGID_00000106829018484401181180000011650722894917972616_);" d="
		M150,592.4c0,0-11.7,36.3-20.4,45.9c-8.7,9.6-73,14.7-73,14.7S9.8,626.9,4.1,612.2c-0.6-1.5-1.2-4-1.6-7.2c0,0,0,0,0,0
		c-4.1-27.4-3.8-108,5.9-119.6c0,0,17.4-22.6,28.9-29.1c11.4-6.5,69.3,14.3,79,21.3c1.6,1.1,2.9,2.6,3.9,4.4c0,0,0.2,0.2,0.4,0.7
		c5.1,8.8,5.2,22.7,5.2,23.8c0,0,0,0,0,0.1c0,0,14.1,8.4,16.7,15.4l0.1,0.4C145.4,530.7,150,592.4,150,592.4z"/>
	
		<linearGradient id="SVGID_00000071545304065982567090000001214887460957333894_" gradientUnits="userSpaceOnUse" x1="76.2877" y1="652.9837" x2="76.2877" y2="481.8985">
		<stop  offset="0" style="stop-color:#3E47BE"/>
		<stop  offset="1" style="stop-color:#239ABA"/>
	</linearGradient>
	<path style="fill-rule:evenodd;clip-rule:evenodd;fill:url(#SVGID_00000071545304065982567090000001214887460957333894_);" d="
		M150,592.4c0,0-11.7,36.3-20.4,45.9c-8.7,9.6-73,14.7-73,14.7S9.8,626.9,4.1,612.2c-0.6-1.5-1.2-4-1.6-7.2c1.2,1.1,20.5,19,33.6,23
		c13.6,4.1,25.1,0,25.1,0l3-23l2.5-34.3l2.5-37.7l5.7-20.1v36.2c0,0,15-12.1,16-21.1c1-9.1,7.5-24.2,7.5-24.2l21.8-21.9
		c0,0,0.2,0.2,0.4,0.7c1.6,2.4,6.7,11.1,5.2,23.8c0,0,0,0,0,0.1l-12.3,28.1l-1.5,28.9l7.6,33.2c0,0,9.6-12.8,13.6-18.9
		c4-6,4-23.8,4-23.8l5.3-32.1l0.1,0.4C145.4,530.7,150,592.4,150,592.4z"/>
	<path class="st3" d="M6.3,489.5l59.2,13.6h26.4l10-2.6l18.5-18.6c0,0-1.5-9.5-12.2-13.9c-10.7-4.4-67.2-17.4-67.2-17.4l-6.4,4.4
		C34.5,455,11.6,478.9,6.3,489.5z"/>
	
		<linearGradient id="SVGID_00000177449070932576155820000010643401512435618239_" gradientUnits="userSpaceOnUse" x1="113.6502" y1="522.3021" x2="142.7349" y2="522.3021">
		<stop  offset="0" style="stop-color:#4CCCED"/>
		<stop  offset="1" style="stop-color:#39D0DD"/>
	</linearGradient>
	<path style="fill-rule:evenodd;clip-rule:evenodd;fill:url(#SVGID_00000177449070932576155820000010643401512435618239_);" d="
		M126,506.4l-12.3,28.1l14.8,3.6l12.2-4.5l2.1-11.5C142.7,522.2,134.7,510.2,126,506.4z"/>
</g>
<g>
	
		<linearGradient id="SVGID_00000110454580832837191100000000238289130208711098_" gradientUnits="userSpaceOnUse" x1="12.5411" y1="209.6745" x2="268.7978" y2="209.6745" gradientTransform="matrix(-0.9992 3.900000e-02 3.900000e-02 0.9992 759.5469 -15.449)">
		<stop  offset="0" style="stop-color:#4CCCED"/>
		<stop  offset="1" style="stop-color:#39D0DD"/>
	</linearGradient>
	<path style="fill-rule:evenodd;clip-rule:evenodd;fill:url(#SVGID_00000110454580832837191100000000238289130208711098_);" d="
		M494.5,84.9l8.4,53.6c0,0,28.5,9.5,32.9,18.8c4.4,9.3,22.6,175.7,22.6,175.7l19.6,15.3c0,0,12.3,30.5,22.2,27
		c9.9-3.4,20.2-44.8,20.2-44.8s1.6-1.8,4-5.1c2.4-3.3,5.8-8,9.4-13.8c4.4-7.2,9.4-35.2,12.5-55.4c1.9-12.3,3.1-21.7,3.1-21.7
		l49.9-10.5l6.2-12.3l41.5-25.1c12-61.6-0.8-139.3-0.8-139.3c-13.6-10.6-76.2-25.4-97-23.5c-19.5,1.7-59.8,15.3-64.7,17l-0.5,0.2
		l-6.9,39.2C543.9,70.4,494.5,84.9,494.5,84.9z"/>
	
		<linearGradient id="SVGID_00000168814257173141708810000014169376734813806781_" gradientUnits="userSpaceOnUse" x1="144.6077" y1="384.5073" x2="144.6077" y2="40.0088" gradientTransform="matrix(-0.9992 3.900000e-02 3.900000e-02 0.9992 759.5469 -15.449)">
		<stop  offset="0" style="stop-color:#1F4D95"/>
		<stop  offset="0.9777" style="stop-color:#291689"/>
	</linearGradient>
	<path style="fill-rule:evenodd;clip-rule:evenodd;fill:url(#SVGID_00000168814257173141708810000014169376734813806781_);" d="
		M494.5,84.9l8.4,53.6c0,0,28.5,9.5,32.9,18.8c4.4,9.3,22.6,175.7,22.6,175.7l19.6,15.3c0,0,12.3,30.5,22.2,27
		c9.9-3.4,20.2-44.8,20.2-44.8s1.6-1.8,4-5.1l-10.2-4.8L595.8,337l-8.6-22.3l-4.8-124l27,7.9l31.6,36.8l5.2,20.8
		c1.9-12.3,3.1-21.7,3.1-21.7l49.9-10.5l6.2-12.3l41.5-25.1l-28.1,4.8l-4-28.9l-9.9,43l-12.9,0.5l-29.4-7.9c0,0-9.2-18.9-11.8-29
		c-2.7-10.1-9-75.6-9-75.6L639.5,34l-16.1-4.1l-38.9,10.8l-0.5,0.2l-6.9,39.2C543.9,70.4,494.5,84.9,494.5,84.9z"/>
</g>
<g>
	
		<linearGradient id="SVGID_00000016793342599925240270000003195415357924294313_" gradientUnits="userSpaceOnUse" x1="-74.334" y1="271.5426" x2="-74.334" y2="188.373" gradientTransform="matrix(-1 0 0 1 846.8447 0)">
		<stop  offset="0" style="stop-color:#4CCCED"/>
		<stop  offset="1" style="stop-color:#39D0DD"/>
	</linearGradient>
	<path style="fill-rule:evenodd;clip-rule:evenodd;fill:url(#SVGID_00000016793342599925240270000003195415357924294313_);" d="
		M918.4,271.5c5.1-1.5,9.1-13.5,12.4-24.4l0.4-1.2c1.5-5.3,2.9-10.2,4-13.5c3.7-10.4,8-35.7,0-41.1c-6.7-4.6-15-2.9-21.6,0.5
		c-6,3.1-10.5,7.7-10.7,10C902.2,206.5,910.6,273.9,918.4,271.5z"/>
	
		<linearGradient id="SVGID_00000178199373300561497710000007994484898175154823_" gradientUnits="userSpaceOnUse" x1="-70.0761" y1="271.5426" x2="-70.0761" y2="191.706" gradientTransform="matrix(-1 0 0 1 846.8447 0)">
		<stop  offset="0" style="stop-color:#0E2463"/>
		<stop  offset="1" style="stop-color:#004D93"/>
	</linearGradient>
	<path style="fill-rule:evenodd;clip-rule:evenodd;fill:url(#SVGID_00000178199373300561497710000007994484898175154823_);" d="
		M918.4,271.5c5.1-1.5,9.1-13.5,12.4-24.4l0.4-1.2h-7.5l-6.6-9.4l-3.4-44.8c-6,3.1-10.5,7.7-10.7,10
		C902.2,206.5,910.6,273.9,918.4,271.5z"/>
</g>
<g>
	
		<linearGradient id="SVGID_00000036249833055354627800000006290007023807331213_" gradientUnits="userSpaceOnUse" x1="1013.999" y1="798.8081" x2="1013.999" y2="665.4714">
		<stop  offset="0" style="stop-color:#4C51DD"/>
		<stop  offset="0.9944" style="stop-color:#57CFFF"/>
	</linearGradient>
	<path style="fill-rule:evenodd;clip-rule:evenodd;fill:url(#SVGID_00000036249833055354627800000006290007023807331213_);" d="
		M1080,678.8l-0.1,0.6c-0.7,6-6.7,54.8-8.9,66.1c-2.4,12-6.6,12-6.7,12c0,0-12.4,34-23.1,39.3c-10.7,5.3-44-1.9-44-1.9
		s-42.2-31.9-49.3-111.8c0,0,39.6-19,67.6-17.6C1043.6,667,1080,678.8,1080,678.8z"/>
	
		<linearGradient id="SVGID_00000166665432310427893340000010202957008971528856_" gradientUnits="userSpaceOnUse" x1="1013.9585" y1="798.8081" x2="1013.9585" y2="679.4402">
		<stop  offset="0" style="stop-color:#3E47BE"/>
		<stop  offset="1" style="stop-color:#239ABA"/>
	</linearGradient>
	<path style="fill-rule:evenodd;clip-rule:evenodd;fill:url(#SVGID_00000166665432310427893340000010202957008971528856_);" d="
		M1079.9,679.4c-0.7,6-6.7,54.8-8.9,66.1c-2.4,12-6.6,12-6.7,12c0,0-12.4,34-23.1,39.3c-10.7,5.3-44-1.9-44-1.9
		s-42.2-31.9-49.3-111.8c0,0,10.9,54.7,29.9,77.3c18.9,22.6,39.3,14.2,39.3,14.2l19.1-42.5l9.3-33.3l6.7-14.6l8.5,28.3l-4.5,28.2
		h12.5L1079.9,679.4z"/>
	<path class="st3" d="M948,683.2l36.6-0.6l34.6-3.2l45.1-0.7l15.7,0.7c0,0-39.1-15.1-61.4-17.4C996.3,659.9,948,683.2,948,683.2z"/>
</g>
</svg>
