<?xml version="1.0" encoding="utf-8"?>
<!-- Generator: Adobe Illustrator 28.0.0, SVG Export Plug-In . SVG Version: 6.00 Build 0)  -->
<svg version="1.1" id="Layer_1" xmlns="http://www.w3.org/2000/svg" xmlns:xlink="http://www.w3.org/1999/xlink" x="0px" y="0px"
	 viewBox="0 0 1080 1080" style="enable-background:new 0 0 1080 1080;" xml:space="preserve">
<style type="text/css">
	.st0{filter:url(#Adobe_OpacityMaskFilter);}
	.st1{mask:url(#SVGID_1_);}
	.st2{fill:url(#SVGID_00000130627898040714877640000002725968484961890976_);}
	.st3{fill:url(#SVGID_00000023975801367187668780000011198741423425436318_);}
	.st4{opacity:0.82;}
	.st5{fill:url(#SVGID_00000137128329059392590640000010108559359929345445_);}
	.st6{fill:url(#SVGID_00000160913519730890880760000012510703146960286350_);}
	.st7{fill:url(#SVGID_00000155108533483959962290000003802802670965932177_);}
	.st8{fill:url(#SVGID_00000142879529905975903820000008386059267578946227_);}
	.st9{fill:url(#SVGID_00000182490572741588300670000017496450907702086294_);}
	.st10{fill:url(#SVGID_00000063631274741995694070000005807447920156577420_);}
	.st11{fill:url(#SVGID_00000008109483494929284690000010090040644701515709_);}
	.st12{fill:url(#SVGID_00000018239183238960798360000018082473676687174283_);}
	.st13{fill:#682B1B;}
	.st14{fill:#74321F;}
	.st15{fill:#3E110B;}
	.st16{fill:#4C1A10;}
	.st17{fill:#7D3823;}
	.st18{fill:#853D26;}
	.st19{fill:#CF6E44;}
	.st20{fill:#DA7F49;}
	.st21{fill:#350C08;}
	.st22{fill:#42140D;}
	.st23{fill:#883F27;}
	.st24{fill:#A95333;}
	.st25{fill:#BA5D3A;}
	.st26{fill:#B15836;}
	.st27{fill:#CE6D44;}
	.st28{fill:#833C25;}
	.st29{fill:#95472C;}
	.st30{fill:#230101;}
	.st31{fill:#2F0906;}
	.st32{fill:#280403;}
	.st33{fill:#C1613C;}
	.st34{fill:#CF6D45;}
	.st35{fill:#612618;}
	.st36{fill:#99492D;}
	.st37{fill:#B05736;}
</style>
<g>
	<g>
		<g>
			<defs>
				<filter id="Adobe_OpacityMaskFilter" filterUnits="userSpaceOnUse" x="0" y="0" width="1080" height="1080">
					<feFlood  style="flood-color:white;flood-opacity:1" result="back"/>
					<feBlend  in="SourceGraphic" in2="back" mode="normal"/>
				</filter>
			</defs>
			<mask maskUnits="userSpaceOnUse" x="0" y="0" width="1080" height="1080" id="SVGID_1_">
				<g class="st0">
					
						<image style="overflow:visible;" width="4518" height="4518" xlink:href="4F051C04DA3304D3.jpg"  transform="matrix(0.24 0 0 0.24 -2.16 -2.16)">
					</image>
				</g>
			</mask>
			<g class="st1">
				
					<radialGradient id="SVGID_00000014617145651328264810000000087167298460849318_" cx="540" cy="540" r="540" gradientUnits="userSpaceOnUse">
					<stop  offset="0" style="stop-color:#E89257"/>
					<stop  offset="1" style="stop-color:#E89257;stop-opacity:0"/>
				</radialGradient>
				<circle style="fill:url(#SVGID_00000014617145651328264810000000087167298460849318_);" cx="540" cy="540" r="540"/>
			</g>
		</g>
		
			<linearGradient id="SVGID_00000168084769653132191050000005706089739138439855_" gradientUnits="userSpaceOnUse" x1="1902.0024" y1="646.4116" x2="2494.7041" y2="119.6313" gradientTransform="matrix(0.9935 0.1139 -0.1139 0.9935 -1557.6847 -122.7002)">
			<stop  offset="0" style="stop-color:#230101"/>
			<stop  offset="8.888241e-02" style="stop-color:#2A0504"/>
			<stop  offset="0.217" style="stop-color:#3D110B"/>
			<stop  offset="0.3689" style="stop-color:#5C2416"/>
			<stop  offset="0.5389" style="stop-color:#883F27"/>
			<stop  offset="0.722" style="stop-color:#BF613C"/>
			<stop  offset="0.7586" style="stop-color:#CB6840"/>
			<stop  offset="0.8188" style="stop-color:#D07043"/>
			<stop  offset="0.9132" style="stop-color:#DF874A"/>
			<stop  offset="1" style="stop-color:#F1A152"/>
		</linearGradient>
		<circle style="fill:url(#SVGID_00000168084769653132191050000005706089739138439855_);" cx="545" cy="534.8" r="399.4"/>
		<g class="st4">
			<g>
				
					<linearGradient id="SVGID_00000113316844511907169960000009902162821117865916_" gradientUnits="userSpaceOnUse" x1="386.307" y1="699.2936" x2="-223.4395" y2="167.2221" gradientTransform="matrix(-1 0 0 1 586.686 0)">
					<stop  offset="0" style="stop-color:#230101"/>
					<stop  offset="8.566616e-02" style="stop-color:#2A0504"/>
					<stop  offset="0.2091" style="stop-color:#3D110B"/>
					<stop  offset="0.3555" style="stop-color:#5C2416"/>
					<stop  offset="0.5194" style="stop-color:#883F27"/>
					<stop  offset="0.6959" style="stop-color:#BF613C"/>
					<stop  offset="0.7312" style="stop-color:#CB6840"/>
					<stop  offset="0.8042" style="stop-color:#D67845"/>
					<stop  offset="1" style="stop-color:#F1A152"/>
				</linearGradient>
				<path style="fill:url(#SVGID_00000113316844511907169960000009902162821117865916_);" d="M903,413.5
					c-56.9-2.8-104.3-32-152.7-59C699.1,326,648.1,297,595.6,271.1c-25.8-12.7-51.9-24.8-78.5-35.7c-21.8-8.9-43.5-17.9-62-32.7
					c-14.2-11.4-30.6-30.7-25.2-50.5c6.6-2,13.2-3.8,19.9-5.4c-8.8,10.7,11,23.2,20,29.5c20.8,14.8,45.3,23.4,69,32.4
					c27.9,10.6,55.5,22,82.6,34.5c54.9,25.4,107.8,54.6,160.8,83.7c28.2,15.5,56.5,30.9,86.1,43.6c14.2,6.1,28.4,11,43.7,13.4
					c1,0.2,1.9,0.3,2.9,0.4c3.9,9.5,7.4,19.2,10.5,29C918,413.5,910.5,413.8,903,413.5z"/>
				
					<linearGradient id="SVGID_00000109015728253215571410000007954622679907503529_" gradientUnits="userSpaceOnUse" x1="411.9899" y1="669.8613" x2="-197.7564" y2="137.7901" gradientTransform="matrix(-1 0 0 1 586.686 0)">
					<stop  offset="0" style="stop-color:#230101"/>
					<stop  offset="8.566616e-02" style="stop-color:#2A0504"/>
					<stop  offset="0.2091" style="stop-color:#3D110B"/>
					<stop  offset="0.3555" style="stop-color:#5C2416"/>
					<stop  offset="0.5194" style="stop-color:#883F27"/>
					<stop  offset="0.6959" style="stop-color:#BF613C"/>
					<stop  offset="0.7312" style="stop-color:#CB6840"/>
					<stop  offset="0.8042" style="stop-color:#D67845"/>
					<stop  offset="1" style="stop-color:#F1A152"/>
				</linearGradient>
				<path style="fill:url(#SVGID_00000109015728253215571410000007954622679907503529_);" d="M581.1,151
					c-26.6-7.9-53.9-12.1-81.6-13.1c19.1-2.2,38.6-3,58.3-2.3c23.6,6.2,46.7,14.6,67.9,23.5c51.5,21.7,98.6,52.7,144.8,83.8
					c22.9,15.4,45.3,32.1,69.5,45.4c9.3,5.1,19,9.7,29.1,13.1c1.6,2.3,3.2,4.5,4.8,6.8c-47.4-12.6-88.8-49.9-128.5-76
					C694.5,198.8,639.8,168.4,581.1,151z"/>
				
					<linearGradient id="SVGID_00000170266591477623648220000001404356812040813714_" gradientUnits="userSpaceOnUse" x1="363.947" y1="724.9172" x2="-245.7984" y2="192.8467" gradientTransform="matrix(-1 0 0 1 586.686 0)">
					<stop  offset="0" style="stop-color:#230101"/>
					<stop  offset="8.566616e-02" style="stop-color:#2A0504"/>
					<stop  offset="0.2091" style="stop-color:#3D110B"/>
					<stop  offset="0.3555" style="stop-color:#5C2416"/>
					<stop  offset="0.5194" style="stop-color:#883F27"/>
					<stop  offset="0.6959" style="stop-color:#BF613C"/>
					<stop  offset="0.7312" style="stop-color:#CB6840"/>
					<stop  offset="0.8042" style="stop-color:#D67845"/>
					<stop  offset="1" style="stop-color:#F1A152"/>
				</linearGradient>
				<path style="fill:url(#SVGID_00000170266591477623648220000001404356812040813714_);" d="M528.2,359.5
					c-69.9-32.8-140.3-64.4-198-117.1c-9.1-8.3-17.7-17.1-25.9-26.4c10.6-8,21.7-15.5,33-22.5c30.8,34.7,70.6,61.6,109.6,86.7
					c69.3,44.5,142.5,82.6,215.1,121.3c75.9,40.5,152.1,87.3,234.8,112.4c15.6,4.7,31.5,8.5,47.5,11.1c0.1,2.6,0.1,5.3,0.1,7.9
					c-57.5-5.3-113.6-24.8-166.6-48.2C692.6,447.3,612.4,399,528.2,359.5z"/>
				
					<linearGradient id="SVGID_00000028324548645399240760000017252884283439257480_" gradientUnits="userSpaceOnUse" x1="288.112" y1="811.8231" x2="-321.6338" y2="279.7523" gradientTransform="matrix(-1 0 0 1 586.686 0)">
					<stop  offset="0" style="stop-color:#230101"/>
					<stop  offset="8.566616e-02" style="stop-color:#2A0504"/>
					<stop  offset="0.2091" style="stop-color:#3D110B"/>
					<stop  offset="0.3555" style="stop-color:#5C2416"/>
					<stop  offset="0.5194" style="stop-color:#883F27"/>
					<stop  offset="0.6959" style="stop-color:#BF613C"/>
					<stop  offset="0.7312" style="stop-color:#CB6840"/>
					<stop  offset="0.8042" style="stop-color:#D67845"/>
					<stop  offset="1" style="stop-color:#F1A152"/>
				</linearGradient>
				<path style="fill:url(#SVGID_00000028324548645399240760000017252884283439257480_);" d="M794.3,786.3
					c-44.5-5.5-89.6-11.4-134.4-14c-22.1-1.3-44.2-1.9-66.3,0.3c-22.4,2.2-44.7,5.9-67.3,6c-41,0.1-84.2-8.8-121.5-25.8
					c-36.5-16.6-71.3-36.8-105.7-57.4c-31.5-18.9-61.5-42.1-80.1-74.4c-19.7-34.3-31.4-69.8-59.8-98.5c-4.3-4.3-8.6-8.6-12.9-12.9
					c0.4-6.8,1-13.6,1.8-20.5c0.4-3.1,0.8-6.3,1.2-9.4c1.9,2.3,3.9,4.6,6.1,6.8c13.8,14.2,29.2,26.6,41.4,42.3
					c24.9,32,35,72.3,67.6,98.5c31.2,25.1,71.7,41.4,107.7,58.3c38.1,17.9,78.6,35.4,119.7,44.9c44.5,10.2,90,2.2,135,8
					c45.6,5.9,91,16.5,136.2,25.1c22.3,4.2,44.7,7.8,67.1,11.5c9.5,1.6,19.6,3.1,29,6c-3.2,4-6.4,8-9.7,11.9
					C831.7,789,812.2,788.5,794.3,786.3z"/>
				
					<linearGradient id="SVGID_00000082367454332481028850000015579977494393795005_" gradientUnits="userSpaceOnUse" x1="323.8866" y1="770.8261" x2="-285.8587" y2="238.7558" gradientTransform="matrix(-1 0 0 1 586.686 0)">
					<stop  offset="0" style="stop-color:#230101"/>
					<stop  offset="8.566616e-02" style="stop-color:#2A0504"/>
					<stop  offset="0.2091" style="stop-color:#3D110B"/>
					<stop  offset="0.3555" style="stop-color:#5C2416"/>
					<stop  offset="0.5194" style="stop-color:#883F27"/>
					<stop  offset="0.6959" style="stop-color:#BF613C"/>
					<stop  offset="0.7312" style="stop-color:#CB6840"/>
					<stop  offset="0.8042" style="stop-color:#D67845"/>
					<stop  offset="1" style="stop-color:#F1A152"/>
				</linearGradient>
				<path style="fill:url(#SVGID_00000082367454332481028850000015579977494393795005_);" d="M729.3,700c-21.1-1.9-39-6.9-58.8-13.8
					c-20.3-7.1-37.5,0-58.2,1.7c-22.3,1.8-44.5,0-66.5-3.9c-41.7-7.4-81.6-25-118.7-45c-36.5-19.7-75.9-41.1-107.4-68.2
					c-33.1-28.5-44.2-71.4-61.9-109.7c-18.6-40.3-39.8-79.4-63.7-116.9c0-0.1-0.1-0.1-0.1-0.2c5.3-9.7,10.9-19.1,16.9-28.2
					c4.4,5.7,8.7,11.5,13,17.2c25.5,34.2,48.8,70,69.7,107.2c19,33.9,31.8,73.3,65.1,96c32.6,22.2,67,42.6,102.2,60.5
					c33.4,17,69.4,31.4,106.9,35.7c41.4,4.7,81.5-8.9,119.1,15.2c16.4,10.5,29.4,19.3,49,22.6c22.8,3.9,45.7,7.3,68.5,10.9
					c35.1,5.6,70.2,11.3,105.4,16.8c-2.3,5.1-4.7,10.2-7.2,15.3c-35.7-2.7-71.4-5.3-107.2-8C773.4,703.3,751.3,701.9,729.3,700z"/>
				
					<linearGradient id="SVGID_00000055692369901093848410000016639185468772624786_" gradientUnits="userSpaceOnUse" x1="161.1214" y1="957.3526" x2="-448.6253" y2="425.281" gradientTransform="matrix(-1 0 0 1 586.686 0)">
					<stop  offset="0" style="stop-color:#230101"/>
					<stop  offset="8.566616e-02" style="stop-color:#2A0504"/>
					<stop  offset="0.2091" style="stop-color:#3D110B"/>
					<stop  offset="0.3555" style="stop-color:#5C2416"/>
					<stop  offset="0.5194" style="stop-color:#883F27"/>
					<stop  offset="0.6959" style="stop-color:#BF613C"/>
					<stop  offset="0.7312" style="stop-color:#CB6840"/>
					<stop  offset="0.8042" style="stop-color:#D67845"/>
					<stop  offset="1" style="stop-color:#F1A152"/>
				</linearGradient>
				<path style="fill:url(#SVGID_00000055692369901093848410000016639185468772624786_);" d="M618.1,849.9
					c-23.3,0.7-46.3,3.4-69.2,7.7c-21.8,4-42.9,6-64.9,2.2c-42.9-7.4-85.3-24.5-126.6-38c-9.8-3.2-5.8-18.5,4.3-15.6
					c21.3,6.1,42.7,12.2,63.9,18.7c20.8,6.4,41.7,13.9,63.2,17.5c45.4,7.6,89.8-13.9,134.9-16.8c20.4-1.3,40.9-0.8,61.2,1.5
					c9.1,1,17.7,2.8,26.9,2.1c12-0.9,24.4-1.5,36.4-1.1c19.1,0.5,38.2,7.2,57.2,9.5c0,0,0.1,0,0.1,0c-18.6,16-38.7,30.3-59.9,42.7
					c-18.4-6.7-34.2-19.9-53.3-24.6C668.4,849.8,642.4,849.2,618.1,849.9z"/>
				
					<linearGradient id="SVGID_00000044869883098852081790000009855302834669702548_" gradientUnits="userSpaceOnUse" x1="350.7551" y1="740.0357" x2="-258.992" y2="207.9638" gradientTransform="matrix(-1 0 0 1 586.686 0)">
					<stop  offset="0" style="stop-color:#230101"/>
					<stop  offset="8.566616e-02" style="stop-color:#2A0504"/>
					<stop  offset="0.2091" style="stop-color:#3D110B"/>
					<stop  offset="0.3555" style="stop-color:#5C2416"/>
					<stop  offset="0.5194" style="stop-color:#883F27"/>
					<stop  offset="0.6959" style="stop-color:#BF613C"/>
					<stop  offset="0.7312" style="stop-color:#CB6840"/>
					<stop  offset="0.8042" style="stop-color:#D67845"/>
					<stop  offset="1" style="stop-color:#F1A152"/>
				</linearGradient>
				<path style="fill:url(#SVGID_00000044869883098852081790000009855302834669702548_);" d="M940.6,589.4
					c-11.7,1.1-23.4,2.1-35.2,2c-21-0.2-41.9-2.9-62.6-5.9c-44.1-6.5-87.6-15.9-131.9-21.7c-19.7-2.6-40.1-4.7-59-10.9
					c-22.1-7.3-43.4-17.9-64-28.8c-37.9-20-73.2-44.5-109.1-67.7c-37.5-24.2-75.8-47.6-112.3-73.4c-34.6-24.4-64.1-52.4-92.4-83.8
					c-8.3-9.2-17.7-19.6-27-30.6c4.5-5.1,9.2-10,13.9-14.8c20.4,24.5,44.2,46.6,69.3,65.4c36.1,27.1,77,46.8,116.6,67.8
					c41.8,22.2,83.7,44.4,125.5,66.7c39.5,21,76.3,44.8,117.9,62c42.6,17.6,86.9,30.9,131.4,42.8c22.2,5.9,44.4,11.2,67.3,13.6
					c18,1.9,35.7,1.3,53.5,0.5c-0.2,2.5-0.5,5.1-0.8,7.6C941.4,583.3,941,586.4,940.6,589.4z"/>
				
					<linearGradient id="SVGID_00000086677233095861216090000007331355370477830825_" gradientUnits="userSpaceOnUse" x1="367.9016" y1="720.3854" x2="-241.8439" y2="188.3149" gradientTransform="matrix(-1 0 0 1 586.686 0)">
					<stop  offset="0" style="stop-color:#230101"/>
					<stop  offset="8.566616e-02" style="stop-color:#2A0504"/>
					<stop  offset="0.2091" style="stop-color:#3D110B"/>
					<stop  offset="0.3555" style="stop-color:#5C2416"/>
					<stop  offset="0.5194" style="stop-color:#883F27"/>
					<stop  offset="0.6959" style="stop-color:#BF613C"/>
					<stop  offset="0.7312" style="stop-color:#CB6840"/>
					<stop  offset="0.8042" style="stop-color:#D67845"/>
					<stop  offset="1" style="stop-color:#F1A152"/>
				</linearGradient>
				<path style="fill:url(#SVGID_00000086677233095861216090000007331355370477830825_);" d="M214.1,685.3
					c17.1,18.7,35.1,36.3,54.3,52.8c19.7,16.9,41,31.6,60.4,48.8c4.1,3.6-1.1,8.8-5.4,7c-35.7-15.6-66.3-43.4-94.9-69.4
					c-20.7-18.8-40.8-38.2-60.7-57.8c-6.5-18.5-11.6-37.6-15.4-57.1c3.8,5.4,7.5,10.8,11.4,15.9
					C179.8,646.2,196.5,666.1,214.1,685.3z"/>
			</g>
		</g>
		<g>
			<g>
				<circle class="st13" cx="441.3" cy="382.4" r="55.4"/>
				<path class="st14" d="M441.3,327c0.4,0,0.8,0.1,1.2,0.1c-28.7,0.6-51.8,24.1-51.8,53c0,29.3,23.7,53,53,53
					c28.9,0,52.3-23.1,53-51.8c0,0.4,0.1,0.8,0.1,1.2c0,30.6-24.8,55.4-55.4,55.4c-30.6,0-55.4-24.8-55.4-55.4
					C385.9,351.8,410.7,327,441.3,327z"/>
			</g>
			<g>
				<circle class="st15" cx="350.6" cy="558" r="19.7"/>
				<path class="st16" d="M350.6,538.3c0.1,0,0.3,0,0.4,0c-10.2,0.2-18.4,8.6-18.4,18.8c0,10.4,8.4,18.9,18.9,18.9
					c10.3,0,18.6-8.2,18.8-18.4c0,0.1,0,0.3,0,0.4c0,10.9-8.8,19.7-19.7,19.7s-19.7-8.8-19.7-19.7S339.7,538.3,350.6,538.3z"/>
			</g>
			<g>
				
					<ellipse transform="matrix(0.4849 -0.8746 0.8746 0.4849 -231.3413 1042.566)" class="st17" cx="769.4" cy="717.7" rx="46.5" ry="41.2"/>
				<path class="st18" d="M791.9,677c0.3,0.1,0.5,0.3,0.8,0.5c-18.9-9.9-43.5-1-55.2,20.2c-11.9,21.5-6.1,47.4,12.9,58
					c18.8,10.4,43.4,1.9,55.5-18.9c-0.2,0.3-0.3,0.6-0.4,0.9c-12.4,22.4-38.7,31.7-58.5,20.7c-19.9-11-25.9-38.2-13.5-60.6
					C745.8,675.3,772.1,666,791.9,677z"/>
			</g>
			<g>
				
					<ellipse transform="matrix(0.8751 -0.4839 0.4839 0.8751 -75.9523 453.4171)" class="st19" cx="840.4" cy="373.9" rx="29.4" ry="38.8"/>
				<path class="st20" d="M821.7,339.9c0.2-0.1,0.4-0.2,0.6-0.3c-13.1,7.8-15.9,28-6.1,45.7c9.9,17.9,29,26.4,42.5,18.9
					c13.4-7.4,16.4-27.6,7-45.3c0.1,0.2,0.3,0.5,0.4,0.7c10.4,18.7,7.2,40.3-6.9,48.1c-14.2,7.9-34.1-1-44.5-19.7
					C804.4,369.3,807.5,347.8,821.7,339.9z"/>
			</g>
			<g>
				<g>
					<g>
						
							<ellipse transform="matrix(0.1553 -0.9879 0.9879 0.1553 -406.6611 1203.8159)" class="st21" cx="500.6" cy="839.7" rx="56.7" ry="77.1"/>
					</g>
				</g>
				<path class="st22" d="M424.4,827.7c0.2-1.1,0.4-2.2,0.6-3.2c-2.3,29.8,27.2,58.3,67.7,64.7c40.6,6.4,77.4-11.7,84.3-40.8
					c-0.1,1.1-0.2,2.2-0.4,3.2c-4.9,30.9-42.9,50.6-85,44C449.7,889.1,419.6,858.6,424.4,827.7z"/>
			</g>
			<g>
				<circle class="st23" cx="687.8" cy="540" r="64.4"/>
				<path class="st24" d="M646.9,490.3c-12.1,11.7-19.6,28.1-19.6,46.2c0,35.5,28.8,64.4,64.4,64.4c15.5,0,29.8-5.5,40.9-14.7
					c-11.6,11.2-27.4,18.2-44.8,18.2c-35.5,0-64.4-28.8-64.4-64.4C623.5,520,632.6,502.1,646.9,490.3z"/>
			</g>
			<g>
				<path class="st25" d="M906.5,677.4c-11.8-2.8-15.1-31.5-7.4-64.2c7.7-32.7,23.4-56.9,35.2-54.2c3.8,0.9,6.7,4.5,8.7,10.1
					c-0.3,3.7-0.7,7.4-1.1,11.1c-3.6,31.3-10.7,61.4-20.9,89.8C915.9,675.7,911,678.5,906.5,677.4z"/>
				<path class="st26" d="M934.2,563.9c-11.8-2.8-27.5,21.5-35.2,54.2c-2.6,10.9-3.9,21.4-4.1,30.6c-0.2-10.3,1-22.5,4.1-35.4
					c7.7-32.7,23.4-56.9,35.2-54.2c3.8,0.9,6.7,4.5,8.7,10.1c-0.1,1.3-0.3,2.6-0.4,3.9C940.6,568,937.8,564.8,934.2,563.9z"/>
				<path class="st27" d="M906.9,674.9c4.5,1,9.5-1.5,14.5-6.4c-0.2,0.5-0.3,1-0.5,1.5c-4.9,5.6-9.9,8.4-14.3,7.4
					c-5.4-1.3-8.9-7.9-10.6-17.9C897.9,668.1,901.6,673.8,906.9,674.9z"/>
			</g>
			<g>
				<path class="st28" d="M426.8,156c7,12.1-15.2,38.1-49.6,57.9c-34.4,19.9-68,26.1-75,14c-1.5-2.7-1.7-6-0.5-9.9
					c36.8-28.3,78.4-50.2,123.2-64.3C425.6,154.4,426.3,155.2,426.8,156z"/>
				<path class="st29" d="M301.6,218.1c1.4-1,2.7-2.1,4.1-3.1c-0.6,3.2-0.3,6.1,1.1,8.5c7.2,12.8,40.7,6.9,76-13
					c-1.8,1.1-3.7,2.3-5.6,3.4c-34.4,19.9-68,26.1-75,14C300.6,225.3,300.5,221.9,301.6,218.1z"/>
			</g>
			<g>
				<path class="st30" d="M157.5,536.5c20.8-3.6,42.9,23,49.3,59.5c6.4,36.5-5.3,69.1-26.1,72.7c-4.2,0.7-8.4,0.2-12.5-1.3
					c-13.9-39.4-21.7-81.5-22.5-124.9C149.1,539.3,153.1,537.2,157.5,536.5z"/>
				<path class="st31" d="M180.2,664.5c9.7-1.5,17.6-8.1,23-17.9c-4.8,12.1-12.6,20.4-22.5,22.1c-4.2,0.7-8.4,0.2-12.5-1.3
					c-0.5-1.3-0.9-2.7-1.4-4C171.2,664.7,175.7,665.2,180.2,664.5z"/>
			</g>
			<g>
				
					<ellipse transform="matrix(0.8974 -0.4411 0.4411 0.8974 -290.3011 204.6799)" class="st32" cx="295.1" cy="726.7" rx="24.8" ry="30.9"/>
				<path class="st31" d="M272.8,734.3c7.5,15.3,23.6,22.9,35.9,16.8c7.6-3.7,11.9-11.8,12.4-21c0.5,10.6-3.9,20.1-12.4,24.3
					c-12.3,6-28.3-1.5-35.9-16.8c-2.9-5.8-4.1-12-3.8-17.7C269.3,724.7,270.5,729.6,272.8,734.3z"/>
			</g>
			<g>
				<ellipse transform="matrix(0.5 -0.866 0.866 0.5 100.759 701.3231)" class="st33" cx="657.7" cy="263.4" rx="55.1" ry="78"/>
				<path class="st34" d="M590.2,224.4c8.9-15.4,27-23,48-22.6c-19.3,0.5-35.8,8.2-44.1,22.6c-15.2,26.4,2.7,65.2,40,86.8
					c15.6,9,32.1,13.5,47.1,13.8c-16.1,0.4-34.1-4.1-51-13.8C592.9,289.6,574.9,250.8,590.2,224.4z"/>
			</g>
			<g>
				<circle class="st35" cx="595.5" cy="622.4" r="18.4"/>
				<path class="st14" d="M584.3,607.8c-2.5,3.2-4.1,7.2-4.1,11.5c0,10.2,8.2,18.4,18.4,18.4c4.2,0,8.1-1.4,11.2-3.8
					c-3.4,4.2-8.5,6.8-14.3,6.8c-10.2,0-18.4-8.2-18.4-18.4C577.1,616.4,580,611.2,584.3,607.8z"/>
			</g>
			<g>
				<path class="st36" d="M484.9,148.9c-5.8,0.7-11.3,0.5-15.5-0.4c3.5,0.8,7.8,1,12.5,0.7c-8.9,0.2-16-2-17.8-5.6
					c13.4-2.8,27-4.8,40.8-6.2c0.1,0.2,0.2,0.4,0.3,0.6C506.1,142.5,497,147.4,484.9,148.9z"/>
				<path class="st37" d="M464.1,143.6c1.8,3.7,8.9,5.9,17.8,5.6c-4.7,0.3-9,0-12.5-0.7c-0.1,0-0.1,0-0.2,0
					c-0.4-0.1-0.8-0.2-1.1-0.3c-0.1,0-0.3-0.1-0.4-0.1c-0.3-0.1-0.6-0.2-0.9-0.3c-0.2-0.1-0.3-0.1-0.5-0.2c-0.3-0.1-0.5-0.2-0.8-0.3
					c-0.2-0.1-0.3-0.1-0.5-0.2c-0.2-0.1-0.4-0.2-0.6-0.3c-0.2-0.1-0.3-0.2-0.5-0.3c-0.2-0.1-0.3-0.2-0.5-0.3
					c-0.2-0.1-0.3-0.2-0.5-0.3c-0.1-0.1-0.3-0.2-0.4-0.3c-0.1-0.1-0.3-0.3-0.4-0.4c-0.1-0.1-0.2-0.2-0.3-0.3
					c-0.1-0.2-0.2-0.3-0.3-0.5c-0.1-0.1-0.1-0.2-0.2-0.3C462.3,143.9,463.2,143.7,464.1,143.6z"/>
			</g>
		</g>
	</g>
</g>
</svg>
