<?xml version="1.0" encoding="utf-8"?>
<!-- Generator: Adobe Illustrator 28.0.0, SVG Export Plug-In . SVG Version: 6.00 Build 0)  -->
<svg version="1.1" id="Layer_1" xmlns="http://www.w3.org/2000/svg" xmlns:xlink="http://www.w3.org/1999/xlink" x="0px" y="0px"
	 viewBox="0 0 1080 1080" style="enable-background:new 0 0 1080 1080;" xml:space="preserve">
<style type="text/css">
	.st0{filter:url(#Adobe_OpacityMaskFilter);}
	.st1{mask:url(#SVGID_1_);}
	.st2{fill:url(#SVGID_00000096032711434607772670000015462473963528998056_);}
	.st3{fill:url(#SVGID_00000078729195515611873230000017403635938352024208_);}
	.st4{opacity:0.82;}
	.st5{fill:url(#SVGID_00000120556389768902006110000006932932936321001356_);}
	.st6{fill:url(#SVGID_00000098198893514824996730000009194760376172989087_);}
	.st7{fill:url(#SVGID_00000124844850671553574900000013367741450593988530_);}
	.st8{fill:url(#SVGID_00000094587281607309435650000003151658644756250046_);}
	.st9{fill:url(#SVGID_00000029733788868435030180000016259834669015605156_);}
	.st10{fill:url(#SVGID_00000178201229486757928470000000339178060814978691_);}
	.st11{fill:url(#SVGID_00000172409723983045802440000008260366310074359231_);}
	.st12{fill:url(#SVGID_00000063591510773499057540000000245441913198293933_);}
	.st13{fill:url(#SVGID_00000013908816083747178740000016497595104427521437_);}
	.st14{filter:url(#Adobe_OpacityMaskFilter_00000141451586323770000830000016793269208758446767_);}
	.st15{mask:url(#SVGID_00000033329394511349605230000013518846703243977873_);}
	.st16{fill:url(#SVGID_00000160873681541031998760000013449545550928708510_);}
</style>
<g>
	<g>
		<g>
			<defs>
				<filter id="Adobe_OpacityMaskFilter" filterUnits="userSpaceOnUse" x="214.3" y="215.4" width="649.2" height="649.2">
					<feFlood  style="flood-color:white;flood-opacity:1" result="back"/>
					<feBlend  in="SourceGraphic" in2="back" mode="normal"/>
				</filter>
			</defs>
			<mask maskUnits="userSpaceOnUse" x="214.3" y="215.4" width="649.2" height="649.2" id="SVGID_1_">
				<g class="st0">
					
						<image style="overflow:visible;" width="2723" height="2722" xlink:href="4F0D87119441591A.jpg"  transform="matrix(0.24 0 0 0.24 212.16 213.36)">
					</image>
				</g>
			</mask>
			<g class="st1">
				
					<radialGradient id="SVGID_00000062165207953470804480000011238559334932466328_" cx="538.9319" cy="540" r="324.5833" gradientUnits="userSpaceOnUse">
					<stop  offset="0" style="stop-color:#E89257"/>
					<stop  offset="1" style="stop-color:#E89257;stop-opacity:0"/>
				</radialGradient>
				<circle style="fill:url(#SVGID_00000062165207953470804480000011238559334932466328_);" cx="538.9" cy="540" r="324.6"/>
			</g>
		</g>
		
			<linearGradient id="SVGID_00000115483808217287198360000010056572281635305609_" gradientUnits="userSpaceOnUse" x1="659.1035" y1="754.4658" x2="344.3417" y2="253.4156">
			<stop  offset="0" style="stop-color:#230101"/>
			<stop  offset="9.977139e-02" style="stop-color:#280403"/>
			<stop  offset="0.2191" style="stop-color:#370D08"/>
			<stop  offset="0.3484" style="stop-color:#4F1C11"/>
			<stop  offset="0.4849" style="stop-color:#70301E"/>
			<stop  offset="0.6254" style="stop-color:#9B4B2E"/>
			<stop  offset="0.7586" style="stop-color:#CB6840"/>
			<stop  offset="0.82" style="stop-color:#CE6C41"/>
			<stop  offset="0.8869" style="stop-color:#D77A46"/>
			<stop  offset="0.956" style="stop-color:#E58F4C"/>
			<stop  offset="1" style="stop-color:#F1A152"/>
		</linearGradient>
		<circle style="fill:url(#SVGID_00000115483808217287198360000010056572281635305609_);" cx="530" cy="548.9" r="231.3"/>
		<g class="st4">
			<g>
				
					<linearGradient id="SVGID_00000142148016580018600380000012589874813871591555_" gradientUnits="userSpaceOnUse" x1="729.5571" y1="645.0375" x2="376.8624" y2="337.2722">
					<stop  offset="0" style="stop-color:#230101"/>
					<stop  offset="8.566616e-02" style="stop-color:#2A0504"/>
					<stop  offset="0.2091" style="stop-color:#3D110B"/>
					<stop  offset="0.3555" style="stop-color:#5C2416"/>
					<stop  offset="0.5194" style="stop-color:#883F27"/>
					<stop  offset="0.6959" style="stop-color:#BF613C"/>
					<stop  offset="0.7312" style="stop-color:#CB6840"/>
					<stop  offset="0.8042" style="stop-color:#D67845"/>
					<stop  offset="1" style="stop-color:#F1A152"/>
				</linearGradient>
				<path style="fill:url(#SVGID_00000142148016580018600380000012589874813871591555_);" d="M323.2,479.7
					c32.9-1.6,60.3-18.5,88.3-34.1c29.6-16.5,59.1-33.3,89.4-48.3c14.9-7.4,30-14.3,45.4-20.6c12.6-5.2,25.1-10.4,35.8-18.9
					c8.2-6.6,17.7-17.8,14.6-29.2c-3.8-1.1-7.6-2.2-11.5-3.1c5.1,6.2-6.4,13.4-11.5,17.1c-12,8.5-26.2,13.5-39.9,18.7
					c-16.2,6.1-32.1,12.7-47.8,20c-31.8,14.7-62.4,31.6-93,48.4c-16.3,9-32.7,17.9-49.8,25.2c-8.2,3.5-16.4,6.3-25.3,7.8
					c-0.6,0.1-1.1,0.2-1.7,0.2c-2.2,5.5-4.3,11.1-6.1,16.8C314.4,479.7,318.8,479.9,323.2,479.7z"/>
				
					<linearGradient id="SVGID_00000090277714493355651870000011932883573365519784_" gradientUnits="userSpaceOnUse" x1="744.4127" y1="628.013" x2="391.7182" y2="320.2479">
					<stop  offset="0" style="stop-color:#230101"/>
					<stop  offset="8.566616e-02" style="stop-color:#2A0504"/>
					<stop  offset="0.2091" style="stop-color:#3D110B"/>
					<stop  offset="0.3555" style="stop-color:#5C2416"/>
					<stop  offset="0.5194" style="stop-color:#883F27"/>
					<stop  offset="0.6959" style="stop-color:#BF613C"/>
					<stop  offset="0.7312" style="stop-color:#CB6840"/>
					<stop  offset="0.8042" style="stop-color:#D67845"/>
					<stop  offset="1" style="stop-color:#F1A152"/>
				</linearGradient>
				<path style="fill:url(#SVGID_00000090277714493355651870000011932883573365519784_);" d="M509.3,327.9c15.4-4.6,31.2-7,47.2-7.6
					c-11.1-1.3-22.3-1.7-33.7-1.3c-13.7,3.6-27,8.4-39.3,13.6c-29.8,12.5-57,30.5-83.8,48.5c-13.2,8.9-26.2,18.6-40.2,26.3
					c-5.4,3-11,5.6-16.8,7.6c-0.9,1.3-1.9,2.6-2.8,4c27.4-7.3,51.3-28.8,74.3-43.9C443.8,355.5,475.4,338,509.3,327.9z"/>
				
					<linearGradient id="SVGID_00000094603976557146216850000008272746727176805308_" gradientUnits="userSpaceOnUse" x1="716.6234" y1="659.8589" x2="363.9293" y2="352.0942">
					<stop  offset="0" style="stop-color:#230101"/>
					<stop  offset="8.566616e-02" style="stop-color:#2A0504"/>
					<stop  offset="0.2091" style="stop-color:#3D110B"/>
					<stop  offset="0.3555" style="stop-color:#5C2416"/>
					<stop  offset="0.5194" style="stop-color:#883F27"/>
					<stop  offset="0.6959" style="stop-color:#BF613C"/>
					<stop  offset="0.7312" style="stop-color:#CB6840"/>
					<stop  offset="0.8042" style="stop-color:#D67845"/>
					<stop  offset="1" style="stop-color:#F1A152"/>
				</linearGradient>
				<path style="fill:url(#SVGID_00000094603976557146216850000008272746727176805308_);" d="M540,448.5
					c40.4-19,81.2-37.2,114.5-67.7c5.2-4.8,10.3-9.9,15-15.3c-6.1-4.6-12.5-9-19.1-13c-17.8,20.1-40.8,35.6-63.4,50.1
					c-40.1,25.8-82.4,47.8-124.4,70.2c-43.9,23.4-88,50.5-135.8,65c-9,2.7-18.2,4.9-27.5,6.4c0,1.5-0.1,3.1-0.1,4.6
					c33.3-3.1,65.7-14.3,96.4-27.9C444.8,499.3,491.3,471.4,540,448.5z"/>
				
					<linearGradient id="SVGID_00000015350486388196173560000004696322298672918935_" gradientUnits="userSpaceOnUse" x1="672.7583" y1="710.1277" x2="320.064" y2="402.3629">
					<stop  offset="0" style="stop-color:#230101"/>
					<stop  offset="8.566616e-02" style="stop-color:#2A0504"/>
					<stop  offset="0.2091" style="stop-color:#3D110B"/>
					<stop  offset="0.3555" style="stop-color:#5C2416"/>
					<stop  offset="0.5194" style="stop-color:#883F27"/>
					<stop  offset="0.6959" style="stop-color:#BF613C"/>
					<stop  offset="0.7312" style="stop-color:#CB6840"/>
					<stop  offset="0.8042" style="stop-color:#D67845"/>
					<stop  offset="1" style="stop-color:#F1A152"/>
				</linearGradient>
				<path style="fill:url(#SVGID_00000015350486388196173560000004696322298672918935_);" d="M386,695.4c25.8-3.2,51.8-6.6,77.8-8.1
					c12.8-0.7,25.6-1.1,38.4,0.2c13,1.3,25.8,3.4,38.9,3.5c23.7,0.1,48.7-5.1,70.3-14.9c21.1-9.6,41.3-21.3,61.1-33.2
					c18.2-10.9,35.6-24.3,46.3-43c11.4-19.8,18.2-40.4,34.6-57c2.5-2.5,5-5,7.5-7.5c-0.3-3.9-0.6-7.9-1.1-11.8
					c-0.2-1.8-0.4-3.6-0.7-5.4c-1.1,1.3-2.3,2.7-3.5,3.9c-8,8.2-16.9,15.4-23.9,24.4c-14.4,18.5-20.2,41.8-39.1,57
					c-18.1,14.5-41.4,24-62.3,33.7c-22,10.3-45.5,20.5-69.2,25.9c-25.7,5.9-52.1,1.3-78.1,4.7c-26.4,3.4-52.6,9.6-78.8,14.5
					c-12.9,2.4-25.9,4.5-38.8,6.7c-5.5,0.9-11.3,1.8-16.8,3.5c1.8,2.3,3.7,4.6,5.6,6.9C364.4,696.9,375.7,696.7,386,695.4z"/>
				
					<linearGradient id="SVGID_00000017486825369924337310000001937965798564384436_" gradientUnits="userSpaceOnUse" x1="693.4513" y1="686.4139" x2="340.7574" y2="378.6493">
					<stop  offset="0" style="stop-color:#230101"/>
					<stop  offset="8.566616e-02" style="stop-color:#2A0504"/>
					<stop  offset="0.2091" style="stop-color:#3D110B"/>
					<stop  offset="0.3555" style="stop-color:#5C2416"/>
					<stop  offset="0.5194" style="stop-color:#883F27"/>
					<stop  offset="0.6959" style="stop-color:#BF613C"/>
					<stop  offset="0.7312" style="stop-color:#CB6840"/>
					<stop  offset="0.8042" style="stop-color:#D67845"/>
					<stop  offset="1" style="stop-color:#F1A152"/>
				</linearGradient>
				<path style="fill:url(#SVGID_00000017486825369924337310000001937965798564384436_);" d="M423.6,645.4c12.2-1.1,22.5-4,34-8
					c11.8-4.1,21.7,0,33.7,1c12.9,1.1,25.8,0,38.5-2.3c24.1-4.3,47.2-14.4,68.7-26c21.1-11.4,43.9-23.8,62.1-39.5
					c19.1-16.5,25.6-41.3,35.8-63.5c10.7-23.3,23-45.9,36.8-67.6c0,0,0.1-0.1,0.1-0.1c-3-5.6-6.3-11-9.8-16.3c-2.5,3.3-5,6.6-7.5,10
					c-14.8,19.8-28.2,40.5-40.3,62c-11,19.6-18.4,42.4-37.6,55.5c-18.9,12.8-38.8,24.6-59.1,35c-19.3,9.8-40.2,18.2-61.8,20.7
					c-24,2.7-47.1-5.2-68.9,8.8c-9.5,6.1-17,11.1-28.3,13.1c-13.2,2.2-26.4,4.2-39.6,6.3c-20.3,3.2-40.6,6.5-61,9.7
					c1.3,3,2.7,5.9,4.2,8.8c20.7-1.5,41.3-3.1,62-4.6C398.1,647.4,410.9,646.6,423.6,645.4z"/>
				
					<linearGradient id="SVGID_00000116197299651894126700000017279780762190034574_" gradientUnits="userSpaceOnUse" x1="599.3033" y1="794.3062" x2="246.6085" y2="486.5408">
					<stop  offset="0" style="stop-color:#230101"/>
					<stop  offset="8.566616e-02" style="stop-color:#2A0504"/>
					<stop  offset="0.2091" style="stop-color:#3D110B"/>
					<stop  offset="0.3555" style="stop-color:#5C2416"/>
					<stop  offset="0.5194" style="stop-color:#883F27"/>
					<stop  offset="0.6959" style="stop-color:#BF613C"/>
					<stop  offset="0.7312" style="stop-color:#CB6840"/>
					<stop  offset="0.8042" style="stop-color:#D67845"/>
					<stop  offset="1" style="stop-color:#F1A152"/>
				</linearGradient>
				<path style="fill:url(#SVGID_00000116197299651894126700000017279780762190034574_);" d="M487.9,732.2c13.5,0.4,26.8,2,40,4.4
					c12.6,2.3,24.8,3.5,37.6,1.3c24.8-4.3,49.3-14.2,73.2-22c5.7-1.9,3.3-10.7-2.5-9c-12.3,3.5-24.7,7-37,10.8
					c-12,3.7-24.1,8-36.5,10.1c-26.3,4.4-51.9-8-78-9.7c-11.8-0.7-23.6-0.5-35.4,0.8c-5.3,0.6-10.3,1.6-15.5,1.2
					c-6.9-0.5-14.1-0.8-21.1-0.6c-11,0.3-22.1,4.1-33.1,5.5c0,0,0,0,0,0c10.8,9.3,22.4,17.5,34.7,24.7c10.7-3.9,19.8-11.5,30.8-14.2
					C458.8,732.1,473.9,731.8,487.9,732.2z"/>
				
					<linearGradient id="SVGID_00000106834947070423747050000011684498147556917922_" gradientUnits="userSpaceOnUse" x1="708.9928" y1="668.6039" x2="356.2978" y2="360.8383">
					<stop  offset="0" style="stop-color:#230101"/>
					<stop  offset="8.566616e-02" style="stop-color:#2A0504"/>
					<stop  offset="0.2091" style="stop-color:#3D110B"/>
					<stop  offset="0.3555" style="stop-color:#5C2416"/>
					<stop  offset="0.5194" style="stop-color:#883F27"/>
					<stop  offset="0.6959" style="stop-color:#BF613C"/>
					<stop  offset="0.7312" style="stop-color:#CB6840"/>
					<stop  offset="0.8042" style="stop-color:#D67845"/>
					<stop  offset="1" style="stop-color:#F1A152"/>
				</linearGradient>
				<path style="fill:url(#SVGID_00000106834947070423747050000011684498147556917922_);" d="M301.4,581.5
					c6.8,0.6,13.5,1.2,20.4,1.2c12.1-0.1,24.2-1.7,36.2-3.4c25.5-3.7,50.7-9.2,76.3-12.6c11.4-1.5,23.2-2.7,34.1-6.3
					c12.8-4.2,25.1-10.4,37-16.7c21.9-11.6,42.3-25.7,63.1-39.2c21.7-14,43.8-27.6,64.9-42.5c20-14.1,37.1-30.3,53.5-48.5
					c4.8-5.3,10.3-11.3,15.6-17.7c-2.6-2.9-5.3-5.8-8.1-8.6c-11.8,14.1-25.6,26.9-40.1,37.8c-20.9,15.7-44.5,27-67.5,39.2
					c-24.2,12.9-48.4,25.7-72.6,38.6c-22.9,12.1-44.1,25.9-68.2,35.9c-24.6,10.2-50.3,17.9-76,24.7c-12.8,3.4-25.7,6.5-38.9,7.9
					c-10.4,1.1-20.6,0.8-31,0.3c0.1,1.5,0.3,2.9,0.5,4.4C300.9,578,301.1,579.7,301.4,581.5z"/>
				
					<linearGradient id="SVGID_00000145736673502837246760000008165547013431982258_" gradientUnits="userSpaceOnUse" x1="718.9109" y1="657.2376" x2="366.2168" y2="349.4729">
					<stop  offset="0" style="stop-color:#230101"/>
					<stop  offset="8.566616e-02" style="stop-color:#2A0504"/>
					<stop  offset="0.2091" style="stop-color:#3D110B"/>
					<stop  offset="0.3555" style="stop-color:#5C2416"/>
					<stop  offset="0.5194" style="stop-color:#883F27"/>
					<stop  offset="0.6959" style="stop-color:#BF613C"/>
					<stop  offset="0.7312" style="stop-color:#CB6840"/>
					<stop  offset="0.8042" style="stop-color:#D67845"/>
					<stop  offset="1" style="stop-color:#F1A152"/>
				</linearGradient>
				<path style="fill:url(#SVGID_00000145736673502837246760000008165547013431982258_);" d="M721.6,636.9
					c-9.9,10.8-20.3,21-31.4,30.6c-11.4,9.8-23.7,18.3-35,28.2c-2.4,2.1,0.6,5.1,3.1,4c20.6-9,38.4-25.1,54.9-40.2
					c12-10.9,23.6-22.1,35.1-33.4c3.8-10.7,6.7-21.7,8.9-33c-2.2,3.1-4.4,6.2-6.6,9.2C741.5,614.3,731.8,625.8,721.6,636.9z"/>
			</g>
		</g>
		
			<linearGradient id="SVGID_00000145034553015932932340000009135786136689786806_" gradientUnits="userSpaceOnUse" x1="164.3748" y1="384.3143" x2="713.6035" y2="631.6281">
			<stop  offset="0" style="stop-color:#F1A152"/>
			<stop  offset="0.3595" style="stop-color:#CF6C35"/>
			<stop  offset="0.6753" style="stop-color:#B5441E"/>
			<stop  offset="0.8387" style="stop-color:#AB3516"/>
		</linearGradient>
		<path style="fill:url(#SVGID_00000145034553015932932340000009135786136689786806_);" d="M969.5,392.5
			c-7.4-20.8-32.7-46.2-164.8-25.8c-32.9,5.1-69.4,12.5-108.1,22c-62.7,15.4-131.5,36.2-201.8,61.2c-8.2,2.9-100.5,36.1-195.1,80.5
			C187.2,583.3,71.5,652.2,90.5,705.4c5.5,15.4,20.7,33.3,81.9,33.3c21.5,0,48.6-2.2,82.9-7.5c32.9-5.1,69.4-12.5,108.1-22
			c-9.8-10.2-18.7-21.2-26.5-33c-125.5,29.4-199.8,29.7-210,16.9c-0.4-17.1,57.3-64,173-120.5c55.8-27.2,125-56.7,207.8-86.2
			c82.8-29.5,155-50.3,215.4-64.4c74.8-17.5,131.5-24.6,167.2-24.6c23.6,0,38.1,3.1,42.8,8.3c-0.8,17.5-58.5,64-173,120
			c0.8,7.7,1.2,15.6,1.2,23.5c0,6.2-0.4,12.4-0.9,18.5C872.8,514.6,988.4,445.7,969.5,392.5z"/>
	</g>
	<g>
		<defs>
			
				<filter id="Adobe_OpacityMaskFilter_00000003106146264111667580000001591383299883194508_" filterUnits="userSpaceOnUse" x="0" y="316.6" width="1080" height="454.4">
				<feFlood  style="flood-color:white;flood-opacity:1" result="back"/>
				<feBlend  in="SourceGraphic" in2="back" mode="normal"/>
			</filter>
		</defs>
		
			<mask maskUnits="userSpaceOnUse" x="0" y="316.6" width="1080" height="454.4" id="SVGID_00000163790767900346399910000014858327964352904110_">
			<g style="filter:url(#Adobe_OpacityMaskFilter_00000003106146264111667580000001591383299883194508_);">
				
					<image style="overflow:visible;" width="4518" height="1911" xlink:href="4F0D87119441591E.jpg"  transform="matrix(0.24 0 0 0.24 -2.16 314.4)">
				</image>
			</g>
		</mask>
		<g style="mask:url(#SVGID_00000163790767900346399910000014858327964352904110_);">
			
				<radialGradient id="SVGID_00000039095714657901822070000006911267237593989022_" cx="540.7195" cy="543.5461" r="342.79" gradientTransform="matrix(1.1956 -7.111305e-02 -7.111305e-02 1.0259 -67.8358 24.6615)" gradientUnits="userSpaceOnUse">
				<stop  offset="0" style="stop-color:#E89257;stop-opacity:0"/>
				<stop  offset="0.1513" style="stop-color:#EB9C65;stop-opacity:7.565191e-02"/>
				<stop  offset="0.4227" style="stop-color:#EFA978;stop-opacity:0.2113"/>
				<stop  offset="0.7022" style="stop-color:#F1B183;stop-opacity:0.3511"/>
				<stop  offset="1" style="stop-color:#F2B487;stop-opacity:0.5"/>
			</radialGradient>
			<path style="fill:url(#SVGID_00000039095714657901822070000006911267237593989022_);" d="M1078.3,348.1
				c-23.2-63.7-282.9-27.7-580.3,80.4S-21.5,675.8,1.7,739.5s282.9,27.7,580.3-80.4S1101.5,411.8,1078.3,348.1z"/>
		</g>
	</g>
</g>
</svg>
