<?xml version="1.0" encoding="utf-8"?>
<!-- Generator: Adobe Illustrator 28.1.0, SVG Export Plug-In . SVG Version: 6.00 Build 0)  -->
<svg version="1.1" id="Layer_1" xmlns="http://www.w3.org/2000/svg" xmlns:xlink="http://www.w3.org/1999/xlink" x="0px" y="0px"
	 viewBox="0 0 1080 1080" style="enable-background:new 0 0 1080 1080;" xml:space="preserve">
<style type="text/css">
	.st0{fill-rule:evenodd;clip-rule:evenodd;fill:#251F47;}
	.st1{fill-rule:evenodd;clip-rule:evenodd;fill:#3C3A51;}
	.st2{fill-rule:evenodd;clip-rule:evenodd;fill:#545366;}
	.st3{fill:#85EA73;}
	.st4{fill:#B7EFA3;}
	.st5{fill:#9CEF8D;}
	.st6{fill:#132A4F;}
	.st7{fill:#DDFFCB;}
	.st8{fill:#CDF7BA;}
	.st9{fill-rule:evenodd;clip-rule:evenodd;fill:#CDF7BA;}
	.st10{fill-rule:evenodd;clip-rule:evenodd;fill:#85EA73;}
	.st11{fill-rule:evenodd;clip-rule:evenodd;fill:#9CEF8D;}
	.st12{fill-rule:evenodd;clip-rule:evenodd;fill:#DDFFCB;}
	.st13{fill-rule:evenodd;clip-rule:evenodd;fill:#514C6C;}
	.st14{opacity:0.25;fill-rule:evenodd;clip-rule:evenodd;fill:#BBF1FE;enable-background:new    ;}
	.st15{opacity:0.25;fill-rule:evenodd;clip-rule:evenodd;fill:#FEFEFE;enable-background:new    ;}
</style>
<g id="ufo_00000014608451112808912540000002668927686920432062_">
	<path id="bottom" class="st0" d="M110.5,673.1c345,32.3,512.4,32.3,857.4,0C702.8,810.1,375.2,810.1,110.5,673.1L110.5,673.1z"/>
	<path id="outer_00000070089141880164856730000017141649629739936939_" class="st1" d="M0,605.4c-3.4-50.6,186.7-103.1,539.9-126.6
		l0,0c357.2,23.5,547.5,77.2,539.9,128.4C1059,750.6,8.6,747.6,0,605.4L0,605.4z"/>
	<path id="inner_00000026147709151459021290000004973885005271768236_" class="st2" d="M160.2,568.5
		c-2.1-35.7,131.2-72.6,379.7-89.1l0,0c251.3,16.5,384.9,54.3,379.7,90.3C905,670.4,166.3,668.3,160.2,568.5L160.2,568.5z"/>
	<g id="tiger">
		<polygon class="st3" points="418,496.8 504.2,470.2 447.8,461.2 		"/>
		<polygon class="st4" points="447.8,461.2 504.2,470.2 498,416.1 		"/>
		<polygon class="st5" points="504.2,470.2 519.7,445.5 498,416.1 		"/>
		<polygon class="st5" points="463.7,482.7 499.4,537.9 504.2,470.2 		"/>
		<polygon class="st3" points="519.7,445.5 498,416.1 488,406.2 495.4,375.9 		"/>
		<polygon class="st6" points="519.7,445.5 505.3,404.2 520.6,384.9 		"/>
		<polygon class="st5" points="495.4,375.9 520.6,384.9 505.3,404.2 		"/>
		<polygon class="st7" points="519.7,445.5 557.4,404.2 546,395.1 520.6,384.9 		"/>
		<polygon class="st8" points="495.4,375.9 546,395.1 527.6,374.5 		"/>
		<polygon class="st3" points="519.7,445.5 554.4,466.5 530.2,434 		"/>
		<polygon class="st8" points="557.5,426.4 530.2,434 554.4,466.5 		"/>
		<polygon class="st4" points="577.7,422.2 557.5,426.4 554.4,466.5 		"/>
		<polygon class="st5" points="530.2,434 577.7,422.2 557.4,404.2 		"/>
		<polygon class="st7" points="504.2,470.2 554.4,466.5 519.7,445.5 		"/>
		<polygon class="st7" points="499.4,537.9 566,523.6 504.2,470.2 		"/>
		<polygon class="st7" points="499.4,537.9 566,537.9 557.5,581.1 		"/>
		<polygon class="st3" points="546,395.1 600.8,396.5 577.7,422.2 		"/>
		<polygon class="st7" points="566,523.6 591.3,540.5 608.9,506.2 		"/>
		<polygon class="st3" points="463.7,482.7 427,551.1 499.4,537.9 		"/>
		<polygon class="st4" points="546,395.1 581.9,388.2 600.8,396.5 		"/>
		<polygon class="st4" points="600.8,396.5 611,452.2 577.7,422.2 		"/>
		<path class="st4" d="M417.1,496.8l46.7-14.1L427,551.1C427,551.1,414.5,514.6,417.1,496.8L417.1,496.8z"/>
		<polygon class="st4" points="504.2,470.2 554.4,466.5 566,523.6 		"/>
		<polygon class="st5" points="554.4,466.5 566,523.6 608.9,506.2 		"/>
		<polygon class="st7" points="554.4,466.5 577.7,422.2 581.6,486.4 		"/>
		<path class="st5" d="M577.7,422.2l4,64.2l55-13.1l-20.8-6.7l-4.9-14.3l-21.6-19.4L577.7,422.2L577.7,422.2z"/>
		<polygon class="st4" points="581.6,486.4 608.9,506.2 636.6,473.2 		"/>
		<polygon class="st4" points="611,452.2 629.5,456.6 615.8,466.5 		"/>
		<polygon class="st7" points="615.8,466.5 636.6,473.2 629.5,456.6 		"/>
		<polygon class="st8" points="499.4,537.9 566,523.6 566,537.9 		"/>
		<polygon class="st3" points="566,523.6 566,537.9 591.3,540.5 		"/>
		<polygon class="st4" points="566,537.9 557.5,581.1 599.9,559.5 591.3,540.5 		"/>
		<polygon class="st5" points="557.5,579.8 599.9,559.5 615.8,550.9 608.9,588.1 		"/>
		<polygon class="st7" points="591.3,540.5 597.5,560.7 615.8,550.9 		"/>
		<polygon class="st4" points="591.3,540.5 615.8,550.9 608.9,506.2 		"/>
		<polygon class="st7" points="608.9,506.2 632.2,535.4 615.8,550.9 		"/>
		<polygon class="st8" points="632.2,535.4 608.9,506.2 636.6,473.2 		"/>
		<polygon class="st7" points="600.8,396.5 636.6,415.2 611,452.2 		"/>
		<polyline class="st7" points="636.6,473.2 632.2,535.4 692,509 636.6,473.2 		"/>
		<polyline class="st3" points="611,452.2 630.3,424.3 626.2,446.4 611,452.2 		"/>
		<polygon class="st4" points="632.2,535.4 615.8,550.9 639.9,567.4 		"/>
		<polygon class="st7" points="615.8,550.9 608.9,588.1 639.9,567.4 		"/>
		<polygon class="st8" points="608.9,588.1 557.5,579.8 600.8,610.5 		"/>
		<polygon class="st4" points="557.5,579.8 599.9,651.4 603.6,650.2 600.8,610.5 		"/>
		<polygon class="st5" points="499.4,537.9 583.2,652.7 557.5,579.8 		"/>
		<polygon class="st7" points="557.5,579.8 583.2,652.7 599.9,651.4 		"/>
		<path class="st7" d="M550.7,607.8l-12.1,40.9l22.6,4c0.1,0,0.2,0,0.2,0l21.8-0.1L550.7,607.8L550.7,607.8z"/>
		<polygon class="st4" points="499.4,537.9 427,551.1 552,609.6 		"/>
		<polygon class="st8" points="427,551.1 538.5,648.8 550.7,609 		"/>
		<path class="st3" d="M427,551.1l111.6,97.7C538.5,648.8,452.8,632.8,427,551.1L427,551.1z"/>
		<polygon class="st7" points="600.8,610.5 611,621.6 603.6,650.2 		"/>
		<polygon class="st5" points="632.2,535.4 639.9,567.4 675.4,551.4 		"/>
		<polygon class="st5" points="692,509 697.6,528.5 632.2,535.4 		"/>
		<polygon class="st7" points="632.2,535.4 675.4,551.4 697.6,528.5 		"/>
		<polygon class="st8" points="675.4,551.4 697.6,528.5 706.8,536.6 		"/>
		<polygon class="st4" points="713.3,506.2 692,509 697.6,528.5 		"/>
		<polygon class="st4" points="706.8,536.6 705.4,517.4 697.6,528.5 		"/>
		<polygon class="st4" points="636.6,473.2 692,509 694.2,479 		"/>
		<polygon class="st8" points="694.2,479 706.8,493.5 692,509 		"/>
		<polygon class="st6" points="692,509 706.8,493.5 713.3,506.2 		"/>
		<polygon class="st3" points="636.6,473.2 645.2,464.9 694.2,479 		"/>
		<polygon class="st3" points="645.2,464.9 671.5,452.2 694.2,479 		"/>
		<polygon class="st8" points="629.5,456.6 636.6,473.2 645.2,464.9 		"/>
		<polygon class="st7" points="629.5,456.6 637.3,447.9 645.2,464.9 		"/>
		<polygon class="st8" points="645.2,464.9 637.3,447.9 671.5,452.2 		"/>
		<polygon class="st4" points="630.3,424.3 626.2,446.4 637.3,447.9 		"/>
		<polygon class="st5" points="637.3,447.9 642.6,436.6 671.5,452.2 		"/>
		<polygon class="st6" points="611,452.2 628.2,434.7 637.3,447.9 629.5,456.6 		"/>
		<polygon class="st7" points="630.3,424.3 642.6,436.6 637.3,447.9 		"/>
		<polygon class="st3" points="630.3,424.3 653.2,423.1 642.6,436.6 		"/>
		<polygon class="st8" points="636.6,415.2 630.3,424.3 653.2,423.1 		"/>
		<polygon class="st4" points="642.6,436.6 653.2,423.1 671.5,452.2 		"/>
		<polygon class="st5" points="653.2,423.1 671.5,452.2 668.1,434 		"/>
		<polygon class="st8" points="639.6,567.4 651.3,579 675.1,551.6 		"/>
		<polyline class="st4" points="675.1,551.6 651.3,579 688.2,575 675.1,551.6 		"/>
		<polygon class="st5" points="692.5,543.3 675.1,551.6 688.1,575 		"/>
		<polygon class="st7" points="692.5,543.3 701.5,557.6 688.1,575 		"/>
		<polyline class="st6" points="581.6,486.4 580.5,517.7 599.9,523.8 586.6,507.5 581.6,486.4 		"/>
		<polygon class="st6" points="608.9,588.1 583.2,568 564.8,565.3 560.1,540.5 547.9,528.5 554.4,555.1 557.5,579.8 585.3,579 		"/>
		<polygon class="st6" points="492.4,420.9 540.5,485.5 540.5,516 529.6,483.8 		"/>
		<polygon class="st6" points="465.9,444.9 457.5,452.5 495.4,511.2 		"/>
		<polygon class="st6" points="620.6,406.4 600.8,396.5 588.6,437.7 		"/>
		<polygon class="st6" points="580.3,464.9 579.1,445.5 602.2,481.5 581.6,486.4 		"/>
		<polygon class="st6" points="609.1,630 543.8,592.8 606.4,640.8 		"/>
		<polygon class="st6" points="568.4,652.8 550.7,607.8 583.2,652.8 		"/>
		<polyline class="st6" points="418,496.8 452,567.4 429.1,483.5 		"/>
		<g id="Alien">
			<polygon class="st4" points="579.8,396.8 580.4,407.6 604.5,372 			"/>
			<polygon class="st4" points="620.9,364.7 622.1,356.7 606.6,376 			"/>
			<polygon class="st8" points="596,410.5 581.6,407.8 607.2,375.9 			"/>
			<polyline class="st5" points="583.7,406 610.7,371.6 604.5,370.3 580.4,407.4 			"/>
			<polygon class="st3" points="622.3,356.7 604.5,370.3 606.8,375.9 			"/>
			<polygon class="st3" points="620.9,364.7 641.7,368.4 622.1,356.7 			"/>
			<polygon class="st7" points="622.1,356.7 642.5,361.8 644.7,371.1 			"/>
			<polygon class="st8" points="651,367.5 642.5,361.8 645.6,375.3 			"/>
			<polygon class="st3" points="654.2,381.1 651,367.5 658.1,367.4 			"/>
			<polygon class="st5" points="645.6,375.3 660.9,385.6 653.8,388.4 			"/>
			<polyline class="st4" points="587,401.7 580.3,407.6 595.8,410.8 			"/>
			<polygon class="st8" points="658.1,367.4 663.7,373.4 654.2,381.1 			"/>
			<polygon class="st4" points="651,367.5 645.6,375.3 654.2,381.1 			"/>
			<polygon class="st3" points="645.6,375.3 646.2,382.6 653.8,388.4 			"/>
			<polygon class="st3" points="660.9,385.6 663.7,373.4 654.2,381.1 			"/>
		</g>
		<polyline class="st7" points="427,551.1 395,521.6 417.1,496.8 		"/>
		<polygon class="st4" points="470.9,589.6 508.2,643.7 429.5,589.6 		"/>
		<polygon class="st5" points="427,551.1 429.5,589.6 470.9,589.6 		"/>
		<polygon class="st9" points="395,521.6 427,551.1 429.5,589.6 		"/>
		<polygon class="st10" points="395,521.6 367.6,545.1 429.5,589.6 		"/>
		<polygon class="st9" points="367.6,545.1 342.2,567.4 508.2,643.7 		"/>
		<polygon class="st11" points="342.2,567.4 311.7,607.3 416.7,601.6 		"/>
		<polygon class="st10" points="311.7,607.3 416.7,601.6 412.3,635.2 		"/>
		<polygon class="st12" points="416.7,601.6 412.3,635.2 508.2,643.7 		"/>
		<polyline class="st6" points="355.7,555.6 465.8,607.8 367.6,545.1 		"/>
		<polygon class="st6" points="523.4,627.3 475.3,562.8 475.3,532.3 486.3,564.5 		"/>
		<polygon class="st5" points="508.2,643.7 538.5,648.8 496.6,626.9 		"/>
	</g>
	<path id="outer" class="st13" d="M866.7,515.8c3.6,9.7,6.8,19.8,9.6,30.2l-0.6,0.3c1.8,3,2.7,6.1,2.1,9.1
		c-12.8,89.7-670.4,87.8-675.9-0.9c-0.3-2.7,0.6-5.5,2.1-8.5c2.8-10.4,6-20.5,9.6-30.2C71.6,541.3-2.1,573.7,0,605.4
		c8.5,142.1,1059,145.2,1079.7,1.8C1084.6,575,1011,541.8,866.7,515.8z"/>
	<path id="inner" class="st13" d="M872.1,531.2c0.1,0.2,0.1,0.4,0.2,0.7c0.7,2.1,1.3,4.3,2,6.5c0.7,2.4,1.4,4.9,2,7.3l-0.6,0.3
		c1.8,3,2.7,6.1,2.1,9.1c-0.1,0.7-0.2,1.3-0.4,2c-0.1,0.4-0.2,0.8-0.4,1.2c-0.1,0.3-0.2,0.5-0.3,0.8c-0.1,0.4-0.3,0.8-0.5,1.2
		c-0.1,0.3-0.2,0.5-0.3,0.8c-0.2,0.4-0.4,0.8-0.6,1.2c-0.1,0.3-0.3,0.5-0.4,0.8c-0.2,0.4-0.5,0.7-0.7,1.1c-0.2,0.3-0.4,0.6-0.6,0.8
		c-0.2,0.3-0.5,0.7-0.8,1c-0.2,0.3-0.5,0.6-0.7,0.9c-0.2,0.3-0.5,0.6-0.8,0.9c-0.3,0.3-0.6,0.7-1,1c-0.2,0.2-0.5,0.5-0.7,0.7
		c-0.4,0.4-0.8,0.8-1.2,1.2c-0.2,0.2-0.4,0.4-0.6,0.6c-0.5,0.5-1.1,0.9-1.6,1.4c-0.1,0.1-0.3,0.2-0.4,0.3c-0.7,0.5-1.4,1.1-2.2,1.6
		c0,0,0,0-0.1,0c-34.6,24.8-127.5,39.7-233.1,44.9c-0.6,0-1.2,0.1-1.8,0.1c-1.1,0.1-2.2,0.1-3.3,0.2c-190.7,9-420.2-13.1-423.5-65.4
		c-0.3-2.7,0.6-5.5,2.1-8.5c1.3-5,2.8-9.9,4.3-14.7c-32.6,12-48.9,24.9-48.2,37.5c6.1,99.7,744.8,101.9,759.5,1.2
		C921.5,556.8,905.3,543.6,872.1,531.2z"/>
	<path id="dome" class="st14" d="M202,554.5c-0.3-2.7,0.6-5.5,2.1-8.5l0,0c86-322.4,586.2-322.4,672.2,0l-0.6,0.3
		c1.8,3,2.7,6.1,2.1,9.1C865.1,645.1,207.5,643.2,202,554.5L202,554.5z"/>
	<path id="light" class="st15" d="M840.7,543.8c0.3-2.1-0.3-4.6-1.5-6.7l0,0c-34.2-138.5-155-203.5-270.3-194.6l0,0
		c101.9,7.6,199.5,72.3,229.4,194.6l0,0c1.2,2.1,1.8,4.6,1.8,6.7c-2.1,34.5-114.4,52.5-232.1,54.3l0,0
		C699.1,600.2,838.5,581.9,840.7,543.8L840.7,543.8z"/>
</g>
</svg>
