<?xml version="1.0" encoding="utf-8"?>
<!-- Generator: Adobe Illustrator 28.1.0, SVG Export Plug-In . SVG Version: 6.00 Build 0)  -->
<svg version="1.1" id="Layer_1" xmlns="http://www.w3.org/2000/svg" xmlns:xlink="http://www.w3.org/1999/xlink" x="0px" y="0px"
	 viewBox="0 0 1080 471.6" style="enable-background:new 0 0 1080 471.6;" xml:space="preserve">
<style type="text/css">
	.st0{fill-rule:evenodd;clip-rule:evenodd;fill:#251F47;}
	.st1{fill-rule:evenodd;clip-rule:evenodd;fill:#3C3A51;}
	.st2{fill-rule:evenodd;clip-rule:evenodd;fill:#545366;}
	.st3{fill:#85EA73;}
	.st4{fill:#B7EFA3;}
	.st5{fill:#9CEF8D;}
	.st6{fill:#132A4F;}
	.st7{fill:#DDFFCB;}
	.st8{fill:#CDF7BA;}
	.st9{fill-rule:evenodd;clip-rule:evenodd;fill:#CDF7BA;}
	.st10{fill-rule:evenodd;clip-rule:evenodd;fill:#85EA73;}
	.st11{fill-rule:evenodd;clip-rule:evenodd;fill:#9CEF8D;}
	.st12{fill-rule:evenodd;clip-rule:evenodd;fill:#DDFFCB;}
	.st13{fill-rule:evenodd;clip-rule:evenodd;fill:#514C6C;}
	.st14{opacity:0.25;fill-rule:evenodd;clip-rule:evenodd;fill:#BBF1FE;enable-background:new    ;}
	.st15{opacity:0.25;fill-rule:evenodd;clip-rule:evenodd;fill:#FEFEFE;enable-background:new    ;}
</style>
<g id="ufo_00000014608451112808912540000002668927686920432062_">
	<path id="bottom" class="st0" d="M110.5,368.9c345,32.3,512.4,32.3,857.4,0C702.8,505.9,375.2,505.9,110.5,368.9L110.5,368.9z"/>
	<path id="outer_00000070089141880164856730000017141649629739936939_" class="st1" d="M0,301.2c-3.4-50.6,186.7-103.1,539.9-126.6
		l0,0c357.2,23.5,547.5,77.2,539.9,128.4C1059,446.4,8.6,443.4,0,301.2L0,301.2z"/>
	<path id="inner_00000026147709151459021290000004973885005271768236_" class="st2" d="M160.2,264.3
		c-2.1-35.7,131.2-72.6,379.7-89.1l0,0c251.3,16.5,384.9,54.3,379.7,90.3C905,366.2,166.3,364.1,160.2,264.3L160.2,264.3z"/>
	<g id="tiger">
		<polygon class="st3" points="418,192.6 504.2,166 447.8,157 		"/>
		<polygon class="st4" points="447.8,157 504.2,166 498,111.9 		"/>
		<polygon class="st5" points="504.2,166 519.7,141.3 498,111.9 		"/>
		<polygon class="st5" points="463.7,178.5 499.4,233.7 504.2,166 		"/>
		<polygon class="st3" points="519.7,141.3 498,111.9 488,102 495.4,71.7 		"/>
		<polygon class="st6" points="519.7,141.3 505.3,100 520.6,80.7 		"/>
		<polygon class="st5" points="495.4,71.7 520.6,80.7 505.3,100 		"/>
		<polygon class="st7" points="519.7,141.3 557.4,100 546,90.9 520.6,80.7 		"/>
		<polygon class="st8" points="495.4,71.7 546,90.9 527.6,70.3 		"/>
		<polygon class="st3" points="519.7,141.3 554.4,162.3 530.2,129.8 		"/>
		<polygon class="st8" points="557.5,122.2 530.2,129.8 554.4,162.3 		"/>
		<polygon class="st4" points="577.7,118 557.5,122.2 554.4,162.3 		"/>
		<polygon class="st5" points="530.2,129.8 577.7,118 557.4,100 		"/>
		<polygon class="st7" points="504.2,166 554.4,162.3 519.7,141.3 		"/>
		<polygon class="st7" points="499.4,233.7 566,219.4 504.2,166 		"/>
		<polygon class="st7" points="499.4,233.7 566,233.7 557.5,276.9 		"/>
		<polygon class="st3" points="546,90.9 600.8,92.3 577.7,118 		"/>
		<polygon class="st7" points="566,219.4 591.3,236.3 608.9,202 		"/>
		<polygon class="st3" points="463.7,178.5 427,246.9 499.4,233.7 		"/>
		<polygon class="st4" points="546,90.9 581.9,84 600.8,92.3 		"/>
		<polygon class="st4" points="600.8,92.3 611,148 577.7,118 		"/>
		<path class="st4" d="M417.1,192.6l46.7-14.1L427,246.9C427,246.9,414.5,210.4,417.1,192.6L417.1,192.6z"/>
		<polygon class="st4" points="504.2,166 554.4,162.3 566,219.4 		"/>
		<polygon class="st5" points="554.4,162.3 566,219.4 608.9,202 		"/>
		<polygon class="st7" points="554.4,162.3 577.7,118 581.6,182.2 		"/>
		<path class="st5" d="M577.7,118l4,64.2l55-13.1l-20.8-6.7l-4.9-14.3l-21.6-19.4L577.7,118L577.7,118z"/>
		<polygon class="st4" points="581.6,182.2 608.9,202 636.6,169 		"/>
		<polygon class="st4" points="611,148 629.5,152.4 615.8,162.3 		"/>
		<polygon class="st7" points="615.8,162.3 636.6,169 629.5,152.4 		"/>
		<polygon class="st8" points="499.4,233.7 566,219.4 566,233.7 		"/>
		<polygon class="st3" points="566,219.4 566,233.7 591.3,236.3 		"/>
		<polygon class="st4" points="566,233.7 557.5,276.9 599.9,255.3 591.3,236.3 		"/>
		<polygon class="st5" points="557.5,275.6 599.9,255.3 615.8,246.7 608.9,283.9 		"/>
		<polygon class="st7" points="591.3,236.3 597.5,256.5 615.8,246.7 		"/>
		<polygon class="st4" points="591.3,236.3 615.8,246.7 608.9,202 		"/>
		<polygon class="st7" points="608.9,202 632.2,231.2 615.8,246.7 		"/>
		<polygon class="st8" points="632.2,231.2 608.9,202 636.6,169 		"/>
		<polygon class="st7" points="600.8,92.3 636.6,111 611,148 		"/>
		<polyline class="st7" points="636.6,169 632.2,231.2 692,204.8 636.6,169 		"/>
		<polyline class="st3" points="611,148 630.3,120.1 626.2,142.2 611,148 		"/>
		<polygon class="st4" points="632.2,231.2 615.8,246.7 639.9,263.2 		"/>
		<polygon class="st7" points="615.8,246.7 608.9,283.9 639.9,263.2 		"/>
		<polygon class="st8" points="608.9,283.9 557.5,275.6 600.8,306.3 		"/>
		<polygon class="st4" points="557.5,275.6 599.9,347.2 603.6,346 600.8,306.3 		"/>
		<polygon class="st5" points="499.4,233.7 583.2,348.5 557.5,275.6 		"/>
		<polygon class="st7" points="557.5,275.6 583.2,348.5 599.9,347.2 		"/>
		<path class="st7" d="M550.7,303.6l-12.1,40.9l22.6,4c0.1,0,0.2,0,0.2,0l21.8-0.1L550.7,303.6L550.7,303.6z"/>
		<polygon class="st4" points="499.4,233.7 427,246.9 552,305.4 		"/>
		<polygon class="st8" points="427,246.9 538.5,344.6 550.7,304.8 		"/>
		<path class="st3" d="M427,246.9l111.6,97.7C538.5,344.6,452.8,328.6,427,246.9L427,246.9z"/>
		<polygon class="st7" points="600.8,306.3 611,317.4 603.6,346 		"/>
		<polygon class="st5" points="632.2,231.2 639.9,263.2 675.4,247.2 		"/>
		<polygon class="st5" points="692,204.8 697.6,224.3 632.2,231.2 		"/>
		<polygon class="st7" points="632.2,231.2 675.4,247.2 697.6,224.3 		"/>
		<polygon class="st8" points="675.4,247.2 697.6,224.3 706.8,232.4 		"/>
		<polygon class="st4" points="713.3,202 692,204.8 697.6,224.3 		"/>
		<polygon class="st4" points="706.8,232.4 705.4,213.2 697.6,224.3 		"/>
		<polygon class="st4" points="636.6,169 692,204.8 694.2,174.8 		"/>
		<polygon class="st8" points="694.2,174.8 706.8,189.3 692,204.8 		"/>
		<polygon class="st6" points="692,204.8 706.8,189.3 713.3,202 		"/>
		<polygon class="st3" points="636.6,169 645.2,160.7 694.2,174.8 		"/>
		<polygon class="st3" points="645.2,160.7 671.5,148 694.2,174.8 		"/>
		<polygon class="st8" points="629.5,152.4 636.6,169 645.2,160.7 		"/>
		<polygon class="st7" points="629.5,152.4 637.3,143.7 645.2,160.7 		"/>
		<polygon class="st8" points="645.2,160.7 637.3,143.7 671.5,148 		"/>
		<polygon class="st4" points="630.3,120.1 626.2,142.2 637.3,143.7 		"/>
		<polygon class="st5" points="637.3,143.7 642.6,132.4 671.5,148 		"/>
		<polygon class="st6" points="611,148 628.2,130.5 637.3,143.7 629.5,152.4 		"/>
		<polygon class="st7" points="630.3,120.1 642.6,132.4 637.3,143.7 		"/>
		<polygon class="st3" points="630.3,120.1 653.2,118.9 642.6,132.4 		"/>
		<polygon class="st8" points="636.6,111 630.3,120.1 653.2,118.9 		"/>
		<polygon class="st4" points="642.6,132.4 653.2,118.9 671.5,148 		"/>
		<polygon class="st5" points="653.2,118.9 671.5,148 668.1,129.8 		"/>
		<polygon class="st8" points="639.6,263.2 651.3,274.8 675.1,247.4 		"/>
		<polyline class="st4" points="675.1,247.4 651.3,274.8 688.2,270.8 675.1,247.4 		"/>
		<polygon class="st5" points="692.5,239.1 675.1,247.4 688.1,270.8 		"/>
		<polygon class="st7" points="692.5,239.1 701.5,253.4 688.1,270.8 		"/>
		<polyline class="st6" points="581.6,182.2 580.5,213.5 599.9,219.6 586.6,203.3 581.6,182.2 		"/>
		<polygon class="st6" points="608.9,283.9 583.2,263.8 564.8,261.1 560.1,236.3 547.9,224.3 554.4,250.9 557.5,275.6 585.3,274.8 
					"/>
		<polygon class="st6" points="492.4,116.7 540.5,181.3 540.5,211.8 529.6,179.6 		"/>
		<polygon class="st6" points="465.9,140.7 457.5,148.3 495.4,207 		"/>
		<polygon class="st6" points="620.6,102.2 600.8,92.3 588.6,133.5 		"/>
		<polygon class="st6" points="580.3,160.7 579.1,141.3 602.2,177.3 581.6,182.2 		"/>
		<polygon class="st6" points="609.1,325.8 543.8,288.6 606.4,336.6 		"/>
		<polygon class="st6" points="568.4,348.6 550.7,303.6 583.2,348.6 		"/>
		<polyline class="st6" points="418,192.6 452,263.2 429.1,179.3 		"/>
		<g id="Alien">
			<polygon class="st4" points="579.8,92.6 580.4,103.4 604.5,67.8 			"/>
			<polygon class="st4" points="620.9,60.5 622.1,52.5 606.6,71.8 			"/>
			<polygon class="st8" points="596,106.3 581.6,103.6 607.2,71.7 			"/>
			<polyline class="st5" points="583.7,101.8 610.7,67.4 604.5,66.1 580.4,103.2 			"/>
			<polygon class="st3" points="622.3,52.5 604.5,66.1 606.8,71.7 			"/>
			<polygon class="st3" points="620.9,60.5 641.7,64.2 622.1,52.5 			"/>
			<polygon class="st7" points="622.1,52.5 642.5,57.6 644.7,66.9 			"/>
			<polygon class="st8" points="651,63.3 642.5,57.6 645.6,71.1 			"/>
			<polygon class="st3" points="654.2,76.9 651,63.3 658.1,63.2 			"/>
			<polygon class="st5" points="645.6,71.1 660.9,81.4 653.8,84.2 			"/>
			<polyline class="st4" points="587,97.5 580.3,103.4 595.8,106.6 			"/>
			<polygon class="st8" points="658.1,63.2 663.7,69.2 654.2,76.9 			"/>
			<polygon class="st4" points="651,63.3 645.6,71.1 654.2,76.9 			"/>
			<polygon class="st3" points="645.6,71.1 646.2,78.4 653.8,84.2 			"/>
			<polygon class="st3" points="660.9,81.4 663.7,69.2 654.2,76.9 			"/>
		</g>
		<polyline class="st7" points="427,246.9 395,217.4 417.1,192.6 		"/>
		<polygon class="st4" points="470.9,285.4 508.2,339.5 429.5,285.4 		"/>
		<polygon class="st5" points="427,246.9 429.5,285.4 470.9,285.4 		"/>
		<polygon class="st9" points="395,217.4 427,246.9 429.5,285.4 		"/>
		<polygon class="st10" points="395,217.4 367.6,240.9 429.5,285.4 		"/>
		<polygon class="st9" points="367.6,240.9 342.2,263.2 508.2,339.5 		"/>
		<polygon class="st11" points="342.2,263.2 311.7,303.1 416.7,297.4 		"/>
		<polygon class="st10" points="311.7,303.1 416.7,297.4 412.3,331 		"/>
		<polygon class="st12" points="416.7,297.4 412.3,331 508.2,339.5 		"/>
		<polyline class="st6" points="355.7,251.4 465.8,303.6 367.6,240.9 		"/>
		<polygon class="st6" points="523.4,323.1 475.3,258.6 475.3,228.1 486.3,260.3 		"/>
		<polygon class="st5" points="508.2,339.5 538.5,344.6 496.6,322.7 		"/>
	</g>
	<path id="outer" class="st13" d="M866.7,211.6c3.6,9.7,6.8,19.8,9.6,30.2l-0.6,0.3c1.8,3,2.7,6.1,2.1,9.1
		c-12.8,89.7-670.4,87.8-675.9-0.9c-0.3-2.7,0.6-5.5,2.1-8.5c2.8-10.4,6-20.5,9.6-30.2C71.6,237.1-2.1,269.5,0,301.2
		c8.5,142.1,1059,145.2,1079.7,1.8C1084.6,270.8,1011,237.6,866.7,211.6z"/>
	<path id="inner" class="st13" d="M872.1,227c0.1,0.2,0.1,0.4,0.2,0.7c0.7,2.1,1.3,4.3,2,6.5c0.7,2.4,1.4,4.9,2,7.3l-0.6,0.3
		c1.8,3,2.7,6.1,2.1,9.1c-0.1,0.7-0.2,1.3-0.4,2c-0.1,0.4-0.2,0.8-0.4,1.2c-0.1,0.3-0.2,0.5-0.3,0.8c-0.1,0.4-0.3,0.8-0.5,1.2
		c-0.1,0.3-0.2,0.5-0.3,0.8c-0.2,0.4-0.4,0.8-0.6,1.2c-0.1,0.3-0.3,0.5-0.4,0.8c-0.2,0.4-0.5,0.7-0.7,1.1c-0.2,0.3-0.4,0.6-0.6,0.8
		c-0.2,0.3-0.5,0.7-0.8,1c-0.2,0.3-0.5,0.6-0.7,0.9c-0.2,0.3-0.5,0.6-0.8,0.9c-0.3,0.3-0.6,0.7-1,1c-0.2,0.2-0.5,0.5-0.7,0.7
		c-0.4,0.4-0.8,0.8-1.2,1.2c-0.2,0.2-0.4,0.4-0.6,0.6c-0.5,0.5-1.1,0.9-1.6,1.4c-0.1,0.1-0.3,0.2-0.4,0.3c-0.7,0.5-1.4,1.1-2.2,1.6
		c0,0,0,0-0.1,0c-34.6,24.8-127.5,39.7-233.1,44.9c-0.6,0-1.2,0.1-1.8,0.1c-1.1,0.1-2.2,0.1-3.3,0.2c-190.7,9-420.2-13.1-423.5-65.4
		c-0.3-2.7,0.6-5.5,2.1-8.5c1.3-5,2.8-9.9,4.3-14.7c-32.6,12-48.9,24.9-48.2,37.5c6.1,99.7,744.8,101.9,759.5,1.2
		C921.5,252.6,905.3,239.4,872.1,227z"/>
	<path id="dome" class="st14" d="M202,250.3c-0.3-2.7,0.6-5.5,2.1-8.5l0,0c86-322.4,586.2-322.4,672.2,0l-0.6,0.3
		c1.8,3,2.7,6.1,2.1,9.1C865.1,340.9,207.5,339,202,250.3L202,250.3z"/>
	<path id="light" class="st15" d="M840.7,239.6c0.3-2.1-0.3-4.6-1.5-6.7l0,0C805,94.4,684.2,29.4,568.9,38.3l0,0
		c101.9,7.6,199.5,72.3,229.4,194.6l0,0c1.2,2.1,1.8,4.6,1.8,6.7c-2.1,34.5-114.4,52.5-232.1,54.3l0,0
		C699.1,296,838.5,277.7,840.7,239.6L840.7,239.6z"/>
</g>
</svg>
